<svg width="576" height="192" viewBox="0 0 576 192" fill="none" xmlns="http://www.w3.org/2000/svg">
    <path d="M10.667 45.219V58.277C6.307 62.604 2.685 67.596 0 73.074V45.219H10.667Z" fill="#C6C5D0" />
    <path d="M101.333 45.219V73.077C100.554 71.488 99.7 69.944 98.766 68.443C97.957 67.131 97.087 65.856 96.165 64.614C94.5 62.375 92.662 60.255 90.666 58.277V45.219H101.333Z" fill="#B8C3FF" />
    <path d="M192 45.219V96C192 107.747 188.018 118.57 181.333 127.172C172.062 139.106 157.591 146.779 141.331 146.779C140.44 146.779 139.554 146.757 138.676 146.716H138.675C138.673 146.716 138.673 146.716 138.672 146.716H138.668C123.594 145.931 110.264 138.541 101.499 127.385C101.445 127.314 101.39 127.24 101.335 127.171C100.43 126.007 99.5743 124.796 98.7693 123.558C97.7603 121.994 96.8363 120.374 96.0013 118.701C93.9613 114.619 92.4543 110.218 91.5723 105.601H102.554C103.035 107.506 103.656 109.359 104.409 111.144C105.28 113.218 106.326 115.204 107.528 117.082C114.611 128.148 127.111 135.493 141.347 135.493C163.431 135.493 181.333 117.816 181.333 96V45.219H192Z" fill="#C6C5D0" />
    <path d="M15.504 90.357H90.26C89.781 87.044 88.885 83.86 87.621 80.86C81.607 66.56 67.327 56.502 50.667 56.502C28.574 56.502 10.666 74.188 10.666 96C10.666 117.816 28.574 135.493 50.667 135.493C67.326 135.493 81.607 125.439 87.621 111.139C88.439 113.755 89.46 116.285 90.667 118.702C91.472 120.315 92.365 121.887 93.333 123.397C93.333 123.397 93.333 123.397 93.333 123.399C92.5 124.698 91.612 125.955 90.667 127.172C88.275 130.249 85.54 133.043 82.513 135.493C73.813 142.556 62.731 146.779 50.668 146.779C38.602 146.779 27.522 142.556 18.821 135.493C15.795 133.043 13.059 130.249 10.667 127.172C3.982 118.57 0 107.747 0 96C0 84.249 3.982 73.432 10.667 64.828C13.059 61.747 15.795 58.953 18.821 56.502C27.521 49.445 38.602 45.219 50.668 45.219C62.731 45.219 73.813 49.445 82.513 56.502C85.54 58.954 88.275 61.748 90.667 64.828C91.612 66.045 92.5 67.301 93.333 68.6C93.333 68.601 93.333 68.601 93.333 68.601C94.302 70.113 95.195 71.68 96 73.297C98.616 78.532 100.355 84.284 101.021 90.357C101.229 92.208 101.334 94.091 101.334 96C101.334 97.909 101.229 99.791 101.021 101.645H15.504V90.357Z" fill="#C6C5D0" />
    <path d="M361.391 146.779C364.704 146.779 367.391 144.093 367.391 140.779C367.391 137.465 364.704 134.779 361.391 134.779C358.077 134.779 355.391 137.465 355.391 140.779C355.391 144.093 358.077 146.779 361.391 146.779Z" fill="#B8C3FF" />
    <path d="M237.219 181.334H250.277C254.604 185.697 259.596 189.313 265.073 192H237.219V181.334Z" fill="#C6C5D0" />
    <path d="M237.219 90.667H265.075C263.488 91.446 261.944 92.298 260.443 93.234C259.13 94.043 257.856 94.913 256.614 95.835C254.375 97.501 252.255 99.338 250.277 101.337H237.219V90.667Z" fill="#C6C5D0" />
    <path d="M237.219 0H288C299.747 0 310.57 3.983 319.172 10.667C331.106 19.938 338.779 34.409 338.779 50.669C338.779 51.56 338.757 52.446 338.716 53.325V53.326C338.716 53.328 338.716 53.328 338.716 53.329V53.333C337.931 68.407 330.541 81.737 319.386 90.503C319.314 90.557 319.24 90.611 319.171 90.667C318.007 91.572 316.796 92.428 315.558 93.233C313.994 94.242 312.374 95.166 310.701 96.001C306.619 98.041 302.218 99.549 297.601 100.427V89.446C299.506 88.965 301.359 88.344 303.144 87.591C305.218 86.72 307.204 85.674 309.082 84.472C320.148 77.389 327.493 64.889 327.493 50.652C327.493 28.569 309.816 10.667 288 10.667H237.219V0Z" fill="#C6C5D0" />
    <path d="M282.357 176.499V101.736C279.044 102.218 275.86 103.116 272.86 104.376C258.56 110.393 248.502 124.674 248.502 141.333C248.502 163.422 266.187 181.334 288 181.334C309.816 181.334 327.493 163.422 327.493 141.333C327.493 124.674 317.439 110.393 303.139 104.376C305.755 103.564 308.285 102.54 310.702 101.337C312.315 100.527 313.887 99.639 315.397 98.668C315.397 98.668 315.397 98.668 315.399 98.668C316.698 99.497 317.955 100.393 319.172 101.337C322.249 103.727 325.043 106.46 327.493 109.486C334.556 118.191 338.78 129.273 338.78 141.333C338.78 153.398 334.556 164.479 327.493 173.176C325.043 176.203 322.249 178.946 319.172 181.334C310.57 188.018 299.747 192 288 192C276.249 192 265.431 188.018 256.826 181.334C253.747 178.945 250.953 176.203 248.502 173.176C241.445 164.481 237.219 153.399 237.219 141.333C237.219 129.273 241.445 118.191 248.502 109.486C250.954 106.46 253.748 103.724 256.828 101.337C258.045 100.393 259.302 99.497 260.599 98.668C260.601 98.668 260.601 98.668 260.601 98.668C262.113 97.699 263.68 96.807 265.297 96C270.531 93.384 276.284 91.644 282.357 90.979C284.208 90.771 286.091 90.666 288 90.666C289.909 90.666 291.791 90.771 293.645 90.979V176.499H282.357Z" fill="#C6C5D0" />
    <path d="M565.333 146.779V133.722C569.697 129.394 573.312 124.406 576 118.927V146.779H565.333Z" fill="#C6C5D0" />
    <path d="M474.663 146.779V118.925C475.441 120.507 476.301 122.056 477.233 123.556C478.039 124.869 478.912 126.144 479.835 127.388C481.5 129.627 483.338 131.742 485.336 133.722V146.781H474.663V146.779Z" fill="#C6C5D0" />
    <path d="M384 146.779V96C384 84.25 387.982 73.433 394.667 64.828C403.941 52.894 418.406 45.22 434.669 45.22C435.56 45.22 436.442 45.24 437.328 45.287H437.329C437.331 45.287 437.331 45.287 437.332 45.287H437.336C452.407 46.072 465.736 53.458 474.499 64.618C474.557 64.687 474.614 64.756 474.663 64.828C475.575 65.992 476.427 67.2 477.232 68.442C478.237 70.003 479.162 71.625 480 73.299C482.04 77.384 483.548 81.782 484.426 86.399H473.447C472.968 84.496 472.344 82.641 471.592 80.856C470.722 78.781 469.675 76.8 468.472 74.921C461.387 63.854 448.89 56.503 434.655 56.503C412.575 56.503 394.67 74.187 394.67 96V146.779H384Z" fill="#C6C5D0" />
    <path d="M560.499 101.643H485.737C486.218 104.956 487.115 108.141 488.376 111.137C494.392 125.44 508.673 135.494 525.332 135.494C547.422 135.494 565.333 117.814 565.333 96C565.333 74.187 547.422 56.503 525.332 56.503C508.673 56.503 494.392 66.559 488.376 80.86C487.564 78.241 486.54 75.714 485.336 73.299C484.528 71.681 483.638 70.114 482.668 68.603C482.668 68.603 482.668 68.603 482.668 68.601C483.497 67.303 484.392 66.046 485.336 64.828C487.726 61.747 490.46 58.953 493.487 56.503C502.191 49.446 513.272 45.219 525.332 45.219C537.398 45.219 548.479 49.446 557.176 56.503C560.203 58.953 562.947 61.747 565.333 64.828C572.017 73.433 576 84.25 576 96C576 107.748 572.017 118.57 565.333 127.174C562.945 130.249 560.203 133.043 557.176 135.494C548.481 142.557 537.4 146.779 525.332 146.779C513.272 146.779 502.191 142.556 493.487 135.494C490.46 133.043 487.724 130.249 485.336 127.172C484.392 125.954 483.497 124.698 482.668 123.401C482.668 123.399 482.668 123.399 482.668 123.399C481.698 121.887 480.809 120.317 480 118.704C477.385 113.469 475.644 107.721 474.979 101.643C474.771 99.792 474.663 97.91 474.663 96C474.663 94.09 474.771 92.209 474.979 90.355H560.499V101.643Z" fill="#C6C5D0" />
</svg>
