<svg width="76" height="40" viewBox="0 0 76 40" fill="none" xmlns="http://www.w3.org/2000/svg">
    <g clip-path="url(#clip0_51114_4671)">
        <path fill-rule="evenodd" clip-rule="evenodd" d="M4.201 0V5.145C2.483 6.847 1.058 8.814 0 10.97V0H4.201Z" fill="#B8C3FF" />
        <path fill-rule="evenodd" clip-rule="evenodd" d="M39.908 0V10.971C39.601 10.346 39.263 9.738 38.898 9.148C38.578 8.63 38.236 8.128 37.874 7.64C37.217 6.757 36.492 5.924 35.708 5.145V0H39.908Z" fill="#B8C3FF" />
        <path fill-rule="evenodd" clip-rule="evenodd" d="M75.615 0V20C75.615 24.627 74.047 28.889 71.416 32.277C67.763 36.975 62.064 40 55.662 40C55.31 40 54.963 39.99 54.615 39.975H54.613C48.675 39.666 43.424 36.754 39.974 32.362C39.951 32.333 39.929 32.305 39.908 32.278C39.553 31.819 39.215 31.344 38.898 30.852C38.5 30.239 38.136 29.6 37.808 28.94C37.004 27.333 36.412 25.6 36.063 23.78H40.389C40.578 24.532 40.825 25.262 41.119 25.966C41.461 26.782 41.875 27.564 42.349 28.302C45.136 32.663 50.058 35.558 55.667 35.558C64.362 35.558 71.415 28.591 71.415 20.001V0H75.615Z" fill="#B8C3FF" />
        <path fill-rule="evenodd" clip-rule="evenodd" d="M6.104 17.779H35.548C35.358 16.472 35.006 15.218 34.508 14.037C32.138 8.406 26.514 4.444 19.953 4.444C11.253 4.444 4.201 11.41 4.201 20C4.201 28.59 11.254 35.557 19.953 35.557C26.514 35.557 32.139 31.594 34.508 25.963C34.828 26.994 35.232 27.988 35.708 28.94C36.023 29.579 36.375 30.196 36.758 30.792C36.43 31.304 36.078 31.798 35.708 32.278C34.766 33.491 33.687 34.589 32.496 35.557C29.068 38.336 24.705 40 19.953 40C15.202 40 10.839 38.336 7.411 35.557C6.219 34.588 5.141 33.491 4.201 32.278C1.567 28.889 0 24.627 0 20C0 15.373 1.567 11.111 4.201 7.724C5.142 6.512 6.22 5.41 7.411 4.444C10.839 1.665 15.202 0 19.953 0C24.705 0 29.068 1.665 32.495 4.444C33.687 5.41 34.766 6.511 35.707 7.724C36.077 8.202 36.429 8.698 36.757 9.208C37.138 9.804 37.488 10.421 37.807 11.059C38.837 13.12 39.52 15.385 39.786 17.779C39.866 18.506 39.907 19.248 39.907 20C39.907 20.752 39.866 21.494 39.786 22.223H6.104V17.779Z" fill="#B8C3FF" />
    </g>
    <defs>
        <clipPath id="clip0_51114_4671">
            <rect width="75.616" height="40" fill="white" />
        </clipPath>
    </defs>
</svg>