<svg width="69" height="27" viewBox="0 0 69 27" fill="none" xmlns="http://www.w3.org/2000/svg">
    <g clip-path="url(#clip0_51681_5961)">
        <path fill-rule="evenodd" clip-rule="evenodd" d="M1.77783 0V2.17732C1.05078 2.89759 0.447736 3.73 0 4.6424V0H1.77783Z" fill="#C6C5D0" />
        <path fill-rule="evenodd" clip-rule="evenodd" d="M16.8887 0V4.64283C16.7588 4.37833 16.6157 4.12103 16.4613 3.87135C16.3259 3.65214 16.1811 3.43969 16.0279 3.23318C15.7499 2.8595 15.4431 2.50698 15.1113 2.17732V0H16.8887Z" fill="#C6C5D0" />
        <path fill-rule="evenodd" clip-rule="evenodd" d="M31.9996 0V8.46382C31.9996 10.4219 31.336 12.2256 30.2226 13.6593C28.6767 15.6475 26.2649 16.9276 23.5557 16.9276C23.4067 16.9276 23.2598 16.9234 23.1126 16.9171H23.1117C20.5988 16.7863 18.3766 15.554 16.9166 13.6953C16.9069 13.683 16.8976 13.6712 16.8887 13.6598C16.7385 13.4655 16.5954 13.2645 16.4613 13.0563C16.2929 12.7969 16.1388 12.5265 16 12.2471C15.6598 11.5671 15.4092 10.8337 15.2615 10.0635H17.0923C17.1722 10.3817 17.2768 10.6906 17.4012 10.9886C17.5459 11.3339 17.7211 11.6648 17.9217 11.9771C19.1011 13.8227 21.1841 15.0478 23.5578 15.0478C27.2374 15.0478 30.2222 12.0995 30.2222 8.46424V0H31.9996Z" fill="#C6C5D0" />
        <path fill-rule="evenodd" clip-rule="evenodd" d="M2.58316 7.52391H15.0436C14.9632 6.9708 14.8142 6.44012 14.6035 5.94033C13.6005 3.55734 11.2205 1.88066 8.44393 1.88066C4.76217 1.88066 1.77783 4.82861 1.77783 8.46382C1.77783 12.099 4.76259 15.0474 8.44393 15.0474C11.2205 15.0474 13.6009 13.3703 14.6035 10.9873C14.7389 11.4236 14.9099 11.8443 15.1113 12.2471C15.2446 12.5176 15.3936 12.7787 15.5557 13.0309C15.4168 13.2476 15.2679 13.4566 15.1113 13.6598C14.7127 14.1731 14.256 14.6377 13.752 15.0474C12.3013 16.2234 10.4549 16.9276 8.44393 16.9276C6.43335 16.9276 4.58697 16.2234 3.13627 15.0474C2.63182 14.6373 2.17562 14.1731 1.77783 13.6598C0.66314 12.2256 0 10.4219 0 8.46382C0 6.50571 0.66314 4.70207 1.77783 3.26873C2.17605 2.75582 2.63225 2.28946 3.13627 1.88066C4.58697 0.704613 6.43335 0 8.44393 0C10.4549 0 12.3013 0.704613 13.7516 1.88066C14.256 2.28946 14.7127 2.7554 15.1109 3.26873C15.2675 3.47101 15.4164 3.68091 15.5552 3.89674C15.7165 4.14896 15.8646 4.41007 15.9996 4.68007C16.4355 5.55226 16.7245 6.51079 16.8371 7.52391C16.8709 7.83157 16.8883 8.14558 16.8883 8.46382C16.8883 8.78206 16.8709 9.09606 16.8371 9.40457H2.58316V7.52391Z" fill="#C6C5D0" />
    </g>
    <path d="M36.446 21.566C36.25 21.734 36.0073 21.8647 35.718 21.958C35.4287 22.042 35.13 22.084 34.822 22.084C34.0753 22.084 33.4967 21.8833 33.086 21.482C32.6753 21.0807 32.47 20.5067 32.47 19.76V15.686H31.21V14.58H32.47V12.956H33.814V14.58H35.942V15.686H33.814V19.704C33.814 20.1053 33.912 20.4133 34.108 20.628C34.3133 20.8427 34.6027 20.95 34.976 20.95C35.3867 20.95 35.7367 20.8333 36.026 20.6L36.446 21.566ZM44.6808 18.332C44.6808 18.4347 44.6714 18.57 44.6528 18.738H38.6328C38.7168 19.3913 39.0014 19.9187 39.4868 20.32C39.9814 20.712 40.5928 20.908 41.3208 20.908C42.2074 20.908 42.9214 20.6093 43.4628 20.012L44.2048 20.88C43.8688 21.272 43.4488 21.5707 42.9448 21.776C42.4501 21.9813 41.8948 22.084 41.2788 22.084C40.4948 22.084 39.7994 21.9253 39.1928 21.608C38.5861 21.2813 38.1148 20.8287 37.7788 20.25C37.4521 19.6713 37.2888 19.018 37.2888 18.29C37.2888 17.5713 37.4474 16.9227 37.7648 16.344C38.0914 15.7653 38.5348 15.3173 39.0948 15C39.6641 14.6733 40.3034 14.51 41.0128 14.51C41.7221 14.51 42.3521 14.6733 42.9028 15C43.4628 15.3173 43.8968 15.7653 44.2048 16.344C44.5221 16.9227 44.6808 17.5853 44.6808 18.332ZM41.0128 15.644C40.3688 15.644 39.8274 15.84 39.3888 16.232C38.9594 16.624 38.7074 17.1373 38.6328 17.772H43.3928C43.3181 17.1467 43.0614 16.638 42.6228 16.246C42.1934 15.8447 41.6568 15.644 41.0128 15.644ZM49.194 14.51C50.2206 14.51 51.0046 14.762 51.546 15.266C52.0966 15.77 52.372 16.5213 52.372 17.52V22H51.098V21.02C50.874 21.3653 50.552 21.6313 50.132 21.818C49.7213 21.9953 49.2313 22.084 48.662 22.084C47.8313 22.084 47.164 21.8833 46.66 21.482C46.1653 21.0807 45.918 20.5533 45.918 19.9C45.918 19.2467 46.156 18.724 46.632 18.332C47.108 17.9307 47.864 17.73 48.9 17.73H51.028V17.464C51.028 16.8853 50.86 16.442 50.524 16.134C50.188 15.826 49.6933 15.672 49.04 15.672C48.6013 15.672 48.172 15.7467 47.752 15.896C47.332 16.036 46.9773 16.2273 46.688 16.47L46.128 15.462C46.5106 15.154 46.968 14.9207 47.5 14.762C48.032 14.594 48.5966 14.51 49.194 14.51ZM48.886 21.048C49.3993 21.048 49.8426 20.936 50.216 20.712C50.5893 20.4787 50.86 20.152 51.028 19.732V18.696H48.956C47.8173 18.696 47.248 19.0787 47.248 19.844C47.248 20.2173 47.3926 20.5113 47.682 20.726C47.9713 20.9407 48.3726 21.048 48.886 21.048ZM64.2912 14.51C65.2245 14.51 65.9618 14.7807 66.5032 15.322C67.0538 15.8633 67.3292 16.666 67.3292 17.73V22H65.9852V17.884C65.9852 17.1653 65.8172 16.624 65.4812 16.26C65.1545 15.896 64.6832 15.714 64.0672 15.714C63.3858 15.714 62.8445 15.9287 62.4432 16.358C62.0418 16.778 61.8412 17.3847 61.8412 18.178V22H60.4972V17.884C60.4972 17.1653 60.3292 16.624 59.9932 16.26C59.6665 15.896 59.1952 15.714 58.5792 15.714C57.8978 15.714 57.3565 15.9287 56.9552 16.358C56.5538 16.778 56.3532 17.3847 56.3532 18.178V22H55.0092V14.58H56.2972V15.686C56.5678 15.3033 56.9225 15.014 57.3612 14.818C57.7998 14.6127 58.2992 14.51 58.8592 14.51C59.4378 14.51 59.9512 14.6267 60.3992 14.86C60.8472 15.0933 61.1925 15.434 61.4352 15.882C61.7152 15.4527 62.1025 15.1167 62.5972 14.874C63.1012 14.6313 63.6658 14.51 64.2912 14.51Z" fill="#C6C5D0" />
    <defs>
        <clipPath id="clip0_51681_5961">
            <rect width="32" height="16.9276" fill="white" />
        </clipPath>
    </defs>
</svg>