<svg width="762" height="690" viewBox="0 0 762 690" fill="none" xmlns="http://www.w3.org/2000/svg">
    <g clip-path="url(#clip0_64_382)">
        <rect width="762" height="690" fill="#1B1B1F" />
        <path d="M761 690H1C0.734784 690 0.480429 689.895 0.292892 689.707C0.105356 689.52 0 689.265 0 689C0 688.735 0.105356 688.48 0.292892 688.293C0.480429 688.105 0.734784 688 1 688H761C761.265 688 761.52 688.105 761.707 688.293C761.895 688.48 762 688.735 762 689C762 689.265 761.895 689.52 761.707 689.707C761.52 689.895 761.265 690 761 690Z" fill="#CCCCCC" />
        <path d="M686.932 657H635.068C635.05 657 635.033 656.895 635.02 656.707C635.007 656.52 635 656.265 635 656C635 655.735 635.007 655.48 635.02 655.293C635.033 655.105 635.05 655 635.068 655H686.932C686.95 655 686.967 655.105 686.98 655.293C686.993 655.48 687 655.735 687 656C687 656.265 686.993 656.52 686.98 656.707C686.967 656.895 686.95 657 686.932 657Z" fill="#CCCCCC" />
        <path d="M436 233H0V235H436V233Z" fill="#E6E6E6" />
        <path d="M436 163H0V165H436V163Z" fill="#E6E6E6" />
        <path d="M436 94H0V96H436V94Z" fill="#E6E6E6" />
        <path d="M366 0H364V312H366V0Z" fill="#E6E6E6" />
        <path d="M241 0H239V312H241V0Z" fill="#E6E6E6" />
        <path d="M173 0H171V312H173V0Z" fill="#E6E6E6" />
        <path d="M304 0H302V312H304V0Z" fill="#E6E6E6" />
        <path d="M105 0H103V312H105V0Z" fill="#E6E6E6" />
        <g clip-path="url(#clip1_64_382)">
            <path fill-rule="evenodd" clip-rule="evenodd" d="M116.667 94V111.963C110.669 117.905 105.694 124.773 102 132.3V94H116.667Z" fill="#E4E4E4" />
            <path fill-rule="evenodd" clip-rule="evenodd" d="M241.332 94V132.303C240.26 130.121 239.08 127.999 237.806 125.939C236.688 124.13 235.494 122.377 234.23 120.674C231.937 117.591 229.405 114.683 226.668 111.963V94H241.332Z" fill="#E4E4E4" />
            <path fill-rule="evenodd" clip-rule="evenodd" d="M365.996 94V163.826C365.996 179.981 360.522 194.861 351.336 206.689C338.583 223.092 318.686 233.653 296.334 233.653C295.105 233.653 293.894 233.618 292.679 233.566H292.672C271.94 232.487 253.607 222.32 241.562 206.986C241.482 206.885 241.405 206.787 241.332 206.693C240.092 205.09 238.912 203.432 237.805 201.714C236.416 199.574 235.145 197.343 234 195.039C231.193 189.428 229.126 183.378 227.908 177.024H243.011C243.671 179.649 244.533 182.198 245.56 184.656C246.754 187.505 248.199 190.235 249.854 192.811C259.584 208.037 276.769 218.145 296.352 218.145C326.709 218.145 351.333 193.82 351.333 163.83V94H365.996Z" fill="#E4E4E4" />
            <path fill-rule="evenodd" clip-rule="evenodd" d="M123.311 156.072H226.11C225.446 151.509 224.217 147.131 222.479 143.008C214.204 123.348 194.569 109.515 171.662 109.515C141.288 109.515 116.667 133.836 116.667 163.826C116.667 193.817 141.291 218.141 171.662 218.141C194.569 218.141 214.208 204.305 222.479 184.645C223.596 188.245 225.006 191.715 226.668 195.039C227.768 197.27 228.997 199.424 230.334 201.505C229.189 203.292 227.96 205.017 226.668 206.693C223.379 210.928 219.612 214.761 215.454 218.141C203.486 227.843 188.253 233.653 171.662 233.653C155.075 233.653 139.842 227.843 127.874 218.141C123.713 214.758 119.949 210.928 116.667 206.693C107.471 194.861 102 179.981 102 163.826C102 147.672 107.471 132.792 116.667 120.967C119.952 116.736 123.716 112.888 127.874 109.515C139.842 99.8131 155.075 94 171.662 94C188.253 94 203.486 99.8131 215.451 109.515C219.612 112.888 223.379 116.732 226.665 120.967C227.957 122.636 229.185 124.368 230.331 126.148C231.661 128.229 232.883 130.383 233.997 132.611C237.593 139.806 239.977 147.714 240.906 156.072C241.185 158.61 241.328 161.201 241.328 163.826C241.328 166.452 241.185 169.043 240.906 171.588H123.311V156.072Z" fill="#E4E4E4" />
        </g>
        <path d="M582.116 495.747C582.754 494.423 583.092 492.974 583.109 491.504C583.126 490.034 582.82 488.578 582.213 487.239C581.607 485.9 580.714 484.711 579.598 483.754C578.481 482.797 577.169 482.097 575.753 481.703L573.528 446.037L558.692 457.206L563.079 489.362C562.574 491.785 562.975 494.309 564.207 496.456C565.439 498.603 567.415 500.223 569.762 501.01C572.108 501.798 574.662 501.697 576.939 500.727C579.216 499.757 581.058 497.985 582.116 495.747V495.747Z" fill="#FFB8B8" />
        <path d="M646.79 635.943L658.575 639.322L677.217 595.474L659.824 590.487L646.79 635.943Z" fill="#FFB8B8" />
        <path d="M678.165 656.781L641.127 646.161L645.23 631.851L667.958 638.368C671.753 639.456 674.961 642.007 676.875 645.461C678.789 648.914 679.253 652.986 678.165 656.781V656.781V656.781Z" fill="#2F2E41" />
        <path d="M627.907 676.225L615.647 676.224L609.814 628.936L627.909 628.937L627.907 676.225Z" fill="#FFB8B8" />
        <path d="M606.889 672.721H630.533V687.608H592.002C592.002 685.653 592.388 683.717 593.136 681.911C593.884 680.104 594.98 678.463 596.363 677.081C597.745 675.699 599.386 674.602 601.192 673.854C602.999 673.106 604.934 672.721 606.889 672.721Z" fill="#2F2E41" />
        <path d="M594 483.426C594 483.426 587 511.426 599 568.426L608 666.426L631 667.426L628 561.426L636 517.426L656 578.426L649 621.426L666 629.426L685 570.426C685 570.426 683 488.426 675 478.426L594 483.426Z" fill="#2F2E41" />
        <path d="M623.043 323.928C636.608 323.928 647.604 312.931 647.604 299.367C647.604 285.802 636.608 274.806 623.043 274.806C609.479 274.806 598.482 285.802 598.482 299.367C598.482 312.931 609.479 323.928 623.043 323.928Z" fill="#FFB8B8" />
        <path d="M610 336.665C610 336.665 608.5 339.964 626.5 337.926C644.5 335.888 648.5 329.926 648.5 329.926L680 468.104L678 480.331L592 485.426V468.104L607 376.403L610 336.665Z" fill="#D5BAFF" />
        <path d="M617.363 481.933L590.1 481.418L590.013 481.038C586.493 462.091 586.833 442.628 591.012 423.815C596.518 399.434 584.007 366.367 578.372 353.282C577.709 351.726 577.63 349.982 578.15 348.372C578.67 346.762 579.755 345.394 581.203 344.52L600.501 332.942C601.814 332.154 603.293 331.684 604.82 331.569C606.347 331.455 607.88 331.698 609.296 332.281C610.713 332.864 611.973 333.77 612.977 334.926C613.981 336.082 614.701 337.457 615.079 338.941L618.453 352.178C633.993 368.888 632.903 403.161 629.245 428.996C626.63 446.791 622.696 464.366 617.476 481.578L617.363 481.933Z" fill="#2F2E41" />
        <path d="M586.5 341.926L584.142 343.539C578.815 347.161 574.814 352.421 572.746 358.522C571.546 362.079 570.628 365.725 570 369.426C568 381.426 559 432.426 559 432.426L555 482.426L577 477.426L587 419.426L597 383.426L586.5 341.926Z" fill="#2F2E41" />
        <path d="M664.737 482.171L664.53 481.596C663.1 477.632 629.726 384.261 645.489 351.336L643.944 335.895C643.779 334.24 644.027 332.571 644.666 331.037C645.305 329.502 646.316 328.15 647.607 327.103C648.897 326.055 650.428 325.345 652.061 325.035C653.695 324.726 655.379 324.827 656.964 325.329L681.082 332.976C682.077 333.286 682.946 333.91 683.558 334.755C684.17 335.599 684.492 336.619 684.477 337.662C684.377 346.538 683.887 369.16 681.496 387.49C678.54 410.151 688.393 466.77 688.492 467.34L688.552 467.676L664.737 482.171Z" fill="#2F2E41" />
        <path d="M654.108 457.345C654.136 455.875 654.487 454.429 655.134 453.11C655.782 451.79 656.711 450.628 657.856 449.706C659.001 448.785 660.335 448.125 661.762 447.774C663.19 447.423 664.677 447.39 666.119 447.676L684.181 416.842L692.39 433.499L673.98 460.226C673.338 462.616 671.843 464.688 669.775 466.05C667.708 467.411 665.214 467.967 662.764 467.612C660.315 467.257 658.081 466.015 656.485 464.123C654.89 462.231 654.044 459.819 654.108 457.345V457.345Z" fill="#FFB8B8" />
        <path d="M677.5 332.926L678.793 333.224C680.393 333.593 681.875 334.355 683.107 335.439C684.339 336.524 685.282 337.899 685.851 339.438L708 399.426L682 456.426L672.5 432.926L684.5 406.926L663 379.426L677.5 332.926Z" fill="#2F2E41" />
        <path d="M647.938 302.762C649.349 299.121 650.405 295.352 651.091 291.508C651.773 287.641 651.318 283.661 649.782 280.048C648.131 276.888 645.822 274.12 643.01 271.929C641.082 270.29 639.059 268.767 636.95 267.368C631.008 263.427 629.714 267.013 622.587 266.207C615.459 265.4 607.472 263.35 601.759 267.604C598.064 270.411 595.29 274.256 593.792 278.647C592.294 283.039 592.14 287.777 593.35 292.257C594.942 297.676 593.675 299.463 598.592 302.392C598.589 297.514 600.445 292.819 603.781 289.261C607.188 285.691 611.798 283.51 616.72 283.141C620.51 282.866 624.285 283.675 627.996 284.479C631.597 285.258 635.295 286.078 638.347 288.106C643.405 291.467 645.777 297.469 647.862 303.1" fill="#2F2E41" />
        <path d="M130.738 482.077C119.793 466.505 115.967 444.854 125.185 428.201C132.979 447.377 147.304 463.178 165.626 472.809C172.706 476.497 180.964 479.862 184.103 487.202C186.057 491.769 185.533 497.093 183.759 501.732C181.986 506.372 179.062 510.467 176.169 514.505L175.992 515.733C158.593 508.014 141.684 497.65 130.738 482.077Z" fill="#F0F0F0" />
        <path d="M125.554 428.353C125.676 444.108 130.759 459.423 140.081 472.124C142.039 474.894 144.422 477.338 147.141 479.366C149.854 481.256 153.023 482.385 156.32 482.636C159.389 482.932 162.562 482.879 165.506 483.915C167.005 484.468 168.37 485.332 169.512 486.449C170.654 487.567 171.547 488.913 172.132 490.4C173.686 494.066 173.83 498.073 173.835 501.996C173.84 506.351 173.776 510.875 175.732 514.882C175.969 515.368 175.202 515.707 174.965 515.222C171.562 508.251 174.078 500.257 172.127 492.968C171.216 489.567 169.275 486.419 165.937 484.983C163.018 483.728 159.745 483.78 156.635 483.507C153.415 483.31 150.293 482.327 147.541 480.645C144.727 478.762 142.254 476.414 140.228 473.701C135.57 467.667 131.889 460.937 129.321 453.76C126.345 445.584 124.789 436.96 124.72 428.26C124.716 427.721 125.55 427.818 125.554 428.353H125.554Z" fill="white" />
        <path d="M136.84 468.204C134.497 469.479 131.777 469.879 129.166 469.334C126.555 468.788 124.222 467.332 122.586 465.225C122.256 464.798 122.905 464.265 123.235 464.693C124.755 466.658 126.928 468.014 129.36 468.517C131.793 469.02 134.325 468.637 136.5 467.437C136.973 467.177 137.311 467.946 136.84 468.204Z" fill="white" />
        <path d="M154.75 482.689C156.342 477.474 155.909 471.85 153.538 466.939C153.302 466.453 154.07 466.113 154.305 466.599C156.762 471.714 157.201 477.567 155.533 482.991C155.374 483.508 154.592 483.204 154.75 482.689V482.689Z" fill="white" />
        <path d="M127.456 445.65C128.466 445.346 129.384 444.796 130.128 444.049C130.872 443.302 131.42 442.382 131.72 441.372C131.873 440.853 132.655 441.158 132.503 441.674C132.166 442.788 131.56 443.804 130.74 444.631C129.919 445.457 128.909 446.071 127.796 446.417C127.694 446.459 127.58 446.46 127.478 446.42C127.375 446.38 127.291 446.303 127.243 446.204C127.198 446.102 127.196 445.987 127.236 445.883C127.276 445.78 127.355 445.696 127.456 445.65V445.65Z" fill="white" />
        <path d="M188.523 416.308C188.437 416.635 188.351 416.961 188.269 417.294C187.134 421.69 186.357 426.171 185.948 430.693C185.91 431.042 185.878 431.397 185.851 431.746C184.98 442.651 186.141 453.623 189.276 464.105C190.527 468.274 192.094 472.342 193.962 476.274C196.543 481.704 199.773 487.386 200.391 493.181C200.462 493.785 200.496 494.393 200.492 495.001L177.499 515.843C177.423 515.864 177.352 515.89 177.276 515.912L176.396 516.786C176.285 516.59 176.175 516.384 176.064 516.188C176 516.075 175.94 515.957 175.875 515.843C175.834 515.766 175.793 515.689 175.751 515.621C175.737 515.596 175.724 515.57 175.714 515.55C175.673 515.482 175.641 515.415 175.604 515.354C174.983 514.205 174.37 513.051 173.764 511.89C173.759 511.885 173.759 511.885 173.759 511.875C169.161 503.017 165.263 493.698 162.902 484.084C162.831 483.795 162.755 483.5 162.695 483.202C161.655 478.862 160.971 474.444 160.651 469.993C160.484 467.556 160.44 465.111 160.519 462.669C160.737 456.359 161.947 450.122 164.103 444.188C168.402 432.359 176.437 422.036 187.661 416.707C187.949 416.571 188.231 416.439 188.523 416.308Z" fill="#F0F0F0" />
        <path d="M188.74 416.661C179.352 429.313 174.189 444.602 173.985 460.356C173.881 463.746 174.312 467.132 175.262 470.389C176.29 473.531 178.141 476.341 180.623 478.526C182.895 480.61 185.461 482.478 187.187 485.078C188.051 486.422 188.621 487.933 188.86 489.513C189.099 491.093 189.001 492.705 188.573 494.245C187.607 498.108 185.31 501.394 182.951 504.528C180.333 508.009 177.559 511.583 176.708 515.96C176.605 516.491 175.788 516.3 175.891 515.77C177.371 508.155 184.193 503.287 187.023 496.292C188.344 493.028 188.689 489.346 186.888 486.19C185.313 483.43 182.669 481.501 180.35 479.411C177.898 477.315 175.997 474.65 174.812 471.65C173.699 468.453 173.139 465.089 173.154 461.703C173.068 454.081 174.18 446.492 176.451 439.215C178.997 430.895 182.947 423.072 188.131 416.084C188.452 415.652 189.059 416.231 188.74 416.661H188.74Z" fill="white" />
        <path d="M173.75 455.28C171.112 454.886 168.699 453.568 166.943 451.56C165.186 449.553 164.201 446.986 164.162 444.319C164.162 444.21 164.203 444.105 164.278 444.026C164.354 443.948 164.456 443.901 164.565 443.897C164.674 443.892 164.78 443.93 164.861 444.003C164.942 444.075 164.992 444.176 165.001 444.285C165.032 446.769 165.95 449.159 167.589 451.026C169.229 452.892 171.481 454.111 173.94 454.462C174.475 454.539 174.281 455.356 173.75 455.28V455.28Z" fill="white" />
        <path d="M179.333 477.617C183.744 474.41 186.784 469.659 187.848 464.311C187.952 463.781 188.769 463.972 188.665 464.501C187.548 470.065 184.374 475.002 179.776 478.329C179.338 478.646 178.897 477.932 179.333 477.617H179.333Z" fill="white" />
        <path d="M179.842 431.618C180.831 431.983 181.895 432.096 182.939 431.948C183.983 431.8 184.974 431.395 185.822 430.769C186.257 430.447 186.697 431.161 186.266 431.482C185.325 432.168 184.23 432.615 183.077 432.781C181.924 432.947 180.748 432.828 179.652 432.435C179.545 432.407 179.454 432.339 179.395 432.246C179.337 432.152 179.317 432.04 179.338 431.932C179.364 431.824 179.431 431.73 179.526 431.671C179.62 431.613 179.734 431.594 179.842 431.618V431.618Z" fill="white" />
        <path d="M285.36 645.592C285.155 641.195 284.249 636.859 282.676 632.748C282.57 632.465 282.457 632.189 282.337 631.905C281.678 630.282 280.912 628.704 280.042 627.183C276.979 621.696 272.493 617.137 267.057 613.985C266.951 613.929 266.852 613.872 266.753 613.815C268.425 609.059 268.987 603.982 268.396 598.975C267.135 588.942 261.527 580.014 254.759 572.729C242.205 559.205 224.555 551.127 212.376 537.348C212.22 537.171 212.058 536.987 211.902 536.803C211.739 536.619 211.583 536.428 211.42 536.237C209.807 534.331 208.322 532.321 206.974 530.219C204.675 526.604 202.765 522.757 201.274 518.742C200.757 517.347 200.283 515.924 199.866 514.493C199.448 513.091 199.08 511.675 198.761 510.245C198.449 508.836 198.183 507.42 197.961 505.997C197.741 504.588 197.569 503.172 197.444 501.749C197.317 500.333 197.234 498.917 197.196 497.501C197.01 490.576 197.918 483.666 199.887 477.025C199.951 476.791 200.021 476.564 200.099 476.331C200.17 476.097 200.241 475.863 200.318 475.63C200.382 475.424 200.446 475.226 200.517 475.021C203.795 465.222 209.636 456.973 216.865 449.681C221.382 445.121 226.261 440.908 230.948 436.511C231.118 436.356 231.288 436.193 231.458 436.03C231.635 435.867 231.819 435.697 231.996 435.527C234.965 432.747 237.778 429.804 240.421 426.712C241.951 424.902 243.376 423.006 244.691 421.034C245.618 419.66 246.482 418.237 247.275 416.786C248.04 415.398 248.736 413.982 249.364 412.538C249.965 411.15 250.504 409.727 250.964 408.289C251.412 406.895 251.783 405.477 252.075 404.041C252.366 402.639 252.571 401.22 252.691 399.793C252.697 399.78 252.7 399.765 252.699 399.751C253.349 392.464 251.163 385.208 246.595 379.494C246.425 379.274 246.248 379.062 246.064 378.85C245.887 378.63 245.703 378.418 245.512 378.212C244.572 377.147 243.554 376.153 242.467 375.239C230.849 365.397 215.633 363.733 201.551 359.329C201.324 359.259 201.105 359.188 200.878 359.117C200.644 359.039 200.411 358.968 200.177 358.89C196.549 357.736 193.026 356.272 189.649 354.515C189.606 354.494 189.571 354.472 189.528 354.451C187.618 353.431 185.795 352.256 184.076 350.939C182.413 349.67 180.872 348.248 179.474 346.691C179.113 346.295 178.766 345.891 178.434 345.48C177.648 344.525 176.345 345.679 176.763 346.691C176.803 346.799 176.86 346.899 176.932 346.988C178.084 348.403 179.346 349.724 180.706 350.939C182.486 352.534 184.414 353.956 186.462 355.187C190.452 357.529 194.7 359.399 199.122 360.76C199.356 360.837 199.589 360.908 199.823 360.986C200.049 361.057 200.276 361.128 200.51 361.199C209.042 363.854 218.076 365.546 226.161 368.562C232.279 370.842 238.439 374 243.076 378.68C243.267 378.878 243.459 379.076 243.643 379.274C243.834 379.473 244.018 379.678 244.202 379.883C245.325 381.153 246.325 382.525 247.19 383.983C249.939 388.77 251.103 394.304 250.518 399.793C250.393 401.221 250.18 402.64 249.88 404.041C249.573 405.479 249.18 406.898 248.705 408.289C248.28 409.571 247.785 410.824 247.24 412.056C247.169 412.219 247.091 412.382 247.02 412.538C246.347 414.003 245.611 415.419 244.811 416.786C243.961 418.251 243.048 419.66 242.071 421.034C238.58 425.787 234.642 430.194 230.311 434.196C230.134 434.366 229.957 434.536 229.78 434.699C229.61 434.862 229.44 435.017 229.277 435.18C221.581 442.43 213.325 449.249 207.073 457.731C203.119 463.133 200.093 469.156 198.117 475.552C198.046 475.786 197.968 476.019 197.904 476.26C197.826 476.494 197.756 476.727 197.692 476.968C195.781 483.639 194.905 490.564 195.093 497.501C195.129 498.917 195.207 500.333 195.334 501.749C195.455 503.172 195.62 504.588 195.83 505.997C195.929 506.698 196.042 507.392 196.169 508.086C196.297 508.808 196.439 509.53 196.601 510.245C196.899 511.675 197.253 513.091 197.649 514.493C198.053 515.924 198.513 517.34 199.016 518.742C200.747 523.609 203.078 528.242 205.955 532.534C207.031 534.127 208.178 535.649 209.396 537.115C209.558 537.306 209.721 537.504 209.884 537.695C210.04 537.887 210.203 538.071 210.366 538.255C215.194 543.82 220.95 548.549 226.869 552.975C242.474 564.636 262.158 576.623 266.024 597.432C266.937 602.586 266.523 607.888 264.82 612.838C262.563 611.793 260.188 611.025 257.747 610.551C250.18 609.212 242.384 610.308 235.479 613.681C235.267 613.787 235.054 613.893 234.842 613.999C234.622 614.12 234.403 614.233 234.191 614.353C229.871 616.618 226.267 620.041 223.783 624.237C223.027 625.585 222.417 627.009 221.963 628.486C221.542 629.87 221.262 631.293 221.127 632.734C221.064 633.392 221.028 634.072 221.021 634.759C221.013 635.501 221.051 636.244 221.135 636.982C221.294 638.442 221.659 639.872 222.218 641.23C222.792 642.652 223.639 643.949 224.71 645.046C224.859 645.195 225.007 645.344 225.163 645.478C226.684 646.786 228.504 647.697 230.462 648.13C232.42 648.564 234.455 648.507 236.386 647.963C237.457 647.687 238.502 647.315 239.508 646.852C239.833 646.71 240.152 646.554 240.464 646.385C240.775 646.229 241.087 646.059 241.398 645.882C244.137 644.244 246.652 642.259 248.882 639.977C252.625 636.233 256.062 632.196 259.163 627.905C259.616 627.282 260.062 626.652 260.501 626.015C262.713 622.822 264.563 619.393 266.016 615.791C271.057 618.688 275.228 622.883 278.095 627.94C279.102 629.659 279.962 631.459 280.666 633.321C280.779 633.591 280.878 633.867 280.977 634.143C281.189 634.723 281.387 635.318 281.564 635.913C282.645 639.46 283.21 643.144 283.243 646.852C283.257 647.992 283.214 649.139 283.122 650.272C283.101 650.583 283.073 650.888 283.037 651.192C282.661 654.833 281.752 658.4 280.34 661.777C280.148 662.237 279.943 662.697 279.731 663.151C275.964 671.026 270.03 677.665 262.625 682.289C258.813 684.711 254.687 686.598 250.362 687.896C249.059 688.293 249.611 690.346 250.928 689.949C264.671 685.8 276.92 675.605 282.386 662.358C283.968 658.539 284.942 654.497 285.275 650.378C285.282 650.257 285.296 650.137 285.296 650.017C285.324 649.656 285.346 649.302 285.36 648.941C285.409 647.829 285.402 646.71 285.36 645.592ZM257.832 626.135C254.802 630.381 251.438 634.377 247.771 638.086C246.103 639.807 244.289 641.377 242.347 642.781C242.057 642.986 241.759 643.184 241.462 643.383C241.165 643.574 240.86 643.758 240.556 643.935C238.868 644.954 237.02 645.682 235.09 646.087C232.608 646.592 230.027 646.136 227.868 644.813C226.461 643.937 225.314 642.699 224.547 641.23C224.476 641.109 224.413 640.983 224.356 640.855C223.788 639.63 223.417 638.323 223.259 636.982C223.08 635.571 223.083 634.144 223.266 632.734C223.41 631.548 223.659 630.378 224.009 629.236C224.087 628.981 224.172 628.733 224.257 628.486C224.786 626.99 225.495 625.563 226.367 624.237C228.7 620.782 231.84 617.946 235.515 615.975C235.727 615.854 235.939 615.741 236.159 615.628C236.364 615.515 236.57 615.408 236.782 615.309C238.344 614.535 239.969 613.896 241.639 613.398C249.056 611.149 257.036 611.652 264.112 614.814C262.498 618.834 260.388 622.637 257.832 626.135Z" fill="#E4E4E4" />
        <path d="M172.523 376.44C190.12 376.44 204.384 362.175 204.384 344.579C204.384 326.982 190.12 312.718 172.523 312.718C154.927 312.718 140.662 326.982 140.662 344.579C140.662 362.175 154.927 376.44 172.523 376.44Z" fill="white" />
        <path d="M172.519 312C166.818 311.998 161.217 313.491 156.274 316.332C151.332 319.173 147.222 323.261 144.355 328.189C141.488 333.116 139.964 338.709 139.936 344.41C139.908 350.11 141.377 355.718 144.196 360.673C147.014 365.628 151.084 369.757 155.998 372.646C160.913 375.535 166.499 377.084 172.2 377.137C177.9 377.19 183.515 375.747 188.482 372.95C193.45 370.154 197.596 366.102 200.507 361.201C200.875 360.592 201.222 359.969 201.548 359.332C204.074 354.367 205.284 348.837 205.062 343.271C204.841 337.705 203.195 332.288 200.283 327.54C197.371 322.791 193.289 318.869 188.428 316.148C183.567 313.428 178.089 311.999 172.519 312ZM172.519 375.722C165.715 375.728 159.096 373.507 153.672 369.4C148.248 365.292 144.317 359.523 142.477 352.973C140.638 346.422 140.992 339.45 143.485 333.12C145.979 326.789 150.474 321.448 156.286 317.911C162.099 314.374 168.908 312.835 175.676 313.53C182.445 314.224 188.8 317.114 193.773 321.757C198.746 326.401 202.063 332.543 203.219 339.248C204.375 345.953 203.306 352.852 200.175 358.893C199.849 359.53 199.495 360.153 199.119 360.762C196.341 365.328 192.435 369.102 187.776 371.722C183.118 374.342 177.864 375.72 172.519 375.722V375.722Z" fill="#E4E4E4" />
        <path d="M156.948 338.195H188.101C189.274 338.195 190.225 337.244 190.225 336.071C190.225 334.897 189.274 333.946 188.101 333.946H156.948C155.775 333.946 154.824 334.897 154.824 336.071C154.824 337.244 155.775 338.195 156.948 338.195Z" fill="#E4E4E4" />
        <path d="M156.948 346.697H188.101C189.274 346.697 190.225 345.746 190.225 344.573C190.225 343.4 189.274 342.449 188.101 342.449H156.948C155.775 342.449 154.824 343.4 154.824 344.573C154.824 345.746 155.775 346.697 156.948 346.697Z" fill="#E4E4E4" />
        <path d="M156.948 355.197H188.101C189.274 355.197 190.225 354.246 190.225 353.073C190.225 351.9 189.274 350.949 188.101 350.949H156.948C155.775 350.949 154.824 351.9 154.824 353.073C154.824 354.246 155.775 355.197 156.948 355.197Z" fill="#E4E4E4" />
        <path d="M198.008 539.987C215.604 539.987 229.869 525.723 229.869 508.126C229.869 490.53 215.604 476.265 198.008 476.265C180.411 476.265 166.146 490.53 166.146 508.126C166.146 525.723 180.411 539.987 198.008 539.987Z" fill="white" />
        <path d="M200.322 475.625C199.593 475.576 198.864 475.547 198.12 475.547H198.014C193.203 475.547 188.451 476.612 184.101 478.667C179.751 480.722 175.91 483.715 172.854 487.431C169.799 491.147 167.604 495.494 166.429 500.16C165.253 504.825 165.126 509.693 166.056 514.413C166.986 519.133 168.951 523.589 171.808 527.46C174.665 531.33 178.345 534.52 182.582 536.799C186.819 539.078 191.508 540.391 196.313 540.642C201.117 540.892 205.918 540.076 210.369 538.25C211.049 537.967 211.721 537.663 212.38 537.344C218.804 534.186 224.009 529.001 227.19 522.588C230.371 516.176 231.351 508.894 229.979 501.868C228.606 494.843 224.957 488.466 219.597 483.722C214.236 478.978 207.462 476.133 200.322 475.625V475.625ZM198.014 539.27C189.779 539.269 181.879 536.009 176.042 530.201C170.204 524.393 166.904 516.51 166.861 508.275C166.819 500.041 170.039 492.124 175.817 486.257C181.595 480.389 189.461 477.048 197.695 476.963H198.014C198.644 476.963 199.267 476.985 199.89 477.02C206.784 477.436 213.345 480.13 218.54 484.681C223.736 489.231 227.272 495.38 228.592 502.159C229.913 508.938 228.943 515.964 225.835 522.132C222.727 528.299 217.658 533.26 211.424 536.232C210.758 536.551 210.086 536.841 209.399 537.11C205.774 538.541 201.911 539.274 198.014 539.27V539.27Z" fill="#E4E4E4" />
        <path d="M182.43 501.744H213.584C214.757 501.744 215.708 500.793 215.708 499.62C215.708 498.447 214.757 497.496 213.584 497.496H182.43C181.257 497.496 180.306 498.447 180.306 499.62C180.306 500.793 181.257 501.744 182.43 501.744Z" fill="#E4E4E4" />
        <path d="M182.43 510.244H213.584C214.757 510.244 215.708 509.293 215.708 508.12C215.708 506.947 214.757 505.996 213.584 505.996H182.43C181.257 505.996 180.306 506.947 180.306 508.12C180.306 509.293 181.257 510.244 182.43 510.244Z" fill="#E4E4E4" />
        <path d="M182.43 518.742H213.584C214.757 518.742 215.708 517.791 215.708 516.618C215.708 515.445 214.757 514.494 213.584 514.494H182.43C181.257 514.494 180.306 515.445 180.306 516.618C180.306 517.791 181.257 518.742 182.43 518.742Z" fill="#E4E4E4" />
        <path d="M210.753 666.719C228.35 666.719 242.615 652.454 242.615 634.857C242.615 617.261 228.35 602.996 210.753 602.996C193.157 602.996 178.892 617.261 178.892 634.857C178.892 652.454 193.157 666.719 210.753 666.719Z" fill="white" />
        <path d="M236.777 615.321C236.359 614.761 235.927 614.223 235.474 613.692C230.816 608.258 224.496 604.51 217.493 603.028C210.49 601.547 203.194 602.414 196.734 605.497C190.273 608.58 185.009 613.705 181.755 620.081C178.501 626.457 177.439 633.727 178.734 640.767C180.028 647.807 183.606 654.225 188.914 659.027C194.223 663.828 200.966 666.747 208.1 667.33C215.234 667.914 222.362 666.13 228.38 662.255C234.399 658.38 238.972 652.63 241.394 645.894C241.764 644.877 242.081 643.842 242.342 642.792C243.522 638.088 243.635 633.179 242.672 628.426C241.709 623.673 239.695 619.195 236.777 615.321V615.321ZM210.75 666.023C205.538 666.026 200.408 664.721 195.831 662.228C191.253 659.735 187.375 656.133 184.55 651.753C181.725 647.372 180.045 642.353 179.662 637.155C179.28 631.956 180.208 626.745 182.362 621.999C184.515 617.252 187.825 613.122 191.988 609.986C196.152 606.85 201.035 604.808 206.192 604.049C211.348 603.289 216.613 603.836 221.504 605.638C226.395 607.44 230.755 610.441 234.186 614.365C234.646 614.889 235.085 615.427 235.51 615.986C238.511 619.911 240.533 624.495 241.41 629.357C242.286 634.219 241.992 639.221 240.551 643.946C240.252 644.936 239.903 645.91 239.503 646.863C237.13 652.534 233.136 657.378 228.02 660.786C222.905 664.195 216.897 666.016 210.75 666.023V666.023Z" fill="#E4E4E4" />
        <path d="M195.178 628.485H226.331C227.505 628.485 228.456 627.534 228.456 626.361C228.456 625.188 227.505 624.237 226.331 624.237H195.178C194.005 624.237 193.054 625.188 193.054 626.361C193.054 627.534 194.005 628.485 195.178 628.485Z" fill="#E4E4E4" />
        <path d="M195.178 636.983H226.331C227.505 636.983 228.456 636.032 228.456 634.859C228.456 633.685 227.505 632.735 226.331 632.735H195.178C194.005 632.735 193.054 633.685 193.054 634.859C193.054 636.032 194.005 636.983 195.178 636.983Z" fill="#E4E4E4" />
        <path d="M195.178 645.483H226.331C227.505 645.483 228.456 644.532 228.456 643.359C228.456 642.186 227.505 641.235 226.331 641.235H195.178C194.005 641.235 193.054 642.186 193.054 643.359C193.054 644.532 194.005 645.483 195.178 645.483Z" fill="#E4E4E4" />
        <path d="M250.408 442.28C268.004 442.28 282.269 428.015 282.269 410.418C282.269 392.822 268.004 378.557 250.408 378.557C232.811 378.557 218.546 392.822 218.546 410.418C218.546 428.015 232.811 442.28 250.408 442.28Z" fill="#D5BAFF" />
        <path d="M250.402 377.859C248.765 377.86 247.129 377.983 245.51 378.228C244.681 378.348 243.874 378.504 243.074 378.695C237.196 380.05 231.81 383.011 227.518 387.248C223.225 391.486 220.194 396.833 218.763 402.693C217.331 408.552 217.556 414.694 219.413 420.434C221.269 426.173 224.683 431.283 229.275 435.195C229.82 435.656 230.372 436.102 230.946 436.526C235.079 439.608 239.885 441.665 244.969 442.526C250.052 443.387 255.268 443.029 260.186 441.481C265.104 439.933 269.584 437.24 273.258 433.622C276.931 430.004 279.693 425.565 281.316 420.672C282.939 415.778 283.377 410.568 282.593 405.472C281.81 400.376 279.827 395.539 276.809 391.359C273.79 387.179 269.822 383.775 265.232 381.429C260.641 379.082 255.558 377.858 250.402 377.859V377.859ZM250.402 441.582C243.778 441.589 237.326 439.472 231.994 435.542C231.413 435.117 230.854 434.678 230.309 434.211C225.835 430.438 222.516 425.48 220.732 419.906C218.947 414.332 218.77 408.368 220.22 402.698C221.67 397.028 224.689 391.882 228.931 387.849C233.172 383.816 238.464 381.061 244.2 379.899C244.993 379.736 245.786 379.608 246.593 379.509C247.857 379.353 249.129 379.275 250.402 379.275C258.665 379.275 266.589 382.558 272.431 388.4C278.273 394.242 281.555 402.166 281.555 410.429C281.555 418.691 278.273 426.615 272.431 432.457C266.589 438.3 258.665 441.582 250.402 441.582V441.582Z" fill="#E4E4E4" />
        <path d="M234.83 404.043H265.983C267.156 404.043 268.107 403.092 268.107 401.919C268.107 400.746 267.156 399.795 265.983 399.795H234.83C233.657 399.795 232.706 400.746 232.706 401.919C232.706 403.092 233.657 404.043 234.83 404.043Z" fill="white" />
        <path d="M234.83 412.538H265.983C267.156 412.538 268.107 411.587 268.107 410.414C268.107 409.241 267.156 408.29 265.983 408.29H234.83C233.657 408.29 232.706 409.241 232.706 410.414C232.706 411.587 233.657 412.538 234.83 412.538Z" fill="white" />
        <path d="M234.83 421.041H265.983C267.156 421.041 268.107 420.09 268.107 418.917C268.107 417.744 267.156 416.793 265.983 416.793H234.83C233.657 416.793 232.706 417.744 232.706 418.917C232.706 420.09 233.657 421.041 234.83 421.041Z" fill="white" />
    </g>
    <defs>
        <clipPath id="clip0_64_382">
            <rect width="762" height="690" fill="white" />
        </clipPath>
        <clipPath id="clip1_64_382">
            <rect width="264" height="139.653" fill="white" transform="translate(102 94)" />
        </clipPath>
    </defs>
</svg>
