<svg width="385" height="228" viewBox="0 0 385 228" fill="none" xmlns="http://www.w3.org/2000/svg">
    <g filter="url(#filter0_dd_78_12)">
        <path d="M75.245 111.75H77.73V121.095C76.5867 122.098 75.2333 122.868 73.67 123.405C72.1067 123.942 70.4617 124.21 68.735 124.21C66.285 124.21 64.08 123.673 62.12 122.6C60.16 121.527 58.62 120.045 57.5 118.155C56.38 116.242 55.82 114.107 55.82 111.75C55.82 109.393 56.38 107.27 57.5 105.38C58.62 103.467 60.16 101.973 62.12 100.9C64.08 99.8267 66.2967 99.29 68.77 99.29C70.6367 99.29 72.3517 99.5933 73.915 100.2C75.4783 100.783 76.7967 101.658 77.87 102.825L76.26 104.47C74.3233 102.557 71.8617 101.6 68.875 101.6C66.8917 101.6 65.095 102.043 63.485 102.93C61.8983 103.793 60.65 105.007 59.74 106.57C58.83 108.11 58.375 109.837 58.375 111.75C58.375 113.663 58.83 115.39 59.74 116.93C60.65 118.47 61.8983 119.683 63.485 120.57C65.0717 121.457 66.8567 121.9 68.84 121.9C71.36 121.9 73.495 121.27 75.245 120.01V111.75ZM92.0603 124.175C90.287 124.175 88.6886 123.778 87.2653 122.985C85.842 122.168 84.722 121.048 83.9053 119.625C83.0886 118.202 82.6803 116.592 82.6803 114.795C82.6803 112.998 83.0886 111.388 83.9053 109.965C84.722 108.542 85.842 107.433 87.2653 106.64C88.6886 105.847 90.287 105.45 92.0603 105.45C93.8336 105.45 95.432 105.847 96.8553 106.64C98.2786 107.433 99.387 108.542 100.18 109.965C100.997 111.388 101.405 112.998 101.405 114.795C101.405 116.592 100.997 118.202 100.18 119.625C99.387 121.048 98.2786 122.168 96.8553 122.985C95.432 123.778 93.8336 124.175 92.0603 124.175ZM92.0603 121.97C93.367 121.97 94.5336 121.678 95.5603 121.095C96.6103 120.488 97.427 119.637 98.0103 118.54C98.5936 117.443 98.8853 116.195 98.8853 114.795C98.8853 113.395 98.5936 112.147 98.0103 111.05C97.427 109.953 96.6103 109.113 95.5603 108.53C94.5336 107.923 93.367 107.62 92.0603 107.62C90.7536 107.62 89.5753 107.923 88.5253 108.53C87.4986 109.113 86.682 109.953 86.0753 111.05C85.492 112.147 85.2003 113.395 85.2003 114.795C85.2003 116.195 85.492 117.443 86.0753 118.54C86.682 119.637 87.4986 120.488 88.5253 121.095C89.5753 121.678 90.7536 121.97 92.0603 121.97ZM114.004 124.175C112.23 124.175 110.632 123.778 109.209 122.985C107.785 122.168 106.665 121.048 105.849 119.625C105.032 118.202 104.624 116.592 104.624 114.795C104.624 112.998 105.032 111.388 105.849 109.965C106.665 108.542 107.785 107.433 109.209 106.64C110.632 105.847 112.23 105.45 114.004 105.45C115.777 105.45 117.375 105.847 118.799 106.64C120.222 107.433 121.33 108.542 122.124 109.965C122.94 111.388 123.349 112.998 123.349 114.795C123.349 116.592 122.94 118.202 122.124 119.625C121.33 121.048 120.222 122.168 118.799 122.985C117.375 123.778 115.777 124.175 114.004 124.175ZM114.004 121.97C115.31 121.97 116.477 121.678 117.504 121.095C118.554 120.488 119.37 119.637 119.954 118.54C120.537 117.443 120.829 116.195 120.829 114.795C120.829 113.395 120.537 112.147 119.954 111.05C119.37 109.953 118.554 109.113 117.504 108.53C116.477 107.923 115.31 107.62 114.004 107.62C112.697 107.62 111.519 107.923 110.469 108.53C109.442 109.113 108.625 109.953 108.019 111.05C107.435 112.147 107.144 113.395 107.144 114.795C107.144 116.195 107.435 117.443 108.019 118.54C108.625 119.637 109.442 120.488 110.469 121.095C111.519 121.678 112.697 121.97 114.004 121.97ZM145.467 105.59V121.76C145.467 124.887 144.697 127.197 143.157 128.69C141.64 130.207 139.342 130.965 136.262 130.965C134.559 130.965 132.937 130.708 131.397 130.195C129.88 129.705 128.644 129.017 127.687 128.13L128.947 126.24C129.834 127.033 130.907 127.652 132.167 128.095C133.45 128.538 134.792 128.76 136.192 128.76C138.525 128.76 140.24 128.212 141.337 127.115C142.434 126.042 142.982 124.362 142.982 122.075V119.73C142.212 120.897 141.197 121.783 139.937 122.39C138.7 122.997 137.324 123.3 135.807 123.3C134.08 123.3 132.505 122.927 131.082 122.18C129.682 121.41 128.574 120.348 127.757 118.995C126.964 117.618 126.567 116.067 126.567 114.34C126.567 112.613 126.964 111.073 127.757 109.72C128.574 108.367 129.682 107.317 131.082 106.57C132.482 105.823 134.057 105.45 135.807 105.45C137.37 105.45 138.782 105.765 140.042 106.395C141.302 107.025 142.317 107.935 143.087 109.125V105.59H145.467ZM136.052 121.095C137.382 121.095 138.584 120.815 139.657 120.255C140.73 119.672 141.559 118.867 142.142 117.84C142.749 116.813 143.052 115.647 143.052 114.34C143.052 113.033 142.749 111.878 142.142 110.875C141.559 109.848 140.73 109.055 139.657 108.495C138.607 107.912 137.405 107.62 136.052 107.62C134.722 107.62 133.52 107.9 132.447 108.46C131.397 109.02 130.569 109.813 129.962 110.84C129.379 111.867 129.087 113.033 129.087 114.34C129.087 115.647 129.379 116.813 129.962 117.84C130.569 118.867 131.397 119.672 132.447 120.255C133.52 120.815 134.722 121.095 136.052 121.095ZM152.416 98.03H154.901V124H152.416V98.03ZM177.846 115.565H162.446C162.586 117.478 163.321 119.03 164.651 120.22C165.981 121.387 167.661 121.97 169.691 121.97C170.834 121.97 171.884 121.772 172.841 121.375C173.797 120.955 174.626 120.348 175.326 119.555L176.726 121.165C175.909 122.145 174.882 122.892 173.646 123.405C172.432 123.918 171.091 124.175 169.621 124.175C167.731 124.175 166.051 123.778 164.581 122.985C163.134 122.168 162.002 121.048 161.186 119.625C160.369 118.202 159.961 116.592 159.961 114.795C159.961 112.998 160.346 111.388 161.116 109.965C161.909 108.542 162.982 107.433 164.336 106.64C165.712 105.847 167.252 105.45 168.956 105.45C170.659 105.45 172.187 105.847 173.541 106.64C174.894 107.433 175.956 108.542 176.726 109.965C177.496 111.365 177.881 112.975 177.881 114.795L177.846 115.565ZM168.956 107.585C167.182 107.585 165.689 108.157 164.476 109.3C163.286 110.42 162.609 111.89 162.446 113.71H175.501C175.337 111.89 174.649 110.42 173.436 109.3C172.246 108.157 170.752 107.585 168.956 107.585Z" fill="white" />
    </g>
    <g filter="url(#filter1_dd_78_12)">
        <path d="M30.76 167L25.96 160.25C25.42 160.31 24.86 160.34 24.28 160.34H18.64V167H16.42V146H24.28C26.96 146 29.06 146.64 30.58 147.92C32.1 149.2 32.86 150.96 32.86 153.2C32.86 154.84 32.44 156.23 31.6 157.37C30.78 158.49 29.6 159.3 28.06 159.8L33.19 167H30.76ZM24.22 158.45C26.3 158.45 27.89 157.99 28.99 157.07C30.09 156.15 30.64 154.86 30.64 153.2C30.64 151.5 30.09 150.2 28.99 149.3C27.89 148.38 26.3 147.92 24.22 147.92H18.64V158.45H24.22ZM51.3897 159.77H38.1897C38.3097 161.41 38.9397 162.74 40.0797 163.76C41.2197 164.76 42.6597 165.26 44.3997 165.26C45.3797 165.26 46.2797 165.09 47.0997 164.75C47.9197 164.39 48.6297 163.87 49.2297 163.19L50.4297 164.57C49.7297 165.41 48.8497 166.05 47.7897 166.49C46.7497 166.93 45.5997 167.15 44.3397 167.15C42.7197 167.15 41.2797 166.81 40.0197 166.13C38.7797 165.43 37.8097 164.47 37.1097 163.25C36.4097 162.03 36.0597 160.65 36.0597 159.11C36.0597 157.57 36.3897 156.19 37.0497 154.97C37.7297 153.75 38.6497 152.8 39.8097 152.12C40.9897 151.44 42.3097 151.1 43.7697 151.1C45.2297 151.1 46.5397 151.44 47.6997 152.12C48.8597 152.8 49.7697 153.75 50.4297 154.97C51.0897 156.17 51.4197 157.55 51.4197 159.11L51.3897 159.77ZM43.7697 152.93C42.2497 152.93 40.9697 153.42 39.9297 154.4C38.9097 155.36 38.3297 156.62 38.1897 158.18H49.3797C49.2397 156.62 48.6497 155.36 47.6097 154.4C46.5897 153.42 45.3097 152.93 43.7697 152.93ZM70.1552 144.74V167H68.1152V163.88C67.4752 164.94 66.6252 165.75 65.5652 166.31C64.5252 166.87 63.3452 167.15 62.0252 167.15C60.5452 167.15 59.2052 166.81 58.0052 166.13C56.8052 165.45 55.8652 164.5 55.1852 163.28C54.5052 162.06 54.1652 160.67 54.1652 159.11C54.1652 157.55 54.5052 156.16 55.1852 154.94C55.8652 153.72 56.8052 152.78 58.0052 152.12C59.2052 151.44 60.5452 151.1 62.0252 151.1C63.3052 151.1 64.4552 151.37 65.4752 151.91C66.5152 152.43 67.3652 153.2 68.0252 154.22V144.74H70.1552ZM62.2052 165.26C63.3052 165.26 64.2952 165.01 65.1752 164.51C66.0752 163.99 66.7752 163.26 67.2752 162.32C67.7952 161.38 68.0552 160.31 68.0552 159.11C68.0552 157.91 67.7952 156.84 67.2752 155.9C66.7752 154.96 66.0752 154.24 65.1752 153.74C64.2952 153.22 63.3052 152.96 62.2052 152.96C61.0852 152.96 60.0752 153.22 59.1752 153.74C58.2952 154.24 57.5952 154.96 57.0752 155.9C56.5752 156.84 56.3252 157.91 56.3252 159.11C56.3252 160.31 56.5752 161.38 57.0752 162.32C57.5952 163.26 58.2952 163.99 59.1752 164.51C60.0752 165.01 61.0852 165.26 62.2052 165.26ZM92.0688 151.1C93.5488 151.1 94.8888 151.44 96.0888 152.12C97.2888 152.78 98.2288 153.72 98.9088 154.94C99.5888 156.16 99.9288 157.55 99.9288 159.11C99.9288 160.67 99.5888 162.06 98.9088 163.28C98.2288 164.5 97.2888 165.45 96.0888 166.13C94.8888 166.81 93.5488 167.15 92.0688 167.15C90.7488 167.15 89.5588 166.87 88.4988 166.31C87.4588 165.75 86.6188 164.94 85.9788 163.88V167H83.9388V144.74H86.0688V154.22C86.7288 153.2 87.5688 152.43 88.5888 151.91C89.6288 151.37 90.7888 151.1 92.0688 151.1ZM91.9188 165.26C93.0188 165.26 94.0188 165.01 94.9188 164.51C95.8188 163.99 96.5188 163.26 97.0188 162.32C97.5388 161.38 97.7988 160.31 97.7988 159.11C97.7988 157.91 97.5388 156.84 97.0188 155.9C96.5188 154.96 95.8188 154.24 94.9188 153.74C94.0188 153.22 93.0188 152.96 91.9188 152.96C90.7988 152.96 89.7888 153.22 88.8887 153.74C88.0088 154.24 87.3088 154.96 86.7888 155.9C86.2888 156.84 86.0388 157.91 86.0388 159.11C86.0388 160.31 86.2888 161.38 86.7888 162.32C87.3088 163.26 88.0088 163.99 88.8887 164.51C89.7888 165.01 90.7988 165.26 91.9188 165.26ZM118.491 151.22V167H116.451V164.12C115.891 165.08 115.121 165.83 114.141 166.37C113.161 166.89 112.041 167.15 110.781 167.15C108.721 167.15 107.091 166.58 105.891 165.44C104.711 164.28 104.121 162.59 104.121 160.37V151.22H106.251V160.16C106.251 161.82 106.661 163.08 107.481 163.94C108.301 164.8 109.471 165.23 110.991 165.23C112.651 165.23 113.961 164.73 114.921 163.73C115.881 162.71 116.361 161.3 116.361 159.5V151.22H118.491ZM124.456 144.74H126.586V167H124.456V144.74ZM132.513 144.74H134.643V167H132.513V144.74Z" fill="white" />
    </g>
    <g filter="url(#filter2_dd_78_12)">
        <path d="M285.76 160L280.96 153.25C280.42 153.31 279.86 153.34 279.28 153.34H273.64V160H271.42V139H279.28C281.96 139 284.06 139.64 285.58 140.92C287.1 142.2 287.86 143.96 287.86 146.2C287.86 147.84 287.44 149.23 286.6 150.37C285.78 151.49 284.6 152.3 283.06 152.8L288.19 160H285.76ZM279.22 151.45C281.3 151.45 282.89 150.99 283.99 150.07C285.09 149.15 285.64 147.86 285.64 146.2C285.64 144.5 285.09 143.2 283.99 142.3C282.89 141.38 281.3 140.92 279.22 140.92H273.64V151.45H279.22ZM299.1 160.15C297.58 160.15 296.21 159.81 294.99 159.13C293.77 158.43 292.81 157.47 292.11 156.25C291.41 155.03 291.06 153.65 291.06 152.11C291.06 150.57 291.41 149.19 292.11 147.97C292.81 146.75 293.77 145.8 294.99 145.12C296.21 144.44 297.58 144.1 299.1 144.1C300.62 144.1 301.99 144.44 303.21 145.12C304.43 145.8 305.38 146.75 306.06 147.97C306.76 149.19 307.11 150.57 307.11 152.11C307.11 153.65 306.76 155.03 306.06 156.25C305.38 157.47 304.43 158.43 303.21 159.13C301.99 159.81 300.62 160.15 299.1 160.15ZM299.1 158.26C300.22 158.26 301.22 158.01 302.1 157.51C303 156.99 303.7 156.26 304.2 155.32C304.7 154.38 304.95 153.31 304.95 152.11C304.95 150.91 304.7 149.84 304.2 148.9C303.7 147.96 303 147.24 302.1 146.74C301.22 146.22 300.22 145.96 299.1 145.96C297.98 145.96 296.97 146.22 296.07 146.74C295.19 147.24 294.49 147.96 293.97 148.9C293.47 149.84 293.22 150.91 293.22 152.11C293.22 153.31 293.47 154.38 293.97 155.32C294.49 156.26 295.19 156.99 296.07 157.51C296.97 158.01 297.98 158.26 299.1 158.26ZM311.458 137.74H313.588V160H311.458V137.74ZM333.255 152.77H320.055C320.175 154.41 320.805 155.74 321.945 156.76C323.085 157.76 324.525 158.26 326.265 158.26C327.245 158.26 328.145 158.09 328.965 157.75C329.785 157.39 330.495 156.87 331.095 156.19L332.295 157.57C331.595 158.41 330.715 159.05 329.655 159.49C328.615 159.93 327.465 160.15 326.205 160.15C324.585 160.15 323.145 159.81 321.885 159.13C320.645 158.43 319.675 157.47 318.975 156.25C318.275 155.03 317.925 153.65 317.925 152.11C317.925 150.57 318.255 149.19 318.915 147.97C319.595 146.75 320.515 145.8 321.675 145.12C322.855 144.44 324.175 144.1 325.635 144.1C327.095 144.1 328.405 144.44 329.565 145.12C330.725 145.8 331.635 146.75 332.295 147.97C332.955 149.17 333.285 150.55 333.285 152.11L333.255 152.77ZM325.635 145.93C324.115 145.93 322.835 146.42 321.795 147.4C320.775 148.36 320.195 149.62 320.055 151.18H331.245C331.105 149.62 330.515 148.36 329.475 147.4C328.455 146.42 327.175 145.93 325.635 145.93ZM347.231 160L342.221 153.4L337.181 160H334.781L341.021 151.9L335.081 144.22H337.481L342.221 150.4L346.961 144.22H349.301L343.361 151.9L349.661 160H347.231Z" fill="white" />
    </g>
    <g filter="url(#filter3_dd_78_12)">
        <path d="M184.4 151.5C186.633 151.5 188.383 152.033 189.65 153.1C190.917 154.167 191.55 155.633 191.55 157.5C191.55 159.367 190.917 160.833 189.65 161.9C188.383 162.95 186.633 163.475 184.4 163.475H179.7V169H177.85V151.5H184.4ZM184.35 161.85C186.083 161.85 187.408 161.475 188.325 160.725C189.242 159.958 189.7 158.883 189.7 157.5C189.7 156.083 189.242 155 188.325 154.25C187.408 153.483 186.083 153.1 184.35 153.1H179.7V161.85H184.35ZM207.269 155.85V169H205.569V166.6C205.103 167.4 204.461 168.025 203.644 168.475C202.828 168.908 201.894 169.125 200.844 169.125C199.128 169.125 197.769 168.65 196.769 167.7C195.786 166.733 195.294 165.325 195.294 163.475V155.85H197.069V163.3C197.069 164.683 197.411 165.733 198.094 166.45C198.778 167.167 199.753 167.525 201.019 167.525C202.403 167.525 203.494 167.108 204.294 166.275C205.094 165.425 205.494 164.25 205.494 162.75V155.85H207.269ZM228.641 155.75C230.291 155.75 231.582 156.225 232.516 157.175C233.466 158.125 233.941 159.525 233.941 161.375V169H232.166V161.55C232.166 160.183 231.832 159.142 231.166 158.425C230.516 157.708 229.591 157.35 228.391 157.35C227.024 157.35 225.949 157.775 225.166 158.625C224.382 159.458 223.991 160.617 223.991 162.1V169H222.216V161.55C222.216 160.183 221.882 159.142 221.216 158.425C220.566 157.708 219.632 157.35 218.416 157.35C217.066 157.35 215.991 157.775 215.191 158.625C214.407 159.458 214.016 160.617 214.016 162.1V169H212.241V155.85H213.941V158.25C214.407 157.45 215.057 156.833 215.891 156.4C216.724 155.967 217.682 155.75 218.766 155.75C219.866 155.75 220.816 155.983 221.616 156.45C222.432 156.917 223.041 157.608 223.441 158.525C223.924 157.658 224.616 156.983 225.516 156.5C226.432 156 227.474 155.75 228.641 155.75ZM243.354 155.75C245.071 155.75 246.388 156.183 247.304 157.05C248.221 157.9 248.679 159.167 248.679 160.85V169H246.979V166.95C246.579 167.633 245.988 168.167 245.204 168.55C244.438 168.933 243.521 169.125 242.454 169.125C240.988 169.125 239.821 168.775 238.954 168.075C238.088 167.375 237.654 166.45 237.654 165.3C237.654 164.183 238.054 163.283 238.854 162.6C239.671 161.917 240.963 161.575 242.729 161.575H246.904V160.775C246.904 159.642 246.588 158.783 245.954 158.2C245.321 157.6 244.396 157.3 243.179 157.3C242.346 157.3 241.546 157.442 240.779 157.725C240.013 157.992 239.354 158.367 238.804 158.85L238.004 157.525C238.671 156.958 239.471 156.525 240.404 156.225C241.338 155.908 242.321 155.75 243.354 155.75ZM242.729 167.725C243.729 167.725 244.588 167.5 245.304 167.05C246.021 166.583 246.554 165.917 246.904 165.05V162.9H242.779C240.529 162.9 239.404 163.683 239.404 165.25C239.404 166.017 239.696 166.625 240.279 167.075C240.863 167.508 241.679 167.725 242.729 167.725Z" fill="white" />
    </g>
    <g filter="url(#filter4_dd_78_12)">
        <path d="M121.7 56.1V62.975H130.75V64.575H121.7V72H119.85V54.5H131.85V56.1H121.7ZM140.231 72.125C138.964 72.125 137.823 71.8417 136.806 71.275C135.789 70.6917 134.989 69.8917 134.406 68.875C133.823 67.8583 133.531 66.7083 133.531 65.425C133.531 64.1417 133.823 62.9917 134.406 61.975C134.989 60.9583 135.789 60.1667 136.806 59.6C137.823 59.0333 138.964 58.75 140.231 58.75C141.498 58.75 142.639 59.0333 143.656 59.6C144.673 60.1667 145.464 60.9583 146.031 61.975C146.614 62.9917 146.906 64.1417 146.906 65.425C146.906 66.7083 146.614 67.8583 146.031 68.875C145.464 69.8917 144.673 70.6917 143.656 71.275C142.639 71.8417 141.498 72.125 140.231 72.125ZM140.231 70.55C141.164 70.55 141.998 70.3417 142.731 69.925C143.481 69.4917 144.064 68.8833 144.481 68.1C144.898 67.3167 145.106 66.425 145.106 65.425C145.106 64.425 144.898 63.5333 144.481 62.75C144.064 61.9667 143.481 61.3667 142.731 60.95C141.998 60.5167 141.164 60.3 140.231 60.3C139.298 60.3 138.456 60.5167 137.706 60.95C136.973 61.3667 136.389 61.9667 135.956 62.75C135.539 63.5333 135.331 64.425 135.331 65.425C135.331 66.425 135.539 67.3167 135.956 68.1C136.389 68.8833 136.973 69.4917 137.706 69.925C138.456 70.3417 139.298 70.55 140.231 70.55ZM152.23 61.425C152.646 60.5417 153.263 59.875 154.08 59.425C154.913 58.975 155.938 58.75 157.155 58.75V60.475L156.73 60.45C155.346 60.45 154.263 60.875 153.48 61.725C152.696 62.575 152.305 63.7667 152.305 65.3V72H150.53V58.85H152.23V61.425ZM172.246 53.45V72H170.546V69.4C170.013 70.2833 169.305 70.9583 168.421 71.425C167.555 71.8917 166.571 72.125 165.471 72.125C164.238 72.125 163.121 71.8417 162.121 71.275C161.121 70.7083 160.338 69.9167 159.771 68.9C159.205 67.8833 158.921 66.725 158.921 65.425C158.921 64.125 159.205 62.9667 159.771 61.95C160.338 60.9333 161.121 60.15 162.121 59.6C163.121 59.0333 164.238 58.75 165.471 58.75C166.538 58.75 167.496 58.975 168.346 59.425C169.213 59.8583 169.921 60.5 170.471 61.35V53.45H172.246ZM165.621 70.55C166.538 70.55 167.363 70.3417 168.096 69.925C168.846 69.4917 169.43 68.8833 169.846 68.1C170.28 67.3167 170.496 66.425 170.496 65.425C170.496 64.425 170.28 63.5333 169.846 62.75C169.43 61.9667 168.846 61.3667 168.096 60.95C167.363 60.5167 166.538 60.3 165.621 60.3C164.688 60.3 163.846 60.5167 163.096 60.95C162.363 61.3667 161.78 61.9667 161.346 62.75C160.93 63.5333 160.721 64.425 160.721 65.425C160.721 66.425 160.93 67.3167 161.346 68.1C161.78 68.8833 162.363 69.4917 163.096 69.925C163.846 70.3417 164.688 70.55 165.621 70.55Z" fill="white" />
    </g>
    <g filter="url(#filter5_dd_78_12)">
        <path d="M21.875 203.975C23.025 204.225 23.9083 204.725 24.525 205.475C25.1583 206.208 25.475 207.158 25.475 208.325C25.475 209.825 24.9167 210.983 23.8 211.8C22.7 212.6 21.0667 213 18.9 213H10.85V195.5H18.4C20.35 195.5 21.8583 195.892 22.925 196.675C24.0083 197.458 24.55 198.567 24.55 200C24.55 200.967 24.3083 201.792 23.825 202.475C23.3583 203.142 22.7083 203.642 21.875 203.975ZM12.7 197.025V203.375H18.275C19.6917 203.375 20.7833 203.108 21.55 202.575C22.3167 202.025 22.7 201.233 22.7 200.2C22.7 199.167 22.3167 198.383 21.55 197.85C20.7833 197.3 19.6917 197.025 18.275 197.025H12.7ZM18.875 211.475C20.4417 211.475 21.625 211.208 22.425 210.675C23.225 210.142 23.625 209.308 23.625 208.175C23.625 205.992 22.0417 204.9 18.875 204.9H12.7V211.475H18.875ZM41.1727 199.85V213H39.4727V210.6C39.006 211.4 38.3643 212.025 37.5477 212.475C36.731 212.908 35.7977 213.125 34.7477 213.125C33.031 213.125 31.6727 212.65 30.6727 211.7C29.6893 210.733 29.1977 209.325 29.1977 207.475V199.85H30.9727V207.3C30.9727 208.683 31.3143 209.733 31.9977 210.45C32.681 211.167 33.656 211.525 34.9227 211.525C36.306 211.525 37.3977 211.108 38.1977 210.275C38.9977 209.425 39.3977 208.25 39.3977 206.75V199.85H41.1727ZM47.8439 202.425C48.2606 201.542 48.8773 200.875 49.6939 200.425C50.5273 199.975 51.5523 199.75 52.7689 199.75V201.475L52.3439 201.45C50.9606 201.45 49.8773 201.875 49.0939 202.725C48.3106 203.575 47.9189 204.767 47.9189 206.3V213H46.1439V199.85H47.8439V202.425ZM68.0357 199.85V211.4C68.0357 213.633 67.4857 215.283 66.3857 216.35C65.3024 217.433 63.6607 217.975 61.4607 217.975C60.2441 217.975 59.0857 217.792 57.9857 217.425C56.9024 217.075 56.0191 216.583 55.3357 215.95L56.2357 214.6C56.8691 215.167 57.6357 215.608 58.5357 215.925C59.4524 216.242 60.4107 216.4 61.4107 216.4C63.0774 216.4 64.3024 216.008 65.0857 215.225C65.8691 214.458 66.2607 213.258 66.2607 211.625V209.95C65.7107 210.783 64.9857 211.417 64.0857 211.85C63.2024 212.283 62.2191 212.5 61.1357 212.5C59.9024 212.5 58.7774 212.233 57.7607 211.7C56.7607 211.15 55.9691 210.392 55.3857 209.425C54.8191 208.442 54.5357 207.333 54.5357 206.1C54.5357 204.867 54.8191 203.767 55.3857 202.8C55.9691 201.833 56.7607 201.083 57.7607 200.55C58.7607 200.017 59.8857 199.75 61.1357 199.75C62.2524 199.75 63.2607 199.975 64.1607 200.425C65.0607 200.875 65.7857 201.525 66.3357 202.375V199.85H68.0357ZM61.3107 210.925C62.2607 210.925 63.1191 210.725 63.8857 210.325C64.6524 209.908 65.2441 209.333 65.6607 208.6C66.0941 207.867 66.3107 207.033 66.3107 206.1C66.3107 205.167 66.0941 204.342 65.6607 203.625C65.2441 202.892 64.6524 202.325 63.8857 201.925C63.1357 201.508 62.2774 201.3 61.3107 201.3C60.3607 201.3 59.5024 201.5 58.7357 201.9C57.9857 202.3 57.3941 202.867 56.9607 203.6C56.5441 204.333 56.3357 205.167 56.3357 206.1C56.3357 207.033 56.5441 207.867 56.9607 208.6C57.3941 209.333 57.9857 209.908 58.7357 210.325C59.5024 210.725 60.3607 210.925 61.3107 210.925ZM84.8494 199.85V213H83.1494V210.6C82.6827 211.4 82.0411 212.025 81.2244 212.475C80.4077 212.908 79.4744 213.125 78.4244 213.125C76.7077 213.125 75.3494 212.65 74.3494 211.7C73.3661 210.733 72.8744 209.325 72.8744 207.475V199.85H74.6494V207.3C74.6494 208.683 74.9911 209.733 75.6744 210.45C76.3577 211.167 77.3327 211.525 78.5994 211.525C79.9827 211.525 81.0744 211.108 81.8744 210.275C82.6744 209.425 83.0744 208.25 83.0744 206.75V199.85H84.8494ZM101.271 206.975H90.2707C90.3707 208.342 90.8957 209.45 91.8457 210.3C92.7957 211.133 93.9957 211.55 95.4457 211.55C96.2624 211.55 97.0124 211.408 97.6957 211.125C98.379 210.825 98.9707 210.392 99.4707 209.825L100.471 210.975C99.8874 211.675 99.154 212.208 98.2707 212.575C97.404 212.942 96.4457 213.125 95.3957 213.125C94.0457 213.125 92.8457 212.842 91.7957 212.275C90.7624 211.692 89.954 210.892 89.3707 209.875C88.7874 208.858 88.4957 207.708 88.4957 206.425C88.4957 205.142 88.7707 203.992 89.3207 202.975C89.8874 201.958 90.654 201.167 91.6207 200.6C92.604 200.033 93.704 199.75 94.9207 199.75C96.1374 199.75 97.229 200.033 98.1957 200.6C99.1624 201.167 99.9207 201.958 100.471 202.975C101.021 203.975 101.296 205.125 101.296 206.425L101.271 206.975ZM94.9207 201.275C93.654 201.275 92.5874 201.683 91.7207 202.5C90.8707 203.3 90.3874 204.35 90.2707 205.65H99.5957C99.479 204.35 98.9874 203.3 98.1207 202.5C97.2707 201.683 96.204 201.275 94.9207 201.275ZM106.609 202.425C107.025 201.542 107.642 200.875 108.459 200.425C109.292 199.975 110.317 199.75 111.534 199.75V201.475L111.109 201.45C109.725 201.45 108.642 201.875 107.859 202.725C107.075 203.575 106.684 204.767 106.684 206.3V213H104.909V199.85H106.609V202.425ZM126.361 206.4L123.261 209.25V213H121.486V194.45H123.261V207.025L131.111 199.85H133.311L127.686 205.225L133.836 213H131.661L126.361 206.4ZM136.305 199.85H138.08V213H136.305V199.85ZM137.205 196.975C136.838 196.975 136.53 196.85 136.28 196.6C136.03 196.35 135.905 196.05 135.905 195.7C135.905 195.367 136.03 195.075 136.28 194.825C136.53 194.575 136.838 194.45 137.205 194.45C137.572 194.45 137.88 194.575 138.13 194.825C138.38 195.058 138.505 195.342 138.505 195.675C138.505 196.042 138.38 196.35 138.13 196.6C137.88 196.85 137.572 196.975 137.205 196.975ZM149.719 199.75C151.369 199.75 152.677 200.233 153.644 201.2C154.627 202.15 155.119 203.542 155.119 205.375V213H153.344V205.55C153.344 204.183 153.002 203.142 152.319 202.425C151.636 201.708 150.661 201.35 149.394 201.35C147.977 201.35 146.852 201.775 146.019 202.625C145.202 203.458 144.794 204.617 144.794 206.1V213H143.019V199.85H144.719V202.275C145.202 201.475 145.869 200.858 146.719 200.425C147.586 199.975 148.586 199.75 149.719 199.75ZM172.162 199.85V211.4C172.162 213.633 171.612 215.283 170.512 216.35C169.428 217.433 167.787 217.975 165.587 217.975C164.37 217.975 163.212 217.792 162.112 217.425C161.028 217.075 160.145 216.583 159.462 215.95L160.362 214.6C160.995 215.167 161.762 215.608 162.662 215.925C163.578 216.242 164.537 216.4 165.537 216.4C167.203 216.4 168.428 216.008 169.212 215.225C169.995 214.458 170.387 213.258 170.387 211.625V209.95C169.837 210.783 169.112 211.417 168.212 211.85C167.328 212.283 166.345 212.5 165.262 212.5C164.028 212.5 162.903 212.233 161.887 211.7C160.887 211.15 160.095 210.392 159.512 209.425C158.945 208.442 158.662 207.333 158.662 206.1C158.662 204.867 158.945 203.767 159.512 202.8C160.095 201.833 160.887 201.083 161.887 200.55C162.887 200.017 164.012 199.75 165.262 199.75C166.378 199.75 167.387 199.975 168.287 200.425C169.187 200.875 169.912 201.525 170.462 202.375V199.85H172.162ZM165.437 210.925C166.387 210.925 167.245 210.725 168.012 210.325C168.778 209.908 169.37 209.333 169.787 208.6C170.22 207.867 170.437 207.033 170.437 206.1C170.437 205.167 170.22 204.342 169.787 203.625C169.37 202.892 168.778 202.325 168.012 201.925C167.262 201.508 166.403 201.3 165.437 201.3C164.487 201.3 163.628 201.5 162.862 201.9C162.112 202.3 161.52 202.867 161.087 203.6C160.67 204.333 160.462 205.167 160.462 206.1C160.462 207.033 160.67 207.867 161.087 208.6C161.52 209.333 162.112 209.908 162.862 210.325C163.628 210.725 164.487 210.925 165.437 210.925Z" fill="white" />
    </g>
    <g filter="url(#filter6_dd_78_12)">
        <path d="M233.7 50.1V56.975H242.75V58.575H233.7V66H231.85V48.5H243.85V50.1H233.7ZM251.358 52.75C253.075 52.75 254.392 53.1833 255.308 54.05C256.225 54.9 256.683 56.1667 256.683 57.85V66H254.983V63.95C254.583 64.6333 253.992 65.1667 253.208 65.55C252.442 65.9333 251.525 66.125 250.458 66.125C248.992 66.125 247.825 65.775 246.958 65.075C246.092 64.375 245.658 63.45 245.658 62.3C245.658 61.1833 246.058 60.2833 246.858 59.6C247.675 58.9167 248.967 58.575 250.733 58.575H254.908V57.775C254.908 56.6417 254.592 55.7833 253.958 55.2C253.325 54.6 252.4 54.3 251.183 54.3C250.35 54.3 249.55 54.4417 248.783 54.725C248.017 54.9917 247.358 55.3667 246.808 55.85L246.008 54.525C246.675 53.9583 247.475 53.525 248.408 53.225C249.342 52.9083 250.325 52.75 251.358 52.75ZM250.733 64.725C251.733 64.725 252.592 64.5 253.308 64.05C254.025 63.5833 254.558 62.9167 254.908 62.05V59.9H250.783C248.533 59.9 247.408 60.6833 247.408 62.25C247.408 63.0167 247.7 63.625 248.283 64.075C248.867 64.5083 249.683 64.725 250.733 64.725ZM268.204 52.75C269.854 52.75 271.163 53.2333 272.129 54.2C273.113 55.15 273.604 56.5417 273.604 58.375V66H271.829V58.55C271.829 57.1833 271.488 56.1417 270.804 55.425C270.121 54.7083 269.146 54.35 267.879 54.35C266.463 54.35 265.338 54.775 264.504 55.625C263.688 56.4583 263.279 57.6167 263.279 59.1V66H261.504V52.85H263.204V55.275C263.688 54.475 264.354 53.8583 265.204 53.425C266.071 52.975 267.071 52.75 268.204 52.75ZM285.348 65.2C285.015 65.5 284.598 65.7333 284.098 65.9C283.615 66.05 283.107 66.125 282.573 66.125C281.34 66.125 280.39 65.7917 279.723 65.125C279.057 64.4583 278.723 63.5167 278.723 62.3V54.35H276.373V52.85H278.723V49.975H280.498V52.85H284.498V54.35H280.498V62.2C280.498 62.9833 280.69 63.5833 281.073 64C281.473 64.4 282.04 64.6 282.773 64.6C283.14 64.6 283.49 64.5417 283.823 64.425C284.173 64.3083 284.473 64.1417 284.723 63.925L285.348 65.2ZM293.179 52.75C294.896 52.75 296.213 53.1833 297.129 54.05C298.046 54.9 298.504 56.1667 298.504 57.85V66H296.804V63.95C296.404 64.6333 295.813 65.1667 295.029 65.55C294.263 65.9333 293.346 66.125 292.279 66.125C290.813 66.125 289.646 65.775 288.779 65.075C287.913 64.375 287.479 63.45 287.479 62.3C287.479 61.1833 287.879 60.2833 288.679 59.6C289.496 58.9167 290.788 58.575 292.554 58.575H296.729V57.775C296.729 56.6417 296.413 55.7833 295.779 55.2C295.146 54.6 294.221 54.3 293.004 54.3C292.171 54.3 291.371 54.4417 290.604 54.725C289.838 54.9917 289.179 55.3667 288.629 55.85L287.829 54.525C288.496 53.9583 289.296 53.525 290.229 53.225C291.163 52.9083 292.146 52.75 293.179 52.75ZM292.554 64.725C293.554 64.725 294.413 64.5 295.129 64.05C295.846 63.5833 296.379 62.9167 296.729 62.05V59.9H292.604C290.354 59.9 289.229 60.6833 289.229 62.25C289.229 63.0167 289.521 63.625 290.104 64.075C290.688 64.5083 291.504 64.725 292.554 64.725Z" fill="white" />
    </g>
    <g filter="url(#filter7_dd_78_12)">
        <path d="M50.355 26.455H36.705L33.765 33H31.07L42.27 8.5H44.825L56.025 33H53.295L50.355 26.455ZM49.41 24.355L43.53 11.195L37.65 24.355H49.41ZM69.0379 14.45C70.7646 14.45 72.3279 14.8467 73.7279 15.64C75.1279 16.41 76.2246 17.5067 77.0179 18.93C77.8112 20.3533 78.2079 21.975 78.2079 23.795C78.2079 25.6383 77.8112 27.2717 77.0179 28.695C76.2246 30.1183 75.1279 31.2267 73.7279 32.02C72.3512 32.79 70.7879 33.175 69.0379 33.175C67.5446 33.175 66.1912 32.8717 64.9779 32.265C63.7879 31.635 62.8079 30.725 62.0379 29.535V39.79H59.5529V14.59H61.9329V18.23C62.6796 17.0167 63.6596 16.0833 64.8729 15.43C66.1096 14.7767 67.4979 14.45 69.0379 14.45ZM68.8629 30.97C70.1462 30.97 71.3129 30.6783 72.3629 30.095C73.4129 29.4883 74.2296 28.6367 74.8129 27.54C75.4196 26.4433 75.7229 25.195 75.7229 23.795C75.7229 22.395 75.4196 21.1583 74.8129 20.085C74.2296 18.9883 73.4129 18.1367 72.3629 17.53C71.3129 16.9233 70.1462 16.62 68.8629 16.62C67.5562 16.62 66.3779 16.9233 65.3279 17.53C64.3012 18.1367 63.4846 18.9883 62.8779 20.085C62.2946 21.1583 62.0029 22.395 62.0029 23.795C62.0029 25.195 62.2946 26.4433 62.8779 27.54C63.4846 28.6367 64.3012 29.4883 65.3279 30.095C66.3779 30.6783 67.5562 30.97 68.8629 30.97ZM92.7586 14.45C94.4853 14.45 96.0486 14.8467 97.4486 15.64C98.8486 16.41 99.9453 17.5067 100.739 18.93C101.532 20.3533 101.929 21.975 101.929 23.795C101.929 25.6383 101.532 27.2717 100.739 28.695C99.9453 30.1183 98.8486 31.2267 97.4486 32.02C96.0719 32.79 94.5086 33.175 92.7586 33.175C91.2653 33.175 89.9119 32.8717 88.6986 32.265C87.5086 31.635 86.5286 30.725 85.7586 29.535V39.79H83.2736V14.59H85.6536V18.23C86.4003 17.0167 87.3803 16.0833 88.5936 15.43C89.8303 14.7767 91.2186 14.45 92.7586 14.45ZM92.5836 30.97C93.8669 30.97 95.0336 30.6783 96.0836 30.095C97.1336 29.4883 97.9503 28.6367 98.5336 27.54C99.1403 26.4433 99.4436 25.195 99.4436 23.795C99.4436 22.395 99.1403 21.1583 98.5336 20.085C97.9503 18.9883 97.1336 18.1367 96.0836 17.53C95.0336 16.9233 93.8669 16.62 92.5836 16.62C91.2769 16.62 90.0986 16.9233 89.0486 17.53C88.0219 18.1367 87.2053 18.9883 86.5986 20.085C86.0153 21.1583 85.7236 22.395 85.7236 23.795C85.7236 25.195 86.0153 26.4433 86.5986 27.54C87.2053 28.6367 88.0219 29.4883 89.0486 30.095C90.0986 30.6783 91.2769 30.97 92.5836 30.97ZM106.994 7.03H109.479V33H106.994V7.03ZM132.424 24.565H117.024C117.164 26.4783 117.899 28.03 119.229 29.22C120.559 30.3867 122.239 30.97 124.269 30.97C125.412 30.97 126.462 30.7717 127.419 30.375C128.375 29.955 129.204 29.3483 129.904 28.555L131.304 30.165C130.487 31.145 129.46 31.8917 128.224 32.405C127.01 32.9183 125.669 33.175 124.199 33.175C122.309 33.175 120.629 32.7783 119.159 31.985C117.712 31.1683 116.58 30.0483 115.764 28.625C114.947 27.2017 114.539 25.5917 114.539 23.795C114.539 21.9983 114.924 20.3883 115.694 18.965C116.487 17.5417 117.56 16.4333 118.914 15.64C120.29 14.8467 121.83 14.45 123.534 14.45C125.237 14.45 126.765 14.8467 128.119 15.64C129.472 16.4333 130.534 17.5417 131.304 18.965C132.074 20.365 132.459 21.975 132.459 23.795L132.424 24.565ZM123.534 16.585C121.76 16.585 120.267 17.1567 119.054 18.3C117.864 19.42 117.187 20.89 117.024 22.71H130.079C129.915 20.89 129.227 19.42 128.014 18.3C126.824 17.1567 125.33 16.585 123.534 16.585Z" fill="white" />
    </g>
    <g filter="url(#filter8_dd_78_12)">
        <path d="M223.23 12V33H221.1V16.2L212.85 30.33H211.8L203.55 16.29V33H201.42V12H203.25L212.37 27.57L221.4 12H223.23ZM236.162 33.15C234.602 33.15 233.202 32.81 231.962 32.13C230.742 31.45 229.782 30.5 229.082 29.28C228.382 28.04 228.032 26.65 228.032 25.11C228.032 23.57 228.382 22.19 229.082 20.97C229.782 19.75 230.742 18.8 231.962 18.12C233.202 17.44 234.602 17.1 236.162 17.1C237.522 17.1 238.732 17.37 239.792 17.91C240.872 18.43 241.722 19.2 242.342 20.22L240.752 21.3C240.232 20.52 239.572 19.94 238.772 19.56C237.972 19.16 237.102 18.96 236.162 18.96C235.022 18.96 233.992 19.22 233.072 19.74C232.172 20.24 231.462 20.96 230.942 21.9C230.442 22.84 230.192 23.91 230.192 25.11C230.192 26.33 230.442 27.41 230.942 28.35C231.462 29.27 232.172 29.99 233.072 30.51C233.992 31.01 235.022 31.26 236.162 31.26C237.102 31.26 237.972 31.07 238.772 30.69C239.572 30.31 240.232 29.73 240.752 28.95L242.342 30.03C241.722 31.05 240.872 31.83 239.792 32.37C238.712 32.89 237.502 33.15 236.162 33.15ZM246.977 12H255.527C257.747 12 259.707 12.45 261.407 13.35C263.107 14.23 264.427 15.47 265.367 17.07C266.307 18.65 266.777 20.46 266.777 22.5C266.777 24.54 266.307 26.36 265.367 27.96C264.427 29.54 263.107 30.78 261.407 31.68C259.707 32.56 257.747 33 255.527 33H246.977V12ZM255.407 31.08C257.247 31.08 258.857 30.72 260.237 30C261.617 29.26 262.687 28.25 263.447 26.97C264.207 25.67 264.587 24.18 264.587 22.5C264.587 20.82 264.207 19.34 263.447 18.06C262.687 16.76 261.617 15.75 260.237 15.03C258.857 14.29 257.247 13.92 255.407 13.92H249.197V31.08H255.407ZM277.762 33.15C276.242 33.15 274.872 32.81 273.652 32.13C272.432 31.43 271.472 30.47 270.772 29.25C270.072 28.03 269.722 26.65 269.722 25.11C269.722 23.57 270.072 22.19 270.772 20.97C271.472 19.75 272.432 18.8 273.652 18.12C274.872 17.44 276.242 17.1 277.762 17.1C279.282 17.1 280.652 17.44 281.872 18.12C283.092 18.8 284.042 19.75 284.722 20.97C285.422 22.19 285.772 23.57 285.772 25.11C285.772 26.65 285.422 28.03 284.722 29.25C284.042 30.47 283.092 31.43 281.872 32.13C280.652 32.81 279.282 33.15 277.762 33.15ZM277.762 31.26C278.882 31.26 279.882 31.01 280.762 30.51C281.662 29.99 282.362 29.26 282.862 28.32C283.362 27.38 283.612 26.31 283.612 25.11C283.612 23.91 283.362 22.84 282.862 21.9C282.362 20.96 281.662 20.24 280.762 19.74C279.882 19.22 278.882 18.96 277.762 18.96C276.642 18.96 275.632 19.22 274.732 19.74C273.852 20.24 273.152 20.96 272.632 21.9C272.132 22.84 271.882 23.91 271.882 25.11C271.882 26.31 272.132 27.38 272.632 28.32C273.152 29.26 273.852 29.99 274.732 30.51C275.632 31.01 276.642 31.26 277.762 31.26ZM298.16 17.1C300.14 17.1 301.71 17.68 302.87 18.84C304.05 19.98 304.64 21.65 304.64 23.85V33H302.51V24.06C302.51 22.42 302.1 21.17 301.28 20.31C300.46 19.45 299.29 19.02 297.77 19.02C296.07 19.02 294.72 19.53 293.72 20.55C292.74 21.55 292.25 22.94 292.25 24.72V33H290.12V17.22H292.16V20.13C292.74 19.17 293.54 18.43 294.56 17.91C295.6 17.37 296.8 17.1 298.16 17.1ZM315.943 17.1C318.003 17.1 319.583 17.62 320.683 18.66C321.783 19.68 322.333 21.2 322.333 23.22V33H320.293V30.54C319.813 31.36 319.103 32 318.163 32.46C317.243 32.92 316.143 33.15 314.863 33.15C313.103 33.15 311.703 32.73 310.663 31.89C309.623 31.05 309.103 29.94 309.103 28.56C309.103 27.22 309.583 26.14 310.543 25.32C311.523 24.5 313.073 24.09 315.193 24.09H320.203V23.13C320.203 21.77 319.823 20.74 319.063 20.04C318.303 19.32 317.193 18.96 315.733 18.96C314.733 18.96 313.773 19.13 312.853 19.47C311.933 19.79 311.143 20.24 310.483 20.82L309.523 19.23C310.323 18.55 311.283 18.03 312.403 17.67C313.523 17.29 314.703 17.1 315.943 17.1ZM315.193 31.47C316.393 31.47 317.423 31.2 318.283 30.66C319.143 30.1 319.783 29.3 320.203 28.26V25.68H315.253C312.553 25.68 311.203 26.62 311.203 28.5C311.203 29.42 311.553 30.15 312.253 30.69C312.953 31.21 313.933 31.47 315.193 31.47ZM328.118 10.74H330.248V33H328.118V10.74ZM350.575 10.74V33H348.535V29.88C347.895 30.94 347.045 31.75 345.985 32.31C344.945 32.87 343.765 33.15 342.445 33.15C340.965 33.15 339.625 32.81 338.425 32.13C337.225 31.45 336.285 30.5 335.605 29.28C334.925 28.06 334.585 26.67 334.585 25.11C334.585 23.55 334.925 22.16 335.605 20.94C336.285 19.72 337.225 18.78 338.425 18.12C339.625 17.44 340.965 17.1 342.445 17.1C343.725 17.1 344.875 17.37 345.895 17.91C346.935 18.43 347.785 19.2 348.445 20.22V10.74H350.575ZM342.625 31.26C343.725 31.26 344.715 31.01 345.595 30.51C346.495 29.99 347.195 29.26 347.695 28.32C348.215 27.38 348.475 26.31 348.475 25.11C348.475 23.91 348.215 22.84 347.695 21.9C347.195 20.96 346.495 20.24 345.595 19.74C344.715 19.22 343.725 18.96 342.625 18.96C341.505 18.96 340.495 19.22 339.595 19.74C338.715 20.24 338.015 20.96 337.495 21.9C336.995 22.84 336.745 23.91 336.745 25.11C336.745 26.31 336.995 27.38 337.495 28.32C338.015 29.26 338.715 29.99 339.595 30.51C340.495 31.01 341.505 31.26 342.625 31.26Z" fill="white" />
    </g>
    <g filter="url(#filter9_dd_78_12)">
        <path d="M25.97 56V77H24.14L10.64 59.96V77H8.42V56H10.25L23.78 73.04V56H25.97ZM32.3743 61.22H34.5043V77H32.3743V61.22ZM33.4543 57.77C33.0143 57.77 32.6443 57.62 32.3443 57.32C32.0443 57.02 31.8943 56.66 31.8943 56.24C31.8943 55.84 32.0443 55.49 32.3443 55.19C32.6443 54.89 33.0143 54.74 33.4543 54.74C33.8943 54.74 34.2643 54.89 34.5643 55.19C34.8643 55.47 35.0143 55.81 35.0143 56.21C35.0143 56.65 34.8643 57.02 34.5643 57.32C34.2643 57.62 33.8943 57.77 33.4543 57.77ZM46.2809 69.08L42.5609 72.5V77H40.4309V54.74H42.5609V69.83L51.9809 61.22H54.6209L47.8709 67.67L55.2509 77H52.6409L46.2809 69.08ZM71.544 69.77H58.344C58.464 71.41 59.094 72.74 60.234 73.76C61.374 74.76 62.814 75.26 64.554 75.26C65.534 75.26 66.434 75.09 67.254 74.75C68.074 74.39 68.784 73.87 69.384 73.19L70.584 74.57C69.884 75.41 69.004 76.05 67.944 76.49C66.904 76.93 65.754 77.15 64.494 77.15C62.874 77.15 61.434 76.81 60.174 76.13C58.934 75.43 57.964 74.47 57.264 73.25C56.564 72.03 56.214 70.65 56.214 69.11C56.214 67.57 56.544 66.19 57.204 64.97C57.884 63.75 58.804 62.8 59.964 62.12C61.144 61.44 62.464 61.1 63.924 61.1C65.384 61.1 66.694 61.44 67.854 62.12C69.014 62.8 69.924 63.75 70.584 64.97C71.244 66.17 71.574 67.55 71.574 69.11L71.544 69.77ZM63.924 62.93C62.404 62.93 61.124 63.42 60.084 64.4C59.064 65.36 58.484 66.62 58.344 68.18H69.534C69.394 66.62 68.804 65.36 67.764 64.4C66.744 63.42 65.464 62.93 63.924 62.93Z" fill="white" />
    </g>
    <g filter="url(#filter10_dd_78_12)">
        <path d="M208.99 91.5H218.965C221.555 91.5 223.842 92.025 225.825 93.075C227.808 94.1017 229.348 95.5483 230.445 97.415C231.542 99.2583 232.09 101.37 232.09 103.75C232.09 106.13 231.542 108.253 230.445 110.12C229.348 111.963 227.808 113.41 225.825 114.46C223.842 115.487 221.555 116 218.965 116H208.99V91.5ZM218.825 113.76C220.972 113.76 222.85 113.34 224.46 112.5C226.07 111.637 227.318 110.458 228.205 108.965C229.092 107.448 229.535 105.71 229.535 103.75C229.535 101.79 229.092 100.063 228.205 98.57C227.318 97.0533 226.07 95.875 224.46 95.035C222.85 94.1717 220.972 93.74 218.825 93.74H211.58V113.76H218.825ZM237.381 97.59H239.866V116H237.381V97.59ZM238.641 93.565C238.128 93.565 237.696 93.39 237.346 93.04C236.996 92.69 236.821 92.27 236.821 91.78C236.821 91.3133 236.996 90.905 237.346 90.555C237.696 90.205 238.128 90.03 238.641 90.03C239.154 90.03 239.586 90.205 239.936 90.555C240.286 90.8817 240.461 91.2783 240.461 91.745C240.461 92.2583 240.286 92.69 239.936 93.04C239.586 93.39 239.154 93.565 238.641 93.565ZM251.715 116.175C250.222 116.175 248.787 115.965 247.41 115.545C246.057 115.102 244.995 114.553 244.225 113.9L245.345 111.94C246.115 112.547 247.084 113.048 248.25 113.445C249.417 113.818 250.63 114.005 251.89 114.005C253.57 114.005 254.807 113.748 255.6 113.235C256.417 112.698 256.825 111.952 256.825 110.995C256.825 110.318 256.604 109.793 256.16 109.42C255.717 109.023 255.157 108.732 254.48 108.545C253.804 108.335 252.905 108.137 251.785 107.95C250.292 107.67 249.09 107.39 248.18 107.11C247.27 106.807 246.489 106.305 245.835 105.605C245.205 104.905 244.89 103.937 244.89 102.7C244.89 101.16 245.532 99.9 246.815 98.92C248.099 97.94 249.884 97.45 252.17 97.45C253.36 97.45 254.55 97.6133 255.74 97.94C256.93 98.2433 257.91 98.6517 258.68 99.165L257.595 101.16C256.079 100.11 254.27 99.585 252.17 99.585C250.584 99.585 249.382 99.865 248.565 100.425C247.772 100.985 247.375 101.72 247.375 102.63C247.375 103.33 247.597 103.89 248.04 104.31C248.507 104.73 249.079 105.045 249.755 105.255C250.432 105.442 251.365 105.64 252.555 105.85C254.025 106.13 255.204 106.41 256.09 106.69C256.977 106.97 257.735 107.448 258.365 108.125C258.995 108.802 259.31 109.735 259.31 110.925C259.31 112.535 258.634 113.818 257.28 114.775C255.95 115.708 254.095 116.175 251.715 116.175ZM273.284 97.45C275.594 97.45 277.426 98.1267 278.779 99.48C280.156 100.81 280.844 102.758 280.844 105.325V116H278.359V105.57C278.359 103.657 277.881 102.198 276.924 101.195C275.968 100.192 274.603 99.69 272.829 99.69C270.846 99.69 269.271 100.285 268.104 101.475C266.961 102.642 266.389 104.263 266.389 106.34V116H263.904V97.59H266.284V100.985C266.961 99.865 267.894 99.0017 269.084 98.395C270.298 97.765 271.698 97.45 273.284 97.45ZM303.689 107.565H288.289C288.429 109.478 289.164 111.03 290.494 112.22C291.824 113.387 293.504 113.97 295.534 113.97C296.678 113.97 297.728 113.772 298.684 113.375C299.641 112.955 300.469 112.348 301.169 111.555L302.569 113.165C301.753 114.145 300.726 114.892 299.489 115.405C298.276 115.918 296.934 116.175 295.464 116.175C293.574 116.175 291.894 115.778 290.424 114.985C288.978 114.168 287.846 113.048 287.029 111.625C286.213 110.202 285.804 108.592 285.804 106.795C285.804 104.998 286.189 103.388 286.959 101.965C287.753 100.542 288.826 99.4333 290.179 98.64C291.556 97.8467 293.096 97.45 294.799 97.45C296.503 97.45 298.031 97.8467 299.384 98.64C300.738 99.4333 301.799 100.542 302.569 101.965C303.339 103.365 303.724 104.975 303.724 106.795L303.689 107.565ZM294.799 99.585C293.026 99.585 291.533 100.157 290.319 101.3C289.129 102.42 288.453 103.89 288.289 105.71H301.344C301.181 103.89 300.493 102.42 299.279 101.3C298.089 100.157 296.596 99.585 294.799 99.585ZM323.911 97.59L314.706 118.205C313.959 119.932 313.096 121.157 312.116 121.88C311.136 122.603 309.957 122.965 308.581 122.965C307.694 122.965 306.866 122.825 306.096 122.545C305.326 122.265 304.661 121.845 304.101 121.285L305.256 119.43C306.189 120.363 307.309 120.83 308.616 120.83C309.456 120.83 310.167 120.597 310.751 120.13C311.357 119.663 311.917 118.87 312.431 117.75L313.236 115.965L305.011 97.59H307.601L314.531 113.235L321.461 97.59H323.911Z" fill="white" />
    </g>
    <g filter="url(#filter11_dd_78_12)">
        <path d="M227.54 215.18C225.46 215.18 223.58 214.72 221.9 213.8C220.24 212.88 218.93 211.61 217.97 209.99C217.03 208.35 216.56 206.52 216.56 204.5C216.56 202.48 217.03 200.66 217.97 199.04C218.93 197.4 220.25 196.12 221.93 195.2C223.61 194.28 225.49 193.82 227.57 193.82C229.13 193.82 230.57 194.08 231.89 194.6C233.21 195.12 234.33 195.88 235.25 196.88L233.84 198.29C232.2 196.63 230.13 195.8 227.63 195.8C225.97 195.8 224.46 196.18 223.1 196.94C221.74 197.7 220.67 198.74 219.89 200.06C219.13 201.38 218.75 202.86 218.75 204.5C218.75 206.14 219.13 207.62 219.89 208.94C220.67 210.26 221.74 211.3 223.1 212.06C224.46 212.82 225.97 213.2 227.63 213.2C230.15 213.2 232.22 212.36 233.84 210.68L235.25 212.09C234.33 213.09 233.2 213.86 231.86 214.4C230.54 214.92 229.1 215.18 227.54 215.18ZM245.279 215.15C243.759 215.15 242.389 214.81 241.169 214.13C239.949 213.43 238.989 212.47 238.289 211.25C237.589 210.03 237.239 208.65 237.239 207.11C237.239 205.57 237.589 204.19 238.289 202.97C238.989 201.75 239.949 200.8 241.169 200.12C242.389 199.44 243.759 199.1 245.279 199.1C246.799 199.1 248.169 199.44 249.389 200.12C250.609 200.8 251.559 201.75 252.239 202.97C252.939 204.19 253.289 205.57 253.289 207.11C253.289 208.65 252.939 210.03 252.239 211.25C251.559 212.47 250.609 213.43 249.389 214.13C248.169 214.81 246.799 215.15 245.279 215.15ZM245.279 213.26C246.399 213.26 247.399 213.01 248.279 212.51C249.179 211.99 249.879 211.26 250.379 210.32C250.879 209.38 251.129 208.31 251.129 207.11C251.129 205.91 250.879 204.84 250.379 203.9C249.879 202.96 249.179 202.24 248.279 201.74C247.399 201.22 246.399 200.96 245.279 200.96C244.159 200.96 243.149 201.22 242.249 201.74C241.369 202.24 240.669 202.96 240.149 203.9C239.649 204.84 239.399 205.91 239.399 207.11C239.399 208.31 239.649 209.38 240.149 210.32C240.669 211.26 241.369 211.99 242.249 212.51C243.149 213.01 244.159 213.26 245.279 213.26ZM264.178 215.15C262.618 215.15 261.218 214.81 259.978 214.13C258.758 213.45 257.798 212.5 257.098 211.28C256.398 210.04 256.048 208.65 256.048 207.11C256.048 205.57 256.398 204.19 257.098 202.97C257.798 201.75 258.758 200.8 259.978 200.12C261.218 199.44 262.618 199.1 264.178 199.1C265.538 199.1 266.748 199.37 267.808 199.91C268.888 200.43 269.738 201.2 270.358 202.22L268.768 203.3C268.248 202.52 267.588 201.94 266.788 201.56C265.988 201.16 265.118 200.96 264.178 200.96C263.038 200.96 262.008 201.22 261.088 201.74C260.188 202.24 259.478 202.96 258.958 203.9C258.458 204.84 258.208 205.91 258.208 207.11C258.208 208.33 258.458 209.41 258.958 210.35C259.478 211.27 260.188 211.99 261.088 212.51C262.008 213.01 263.038 213.26 264.178 213.26C265.118 213.26 265.988 213.07 266.788 212.69C267.588 212.31 268.248 211.73 268.768 210.95L270.358 212.03C269.738 213.05 268.888 213.83 267.808 214.37C266.728 214.89 265.518 215.15 264.178 215.15ZM280.062 199.1C282.122 199.1 283.702 199.62 284.802 200.66C285.902 201.68 286.452 203.2 286.452 205.22V215H284.412V212.54C283.932 213.36 283.222 214 282.282 214.46C281.362 214.92 280.262 215.15 278.982 215.15C277.222 215.15 275.822 214.73 274.782 213.89C273.742 213.05 273.222 211.94 273.222 210.56C273.222 209.22 273.702 208.14 274.662 207.32C275.642 206.5 277.192 206.09 279.312 206.09H284.322V205.13C284.322 203.77 283.942 202.74 283.182 202.04C282.422 201.32 281.312 200.96 279.852 200.96C278.852 200.96 277.892 201.13 276.972 201.47C276.052 201.79 275.262 202.24 274.602 202.82L273.642 201.23C274.442 200.55 275.402 200.03 276.522 199.67C277.642 199.29 278.822 199.1 280.062 199.1ZM279.312 213.47C280.512 213.47 281.542 213.2 282.402 212.66C283.262 212.1 283.902 211.3 284.322 210.26V207.68H279.372C276.672 207.68 275.322 208.62 275.322 210.5C275.322 211.42 275.672 212.15 276.372 212.69C277.072 213.21 278.052 213.47 279.312 213.47ZM301.808 215.18C299.728 215.18 297.848 214.72 296.168 213.8C294.508 212.88 293.198 211.61 292.238 209.99C291.298 208.35 290.828 206.52 290.828 204.5C290.828 202.48 291.298 200.66 292.238 199.04C293.198 197.4 294.518 196.12 296.198 195.2C297.878 194.28 299.758 193.82 301.838 193.82C303.398 193.82 304.838 194.08 306.158 194.6C307.478 195.12 308.598 195.88 309.518 196.88L308.108 198.29C306.468 196.63 304.398 195.8 301.898 195.8C300.238 195.8 298.728 196.18 297.368 196.94C296.008 197.7 294.938 198.74 294.158 200.06C293.398 201.38 293.018 202.86 293.018 204.5C293.018 206.14 293.398 207.62 294.158 208.94C294.938 210.26 296.008 211.3 297.368 212.06C298.728 212.82 300.238 213.2 301.898 213.2C304.418 213.2 306.488 212.36 308.108 210.68L309.518 212.09C308.598 213.09 307.468 213.86 306.128 214.4C304.808 214.92 303.368 215.18 301.808 215.18ZM319.547 215.15C318.027 215.15 316.657 214.81 315.437 214.13C314.217 213.43 313.257 212.47 312.557 211.25C311.857 210.03 311.507 208.65 311.507 207.11C311.507 205.57 311.857 204.19 312.557 202.97C313.257 201.75 314.217 200.8 315.437 200.12C316.657 199.44 318.027 199.1 319.547 199.1C321.067 199.1 322.437 199.44 323.657 200.12C324.877 200.8 325.827 201.75 326.507 202.97C327.207 204.19 327.557 205.57 327.557 207.11C327.557 208.65 327.207 210.03 326.507 211.25C325.827 212.47 324.877 213.43 323.657 214.13C322.437 214.81 321.067 215.15 319.547 215.15ZM319.547 213.26C320.667 213.26 321.667 213.01 322.547 212.51C323.447 211.99 324.147 211.26 324.647 210.32C325.147 209.38 325.397 208.31 325.397 207.11C325.397 205.91 325.147 204.84 324.647 203.9C324.147 202.96 323.447 202.24 322.547 201.74C321.667 201.22 320.667 200.96 319.547 200.96C318.427 200.96 317.417 201.22 316.517 201.74C315.637 202.24 314.937 202.96 314.417 203.9C313.917 204.84 313.667 205.91 313.667 207.11C313.667 208.31 313.917 209.38 314.417 210.32C314.937 211.26 315.637 211.99 316.517 212.51C317.417 213.01 318.427 213.26 319.547 213.26ZM331.906 192.74H334.036V215H331.906V192.74ZM345.482 199.1C347.542 199.1 349.122 199.62 350.222 200.66C351.322 201.68 351.872 203.2 351.872 205.22V215H349.832V212.54C349.352 213.36 348.642 214 347.702 214.46C346.782 214.92 345.682 215.15 344.402 215.15C342.642 215.15 341.242 214.73 340.202 213.89C339.162 213.05 338.642 211.94 338.642 210.56C338.642 209.22 339.122 208.14 340.082 207.32C341.062 206.5 342.612 206.09 344.732 206.09H349.742V205.13C349.742 203.77 349.362 202.74 348.602 202.04C347.842 201.32 346.732 200.96 345.272 200.96C344.272 200.96 343.312 201.13 342.392 201.47C341.472 201.79 340.682 202.24 340.022 202.82L339.062 201.23C339.862 200.55 340.822 200.03 341.942 199.67C343.062 199.29 344.242 199.1 345.482 199.1ZM344.732 213.47C345.932 213.47 346.962 213.2 347.822 212.66C348.682 212.1 349.322 211.3 349.742 210.26V207.68H344.792C342.092 207.68 340.742 208.62 340.742 210.5C340.742 211.42 341.092 212.15 341.792 212.69C342.492 213.21 343.472 213.47 344.732 213.47Z" fill="white" />
    </g>
    <defs>
        <filter id="filter0_dd_78_12" x="51.8201" y="98.03" width="130.061" height="40.935" filterUnits="userSpaceOnUse" color-interpolation-filters="sRGB">
            <feFlood flood-opacity="0" result="BackgroundImageFix" />
            <feColorMatrix in="SourceAlpha" type="matrix" values="0 0 0 0 0 0 0 0 0 0 0 0 0 0 0 0 0 0 127 0" result="hardAlpha" />
            <feOffset dy="4" />
            <feGaussianBlur stdDeviation="2" />
            <feComposite in2="hardAlpha" operator="out" />
            <feColorMatrix type="matrix" values="0 0 0 0 0 0 0 0 0 0 0 0 0 0 0 0 0 0 0.25 0" />
            <feBlend mode="normal" in2="BackgroundImageFix" result="effect1_dropShadow_78_12" />
            <feColorMatrix in="SourceAlpha" type="matrix" values="0 0 0 0 0 0 0 0 0 0 0 0 0 0 0 0 0 0 127 0" result="hardAlpha" />
            <feOffset dy="4" />
            <feGaussianBlur stdDeviation="2" />
            <feComposite in2="hardAlpha" operator="out" />
            <feColorMatrix type="matrix" values="0 0 0 0 0 0 0 0 0 0 0 0 0 0 0 0 0 0 0.25 0" />
            <feBlend mode="normal" in2="effect1_dropShadow_78_12" result="effect2_dropShadow_78_12" />
            <feBlend mode="normal" in="SourceGraphic" in2="effect2_dropShadow_78_12" result="shape" />
        </filter>
        <filter id="filter1_dd_78_12" x="12.4199" y="144.74" width="126.223" height="30.41" filterUnits="userSpaceOnUse" color-interpolation-filters="sRGB">
            <feFlood flood-opacity="0" result="BackgroundImageFix" />
            <feColorMatrix in="SourceAlpha" type="matrix" values="0 0 0 0 0 0 0 0 0 0 0 0 0 0 0 0 0 0 127 0" result="hardAlpha" />
            <feOffset dy="4" />
            <feGaussianBlur stdDeviation="2" />
            <feComposite in2="hardAlpha" operator="out" />
            <feColorMatrix type="matrix" values="0 0 0 0 0 0 0 0 0 0 0 0 0 0 0 0 0 0 0.25 0" />
            <feBlend mode="normal" in2="BackgroundImageFix" result="effect1_dropShadow_78_12" />
            <feColorMatrix in="SourceAlpha" type="matrix" values="0 0 0 0 0 0 0 0 0 0 0 0 0 0 0 0 0 0 127 0" result="hardAlpha" />
            <feOffset dy="4" />
            <feGaussianBlur stdDeviation="2" />
            <feComposite in2="hardAlpha" operator="out" />
            <feColorMatrix type="matrix" values="0 0 0 0 0 0 0 0 0 0 0 0 0 0 0 0 0 0 0.25 0" />
            <feBlend mode="normal" in2="effect1_dropShadow_78_12" result="effect2_dropShadow_78_12" />
            <feBlend mode="normal" in="SourceGraphic" in2="effect2_dropShadow_78_12" result="shape" />
        </filter>
        <filter id="filter2_dd_78_12" x="267.42" y="137.74" width="86.241" height="30.41" filterUnits="userSpaceOnUse" color-interpolation-filters="sRGB">
            <feFlood flood-opacity="0" result="BackgroundImageFix" />
            <feColorMatrix in="SourceAlpha" type="matrix" values="0 0 0 0 0 0 0 0 0 0 0 0 0 0 0 0 0 0 127 0" result="hardAlpha" />
            <feOffset dy="4" />
            <feGaussianBlur stdDeviation="2" />
            <feComposite in2="hardAlpha" operator="out" />
            <feColorMatrix type="matrix" values="0 0 0 0 0 0 0 0 0 0 0 0 0 0 0 0 0 0 0.25 0" />
            <feBlend mode="normal" in2="BackgroundImageFix" result="effect1_dropShadow_78_12" />
            <feColorMatrix in="SourceAlpha" type="matrix" values="0 0 0 0 0 0 0 0 0 0 0 0 0 0 0 0 0 0 127 0" result="hardAlpha" />
            <feOffset dy="4" />
            <feGaussianBlur stdDeviation="2" />
            <feComposite in2="hardAlpha" operator="out" />
            <feColorMatrix type="matrix" values="0 0 0 0 0 0 0 0 0 0 0 0 0 0 0 0 0 0 0.25 0" />
            <feBlend mode="normal" in2="effect1_dropShadow_78_12" result="effect2_dropShadow_78_12" />
            <feBlend mode="normal" in="SourceGraphic" in2="effect2_dropShadow_78_12" result="shape" />
        </filter>
        <filter id="filter3_dd_78_12" x="173.85" y="151.5" width="78.8291" height="25.625" filterUnits="userSpaceOnUse" color-interpolation-filters="sRGB">
            <feFlood flood-opacity="0" result="BackgroundImageFix" />
            <feColorMatrix in="SourceAlpha" type="matrix" values="0 0 0 0 0 0 0 0 0 0 0 0 0 0 0 0 0 0 127 0" result="hardAlpha" />
            <feOffset dy="4" />
            <feGaussianBlur stdDeviation="2" />
            <feComposite in2="hardAlpha" operator="out" />
            <feColorMatrix type="matrix" values="0 0 0 0 0 0 0 0 0 0 0 0 0 0 0 0 0 0 0.25 0" />
            <feBlend mode="normal" in2="BackgroundImageFix" result="effect1_dropShadow_78_12" />
            <feColorMatrix in="SourceAlpha" type="matrix" values="0 0 0 0 0 0 0 0 0 0 0 0 0 0 0 0 0 0 127 0" result="hardAlpha" />
            <feOffset dy="4" />
            <feGaussianBlur stdDeviation="2" />
            <feComposite in2="hardAlpha" operator="out" />
            <feColorMatrix type="matrix" values="0 0 0 0 0 0 0 0 0 0 0 0 0 0 0 0 0 0 0.25 0" />
            <feBlend mode="normal" in2="effect1_dropShadow_78_12" result="effect2_dropShadow_78_12" />
            <feBlend mode="normal" in="SourceGraphic" in2="effect2_dropShadow_78_12" result="shape" />
        </filter>
        <filter id="filter4_dd_78_12" x="115.85" y="53.45" width="60.3965" height="26.675" filterUnits="userSpaceOnUse" color-interpolation-filters="sRGB">
            <feFlood flood-opacity="0" result="BackgroundImageFix" />
            <feColorMatrix in="SourceAlpha" type="matrix" values="0 0 0 0 0 0 0 0 0 0 0 0 0 0 0 0 0 0 127 0" result="hardAlpha" />
            <feOffset dy="4" />
            <feGaussianBlur stdDeviation="2" />
            <feComposite in2="hardAlpha" operator="out" />
            <feColorMatrix type="matrix" values="0 0 0 0 0 0 0 0 0 0 0 0 0 0 0 0 0 0 0.25 0" />
            <feBlend mode="normal" in2="BackgroundImageFix" result="effect1_dropShadow_78_12" />
            <feColorMatrix in="SourceAlpha" type="matrix" values="0 0 0 0 0 0 0 0 0 0 0 0 0 0 0 0 0 0 127 0" result="hardAlpha" />
            <feOffset dy="4" />
            <feGaussianBlur stdDeviation="2" />
            <feComposite in2="hardAlpha" operator="out" />
            <feColorMatrix type="matrix" values="0 0 0 0 0 0 0 0 0 0 0 0 0 0 0 0 0 0 0.25 0" />
            <feBlend mode="normal" in2="effect1_dropShadow_78_12" result="effect2_dropShadow_78_12" />
            <feBlend mode="normal" in="SourceGraphic" in2="effect2_dropShadow_78_12" result="shape" />
        </filter>
        <filter id="filter5_dd_78_12" x="6.8501" y="194.45" width="169.312" height="31.525" filterUnits="userSpaceOnUse" color-interpolation-filters="sRGB">
            <feFlood flood-opacity="0" result="BackgroundImageFix" />
            <feColorMatrix in="SourceAlpha" type="matrix" values="0 0 0 0 0 0 0 0 0 0 0 0 0 0 0 0 0 0 127 0" result="hardAlpha" />
            <feOffset dy="4" />
            <feGaussianBlur stdDeviation="2" />
            <feComposite in2="hardAlpha" operator="out" />
            <feColorMatrix type="matrix" values="0 0 0 0 0 0 0 0 0 0 0 0 0 0 0 0 0 0 0.25 0" />
            <feBlend mode="normal" in2="BackgroundImageFix" result="effect1_dropShadow_78_12" />
            <feColorMatrix in="SourceAlpha" type="matrix" values="0 0 0 0 0 0 0 0 0 0 0 0 0 0 0 0 0 0 127 0" result="hardAlpha" />
            <feOffset dy="4" />
            <feGaussianBlur stdDeviation="2" />
            <feComposite in2="hardAlpha" operator="out" />
            <feColorMatrix type="matrix" values="0 0 0 0 0 0 0 0 0 0 0 0 0 0 0 0 0 0 0.25 0" />
            <feBlend mode="normal" in2="effect1_dropShadow_78_12" result="effect2_dropShadow_78_12" />
            <feBlend mode="normal" in="SourceGraphic" in2="effect2_dropShadow_78_12" result="shape" />
        </filter>
        <filter id="filter6_dd_78_12" x="227.85" y="48.5" width="74.6543" height="25.625" filterUnits="userSpaceOnUse" color-interpolation-filters="sRGB">
            <feFlood flood-opacity="0" result="BackgroundImageFix" />
            <feColorMatrix in="SourceAlpha" type="matrix" values="0 0 0 0 0 0 0 0 0 0 0 0 0 0 0 0 0 0 127 0" result="hardAlpha" />
            <feOffset dy="4" />
            <feGaussianBlur stdDeviation="2" />
            <feComposite in2="hardAlpha" operator="out" />
            <feColorMatrix type="matrix" values="0 0 0 0 0 0 0 0 0 0 0 0 0 0 0 0 0 0 0.25 0" />
            <feBlend mode="normal" in2="BackgroundImageFix" result="effect1_dropShadow_78_12" />
            <feColorMatrix in="SourceAlpha" type="matrix" values="0 0 0 0 0 0 0 0 0 0 0 0 0 0 0 0 0 0 127 0" result="hardAlpha" />
            <feOffset dy="4" />
            <feGaussianBlur stdDeviation="2" />
            <feComposite in2="hardAlpha" operator="out" />
            <feColorMatrix type="matrix" values="0 0 0 0 0 0 0 0 0 0 0 0 0 0 0 0 0 0 0.25 0" />
            <feBlend mode="normal" in2="effect1_dropShadow_78_12" result="effect2_dropShadow_78_12" />
            <feBlend mode="normal" in="SourceGraphic" in2="effect2_dropShadow_78_12" result="shape" />
        </filter>
        <filter id="filter7_dd_78_12" x="27.0701" y="7.03003" width="109.389" height="40.7599" filterUnits="userSpaceOnUse" color-interpolation-filters="sRGB">
            <feFlood flood-opacity="0" result="BackgroundImageFix" />
            <feColorMatrix in="SourceAlpha" type="matrix" values="0 0 0 0 0 0 0 0 0 0 0 0 0 0 0 0 0 0 127 0" result="hardAlpha" />
            <feOffset dy="4" />
            <feGaussianBlur stdDeviation="2" />
            <feComposite in2="hardAlpha" operator="out" />
            <feColorMatrix type="matrix" values="0 0 0 0 0 0 0 0 0 0 0 0 0 0 0 0 0 0 0.25 0" />
            <feBlend mode="normal" in2="BackgroundImageFix" result="effect1_dropShadow_78_12" />
            <feColorMatrix in="SourceAlpha" type="matrix" values="0 0 0 0 0 0 0 0 0 0 0 0 0 0 0 0 0 0 127 0" result="hardAlpha" />
            <feOffset dy="4" />
            <feGaussianBlur stdDeviation="2" />
            <feComposite in2="hardAlpha" operator="out" />
            <feColorMatrix type="matrix" values="0 0 0 0 0 0 0 0 0 0 0 0 0 0 0 0 0 0 0.25 0" />
            <feBlend mode="normal" in2="effect1_dropShadow_78_12" result="effect2_dropShadow_78_12" />
            <feBlend mode="normal" in="SourceGraphic" in2="effect2_dropShadow_78_12" result="shape" />
        </filter>
        <filter id="filter8_dd_78_12" x="197.42" y="10.74" width="157.155" height="30.41" filterUnits="userSpaceOnUse" color-interpolation-filters="sRGB">
            <feFlood flood-opacity="0" result="BackgroundImageFix" />
            <feColorMatrix in="SourceAlpha" type="matrix" values="0 0 0 0 0 0 0 0 0 0 0 0 0 0 0 0 0 0 127 0" result="hardAlpha" />
            <feOffset dy="4" />
            <feGaussianBlur stdDeviation="2" />
            <feComposite in2="hardAlpha" operator="out" />
            <feColorMatrix type="matrix" values="0 0 0 0 0 0 0 0 0 0 0 0 0 0 0 0 0 0 0.25 0" />
            <feBlend mode="normal" in2="BackgroundImageFix" result="effect1_dropShadow_78_12" />
            <feColorMatrix in="SourceAlpha" type="matrix" values="0 0 0 0 0 0 0 0 0 0 0 0 0 0 0 0 0 0 127 0" result="hardAlpha" />
            <feOffset dy="4" />
            <feGaussianBlur stdDeviation="2" />
            <feComposite in2="hardAlpha" operator="out" />
            <feColorMatrix type="matrix" values="0 0 0 0 0 0 0 0 0 0 0 0 0 0 0 0 0 0 0.25 0" />
            <feBlend mode="normal" in2="effect1_dropShadow_78_12" result="effect2_dropShadow_78_12" />
            <feBlend mode="normal" in="SourceGraphic" in2="effect2_dropShadow_78_12" result="shape" />
        </filter>
        <filter id="filter9_dd_78_12" x="4.41992" y="54.74" width="71.1541" height="30.41" filterUnits="userSpaceOnUse" color-interpolation-filters="sRGB">
            <feFlood flood-opacity="0" result="BackgroundImageFix" />
            <feColorMatrix in="SourceAlpha" type="matrix" values="0 0 0 0 0 0 0 0 0 0 0 0 0 0 0 0 0 0 127 0" result="hardAlpha" />
            <feOffset dy="4" />
            <feGaussianBlur stdDeviation="2" />
            <feComposite in2="hardAlpha" operator="out" />
            <feColorMatrix type="matrix" values="0 0 0 0 0 0 0 0 0 0 0 0 0 0 0 0 0 0 0.25 0" />
            <feBlend mode="normal" in2="BackgroundImageFix" result="effect1_dropShadow_78_12" />
            <feColorMatrix in="SourceAlpha" type="matrix" values="0 0 0 0 0 0 0 0 0 0 0 0 0 0 0 0 0 0 127 0" result="hardAlpha" />
            <feOffset dy="4" />
            <feGaussianBlur stdDeviation="2" />
            <feComposite in2="hardAlpha" operator="out" />
            <feColorMatrix type="matrix" values="0 0 0 0 0 0 0 0 0 0 0 0 0 0 0 0 0 0 0.25 0" />
            <feBlend mode="normal" in2="effect1_dropShadow_78_12" result="effect2_dropShadow_78_12" />
            <feBlend mode="normal" in="SourceGraphic" in2="effect2_dropShadow_78_12" result="shape" />
        </filter>
        <filter id="filter10_dd_78_12" x="204.99" y="90.03" width="122.921" height="40.935" filterUnits="userSpaceOnUse" color-interpolation-filters="sRGB">
            <feFlood flood-opacity="0" result="BackgroundImageFix" />
            <feColorMatrix in="SourceAlpha" type="matrix" values="0 0 0 0 0 0 0 0 0 0 0 0 0 0 0 0 0 0 127 0" result="hardAlpha" />
            <feOffset dy="4" />
            <feGaussianBlur stdDeviation="2" />
            <feComposite in2="hardAlpha" operator="out" />
            <feColorMatrix type="matrix" values="0 0 0 0 0 0 0 0 0 0 0 0 0 0 0 0 0 0 0.25 0" />
            <feBlend mode="normal" in2="BackgroundImageFix" result="effect1_dropShadow_78_12" />
            <feColorMatrix in="SourceAlpha" type="matrix" values="0 0 0 0 0 0 0 0 0 0 0 0 0 0 0 0 0 0 127 0" result="hardAlpha" />
            <feOffset dy="4" />
            <feGaussianBlur stdDeviation="2" />
            <feComposite in2="hardAlpha" operator="out" />
            <feColorMatrix type="matrix" values="0 0 0 0 0 0 0 0 0 0 0 0 0 0 0 0 0 0 0.25 0" />
            <feBlend mode="normal" in2="effect1_dropShadow_78_12" result="effect2_dropShadow_78_12" />
            <feBlend mode="normal" in="SourceGraphic" in2="effect2_dropShadow_78_12" result="shape" />
        </filter>
        <filter id="filter11_dd_78_12" x="212.56" y="192.74" width="143.312" height="30.44" filterUnits="userSpaceOnUse" color-interpolation-filters="sRGB">
            <feFlood flood-opacity="0" result="BackgroundImageFix" />
            <feColorMatrix in="SourceAlpha" type="matrix" values="0 0 0 0 0 0 0 0 0 0 0 0 0 0 0 0 0 0 127 0" result="hardAlpha" />
            <feOffset dy="4" />
            <feGaussianBlur stdDeviation="2" />
            <feComposite in2="hardAlpha" operator="out" />
            <feColorMatrix type="matrix" values="0 0 0 0 0 0 0 0 0 0 0 0 0 0 0 0 0 0 0.25 0" />
            <feBlend mode="normal" in2="BackgroundImageFix" result="effect1_dropShadow_78_12" />
            <feColorMatrix in="SourceAlpha" type="matrix" values="0 0 0 0 0 0 0 0 0 0 0 0 0 0 0 0 0 0 127 0" result="hardAlpha" />
            <feOffset dy="4" />
            <feGaussianBlur stdDeviation="2" />
            <feComposite in2="hardAlpha" operator="out" />
            <feColorMatrix type="matrix" values="0 0 0 0 0 0 0 0 0 0 0 0 0 0 0 0 0 0 0.25 0" />
            <feBlend mode="normal" in2="effect1_dropShadow_78_12" result="effect2_dropShadow_78_12" />
            <feBlend mode="normal" in="SourceGraphic" in2="effect2_dropShadow_78_12" result="shape" />
        </filter>
    </defs>
</svg>
