<svg width="385" height="228" viewBox="0 0 385 228" fill="none" xmlns="http://www.w3.org/2000/svg">
    <rect width="385" height="228" fill="#49454E" />
    <path d="M256.712 39.736L256.904 39.448C258.355 39.4693 259.581 39.704 260.584 40.152C261.587 40.5787 262.333 41.1973 262.824 42.008C263.336 42.8187 263.592 43.8 263.592 44.952C263.592 46.1467 263.304 47.2027 262.728 48.12C262.173 49.016 261.288 49.72 260.072 50.232C258.877 50.744 257.341 51 255.464 51H246.568V49.624L249.736 48.952L249.32 49.528V30.2L249.832 30.808L246.568 30.2V28.824L251.848 28.664H255.816C257.352 28.664 258.632 28.8773 259.656 29.304C260.68 29.7307 261.448 30.3493 261.96 31.16C262.472 31.9707 262.728 32.9627 262.728 34.136C262.728 35.672 262.259 36.92 261.32 37.88C260.381 38.84 258.845 39.4587 256.712 39.736ZM255.272 30.584H251.464L251.944 30.104V39.096L251.464 38.648H254.472C255.731 38.648 256.776 38.488 257.608 38.168C258.44 37.848 259.059 37.3787 259.464 36.76C259.869 36.1413 260.072 35.384 260.072 34.488C260.072 33.6133 259.891 32.888 259.528 32.312C259.165 31.736 258.632 31.3093 257.928 31.032C257.224 30.7333 256.339 30.584 255.272 30.584ZM255.272 49.08C256.531 49.08 257.576 48.9093 258.408 48.568C259.24 48.2267 259.859 47.7467 260.264 47.128C260.691 46.488 260.904 45.7093 260.904 44.792C260.904 43.896 260.712 43.1387 260.328 42.52C259.965 41.88 259.421 41.3893 258.696 41.048C257.992 40.7067 257.139 40.536 256.136 40.536H251.464L251.944 40.024V49.528L251.464 49.08H255.272ZM271.241 49.368L270.953 49.016L273.737 49.624V51H266.185V49.624L268.969 49.016L268.681 49.368V35.864L268.937 36.152L266.185 35.576V34.2L271.241 34.008V49.368ZM269.769 30.552C269.278 30.552 268.873 30.392 268.553 30.072C268.233 29.752 268.073 29.3147 268.073 28.76C268.073 28.184 268.233 27.7467 268.553 27.448C268.894 27.128 269.31 26.968 269.801 26.968C270.313 26.968 270.729 27.1173 271.049 27.416C271.369 27.7147 271.529 28.1627 271.529 28.76C271.529 29.336 271.358 29.784 271.017 30.104C270.675 30.4027 270.259 30.552 269.769 30.552ZM281.38 51.288C280.271 51.288 279.396 50.9467 278.756 50.264C278.116 49.56 277.796 48.504 277.796 47.096V35.48L278.212 35.896H274.916V34.488L278.244 34.008L277.796 34.52V30.296L280.356 29.88V34.52L280.004 34.104H285.028L284.932 35.896H280.004L280.356 35.48V46.744C280.356 47.64 280.527 48.2907 280.868 48.696C281.231 49.1013 281.732 49.304 282.372 49.304C282.756 49.304 283.172 49.24 283.62 49.112C284.068 48.984 284.548 48.8027 285.06 48.568L285.604 50.04C284.089 50.872 282.681 51.288 281.38 51.288ZM292.974 51.288C291.864 51.288 290.99 50.9467 290.35 50.264C289.71 49.56 289.39 48.504 289.39 47.096V35.48L289.806 35.896H286.51V34.488L289.838 34.008L289.39 34.52V30.296L291.95 29.88V34.52L291.598 34.104H296.622L296.526 35.896H291.598L291.95 35.48V46.744C291.95 47.64 292.12 48.2907 292.462 48.696C292.824 49.1013 293.326 49.304 293.966 49.304C294.35 49.304 294.766 49.24 295.214 49.112C295.662 48.984 296.142 48.8027 296.654 48.568L297.198 50.04C295.683 50.872 294.275 51.288 292.974 51.288ZM306.113 51.288C304.684 51.288 303.415 50.968 302.305 50.328C301.217 49.6667 300.364 48.7067 299.745 47.448C299.127 46.1893 298.817 44.6533 298.817 42.84C298.817 40.984 299.137 39.384 299.777 38.04C300.417 36.696 301.324 35.6613 302.497 34.936C303.671 34.1893 305.047 33.816 306.625 33.816C308.119 33.816 309.345 34.136 310.305 34.776C311.287 35.3947 312.012 36.2587 312.481 37.368C312.972 38.4773 313.217 39.7467 313.217 41.176C313.217 41.4107 313.207 41.6453 313.185 41.88C313.164 42.1147 313.132 42.4027 313.089 42.744H300.769V40.92H310.849L310.561 41.112C310.583 40.152 310.465 39.2667 310.209 38.456C309.953 37.6453 309.516 36.9947 308.897 36.504C308.279 36.0133 307.457 35.768 306.433 35.768C305.345 35.768 304.428 36.056 303.681 36.632C302.935 37.208 302.38 37.9973 302.017 39C301.655 40.0027 301.473 41.1653 301.473 42.488C301.473 43.896 301.676 45.112 302.081 46.136C302.487 47.1387 303.073 47.9173 303.841 48.472C304.631 49.0267 305.591 49.304 306.721 49.304C307.511 49.304 308.375 49.1547 309.313 48.856C310.252 48.536 311.223 48.056 312.225 47.416L313.153 48.856C311.959 49.6667 310.764 50.2747 309.569 50.68C308.375 51.0853 307.223 51.288 306.113 51.288ZM315.997 51V49.624L318.813 49.016L318.493 49.496V35.704L318.845 36.184L315.997 35.576V34.2L320.477 33.976L320.829 37.112L320.477 36.984C321.437 35.9813 322.376 35.2027 323.293 34.648C324.211 34.0933 325.213 33.816 326.301 33.816C326.984 33.816 327.699 33.9227 328.445 34.136L328.253 38.808H326.653L326.269 35.448L326.557 36.024C326.408 35.9813 326.248 35.9493 326.077 35.928C325.907 35.9067 325.736 35.896 325.565 35.896C324.712 35.896 323.88 36.152 323.069 36.664C322.28 37.176 321.523 37.8373 320.797 38.648L321.053 37.88V49.496L320.669 49.016L324.157 49.624V51H315.997Z" fill="white" fill-opacity="0.76" />
    <path d="M153.76 147.528H156.16V128.136H153.76V126.664H161.312V128.136H158.912V147.528H161.312V149H153.76V147.528ZM164.823 147.528H167.223V128.136H164.823V126.664H175.511C177.388 126.664 178.849 127.144 179.895 128.104C180.961 129.064 181.495 130.344 181.495 131.944C181.495 132.733 181.377 133.437 181.142 134.056C180.908 134.675 180.588 135.208 180.183 135.656C179.799 136.104 179.351 136.467 178.839 136.744C178.348 137.021 177.836 137.203 177.303 137.288V137.384C177.857 137.427 178.433 137.565 179.031 137.8C179.628 138.035 180.172 138.376 180.663 138.824C181.153 139.272 181.559 139.827 181.878 140.488C182.199 141.149 182.359 141.917 182.359 142.792C182.359 143.731 182.209 144.584 181.911 145.352C181.633 146.12 181.228 146.781 180.694 147.336C180.183 147.869 179.564 148.285 178.839 148.584C178.113 148.861 177.324 149 176.471 149H164.823V147.528ZM169.975 147.432H175.479C176.716 147.432 177.676 147.069 178.359 146.344C179.063 145.619 179.415 144.68 179.415 143.528V142.12C179.415 140.989 179.063 140.061 178.359 139.336C177.676 138.611 176.716 138.248 175.479 138.248H169.975V147.432ZM169.975 136.68H174.967C176.119 136.68 177.004 136.349 177.623 135.688C178.241 135.027 178.551 134.184 178.551 133.16V131.752C178.551 130.728 178.241 129.885 177.623 129.224C177.004 128.563 176.119 128.232 174.967 128.232H169.975V136.68ZM186.26 147.528H188.66V128.136H186.26V126.664H191.892L198.42 140.488H198.516L205.364 126.664H210.644V128.136H208.244V147.528H210.644V149H203.092V147.528H205.492V129.896H205.364L203.956 133L197.812 145.256L192.34 133.8L190.548 129.896H190.42V147.528H192.82V149H186.26V147.528ZM221.604 147.528H224.004V128.136H221.604V126.664H232.036C234.062 126.664 235.609 127.176 236.676 128.2C237.764 129.203 238.308 130.685 238.308 132.648C238.308 134.589 237.753 136.093 236.644 137.16C235.534 138.227 233.977 138.76 231.972 138.76H226.756V147.528H229.796V149H221.604V147.528ZM226.756 137.192H231.812C232.964 137.192 233.838 136.829 234.436 136.104C235.054 135.379 235.364 134.493 235.364 133.448V131.976C235.364 130.931 235.054 130.045 234.436 129.32C233.838 128.595 232.964 128.232 231.812 128.232H226.756V137.192ZM240.964 147.528H243.332V127.144L240.964 126.728V125.608L245.956 124.68V147.528H248.324V149H240.964V147.528ZM258.366 149.384C257.192 149.384 256.136 149.181 255.198 148.776C254.28 148.349 253.502 147.763 252.862 147.016C252.222 146.269 251.731 145.363 251.39 144.296C251.048 143.229 250.878 142.045 250.878 140.744C250.878 139.464 251.059 138.301 251.422 137.256C251.806 136.189 252.318 135.272 252.958 134.504C253.619 133.736 254.398 133.149 255.294 132.744C256.19 132.317 257.171 132.104 258.238 132.104C259.326 132.104 260.296 132.296 261.15 132.68C262.003 133.064 262.718 133.608 263.294 134.312C263.891 134.995 264.35 135.816 264.67 136.776C264.99 137.736 265.15 138.781 265.15 139.912V140.648H253.79V141.48C253.79 143.293 254.238 144.723 255.134 145.768C256.051 146.813 257.267 147.336 258.782 147.336C260.104 147.336 261.15 147.069 261.918 146.536C262.707 145.981 263.326 145.267 263.774 144.392L264.83 145.064C264.616 145.619 264.318 146.163 263.934 146.696C263.571 147.208 263.123 147.667 262.59 148.072C262.056 148.456 261.438 148.765 260.734 149C260.03 149.256 259.24 149.384 258.366 149.384ZM253.79 139.176H262.398V138.856C262.398 138.109 262.312 137.416 262.142 136.776C261.992 136.136 261.747 135.581 261.406 135.112C261.064 134.643 260.627 134.28 260.094 134.024C259.582 133.747 258.963 133.608 258.238 133.608C257.512 133.608 256.872 133.736 256.318 133.992C255.763 134.248 255.294 134.611 254.91 135.08C254.547 135.549 254.27 136.104 254.078 136.744C253.886 137.363 253.79 138.045 253.79 138.792V139.176ZM267.273 147.528H269.097L273.929 140.936L269.033 133.96H267.369V132.488H274.089V133.96H272.201L275.785 139.208H275.913L279.305 133.96H277.321V132.488H283.113V133.96H281.289L276.713 140.456L281.609 147.528H283.273V149H276.521V147.528H278.409L274.857 142.184H274.729L271.081 147.528H273.065V149H267.273V147.528ZM301.096 149.384C299.752 149.384 298.654 149.181 297.8 148.776C296.968 148.349 296.382 147.784 296.04 147.08H295.88V149H293.576V142.44H295.88V143.912C295.88 144.445 295.955 144.947 296.104 145.416C296.275 145.864 296.542 146.259 296.904 146.6C297.288 146.941 297.779 147.208 298.376 147.4C298.995 147.592 299.742 147.688 300.616 147.688C302.472 147.688 303.806 147.293 304.616 146.504C305.448 145.715 305.864 144.659 305.864 143.336C305.864 142.205 305.544 141.32 304.904 140.68C304.286 140.04 303.304 139.539 301.96 139.176L300.2 138.728C298.216 138.216 296.68 137.448 295.592 136.424C294.504 135.4 293.96 133.992 293.96 132.2C293.96 131.304 294.131 130.493 294.472 129.768C294.814 129.021 295.294 128.392 295.912 127.88C296.531 127.368 297.267 126.973 298.12 126.696C298.995 126.419 299.955 126.28 301 126.28C302.216 126.28 303.208 126.472 303.976 126.856C304.766 127.219 305.32 127.731 305.64 128.392H305.832V126.664H308.136V132.904H305.832V131.432C305.832 130.899 305.747 130.419 305.576 129.992C305.427 129.565 305.16 129.203 304.776 128.904C304.392 128.605 303.891 128.381 303.272 128.232C302.654 128.061 301.896 127.976 301 127.976C299.507 127.976 298.387 128.317 297.64 129C296.894 129.683 296.52 130.579 296.52 131.688C296.52 132.84 296.851 133.747 297.512 134.408C298.195 135.048 299.262 135.56 300.712 135.944L302.344 136.36C304.286 136.872 305.779 137.64 306.824 138.664C307.87 139.688 308.392 141.032 308.392 142.696C308.392 143.656 308.232 144.552 307.912 145.384C307.592 146.195 307.123 146.899 306.504 147.496C305.886 148.093 305.118 148.563 304.2 148.904C303.304 149.224 302.27 149.384 301.096 149.384ZM319.397 149.384C318.223 149.384 317.167 149.181 316.229 148.776C315.311 148.349 314.533 147.763 313.893 147.016C313.253 146.269 312.762 145.363 312.421 144.296C312.079 143.229 311.909 142.045 311.909 140.744C311.909 139.464 312.09 138.301 312.453 137.256C312.837 136.189 313.349 135.272 313.989 134.504C314.65 133.736 315.429 133.149 316.325 132.744C317.221 132.317 318.202 132.104 319.269 132.104C320.357 132.104 321.327 132.296 322.181 132.68C323.034 133.064 323.749 133.608 324.325 134.312C324.922 134.995 325.381 135.816 325.701 136.776C326.021 137.736 326.181 138.781 326.181 139.912V140.648H314.821V141.48C314.821 143.293 315.269 144.723 316.165 145.768C317.082 146.813 318.298 147.336 319.813 147.336C321.135 147.336 322.181 147.069 322.949 146.536C323.738 145.981 324.357 145.267 324.805 144.392L325.861 145.064C325.647 145.619 325.349 146.163 324.965 146.696C324.602 147.208 324.154 147.667 323.621 148.072C323.087 148.456 322.469 148.765 321.765 149C321.061 149.256 320.271 149.384 319.397 149.384ZM314.821 139.176H323.429V138.856C323.429 138.109 323.343 137.416 323.173 136.776C323.023 136.136 322.778 135.581 322.437 135.112C322.095 134.643 321.658 134.28 321.125 134.024C320.613 133.747 319.994 133.608 319.269 133.608C318.543 133.608 317.903 133.736 317.349 133.992C316.794 134.248 316.325 134.611 315.941 135.08C315.578 135.549 315.301 136.104 315.109 136.744C314.917 137.363 314.821 138.045 314.821 138.792V139.176ZM329.225 147.528H331.593V134.568L329.225 134.152V133.064L334.153 132.104V134.984H334.313C334.462 134.643 334.644 134.301 334.857 133.96C335.092 133.619 335.369 133.309 335.689 133.032C336.03 132.755 336.414 132.531 336.841 132.36C337.289 132.189 337.801 132.104 338.377 132.104C339.316 132.104 340.062 132.328 340.617 132.776C341.193 133.224 341.481 133.875 341.481 134.728C341.481 135.368 341.321 135.869 341.001 136.232C340.681 136.595 340.265 136.776 339.753 136.776C339.177 136.776 338.718 136.627 338.377 136.328C338.036 136.008 337.865 135.603 337.865 135.112C337.865 134.685 337.95 134.344 338.121 134.088C338.313 133.811 338.526 133.651 338.761 133.608V133.544C338.676 133.523 338.569 133.512 338.441 133.512C338.313 133.491 338.153 133.48 337.961 133.48C337.513 133.48 337.065 133.597 336.617 133.832C336.169 134.045 335.764 134.333 335.401 134.696C335.06 135.037 334.772 135.432 334.537 135.88C334.324 136.328 334.217 136.776 334.217 137.224V147.528H337.225V149H329.225V147.528ZM347.093 128.68C346.538 128.68 346.111 128.52 345.812 128.2C345.535 127.859 345.397 127.453 345.397 126.984V126.824C345.397 126.355 345.535 125.96 345.812 125.64C346.111 125.299 346.538 125.128 347.093 125.128C347.647 125.128 348.074 125.299 348.373 125.64C348.671 125.96 348.821 126.355 348.821 126.824V126.984C348.821 127.453 348.671 127.859 348.373 128.2C348.074 128.52 347.647 128.68 347.093 128.68ZM343.413 147.528H345.781V134.568L343.413 134.152V133.064L348.405 132.104V147.528H350.773V149H343.413V147.528ZM353.346 147.528H355.714V134.056H353.346V132.488H355.714V129.896C355.714 129.128 355.842 128.424 356.098 127.784C356.354 127.144 356.706 126.6 357.154 126.152C357.624 125.683 358.168 125.32 358.786 125.064C359.426 124.808 360.12 124.68 360.866 124.68C362.018 124.68 362.925 124.904 363.586 125.352C364.269 125.8 364.61 126.44 364.61 127.272C364.61 127.827 364.45 128.275 364.13 128.616C363.832 128.936 363.437 129.096 362.946 129.096C362.477 129.096 362.093 128.947 361.794 128.648C361.517 128.349 361.378 127.987 361.378 127.56C361.378 126.813 361.666 126.323 362.242 126.088V126.024C362.093 125.981 361.922 125.949 361.73 125.928C361.538 125.907 361.325 125.896 361.09 125.896C360.194 125.896 359.512 126.216 359.042 126.856C358.573 127.496 358.338 128.392 358.338 129.544V132.488H361.922V134.056H358.338V147.528H361.346V149H353.346V147.528Z" fill="white" fill-opacity="0.76" />
    <path d="M216.424 99.08H221.384C222.536 99.08 223.517 98.9093 224.328 98.568C225.16 98.2267 225.843 97.6933 226.376 96.968C226.973 96.2213 227.411 95.24 227.688 94.024C227.987 92.808 228.136 91.3573 228.136 89.672C228.136 86.344 227.549 83.8693 226.376 82.248C225.821 81.4373 225.107 80.84 224.232 80.456C223.357 80.072 222.301 79.88 221.064 79.88H216.424V99.08ZM210.536 77.96H221.288C224.467 77.96 226.941 78.856 228.712 80.648C229.715 81.672 230.483 82.9307 231.016 84.424C231.549 85.9173 231.816 87.5173 231.816 89.224C231.816 91.016 231.528 92.7013 230.952 94.28C230.397 95.8373 229.619 97.1493 228.616 98.216C226.845 100.072 224.307 101 221 101H210.536V99.624L213.224 98.952V80.008L210.536 79.336V77.96ZM250.652 92.2C250.652 93.5867 250.439 94.9093 250.012 96.168C249.607 97.4053 249.031 98.4293 248.284 99.24C247.644 99.944 246.855 100.467 245.916 100.808C244.977 101.149 243.911 101.32 242.716 101.32C241.543 101.32 240.497 101.16 239.58 100.84C238.663 100.499 237.884 99.9867 237.244 99.304C236.519 98.5147 235.953 97.544 235.548 96.392C235.164 95.2187 234.972 93.9493 234.972 92.584C234.972 91.1973 235.175 89.8747 235.58 88.616C235.985 87.336 236.572 86.2907 237.34 85.48C238.023 84.7547 238.812 84.232 239.708 83.912C240.625 83.5707 241.671 83.4 242.844 83.4C244.017 83.4 245.073 83.5707 246.012 83.912C246.951 84.232 247.74 84.7333 248.38 85.416C249.127 86.2053 249.692 87.1973 250.076 88.392C250.46 89.5653 250.652 90.8347 250.652 92.2ZM238.396 92.232C238.396 93.5333 238.492 94.664 238.684 95.624C238.897 96.5627 239.185 97.3413 239.548 97.96C239.911 98.4933 240.337 98.9093 240.828 99.208C241.34 99.5067 242.001 99.656 242.812 99.656C244.284 99.656 245.383 99.1547 246.108 98.152C246.492 97.5973 246.769 96.8293 246.94 95.848C247.132 94.8667 247.228 93.736 247.228 92.456C247.228 91.176 247.121 90.056 246.908 89.096C246.716 88.136 246.439 87.3573 246.076 86.76C245.735 86.2053 245.297 85.7893 244.764 85.512C244.252 85.2133 243.591 85.064 242.78 85.064C241.287 85.064 240.209 85.5547 239.548 86.536C238.78 87.7307 238.396 89.6293 238.396 92.232ZM255.741 99.08V85.64L253.277 85.032V83.72H257.885L258.589 86.92H258.717C259.336 85.8533 260.157 85 261.181 84.36C262.226 83.72 263.336 83.4 264.509 83.4C265.384 83.4 266.162 83.5707 266.845 83.912C267.528 84.232 268.029 84.6373 268.349 85.128C268.69 85.6613 268.968 86.3653 269.181 87.24C269.864 86.0453 270.749 85.1067 271.837 84.424C272.925 83.7413 274.088 83.4 275.325 83.4C276.178 83.4 276.946 83.5707 277.629 83.912C278.312 84.232 278.834 84.68 279.197 85.256C279.453 85.6613 279.656 86.184 279.805 86.824C279.954 87.464 280.061 88.296 280.125 89.32C280.189 90.3227 280.221 91.6027 280.221 93.16V99.08L282.685 99.688V101H274.973V99.688L277.117 99.08V91.944C277.117 90.5573 277.074 89.5227 276.989 88.84C276.925 88.1573 276.797 87.624 276.605 87.24C276.349 86.728 275.986 86.344 275.517 86.088C275.069 85.8107 274.536 85.672 273.917 85.672C273.384 85.672 272.861 85.7787 272.349 85.992C271.837 86.2053 271.378 86.4933 270.973 86.856C270.504 87.2827 270.152 87.784 269.917 88.36C269.704 88.936 269.576 89.6613 269.533 90.536V99.08L271.677 99.688V101H264.285V99.688L266.429 99.08V91.944C266.429 90.5573 266.386 89.5227 266.301 88.84C266.237 88.1573 266.109 87.624 265.917 87.24C265.661 86.728 265.298 86.344 264.829 86.088C264.381 85.8107 263.848 85.672 263.229 85.672C262.696 85.672 262.173 85.7787 261.661 85.992C261.149 86.2053 260.69 86.4933 260.285 86.856C259.816 87.2827 259.464 87.784 259.229 88.36C259.016 88.936 258.888 89.6613 258.845 90.536V99.08L260.989 99.688V101H253.277V99.688L255.741 99.08ZM286.929 85.64L284.465 85.032V83.72H290.033V99.08L292.497 99.688V101H284.465V99.688L286.929 99.08V85.64ZM286.481 78.568C286.481 77.9493 286.662 77.4587 287.025 77.096C287.387 76.7333 287.867 76.552 288.465 76.552C289.083 76.552 289.574 76.7333 289.937 77.096C290.299 77.4587 290.481 77.9493 290.481 78.568C290.481 79.1653 290.299 79.6453 289.937 80.008C289.574 80.3707 289.083 80.552 288.465 80.552C287.846 80.552 287.355 80.3813 286.993 80.04C286.651 79.6773 286.481 79.1867 286.481 78.568ZM296.897 99.08V85.64L294.433 85.032V83.72H299.041L299.745 86.92H299.873C300.513 85.832 301.377 84.9787 302.465 84.36C303.553 83.72 304.716 83.4 305.953 83.4C307.724 83.4 309.036 83.976 309.889 85.128C310.316 85.7253 310.615 86.568 310.785 87.656C310.977 88.7227 311.073 90.1733 311.073 92.008V99.08L313.537 99.688V101H305.825V99.688L307.969 99.08V91.944C307.969 90.5573 307.927 89.5227 307.841 88.84C307.777 88.1573 307.649 87.624 307.457 87.24C307.201 86.728 306.828 86.344 306.337 86.088C305.868 85.8107 305.303 85.672 304.641 85.672C303.404 85.672 302.337 86.0667 301.441 86.856C300.567 87.6453 300.087 88.872 300.001 90.536V99.08L302.145 99.688V101H294.433V99.688L296.897 99.08ZM330.154 92.552H318.986C318.986 94.1093 319.199 95.4 319.626 96.424C320.053 97.4053 320.661 98.1093 321.45 98.536C322.239 98.9627 323.093 99.176 324.01 99.176C325.013 99.176 325.93 98.9733 326.762 98.568C327.594 98.1413 328.341 97.5653 329.002 96.84L330.026 97.608C329.279 98.632 328.373 99.5067 327.306 100.232C326.239 100.957 324.863 101.32 323.178 101.32C321.706 101.32 320.405 101.011 319.274 100.392C318.143 99.752 317.279 98.824 316.682 97.608C316.362 96.9467 316.127 96.2107 315.978 95.4C315.829 94.5893 315.754 93.7253 315.754 92.808C315.754 89.8213 316.437 87.5067 317.802 85.864C319.189 84.2213 321.066 83.4 323.434 83.4C325.61 83.4 327.285 84.0827 328.458 85.448C329.653 86.792 330.25 88.6587 330.25 91.048C330.25 91.2613 330.239 91.464 330.218 91.656C330.218 91.8267 330.197 92.1253 330.154 92.552ZM323.242 85.128C320.682 85.128 319.274 87.08 319.018 90.984H327.018V89.928C327.018 88.392 326.687 87.208 326.026 86.376C325.386 85.544 324.458 85.128 323.242 85.128Z" fill="white" fill-opacity="0.76" />
    <path d="M264.922 200V199.172L268.25 198.75V180.391H267.453C264.818 180.391 263.016 180.495 262.047 180.703L261.625 183.969H260.578V179.047H279.016V183.969H277.953L277.531 180.703C277.219 180.63 276.536 180.568 275.484 180.516C274.432 180.453 273.281 180.422 272.031 180.422H271.266V198.75L274.594 199.172V200H264.922ZM284.359 180.516C284.359 180.974 284.193 181.37 283.859 181.703C283.526 182.036 283.125 182.203 282.656 182.203C282.198 182.203 281.802 182.036 281.469 181.703C281.135 181.37 280.969 180.974 280.969 180.516C280.969 180.047 281.135 179.646 281.469 179.312C281.802 178.979 282.198 178.812 282.656 178.812C283.125 178.812 283.526 178.979 283.859 179.312C284.193 179.646 284.359 180.047 284.359 180.516ZM284.203 198.906L286.719 199.297V200H279.109V199.297L281.609 198.906V186.406L279.531 186.016V185.312H284.203V198.906ZM292.406 186.5C293.208 186.042 294.062 185.667 294.969 185.375C295.875 185.073 296.63 184.922 297.234 184.922C298.505 184.922 299.464 185.292 300.109 186.031C300.755 186.771 301.078 187.844 301.078 189.25V198.906L302.859 199.297V200H296.531V199.297L298.484 198.906V189.531C298.484 188.667 298.271 187.99 297.844 187.5C297.427 187 296.776 186.75 295.891 186.75C294.953 186.75 293.802 186.901 292.438 187.203V198.906L294.422 199.297V200H288.078V199.297L289.844 198.906V186.406L288.078 186.016V185.312H292.266L292.406 186.5ZM318.125 192.578C318.125 197.734 315.833 200.312 311.25 200.312C309.042 200.312 307.375 199.651 306.25 198.328C305.125 197.005 304.562 195.089 304.562 192.578C304.562 190.099 305.125 188.203 306.25 186.891C307.375 185.578 309.083 184.922 311.375 184.922C313.604 184.922 315.286 185.568 316.422 186.859C317.557 188.141 318.125 190.047 318.125 192.578ZM315.312 192.578C315.312 190.328 314.984 188.698 314.328 187.688C313.672 186.677 312.646 186.172 311.25 186.172C309.885 186.172 308.896 186.656 308.281 187.625C307.677 188.594 307.375 190.245 307.375 192.578C307.375 194.943 307.682 196.62 308.297 197.609C308.922 198.589 309.906 199.078 311.25 199.078C312.625 199.078 313.646 198.568 314.312 197.547C314.979 196.526 315.312 194.87 315.312 192.578ZM330.641 195.875C330.641 197.333 330.177 198.438 329.25 199.188C328.333 199.938 326.974 200.312 325.172 200.312C324.443 200.312 323.635 200.234 322.75 200.078C321.875 199.932 321.188 199.766 320.688 199.578V195.969H321.391L322.156 198.016C322.938 198.724 323.953 199.078 325.203 199.078C327.224 199.078 328.234 198.214 328.234 196.484C328.234 195.214 327.438 194.307 325.844 193.766L324.453 193.312C323.401 192.969 322.635 192.62 322.156 192.266C321.677 191.911 321.307 191.479 321.047 190.969C320.786 190.448 320.656 189.823 320.656 189.094C320.656 187.802 321.094 186.786 321.969 186.047C322.854 185.297 324.047 184.922 325.547 184.922C326.62 184.922 327.964 185.083 329.578 185.406V188.609H328.844L328.188 186.906C327.635 186.417 326.766 186.172 325.578 186.172C324.734 186.172 324.089 186.38 323.641 186.797C323.203 187.214 322.984 187.776 322.984 188.484C322.984 189.078 323.182 189.578 323.578 189.984C323.984 190.391 324.594 190.729 325.406 191C326.938 191.521 327.938 191.901 328.406 192.141C328.875 192.38 329.271 192.677 329.594 193.031C329.927 193.375 330.182 193.771 330.359 194.219C330.547 194.667 330.641 195.219 330.641 195.875Z" fill="white" fill-opacity="0.76" />
    <path d="M28.432 50.32C26.704 50.32 25.0827 49.9893 23.568 49.328C22.0747 48.6667 20.752 47.7493 19.6 46.576C18.4693 45.3813 17.584 44.016 16.944 42.48C16.304 40.9227 15.984 39.2587 15.984 37.488C15.984 35.7387 16.2933 34.096 16.912 32.56C17.552 31.0027 18.4373 29.6373 19.568 28.464C20.72 27.2907 22.0427 26.3733 23.536 25.712C25.0507 25.0293 26.6827 24.688 28.432 24.688C29.968 24.688 31.3653 24.912 32.624 25.36C33.8827 25.808 35.0987 26.5227 36.272 27.504C36.464 27.6533 36.5707 27.8347 36.592 28.048C36.6347 28.24 36.6133 28.432 36.528 28.624C36.4427 28.7947 36.3147 28.9227 36.144 29.008C36.1013 29.1787 35.9947 29.3067 35.824 29.392C35.6533 29.4773 35.4507 29.5093 35.216 29.488C35.0027 29.4667 34.7893 29.3707 34.576 29.2C33.744 28.4747 32.8373 27.9413 31.856 27.6C30.8747 27.2373 29.7333 27.056 28.432 27.056C27.0453 27.056 25.744 27.3333 24.528 27.888C23.3333 28.4427 22.2773 29.2 21.36 30.16C20.4427 31.12 19.7173 32.2293 19.184 33.488C18.672 34.7467 18.416 36.08 18.416 37.488C18.416 38.9387 18.672 40.2933 19.184 41.552C19.7173 42.8107 20.4427 43.92 21.36 44.88C22.2773 45.84 23.3333 46.5973 24.528 47.152C25.744 47.6853 27.0453 47.952 28.432 47.952C29.6053 47.952 30.7147 47.76 31.76 47.376C32.8053 46.992 33.7973 46.4373 34.736 45.712C34.992 45.4987 35.2587 45.4133 35.536 45.456C35.8347 45.4987 36.0907 45.6267 36.304 45.84C36.5173 46.0533 36.624 46.3307 36.624 46.672C36.624 46.8427 36.592 47.0027 36.528 47.152C36.4853 47.28 36.4 47.4187 36.272 47.568C35.184 48.5707 33.968 49.2853 32.624 49.712C31.28 50.1173 29.8827 50.32 28.432 50.32ZM48.1293 50.16C46.4226 50.16 44.8973 49.776 43.5533 49.008C42.2093 48.24 41.1533 47.184 40.3853 45.84C39.6173 44.496 39.2333 42.9707 39.2333 41.264C39.2333 39.536 39.6173 38 40.3853 36.656C41.1533 35.312 42.2093 34.256 43.5533 33.488C44.8973 32.72 46.4226 32.336 48.1293 32.336C49.8359 32.336 51.3506 32.72 52.6733 33.488C54.0173 34.256 55.0733 35.312 55.8413 36.656C56.6093 38 57.0039 39.536 57.0253 41.264C57.0253 42.9707 56.6306 44.496 55.8413 45.84C55.0733 47.184 54.0173 48.24 52.6733 49.008C51.3506 49.776 49.8359 50.16 48.1293 50.16ZM48.1293 47.92C49.3666 47.92 50.4759 47.632 51.4573 47.056C52.4386 46.48 53.2066 45.6907 53.7613 44.688C54.3159 43.6853 54.5933 42.544 54.5933 41.264C54.5933 39.984 54.3159 38.8427 53.7613 37.84C53.2066 36.816 52.4386 36.016 51.4573 35.44C50.4759 34.864 49.3666 34.576 48.1293 34.576C46.8919 34.576 45.7826 34.864 44.8013 35.44C43.8199 36.016 43.0413 36.816 42.4653 37.84C41.9106 38.8427 41.6333 39.984 41.6333 41.264C41.6333 42.544 41.9106 43.6853 42.4653 44.688C43.0413 45.6907 43.8199 46.48 44.8013 47.056C45.7826 47.632 46.8919 47.92 48.1293 47.92ZM85.4655 50C85.1028 50 84.8042 49.8933 84.5695 49.68C84.3348 49.4453 84.2175 49.1467 84.2175 48.784V39.568C84.2175 38.0533 83.8228 36.8587 83.0335 35.984C82.2442 35.088 81.2308 34.64 79.9935 34.64C78.6708 34.64 77.5828 35.088 76.7295 35.984C75.8975 36.8587 75.4922 38.032 75.5135 39.504H73.3055C73.3268 38.0747 73.6362 36.816 74.2335 35.728C74.8308 34.64 75.6522 33.7973 76.6975 33.2C77.7428 32.6027 78.9268 32.304 80.2495 32.304C81.5082 32.304 82.6175 32.6027 83.5775 33.2C84.5588 33.7973 85.3162 34.64 85.8495 35.728C86.4042 36.816 86.6815 38.096 86.6815 39.568V48.784C86.6815 49.1467 86.5642 49.4453 86.3295 49.68C86.1162 49.8933 85.8282 50 85.4655 50ZM63.0655 50C62.6815 50 62.3722 49.8933 62.1375 49.68C61.9242 49.4453 61.8175 49.1467 61.8175 48.784V33.744C61.8175 33.3813 61.9242 33.0827 62.1375 32.848C62.3722 32.6133 62.6815 32.496 63.0655 32.496C63.4282 32.496 63.7162 32.6133 63.9295 32.848C64.1642 33.0827 64.2815 33.3813 64.2815 33.744V48.784C64.2815 49.1467 64.1642 49.4453 63.9295 49.68C63.7162 49.8933 63.4282 50 63.0655 50ZM74.2975 50C73.9348 50 73.6362 49.8933 73.4015 49.68C73.1668 49.4453 73.0495 49.1467 73.0495 48.784V39.568C73.0495 38.0533 72.6548 36.8587 71.8655 35.984C71.0762 35.088 70.0628 34.64 68.8255 34.64C67.5028 34.64 66.4148 35.0773 65.5615 35.952C64.7082 36.8053 64.2815 37.9253 64.2815 39.312H62.5215C62.5642 37.9467 62.8628 36.7413 63.4175 35.696C63.9935 34.6293 64.7722 33.7973 65.7535 33.2C66.7348 32.6027 67.8442 32.304 69.0815 32.304C70.3402 32.304 71.4495 32.6027 72.4095 33.2C73.3908 33.7973 74.1482 34.64 74.6815 35.728C75.2362 36.816 75.5135 38.096 75.5135 39.568V48.784C75.5135 49.1467 75.3962 49.4453 75.1615 49.68C74.9482 49.8933 74.6602 50 74.2975 50ZM94.306 50C93.986 50 93.7087 49.8933 93.474 49.68C93.2393 49.4453 93.122 49.136 93.122 48.752V32.528C93.122 31.0347 93.378 29.7227 93.89 28.592C94.402 27.4613 95.1593 26.5867 96.162 25.968C97.1647 25.328 98.3913 25.008 99.842 25.008C100.205 25.008 100.503 25.1147 100.738 25.328C100.973 25.5413 101.09 25.808 101.09 26.128C101.09 26.448 100.973 26.7147 100.738 26.928C100.503 27.1413 100.205 27.248 99.842 27.248C98.882 27.248 98.082 27.472 97.442 27.92C96.8233 28.3467 96.354 28.9547 96.034 29.744C95.7353 30.512 95.586 31.3973 95.586 32.4V48.752C95.586 49.136 95.4687 49.4453 95.234 49.68C95.0207 49.8933 94.7113 50 94.306 50ZM91.074 35.28C90.7327 35.28 90.4553 35.184 90.242 34.992C90.05 34.7787 89.954 34.5227 89.954 34.224C89.954 33.904 90.05 33.648 90.242 33.456C90.4553 33.2427 90.7327 33.136 91.074 33.136H99.426C99.7673 33.136 100.034 33.2427 100.226 33.456C100.439 33.648 100.546 33.904 100.546 34.224C100.546 34.5227 100.439 34.7787 100.226 34.992C100.034 35.184 99.7673 35.28 99.426 35.28H91.074ZM111.192 50.16C109.485 50.16 107.96 49.776 106.616 49.008C105.272 48.24 104.216 47.184 103.448 45.84C102.68 44.496 102.296 42.9707 102.296 41.264C102.296 39.536 102.68 38 103.448 36.656C104.216 35.312 105.272 34.256 106.616 33.488C107.96 32.72 109.485 32.336 111.192 32.336C112.898 32.336 114.413 32.72 115.736 33.488C117.08 34.256 118.136 35.312 118.904 36.656C119.672 38 120.066 39.536 120.088 41.264C120.088 42.9707 119.693 44.496 118.904 45.84C118.136 47.184 117.08 48.24 115.736 49.008C114.413 49.776 112.898 50.16 111.192 50.16ZM111.192 47.92C112.429 47.92 113.538 47.632 114.52 47.056C115.501 46.48 116.269 45.6907 116.824 44.688C117.378 43.6853 117.656 42.544 117.656 41.264C117.656 39.984 117.378 38.8427 116.824 37.84C116.269 36.816 115.501 36.016 114.52 35.44C113.538 34.864 112.429 34.576 111.192 34.576C109.954 34.576 108.845 34.864 107.864 35.44C106.882 36.016 106.104 36.816 105.528 37.84C104.973 38.8427 104.696 39.984 104.696 41.264C104.696 42.544 104.973 43.6853 105.528 44.688C106.104 45.6907 106.882 46.48 107.864 47.056C108.845 47.632 109.954 47.92 111.192 47.92ZM125.904 39.216C125.968 37.8933 126.309 36.7093 126.928 35.664C127.568 34.6187 128.389 33.7973 129.392 33.2C130.416 32.6027 131.547 32.304 132.784 32.304C133.765 32.304 134.523 32.4427 135.056 32.72C135.589 32.9973 135.792 33.4027 135.664 33.936C135.579 34.256 135.429 34.4693 135.216 34.576C135.024 34.6827 134.779 34.7253 134.48 34.704C134.203 34.6827 133.883 34.6613 133.52 34.64C132.325 34.5333 131.259 34.6613 130.32 35.024C129.403 35.3653 128.667 35.8987 128.112 36.624C127.579 37.3493 127.312 38.2133 127.312 39.216H125.904ZM126.096 50C125.712 50 125.413 49.8933 125.2 49.68C124.987 49.4667 124.88 49.168 124.88 48.784V33.712C124.88 33.328 124.987 33.0293 125.2 32.816C125.413 32.6027 125.712 32.496 126.096 32.496C126.48 32.496 126.779 32.6027 126.992 32.816C127.205 33.0293 127.312 33.328 127.312 33.712V48.784C127.312 49.168 127.205 49.4667 126.992 49.68C126.779 49.8933 126.48 50 126.096 50ZM146.384 50C145.254 50 144.24 49.7333 143.344 49.2C142.47 48.6667 141.776 47.9413 141.264 47.024C140.752 46.0853 140.496 45.0187 140.496 43.824V28.176C140.496 27.8133 140.603 27.5147 140.816 27.28C141.051 27.0453 141.35 26.928 141.712 26.928C142.075 26.928 142.374 27.0453 142.608 27.28C142.843 27.5147 142.96 27.8133 142.96 28.176V43.824C142.96 44.912 143.28 45.808 143.92 46.512C144.56 47.1947 145.382 47.536 146.384 47.536H147.248C147.59 47.536 147.867 47.6533 148.08 47.888C148.294 48.1227 148.4 48.4213 148.4 48.784C148.4 49.1467 148.272 49.4453 148.016 49.68C147.76 49.8933 147.44 50 147.056 50H146.384ZM138.416 35.28C138.096 35.28 137.83 35.184 137.616 34.992C137.403 34.7787 137.296 34.5227 137.296 34.224C137.296 33.904 137.403 33.648 137.616 33.456C137.83 33.2427 138.096 33.136 138.416 33.136H146.576C146.896 33.136 147.163 33.2427 147.376 33.456C147.59 33.648 147.696 33.904 147.696 34.224C147.696 34.5227 147.59 34.7787 147.376 34.992C147.163 35.184 146.896 35.28 146.576 35.28H138.416ZM160.123 50.16C158.481 50.16 157.009 49.776 155.707 49.008C154.406 48.2187 153.371 47.152 152.603 45.808C151.857 44.464 151.483 42.9493 151.483 41.264C151.483 39.5573 151.867 38.032 152.635 36.688C153.425 35.344 154.491 34.288 155.835 33.52C157.179 32.7307 158.694 32.336 160.379 32.336C162.065 32.336 163.569 32.7307 164.891 33.52C166.235 34.288 167.291 35.344 168.059 36.688C168.849 38.032 169.254 39.5573 169.275 41.264L168.283 42.032C168.283 43.568 167.921 44.9547 167.195 46.192C166.491 47.408 165.521 48.3787 164.283 49.104C163.067 49.808 161.681 50.16 160.123 50.16ZM160.379 47.92C161.617 47.92 162.715 47.632 163.675 47.056C164.657 46.48 165.425 45.6907 165.979 44.688C166.555 43.664 166.843 42.5227 166.843 41.264C166.843 39.984 166.555 38.8427 165.979 37.84C165.425 36.8373 164.657 36.048 163.675 35.472C162.715 34.8747 161.617 34.576 160.379 34.576C159.163 34.576 158.065 34.8747 157.083 35.472C156.102 36.048 155.323 36.8373 154.747 37.84C154.171 38.8427 153.883 39.984 153.883 41.264C153.883 42.5227 154.171 43.664 154.747 44.688C155.323 45.6907 156.102 46.48 157.083 47.056C158.065 47.632 159.163 47.92 160.379 47.92ZM168.027 50C167.665 50 167.366 49.8933 167.131 49.68C166.897 49.4453 166.779 49.1467 166.779 48.784V43.312L167.387 40.784L169.275 41.264V48.784C169.275 49.1467 169.158 49.4453 168.923 49.68C168.689 49.8933 168.39 50 168.027 50ZM181.78 50.16C180.137 50.16 178.665 49.776 177.364 49.008C176.062 48.2187 175.027 47.152 174.26 45.808C173.513 44.464 173.14 42.9493 173.14 41.264C173.14 39.5573 173.524 38.032 174.292 36.688C175.081 35.344 176.148 34.288 177.492 33.52C178.836 32.7307 180.35 32.336 182.036 32.336C183.721 32.336 185.225 32.7307 186.548 33.52C187.892 34.288 188.948 35.344 189.716 36.688C190.505 38.032 190.91 39.5573 190.932 41.264L189.94 42.032C189.94 43.568 189.577 44.9547 188.852 46.192C188.148 47.408 187.177 48.3787 185.94 49.104C184.724 49.808 183.337 50.16 181.78 50.16ZM182.036 47.92C183.273 47.92 184.372 47.632 185.332 47.056C186.313 46.48 187.081 45.6907 187.635 44.688C188.212 43.664 188.5 42.5227 188.5 41.264C188.5 39.984 188.212 38.8427 187.635 37.84C187.081 36.8373 186.313 36.048 185.332 35.472C184.372 34.8747 183.273 34.576 182.036 34.576C180.82 34.576 179.721 34.8747 178.74 35.472C177.758 36.048 176.98 36.8373 176.404 37.84C175.828 38.8427 175.54 39.984 175.54 41.264C175.54 42.5227 175.828 43.664 176.404 44.688C176.98 45.6907 177.758 46.48 178.74 47.056C179.721 47.632 180.82 47.92 182.036 47.92ZM189.684 50C189.321 50 189.022 49.8933 188.788 49.68C188.553 49.4453 188.436 49.1467 188.436 48.784V43.312L189.044 40.784L190.932 41.264V48.784C190.932 49.1467 190.814 49.4453 190.58 49.68C190.345 49.8933 190.046 50 189.684 50Z" fill="white" />
    <path d="M38.6406 129.25H46.1719C47.8802 129.25 49.3229 129.51 50.5 130.031C51.6875 130.552 52.5885 131.323 53.2031 132.344C53.8281 133.354 54.1406 134.599 54.1406 136.078C54.1406 137.12 53.9271 138.073 53.5 138.938C53.0833 139.792 52.4792 140.521 51.6875 141.125C50.9062 141.719 49.9688 142.161 48.875 142.453L48.0312 142.781H40.9531L40.9219 140.328H46.2656C47.349 140.328 48.25 140.141 48.9688 139.766C49.6875 139.38 50.2292 138.865 50.5938 138.219C50.9583 137.573 51.1406 136.859 51.1406 136.078C51.1406 135.203 50.9688 134.438 50.625 133.781C50.2812 133.125 49.7396 132.62 49 132.266C48.2708 131.901 47.3281 131.719 46.1719 131.719H41.6562V152H38.6406V129.25ZM51.9375 152L46.4062 141.688L49.5469 141.672L55.1562 151.812V152H51.9375ZM57.1562 143.734V143.375C57.1562 142.156 57.3333 141.026 57.6875 139.984C58.0417 138.932 58.5521 138.021 59.2188 137.25C59.8854 136.469 60.6927 135.865 61.6406 135.438C62.5885 135 63.651 134.781 64.8281 134.781C66.0156 134.781 67.0833 135 68.0312 135.438C68.9896 135.865 69.8021 136.469 70.4688 137.25C71.1458 138.021 71.6615 138.932 72.0156 139.984C72.3698 141.026 72.5469 142.156 72.5469 143.375V143.734C72.5469 144.953 72.3698 146.083 72.0156 147.125C71.6615 148.167 71.1458 149.078 70.4688 149.859C69.8021 150.63 68.9948 151.234 68.0469 151.672C67.1094 152.099 66.0469 152.312 64.8594 152.312C63.6719 152.312 62.6042 152.099 61.6562 151.672C60.7083 151.234 59.8958 150.63 59.2188 149.859C58.5521 149.078 58.0417 148.167 57.6875 147.125C57.3333 146.083 57.1562 144.953 57.1562 143.734ZM60.0469 143.375V143.734C60.0469 144.578 60.1458 145.375 60.3438 146.125C60.5417 146.865 60.8385 147.521 61.2344 148.094C61.6406 148.667 62.1458 149.12 62.75 149.453C63.3542 149.776 64.0573 149.938 64.8594 149.938C65.651 149.938 66.3438 149.776 66.9375 149.453C67.5417 149.12 68.0417 148.667 68.4375 148.094C68.8333 147.521 69.1302 146.865 69.3281 146.125C69.5365 145.375 69.6406 144.578 69.6406 143.734V143.375C69.6406 142.542 69.5365 141.755 69.3281 141.016C69.1302 140.266 68.8281 139.604 68.4219 139.031C68.026 138.448 67.526 137.99 66.9219 137.656C66.3281 137.323 65.6302 137.156 64.8281 137.156C64.0365 137.156 63.3385 137.323 62.7344 137.656C62.1406 137.99 61.6406 138.448 61.2344 139.031C60.8385 139.604 60.5417 140.266 60.3438 141.016C60.1458 141.755 60.0469 142.542 60.0469 143.375ZM76.1562 128H79.0625V148.719L78.8125 152H76.1562V128ZM90.4844 143.406V143.734C90.4844 144.964 90.3385 146.104 90.0469 147.156C89.7552 148.198 89.3281 149.104 88.7656 149.875C88.2031 150.646 87.5156 151.245 86.7031 151.672C85.8906 152.099 84.9583 152.312 83.9062 152.312C82.8333 152.312 81.8906 152.13 81.0781 151.766C80.276 151.391 79.599 150.854 79.0469 150.156C78.4948 149.458 78.0521 148.615 77.7188 147.625C77.3958 146.635 77.1719 145.521 77.0469 144.281V142.844C77.1719 141.594 77.3958 140.474 77.7188 139.484C78.0521 138.495 78.4948 137.651 79.0469 136.953C79.599 136.245 80.276 135.708 81.0781 135.344C81.8802 134.969 82.8125 134.781 83.875 134.781C84.9375 134.781 85.8802 134.99 86.7031 135.406C87.526 135.812 88.2135 136.396 88.7656 137.156C89.3281 137.917 89.7552 138.828 90.0469 139.891C90.3385 140.943 90.4844 142.115 90.4844 143.406ZM87.5781 143.734V143.406C87.5781 142.562 87.5 141.771 87.3438 141.031C87.1875 140.281 86.9375 139.625 86.5938 139.062C86.25 138.49 85.7969 138.042 85.2344 137.719C84.6719 137.385 83.9792 137.219 83.1562 137.219C82.4271 137.219 81.7917 137.344 81.25 137.594C80.7188 137.844 80.2656 138.182 79.8906 138.609C79.5156 139.026 79.2083 139.505 78.9688 140.047C78.7396 140.578 78.5677 141.13 78.4531 141.703V145.469C78.6198 146.198 78.8906 146.901 79.2656 147.578C79.651 148.245 80.1615 148.792 80.7969 149.219C81.4427 149.646 82.2396 149.859 83.1875 149.859C83.9688 149.859 84.6354 149.703 85.1875 149.391C85.75 149.068 86.2031 148.625 86.5469 148.062C86.901 147.5 87.1615 146.849 87.3281 146.109C87.4948 145.37 87.5781 144.578 87.5781 143.734ZM93.375 143.734V143.375C93.375 142.156 93.5521 141.026 93.9062 139.984C94.2604 138.932 94.7708 138.021 95.4375 137.25C96.1042 136.469 96.9115 135.865 97.8594 135.438C98.8073 135 99.8698 134.781 101.047 134.781C102.234 134.781 103.302 135 104.25 135.438C105.208 135.865 106.021 136.469 106.688 137.25C107.365 138.021 107.88 138.932 108.234 139.984C108.589 141.026 108.766 142.156 108.766 143.375V143.734C108.766 144.953 108.589 146.083 108.234 147.125C107.88 148.167 107.365 149.078 106.688 149.859C106.021 150.63 105.214 151.234 104.266 151.672C103.328 152.099 102.266 152.312 101.078 152.312C99.8906 152.312 98.8229 152.099 97.875 151.672C96.9271 151.234 96.1146 150.63 95.4375 149.859C94.7708 149.078 94.2604 148.167 93.9062 147.125C93.5521 146.083 93.375 144.953 93.375 143.734ZM96.2656 143.375V143.734C96.2656 144.578 96.3646 145.375 96.5625 146.125C96.7604 146.865 97.0573 147.521 97.4531 148.094C97.8594 148.667 98.3646 149.12 98.9688 149.453C99.5729 149.776 100.276 149.938 101.078 149.938C101.87 149.938 102.562 149.776 103.156 149.453C103.76 149.12 104.26 148.667 104.656 148.094C105.052 147.521 105.349 146.865 105.547 146.125C105.755 145.375 105.859 144.578 105.859 143.734V143.375C105.859 142.542 105.755 141.755 105.547 141.016C105.349 140.266 105.047 139.604 104.641 139.031C104.245 138.448 103.745 137.99 103.141 137.656C102.547 137.323 101.849 137.156 101.047 137.156C100.255 137.156 99.5573 137.323 98.9531 137.656C98.3594 137.99 97.8594 138.448 97.4531 139.031C97.0573 139.604 96.7604 140.266 96.5625 141.016C96.3646 141.755 96.2656 142.542 96.2656 143.375ZM119.469 135.094V137.312H110.328V135.094H119.469ZM113.422 130.984H116.312V147.812C116.312 148.385 116.401 148.818 116.578 149.109C116.755 149.401 116.984 149.594 117.266 149.688C117.547 149.781 117.849 149.828 118.172 149.828C118.411 149.828 118.661 149.807 118.922 149.766C119.193 149.714 119.396 149.672 119.531 149.641L119.547 152C119.318 152.073 119.016 152.141 118.641 152.203C118.276 152.276 117.833 152.312 117.312 152.312C116.604 152.312 115.953 152.172 115.359 151.891C114.766 151.609 114.292 151.141 113.938 150.484C113.594 149.818 113.422 148.922 113.422 147.797V130.984ZM121.781 143.734V143.375C121.781 142.156 121.958 141.026 122.312 139.984C122.667 138.932 123.177 138.021 123.844 137.25C124.51 136.469 125.318 135.865 126.266 135.438C127.214 135 128.276 134.781 129.453 134.781C130.641 134.781 131.708 135 132.656 135.438C133.615 135.865 134.427 136.469 135.094 137.25C135.771 138.021 136.286 138.932 136.641 139.984C136.995 141.026 137.172 142.156 137.172 143.375V143.734C137.172 144.953 136.995 146.083 136.641 147.125C136.286 148.167 135.771 149.078 135.094 149.859C134.427 150.63 133.62 151.234 132.672 151.672C131.734 152.099 130.672 152.312 129.484 152.312C128.297 152.312 127.229 152.099 126.281 151.672C125.333 151.234 124.521 150.63 123.844 149.859C123.177 149.078 122.667 148.167 122.312 147.125C121.958 146.083 121.781 144.953 121.781 143.734ZM124.672 143.375V143.734C124.672 144.578 124.771 145.375 124.969 146.125C125.167 146.865 125.464 147.521 125.859 148.094C126.266 148.667 126.771 149.12 127.375 149.453C127.979 149.776 128.682 149.938 129.484 149.938C130.276 149.938 130.969 149.776 131.562 149.453C132.167 149.12 132.667 148.667 133.062 148.094C133.458 147.521 133.755 146.865 133.953 146.125C134.161 145.375 134.266 144.578 134.266 143.734V143.375C134.266 142.542 134.161 141.755 133.953 141.016C133.755 140.266 133.453 139.604 133.047 139.031C132.651 138.448 132.151 137.99 131.547 137.656C130.953 137.323 130.255 137.156 129.453 137.156C128.661 137.156 127.964 137.323 127.359 137.656C126.766 137.99 126.266 138.448 125.859 139.031C125.464 139.604 125.167 140.266 124.969 141.016C124.771 141.755 124.672 142.542 124.672 143.375Z" fill="white" />
    <path d="M22.352 193.808C22.352 195.685 21.9893 197.285 21.264 198.608C20.56 199.931 19.5893 200.933 18.352 201.616C17.1147 202.32 15.696 202.704 14.096 202.768V199.76C15.5893 199.675 16.816 199.141 17.776 198.16C18.7573 197.2 19.248 195.717 19.248 193.712V174.864H22.352V193.808ZM27.1275 191.248C27.1275 189.925 27.4368 188.731 28.0555 187.664C28.6955 186.597 29.5702 185.755 30.6795 185.136C31.7888 184.517 33.0475 184.208 34.4555 184.208C35.9062 184.208 37.1755 184.517 38.2635 185.136C39.3515 185.755 40.1942 186.597 40.7915 187.664C41.3888 188.731 41.6875 189.925 41.6875 191.248C41.6875 192.571 41.3888 193.776 40.7915 194.864C40.1942 195.931 39.3408 196.773 38.2315 197.392C37.1435 198.011 35.8742 198.32 34.4235 198.32C33.0155 198.32 31.7568 198.032 30.6475 197.456C29.5595 196.859 28.6955 196.037 28.0555 194.992C27.4368 193.925 27.1275 192.677 27.1275 191.248ZM30.1035 191.28C30.1035 192.133 30.2955 192.912 30.6795 193.616C31.0635 194.299 31.5755 194.843 32.2155 195.248C32.8768 195.653 33.6022 195.856 34.3915 195.856C35.2235 195.856 35.9595 195.653 36.5995 195.248C37.2608 194.843 37.7728 194.299 38.1355 193.616C38.4982 192.912 38.6795 192.133 38.6795 191.28C38.6795 190.427 38.4982 189.659 38.1355 188.976C37.7728 188.272 37.2608 187.717 36.5995 187.312C35.9595 186.885 35.2235 186.672 34.3915 186.672C33.5808 186.672 32.8448 186.885 32.1835 187.312C31.5435 187.739 31.0315 188.304 30.6475 189.008C30.2848 189.691 30.1035 190.448 30.1035 191.28ZM49.429 198.256C48.4903 198.256 47.573 198.096 46.677 197.776C45.8023 197.435 45.077 196.933 44.501 196.272L45.749 194.544C46.3037 195.077 46.869 195.483 47.445 195.76C48.0423 196.016 48.629 196.144 49.205 196.144C49.6317 196.144 50.0263 196.091 50.389 195.984C50.7517 195.877 51.0397 195.707 51.253 195.472C51.4877 195.216 51.605 194.875 51.605 194.448C51.605 193.979 51.445 193.605 51.125 193.328C50.8263 193.051 50.4317 192.827 49.941 192.656C49.4717 192.485 48.9703 192.325 48.437 192.176C47.349 191.813 46.517 191.312 45.941 190.672C45.365 190.032 45.077 189.253 45.077 188.336C45.077 187.632 45.2477 186.981 45.589 186.384C45.9517 185.765 46.4743 185.264 47.157 184.88C47.861 184.496 48.725 184.304 49.749 184.304C50.6663 184.304 51.4877 184.421 52.213 184.656C52.9383 184.869 53.621 185.232 54.261 185.744L53.077 187.6C52.693 187.195 52.2343 186.896 51.701 186.704C51.1677 186.512 50.6877 186.405 50.261 186.384C49.8983 186.363 49.5463 186.416 49.205 186.544C48.885 186.672 48.6183 186.853 48.405 187.088C48.1917 187.323 48.085 187.6 48.085 187.92C48.085 188.368 48.2343 188.731 48.533 189.008C48.8317 189.285 49.2157 189.509 49.685 189.68C50.1757 189.829 50.6557 189.989 51.125 190.16C51.7863 190.352 52.373 190.608 52.885 190.928C53.397 191.248 53.8023 191.643 54.101 192.112C54.421 192.581 54.581 193.168 54.581 193.872C54.581 194.661 54.389 195.397 54.005 196.08C53.6423 196.741 53.077 197.275 52.309 197.68C51.5623 198.064 50.6023 198.256 49.429 198.256ZM64.8923 198.32C63.3776 198.32 62.0763 198.021 60.9883 197.424C59.9003 196.805 59.0576 195.973 58.4603 194.928C57.8843 193.861 57.5963 192.645 57.5963 191.28C57.5963 189.979 57.9269 188.795 58.5883 187.728C59.2496 186.661 60.1349 185.808 61.2443 185.168C62.3536 184.528 63.5909 184.208 64.9563 184.208C66.7056 184.208 68.1563 184.72 69.3083 185.744C70.4603 186.768 71.2389 188.176 71.6443 189.968L60.7323 193.808L60.0283 192.048L68.9883 188.784L68.3483 189.2C68.0923 188.496 67.6656 187.888 67.0683 187.376C66.4709 186.843 65.6923 186.576 64.7323 186.576C63.9216 186.576 63.1963 186.779 62.5563 187.184C61.9163 187.568 61.4149 188.101 61.0523 188.784C60.6896 189.467 60.5083 190.245 60.5083 191.12C60.5083 192.037 60.7003 192.848 61.0843 193.552C61.4683 194.235 61.9909 194.779 62.6523 195.184C63.3349 195.568 64.1029 195.76 64.9563 195.76C65.5323 195.76 66.0869 195.653 66.6203 195.44C67.1749 195.227 67.6869 194.949 68.1563 194.608L69.5323 196.816C68.8709 197.264 68.1243 197.627 67.2923 197.904C66.4816 198.181 65.6816 198.32 64.8923 198.32ZM76.4613 198V187.408H74.1893V184.752H76.4613V179.152C76.4613 177.232 76.8879 175.76 77.7413 174.736C78.6159 173.712 79.8959 173.2 81.5813 173.2C82.0293 173.2 82.5199 173.264 83.0533 173.392C83.6079 173.52 84.0879 173.733 84.4933 174.032L83.2453 176.176C83.0533 175.984 82.8399 175.856 82.6053 175.792C82.3919 175.707 82.1573 175.664 81.9013 175.664C81.1119 175.664 80.5039 175.931 80.0773 176.464C79.6506 176.997 79.4373 177.904 79.4373 179.184V184.752H83.2133V187.408H79.4373V198H76.4613ZM85.7733 184.752H88.7493V198H85.7733V184.752ZM85.5493 179.952C85.5493 179.483 85.7413 179.099 86.1253 178.8C86.5093 178.48 86.9253 178.32 87.3733 178.32C87.7999 178.32 88.1946 178.48 88.5573 178.8C88.9199 179.099 89.1013 179.493 89.1013 179.984C89.1013 180.475 88.9199 180.88 88.5573 181.2C88.1946 181.499 87.7999 181.648 87.3733 181.648C86.9253 181.648 86.5093 181.488 86.1253 181.168C85.7413 180.848 85.5493 180.443 85.5493 179.952ZM96.5918 184.752L96.8478 187.984L96.7198 187.472C97.1464 186.491 97.8398 185.712 98.7998 185.136C99.7598 184.539 100.869 184.24 102.128 184.24C103.386 184.24 104.41 184.613 105.2 185.36C106.01 186.085 106.426 187.035 106.448 188.208V198H103.44V189.264C103.418 188.539 103.205 187.952 102.8 187.504C102.416 187.035 101.808 186.8 100.976 186.8C100.208 186.8 99.5144 187.013 98.8958 187.44C98.2771 187.867 97.7864 188.453 97.4238 189.2C97.0824 189.947 96.9118 190.811 96.9118 191.792V198H93.9358V184.752H96.5918ZM134.452 178.992C133.663 178.587 132.799 178.235 131.86 177.936C130.922 177.637 130.004 177.488 129.108 177.488C127.871 177.488 126.879 177.776 126.132 178.352C125.407 178.928 125.044 179.696 125.044 180.656C125.044 181.381 125.279 182 125.748 182.512C126.218 183.003 126.836 183.429 127.604 183.792C128.372 184.155 129.172 184.496 130.004 184.816C130.73 185.093 131.444 185.403 132.148 185.744C132.852 186.085 133.482 186.512 134.036 187.024C134.612 187.536 135.06 188.165 135.38 188.912C135.722 189.659 135.892 190.587 135.892 191.696C135.892 192.912 135.583 194.021 134.964 195.024C134.367 196.027 133.503 196.816 132.372 197.392C131.242 197.968 129.898 198.256 128.34 198.256C127.316 198.256 126.335 198.139 125.396 197.904C124.479 197.669 123.626 197.371 122.836 197.008C122.047 196.624 121.343 196.229 120.724 195.824L122.1 193.392C122.612 193.755 123.199 194.107 123.86 194.448C124.522 194.768 125.215 195.035 125.94 195.248C126.666 195.44 127.37 195.536 128.052 195.536C128.778 195.536 129.492 195.408 130.196 195.152C130.922 194.875 131.519 194.459 131.988 193.904C132.458 193.349 132.692 192.613 132.692 191.696C132.692 190.907 132.479 190.256 132.052 189.744C131.647 189.211 131.103 188.763 130.42 188.4C129.738 188.016 129.012 187.675 128.244 187.376C127.519 187.099 126.783 186.8 126.036 186.48C125.29 186.139 124.596 185.733 123.956 185.264C123.316 184.773 122.804 184.176 122.42 183.472C122.036 182.768 121.844 181.915 121.844 180.912C121.844 179.696 122.132 178.64 122.708 177.744C123.306 176.827 124.116 176.112 125.14 175.6C126.164 175.067 127.338 174.779 128.66 174.736C130.154 174.736 131.466 174.917 132.596 175.28C133.748 175.643 134.762 176.091 135.636 176.624L134.452 178.992ZM145.877 198.32C144.64 198.32 143.509 198.053 142.485 197.52C141.483 196.987 140.683 196.208 140.085 195.184C139.509 194.139 139.221 192.869 139.221 191.376C139.221 189.904 139.531 188.635 140.149 187.568C140.768 186.48 141.589 185.648 142.613 185.072C143.659 184.496 144.8 184.208 146.037 184.208C147.275 184.208 148.32 184.496 149.173 185.072C150.027 185.627 150.677 186.288 151.125 187.056L150.933 187.568L151.221 184.752H153.973V198H150.997V194.544L151.317 195.312C151.232 195.525 151.04 195.803 150.741 196.144C150.464 196.464 150.08 196.795 149.589 197.136C149.12 197.477 148.576 197.765 147.957 198C147.339 198.213 146.645 198.32 145.877 198.32ZM146.677 195.856C147.424 195.856 148.096 195.717 148.693 195.44C149.291 195.163 149.781 194.779 150.165 194.288C150.571 193.776 150.848 193.168 150.997 192.464V189.872C150.827 189.232 150.528 188.677 150.101 188.208C149.675 187.717 149.163 187.344 148.565 187.088C147.968 186.811 147.307 186.672 146.581 186.672C145.792 186.672 145.067 186.864 144.405 187.248C143.744 187.632 143.211 188.165 142.805 188.848C142.421 189.531 142.229 190.331 142.229 191.248C142.229 192.101 142.432 192.88 142.837 193.584C143.243 194.288 143.787 194.843 144.469 195.248C145.152 195.653 145.888 195.856 146.677 195.856ZM161.779 184.752L162.035 187.984L161.907 187.472C162.334 186.491 163.027 185.712 163.987 185.136C164.947 184.539 166.057 184.24 167.315 184.24C168.574 184.24 169.598 184.613 170.387 185.36C171.198 186.085 171.614 187.035 171.635 188.208V198H168.627V189.264C168.606 188.539 168.393 187.952 167.987 187.504C167.603 187.035 166.995 186.8 166.163 186.8C165.395 186.8 164.702 187.013 164.083 187.44C163.465 187.867 162.974 188.453 162.611 189.2C162.27 189.947 162.099 190.811 162.099 191.792V198H159.123V184.752H161.779ZM180.523 198.256C179.584 198.256 178.667 198.096 177.771 197.776C176.896 197.435 176.171 196.933 175.595 196.272L176.843 194.544C177.397 195.077 177.963 195.483 178.539 195.76C179.136 196.016 179.723 196.144 180.299 196.144C180.725 196.144 181.12 196.091 181.483 195.984C181.845 195.877 182.133 195.707 182.347 195.472C182.581 195.216 182.699 194.875 182.699 194.448C182.699 193.979 182.539 193.605 182.219 193.328C181.92 193.051 181.525 192.827 181.035 192.656C180.565 192.485 180.064 192.325 179.531 192.176C178.443 191.813 177.611 191.312 177.035 190.672C176.459 190.032 176.171 189.253 176.171 188.336C176.171 187.632 176.341 186.981 176.683 186.384C177.045 185.765 177.568 185.264 178.251 184.88C178.955 184.496 179.819 184.304 180.843 184.304C181.76 184.304 182.581 184.421 183.307 184.656C184.032 184.869 184.715 185.232 185.355 185.744L184.171 187.6C183.787 187.195 183.328 186.896 182.795 186.704C182.261 186.512 181.781 186.405 181.355 186.384C180.992 186.363 180.64 186.416 180.299 186.544C179.979 186.672 179.712 186.853 179.499 187.088C179.285 187.323 179.179 187.6 179.179 187.92C179.179 188.368 179.328 188.731 179.627 189.008C179.925 189.285 180.309 189.509 180.779 189.68C181.269 189.829 181.749 189.989 182.219 190.16C182.88 190.352 183.467 190.608 183.979 190.928C184.491 191.248 184.896 191.643 185.195 192.112C185.515 192.581 185.675 193.168 185.675 193.872C185.675 194.661 185.483 195.397 185.099 196.08C184.736 196.741 184.171 197.275 183.403 197.68C182.656 198.064 181.696 198.256 180.523 198.256Z" fill="white" />
    <path d="M24.3438 100.219V97.5625C26.6875 98.3958 29.2188 98.8125 31.9375 98.8125C35.7812 98.8125 37.7031 97.4062 37.7031 94.5938C37.7031 92.1979 36.2865 91 33.4531 91H30.5781C25.901 91 23.5625 88.9688 23.5625 84.9062C23.5625 80.6354 26.5573 78.5 32.5469 78.5C35.151 78.5 37.5729 78.8125 39.8125 79.4375V82.0938C37.5729 81.2604 35.151 80.8438 32.5469 80.8438C28.4844 80.8438 26.4531 82.1979 26.4531 84.9062C26.4531 87.3021 27.8281 88.5 30.5781 88.5H33.4531C38.2135 88.5 40.5938 90.5312 40.5938 94.5938C40.5938 98.9688 37.7083 101.156 31.9375 101.156C29.2188 101.156 26.6875 100.844 24.3438 100.219ZM43.7188 96.0469C43.7188 92.6823 45.9375 91 50.375 91C51.8021 91 53.2292 91.1042 54.6562 91.3125V89.7656C54.6562 87.8802 53.1823 86.9375 50.2344 86.9375C48.5469 86.9375 46.8177 87.1979 45.0469 87.7188V85.375C46.8177 84.8542 48.5469 84.5938 50.2344 84.5938C55.1094 84.5938 57.5469 86.2917 57.5469 89.6875V101H55.9219L54.9219 99.375C53.2865 100.458 51.5052 101 49.5781 101C45.6719 101 43.7188 99.349 43.7188 96.0469ZM50.375 93.3438C47.8646 93.3438 46.6094 94.2292 46.6094 96C46.6094 97.7708 47.599 98.6562 49.5781 98.6562C51.5781 98.6562 53.2708 98.125 54.6562 97.0625V93.6562C53.2292 93.4479 51.8021 93.3438 50.375 93.3438ZM62.25 101V84.5938H64.2031L64.7188 86.6875C66.3958 85.2917 68.2396 84.5938 70.25 84.5938C74.3438 84.5938 76.3906 86.6302 76.3906 90.7031V101H73.5V90.6562C73.5 88.2188 72.2865 87 69.8594 87C68.2031 87 66.6302 87.6927 65.1406 89.0781V101H62.25ZM80.9375 100.219V97.7188C82.8646 98.3438 84.8125 98.6562 86.7812 98.6562C89.3958 98.6562 90.7031 97.875 90.7031 96.3125C90.7031 94.8542 89.7917 94.125 87.9688 94.125H85.625C82.0833 94.125 80.3125 92.5104 80.3125 89.2812C80.3125 86.1562 82.5885 84.5938 87.1406 84.5938C89.099 84.5938 91.0417 84.8542 92.9688 85.375V87.875C91.0417 87.25 89.099 86.9375 87.1406 86.9375C84.4115 86.9375 83.0469 87.7188 83.0469 89.2812C83.0469 90.7396 83.9062 91.4688 85.625 91.4688H87.9688C91.7188 91.4688 93.5938 93.0833 93.5938 96.3125C93.5938 99.4375 91.3229 101 86.7812 101C84.8125 101 82.8646 100.74 80.9375 100.219ZM96.7188 96.0469C96.7188 92.6823 98.9375 91 103.375 91C104.802 91 106.229 91.1042 107.656 91.3125V89.7656C107.656 87.8802 106.182 86.9375 103.234 86.9375C101.547 86.9375 99.8177 87.1979 98.0469 87.7188V85.375C99.8177 84.8542 101.547 84.5938 103.234 84.5938C108.109 84.5938 110.547 86.2917 110.547 89.6875V101H108.922L107.922 99.375C106.286 100.458 104.505 101 102.578 101C98.6719 101 96.7188 99.349 96.7188 96.0469ZM103.375 93.3438C100.865 93.3438 99.6094 94.2292 99.6094 96C99.6094 97.7708 100.599 98.6562 102.578 98.6562C104.578 98.6562 106.271 98.125 107.656 97.0625V93.6562C106.229 93.4479 104.802 93.3438 103.375 93.3438ZM115.25 81.9375H117.062L117.688 84.5938H122.125V86.9375H118.141V96.3594C118.141 97.8906 118.802 98.6562 120.125 98.6562H122.125V101H119.375C116.625 101 115.25 99.526 115.25 96.5781V81.9375ZM129.016 84.5938V101H126.125V84.5938H129.016ZM129.016 78.6562V81.3906H126.125V78.6562H129.016ZM136.141 92.7344C136.141 96.6823 137.781 98.6562 141.062 98.6562C144.344 98.6562 145.984 96.6823 145.984 92.7344C145.984 88.8698 144.344 86.9375 141.062 86.9375C137.781 86.9375 136.141 88.8698 136.141 92.7344ZM133.25 92.7969C133.25 87.3281 135.854 84.5938 141.062 84.5938C146.271 84.5938 148.875 87.3281 148.875 92.7969C148.875 98.2552 146.271 100.984 141.062 100.984C135.875 100.984 133.271 98.2552 133.25 92.7969ZM152.781 101V84.5938H154.734L155.25 86.6875C156.927 85.2917 158.771 84.5938 160.781 84.5938C164.875 84.5938 166.922 86.6302 166.922 90.7031V101H164.031V90.6562C164.031 88.2188 162.818 87 160.391 87C158.734 87 157.161 87.6927 155.672 89.0781V101H152.781Z" fill="white" />
</svg>
