<svg width="685" height="723" viewBox="0 0 685 723" fill="none" xmlns="http://www.w3.org/2000/svg">
<g clip-path="url(#clip0_3_38)">
<g clip-path="url(#clip1_3_38)">
<path d="M140.266 711.709L150.838 711.708L155.867 670.933L140.264 670.934L140.266 711.709Z" fill="#9E616A"/>
<path d="M137.57 708.257L140.545 708.257L152.162 703.533L158.389 708.257H158.389C161.908 708.257 165.283 709.655 167.771 712.143C170.259 714.631 171.657 718.005 171.657 721.524V721.955L137.57 721.956L137.57 708.257Z" fill="#2F2E41"/>
<path d="M189.379 711.709L199.951 711.708L204.98 670.933L189.377 670.934L189.379 711.709Z" fill="#9E616A"/>
<path d="M186.682 708.257L189.658 708.257L201.275 703.533L207.501 708.257H207.502C211.021 708.257 214.395 709.655 216.884 712.143C219.372 714.631 220.77 718.005 220.77 721.524V721.955L186.683 721.956L186.682 708.257Z" fill="#2F2E41"/>
<path d="M197.829 488.565L114.771 490.732L116.215 531.178C116.215 531.178 114.771 542.011 117.66 544.9C120.549 547.789 121.993 547.789 120.549 552.845C119.104 557.901 126.736 566.158 125.809 567.085C124.882 568.012 122.715 573.068 122.715 573.068L129.938 614.236C129.938 614.236 134.994 685.739 136.438 687.183C137.883 688.628 139.327 687.183 137.883 690.795C136.438 694.406 134.994 692.961 136.438 694.406C137.718 695.786 138.923 697.232 140.049 698.739H157.511C157.511 698.739 158.828 691.517 158.828 690.795C158.828 690.072 160.272 685.739 160.272 685.017C160.272 684.294 158.996 683.018 158.996 683.018C158.554 681.55 158.256 680.042 158.106 678.516C158.106 677.072 153.772 621.459 153.772 621.459L162.439 549.234L183.384 620.014C183.384 620.014 183.384 682.128 184.829 683.572C186.273 685.017 186.273 684.294 185.551 687.183C184.829 690.072 181.94 689.35 184.107 691.517C186.273 693.684 186.996 690.072 186.273 693.684L185.551 697.295L207.219 697.605C207.219 697.605 210.108 691.517 208.663 689.35C207.219 687.183 207.305 687.775 209.068 684.229C210.83 680.683 211.552 679.961 210.83 679.239C210.108 678.516 210.108 674.675 210.108 674.675L206.496 605.569C206.496 605.569 205.774 532.622 205.774 530.455C205.72 529.341 205.925 528.228 206.374 527.206V524.265L203.607 513.844L197.829 488.565Z" fill="#2F2E41"/>
<path d="M291.826 331.041C291.427 332.15 290.789 333.159 289.958 333.995C289.127 334.831 288.123 335.475 287.016 335.882C285.909 336.288 284.727 336.447 283.552 336.347C282.377 336.246 281.239 335.89 280.216 335.302L244.163 365.507L242.203 350.743L277.467 323.748C278.568 322.096 280.237 320.906 282.157 320.403C284.078 319.899 286.116 320.118 287.886 321.017C289.656 321.916 291.034 323.432 291.76 325.28C292.487 327.127 292.51 329.177 291.826 331.041V331.041Z" fill="#9E616A"/>
<path d="M132.848 343.507C145.213 343.507 155.238 333.483 155.238 321.117C155.238 308.752 145.213 298.727 132.848 298.727C120.482 298.727 110.458 308.752 110.458 321.117C110.458 333.483 120.482 343.507 132.848 343.507Z" fill="#9E616A"/>
<path d="M150.999 298.835C148.915 293.866 139.982 290.917 125.846 291.361C111.711 291.805 109.235 308.662 109.235 308.662C101.449 315.919 114.02 338.576 116.2 335.452C118.381 332.328 122.043 335.281 122.043 335.281L118.553 315.654C122.238 317.072 126.201 318.024 129.667 316.372L123.924 313.302C128.684 313.894 133.443 314.486 138.203 315.078L132.314 310.548C132.457 310.501 132.6 310.452 132.743 310.404C135.104 311.422 137.633 311.996 140.202 312.098C143.204 312.075 146.395 310.669 147.653 307.943C147.987 307.194 148.168 306.386 148.185 305.567C152.325 306.911 154.498 311.76 154.498 311.76C153.712 307.357 152.541 303.032 150.999 298.835V298.835Z" fill="#2F2E41"/>
<path d="M150.77 344.508C145.77 344.508 142.55 345.198 134.77 346.508C120.41 348.928 129.01 362.573 129.01 362.573C129.01 362.573 129.66 362.243 127.9 362.573C126.14 362.903 120.14 368.093 120.14 368.093L109.41 377.623C93.2398 390.313 96.8598 410.113 96.8598 410.113L120.44 433.843L110.11 481.453C110.11 481.453 114.5 488.523 112.23 491.693C109.96 494.863 132.23 493.953 132.23 493.953C147.6 500.803 201.75 495.013 201.75 495.013C201 493.053 193.75 477.863 193.75 477.863C196.9 472.423 193.9 464.563 193.9 464.563C193.9 464.563 190.77 427.383 188.77 422.243C186.77 417.103 193.89 389.253 198.57 389.553C203.25 389.853 233.48 374.433 233.48 374.433C233.48 374.433 232.72 373.223 242.7 369.143C248.432 366.89 253.688 363.576 258.19 359.373L262.29 351.183C260.32 351.943 253.67 339.403 253.67 339.403L250.77 340.508L249.09 340.023C249.09 340.023 235.98 343.753 233.3 346.473C230.62 349.193 229.72 348.433 227.3 349.043C224.88 349.653 224.58 351.353 223.82 351.163C223.06 350.973 221.71 353.273 220.65 352.973C219.59 352.673 217.32 353.883 215.81 354.183C214.3 354.483 203.57 359.023 203.57 359.023C196.93 355.663 178.93 357.023 178.93 357.023C178.93 357.023 173.04 353.553 171.37 357.023C170.92 358.009 170.199 358.846 169.29 359.436C168.381 360.025 167.323 360.344 166.24 360.353L159.06 357.283C158.642 358.806 150.811 342.929 150.77 344.508Z" fill="#B8C3FF"/>
<path d="M116.49 530.841C115.706 529.961 115.125 528.919 114.787 527.79C114.449 526.66 114.362 525.47 114.534 524.303C114.706 523.137 115.131 522.022 115.78 521.038C116.429 520.054 117.286 519.223 118.29 518.606L108.118 478.618L122.026 483.947L129.755 521.708C130.68 523.464 130.929 525.499 130.454 527.427C129.98 529.354 128.814 531.041 127.179 532.166C125.544 533.292 123.553 533.779 121.583 533.535C119.613 533.291 117.801 532.332 116.49 530.841V530.841Z" fill="#9E616A"/>
<path d="M97.7698 402.508L96.5136 418.477C96.5136 418.477 94.952 436.02 95.3609 439.264C95.7698 442.508 96.5312 462.319 96.5312 462.319L109.77 488.508L124.77 484.508L123.872 472.223L124.77 483.508L126.77 473.508L121.77 456.508L124.77 450.508L123.257 430.367L97.7698 402.508Z" fill="#B8C3FF"/>
<path d="M452.911 365.188L457.863 366.249C457.896 364.177 458.154 362.116 458.633 360.1C459.083 362.568 460.032 364.919 461.421 367.008L489.824 373.074L517.092 344.297C517.134 329.908 509.144 318.974 494.818 318.974C493.954 318.974 493.059 319.015 492.154 319.099C484.414 317.803 476.473 319.562 470.003 324.003C463.534 328.445 459.04 335.224 457.468 342.913C447.314 352.911 450.997 358.789 452.911 365.188Z" fill="#2F2E41"/>
<path d="M438.947 701.723H428.645L423.744 661.985H438.949L438.947 701.723Z" fill="#FFB6B6"/>
<path d="M443.556 721.286H436.245L434.941 714.384L431.598 721.286H412.209C411.28 721.286 410.375 720.989 409.626 720.438C408.877 719.887 408.325 719.111 408.048 718.224C407.771 717.337 407.786 716.384 408.089 715.506C408.392 714.627 408.968 713.868 409.733 713.34L425.216 702.647V695.669L441.502 696.641L443.556 721.286Z" fill="#2F2E41"/>
<path d="M559.646 690.509L550.685 695.593L526.812 663.449L540.037 655.946L559.646 690.509Z" fill="#FFB6B6"/>
<path d="M573.308 705.249L566.95 708.857L562.409 703.498L562.908 711.15L546.045 720.718C545.236 721.177 544.303 721.365 543.38 721.256C542.457 721.146 541.593 720.745 540.915 720.109C540.236 719.474 539.778 718.639 539.608 717.725C539.439 716.811 539.565 715.867 539.97 715.03L548.159 698.089L544.716 692.02L559.361 684.828L573.308 705.249Z" fill="#2F2E41"/>
<path d="M400.866 372.15C402.186 372.341 403.448 372.819 404.563 373.55C405.679 374.282 406.62 375.249 407.321 376.384C408.023 377.518 408.466 378.793 408.622 380.118C408.777 381.443 408.64 382.786 408.22 384.052L423.985 397.697L418.029 409.3L396.037 389.717C393.956 388.871 392.259 387.291 391.266 385.277C390.273 383.263 390.053 380.954 390.648 378.789C391.243 376.623 392.612 374.751 394.495 373.528C396.379 372.304 398.645 371.814 400.866 372.15V372.15Z" fill="#FFB6B6"/>
<path d="M414.493 414.619L403.949 397.844L415.673 385.857L424 395.989L434.314 400.591L448.47 409.216C451.285 405.903 472.975 380.985 482.653 388.16C483.815 388.952 484.792 389.986 485.516 391.192C486.24 392.397 486.695 393.745 486.849 395.143C487.533 401.813 481.554 408.599 481.327 408.85L468.542 426.096C468.145 427.18 463.915 438.348 457.314 441.352C456.376 441.801 455.356 442.05 454.317 442.084C453.278 442.118 452.243 441.936 451.279 441.549C433.786 434.73 422 427.038 416.741 419.073C415.811 417.687 415.056 416.191 414.493 414.619Z" fill="#2F2E41"/>
<path d="M453.51 449.631C453.51 449.631 423.217 497.883 428.705 503.371C434.193 508.859 442.734 510.3 442.734 510.3L461.634 485.809L453.51 449.631Z" fill="#2F2E41"/>
<path d="M480.293 383.731L466.016 393.389C459.38 397.878 454.389 404.408 451.8 411.99C449.211 419.572 449.164 427.791 451.668 435.401L455.688 447.618L480.293 383.731Z" fill="#2F2E41"/>
<path d="M505.539 515.445L507.448 522.093L513.961 602.264L546.501 662.908L530.97 674.001L486.597 616.316L469.047 559.038L441.484 685.834L420.777 684.355L435.158 508.554L462.449 459.071L505.539 515.445Z" fill="#2F2E41"/>
<path d="M482.721 386.159L462.851 402.399C458.49 405.963 455.349 410.799 453.867 416.232V416.232C453.194 418.7 452.875 421.25 452.918 423.807L453.51 459.071L435.291 507.762C435.291 507.762 484.684 526.421 491.27 509.957C497.855 493.493 482.721 386.159 482.721 386.159Z" fill="#B8C3FF"/>
<path d="M455.048 493.493L451.755 480.321L452.559 447.548C452.623 445.644 462.774 416.006 475.566 384.525L486.571 373.52L492.504 369.659L505.564 381.714C505.564 381.714 503.903 414.711 504.441 448.49C504.59 457.836 502.947 468.751 502.246 477.028L508.246 503.691V518.531L507.856 518.61C507.466 518.689 501.453 518.503 476.778 518.503C456.334 518.503 469.944 504.008 455.048 493.493Z" fill="#2F2E41"/>
<path opacity="0.2" d="M500.028 411.141L503.029 429.864L482.721 438.241L500.028 411.141Z" fill="black"/>
<path d="M479.572 366.147C490.552 366.147 499.454 357.245 499.454 346.265C499.454 335.284 490.552 326.383 479.572 326.383C468.591 326.383 459.69 335.284 459.69 346.265C459.69 357.245 468.591 366.147 479.572 366.147Z" fill="#FFB6B6"/>
<path opacity="0.2" d="M512.886 447.144C507.594 453.271 500.417 457.466 492.482 459.07C484.546 460.674 476.303 459.595 469.047 456.005L464.72 453.863L512.886 447.144Z" fill="black"/>
<path d="M443.701 442.567C444.588 441.57 445.683 440.781 446.908 440.253C448.133 439.725 449.459 439.473 450.792 439.513C452.126 439.553 453.434 439.886 454.625 440.486C455.816 441.087 456.861 441.941 457.686 442.989L477.76 437.354L484.16 448.717L455.7 456.278C453.847 457.547 451.593 458.093 449.365 457.812C447.137 457.531 445.089 456.442 443.611 454.752C442.132 453.062 441.324 450.888 441.341 448.642C441.358 446.396 442.197 444.235 443.701 442.567V442.567Z" fill="#FFB6B6"/>
<path d="M486.65 454.599L466.841 454.154L463.3 437.765L476.343 436.4L485.867 430.329L500.865 423.27C499.652 419.095 490.813 387.264 502.133 383.142C503.434 382.609 504.835 382.364 506.24 382.424C507.645 382.484 509.021 382.847 510.272 383.489C516.215 386.594 518.582 395.322 518.667 395.65L526.013 415.823C526.698 416.751 533.686 426.436 532.555 433.6C532.413 434.63 532.059 435.618 531.514 436.504C530.97 437.39 530.248 438.153 529.394 438.744C514.064 449.583 501.15 455.179 491.606 455.178C489.936 455.19 488.272 454.996 486.65 454.599V454.599Z" fill="#2F2E41"/>
<path d="M455.73 333.185C457.322 335.256 462.805 337.087 469.318 338.564C469.307 338.429 469.307 338.294 469.307 338.158C469.34 336.087 469.598 334.025 470.077 332.01C470.528 334.478 471.476 336.829 472.865 338.918C472.969 339.074 473.073 339.23 473.188 339.386C478.775 340.489 484.684 341.342 489.314 341.914C486.13 353.379 473.927 362.784 475.248 369.755L511.006 377.058C510.786 374.162 511.018 371.249 511.693 368.423C512.377 372.152 514.184 375.583 516.874 378.255L519.912 378.879L520.817 374.416C528.661 355.574 517.727 336.286 499.811 326.308C496.617 321.52 491.657 318.191 486.016 317.049L481.553 316.133C478.737 315.557 475.836 315.542 473.015 316.087C470.194 316.632 467.508 317.728 465.11 319.311C462.712 320.895 460.649 322.935 459.04 325.315C457.431 327.696 456.306 330.37 455.73 333.185Z" fill="#2F2E41"/>
<path d="M17.0902 697.089L16.6085 686.257C11.5866 683.573 5.98533 682.155 0.291077 682.126C8.12808 688.534 7.14867 700.885 12.4619 709.501C14.1397 712.176 16.3978 714.439 19.069 716.122C21.7402 717.805 24.7559 718.866 27.8927 719.225L34.451 723.241C35.3509 718.224 35.1525 713.072 33.8694 708.139C32.5864 703.206 30.2492 698.61 27.0189 694.668C25.1848 692.474 23.0817 690.52 20.7593 688.851C19.1886 692.993 17.0902 697.089 17.0902 697.089Z" fill="#F2F2F2"/>
<path d="M1.19064 723.494H683.573C683.888 723.493 684.19 723.367 684.412 723.144C684.635 722.92 684.76 722.618 684.76 722.303C684.76 721.988 684.635 721.685 684.412 721.462C684.19 721.239 683.888 721.113 683.573 721.112H1.19064C0.875452 721.113 0.573504 721.239 0.350952 721.462C0.1284 721.685 0.00341797 721.988 0.00341797 722.303C0.00341797 722.618 0.1284 722.92 0.350952 723.144C0.573504 723.367 0.875452 723.493 1.19064 723.494Z" fill="#CACACA"/>
<path d="M371.381 285.054C373.855 295.924 375.031 308.247 368.432 317.974C365.627 322.147 361.51 325.265 356.734 326.836C351.899 328.269 346.801 328.582 341.827 327.751C330.572 326.192 320.569 320.329 309.499 318.053C304.614 317.049 299.43 316.716 294.727 318.65C291.204 320.098 287.493 323.01 287.476 327.164C287.459 331.43 291.164 334.261 294.848 335.573C299.765 337.323 304.874 336.646 309.974 336.425C315.467 336.188 321.067 336.684 325.63 340.048C329.554 343.111 332.564 347.191 334.332 351.845C336.625 357.411 337.556 363.396 339.022 369.203C340.333 374.424 342.187 379.494 344.555 384.329C349.199 393.805 355.711 402.245 363.698 409.143C367.638 412.533 372.424 415.987 377.804 416.298C381.953 416.538 386.998 414.794 388.597 410.591C389.191 408.776 389.133 406.811 388.433 405.035C387.732 403.258 386.433 401.782 384.761 400.862C381.204 399.067 377.331 401.627 376.183 405.141C375.882 405.951 375.776 406.82 375.876 407.679C375.975 408.537 376.276 409.36 376.754 410.08C377.832 411.688 375.234 413.191 374.163 411.594C371.676 407.886 372.976 402.898 376.022 399.928C377.508 398.413 379.494 397.491 381.61 397.333C383.726 397.176 385.827 397.793 387.521 399.071C389.281 400.411 390.611 402.236 391.349 404.321C392.087 406.407 392.2 408.662 391.674 410.811C390.395 415.427 385.858 418.364 381.328 419.091C375.734 419.99 370.35 417.791 365.835 414.615C361.304 411.344 357.185 407.539 353.566 403.282C346.208 394.82 340.677 384.931 337.319 374.233C334.017 363.652 333.777 349.673 323.965 342.527C318.917 338.85 312.73 339.258 306.811 339.596C301.585 339.894 296.487 339.839 291.693 337.474C287.735 335.52 284.541 331.915 284.475 327.321C284.409 322.684 287.701 318.955 291.58 316.843C301.828 311.262 314.134 315.763 324.202 319.492C334.327 323.241 345.886 327.642 356.646 323.696C361.611 321.767 365.61 317.946 367.763 313.073C370.369 307.548 370.739 301.279 370.137 295.282C369.783 292.108 369.232 288.958 368.488 285.852C368.06 283.972 370.952 283.169 371.381 285.054V285.054Z" fill="#3F3D56"/>
<path d="M352.992 254.562C355.959 264.467 360.431 273.857 366.252 282.402C367.692 284.502 369.206 286.549 370.792 288.542C372.026 286.301 373.519 284.213 375.242 282.322C381.292 275.672 389.402 271.322 397.272 266.962C405.142 262.602 413.132 257.922 418.692 250.852C421.187 247.669 422.974 243.991 423.932 240.062C425.192 234.732 424.712 229.172 421.602 224.722C417.082 218.252 408.072 215.972 400.412 217.842C392.742 219.712 386.322 225.042 381.342 231.162C382.972 223.642 375.042 216.382 367.372 217.042C359.702 217.712 353.552 224.412 351.512 231.832C349.462 239.242 350.792 247.182 352.992 254.562Z" fill="#B8C3FF"/>
<g opacity="0.2">
<path opacity="0.2" d="M366.252 282.402C367.692 284.502 369.206 286.548 370.792 288.542C372.026 286.301 373.519 284.213 375.242 282.322C381.292 275.672 389.402 271.322 397.272 266.962C405.142 262.602 413.132 257.922 418.692 250.852C421.187 247.669 422.974 243.991 423.932 240.062C406.24 242.514 389.984 251.139 378.032 264.412C373.247 269.8 369.278 275.861 366.252 282.402V282.402Z" fill="black"/>
</g>
</g>
<g clip-path="url(#clip2_3_38)">
<path d="M81.0559 42.6283V54.9382C76.9457 59.0173 73.5312 63.7233 71 68.8875V42.6283H81.0559Z" fill="#C6C5D0"/>
<path d="M166.527 42.6283V68.8903C165.793 67.3923 164.988 65.9368 164.108 64.5218C163.345 63.285 162.525 62.083 161.656 60.9122C160.086 58.8014 158.353 56.8029 156.472 54.9382V42.6283H166.527Z" fill="#B8C3FF"/>
<path d="M252 42.6283V90.5C252 101.574 248.246 111.777 241.944 119.886C233.204 131.136 219.562 138.37 204.234 138.37C203.394 138.37 202.559 138.349 201.731 138.31H201.73C201.728 138.31 201.728 138.31 201.727 138.31H201.723C187.513 137.57 174.947 130.604 166.684 120.087C166.633 120.02 166.581 119.95 166.529 119.885C165.676 118.788 164.87 117.646 164.111 116.479C163.159 115.005 162.288 113.478 161.501 111.9C159.578 108.052 158.157 103.903 157.326 99.5509H167.679C168.132 101.347 168.717 103.094 169.427 104.776C170.248 106.732 171.234 108.604 172.368 110.374C179.045 120.806 190.829 127.73 204.249 127.73C225.068 127.73 241.944 111.066 241.944 90.5V42.6283H252Z" fill="#C6C5D0"/>
<path d="M85.6157 85.1803H156.089C155.637 82.0571 154.793 79.0555 153.601 76.2274C147.932 62.7467 134.47 53.2649 118.764 53.2649C97.9369 53.2649 81.0549 69.9376 81.0549 90.5C81.0549 111.066 97.9369 127.73 118.764 127.73C134.469 127.73 147.932 118.252 153.601 104.772C154.372 107.238 155.335 109.623 156.473 111.901C157.231 113.422 158.073 114.904 158.986 116.327C158.986 116.327 158.986 116.327 158.986 116.329C158.201 117.554 157.363 118.739 156.473 119.886C154.218 122.787 151.639 125.421 148.786 127.73C140.584 134.389 130.137 138.37 118.765 138.37C107.39 138.37 96.9452 134.389 88.7427 127.73C85.8901 125.421 83.3108 122.787 81.0559 119.886C74.7539 111.777 71 101.574 71 90.5C71 79.4222 74.7539 69.225 81.0559 61.1139C83.3108 58.2094 85.8901 55.5755 88.7427 53.2649C96.9443 46.6122 107.39 42.6283 118.765 42.6283C130.137 42.6283 140.584 46.6122 148.786 53.2649C151.639 55.5764 154.218 58.2104 156.473 61.1139C157.363 62.2612 158.201 63.4452 158.986 64.6698C158.986 64.6707 158.986 64.6707 158.986 64.6707C159.899 66.0961 160.741 67.5733 161.5 69.0977C163.966 74.0328 165.605 79.4552 166.233 85.1803C166.429 86.9252 166.528 88.7004 166.528 90.5C166.528 92.2996 166.429 94.0738 166.233 95.8216H85.6157V85.1803Z" fill="#C6C5D0"/>
<path d="M411.686 138.37C414.81 138.37 417.343 135.838 417.343 132.714C417.343 129.589 414.81 127.057 411.686 127.057C408.562 127.057 406.03 129.589 406.03 132.714C406.03 135.838 408.562 138.37 411.686 138.37Z" fill="#B8C3FF"/>
<path d="M294.628 170.945H306.938C311.017 175.058 315.723 178.467 320.887 181H294.628V170.945Z" fill="#C6C5D0"/>
<path d="M294.628 85.4725H320.888C319.392 86.2069 317.937 87.0101 316.522 87.8925C315.284 88.6551 314.083 89.4753 312.912 90.3445C310.801 91.915 308.803 93.6468 306.938 95.5312H294.628V85.4725Z" fill="#C6C5D0"/>
<path d="M294.628 0H342.5C353.574 0 363.777 3.75481 371.886 10.0559C383.136 18.7957 390.37 32.4376 390.37 47.7661C390.37 48.606 390.349 49.4413 390.31 50.2699V50.2709C390.31 50.2727 390.31 50.2727 390.31 50.2737V50.2775C389.57 64.4878 382.604 77.0541 372.088 85.3179C372.02 85.3688 371.95 85.4197 371.885 85.4725C370.788 86.3257 369.646 87.1326 368.479 87.8915C367.005 88.8427 365.478 89.7138 363.9 90.5009C360.052 92.4241 355.903 93.8457 351.551 94.6734V84.3215C353.347 83.868 355.094 83.2826 356.776 82.5728C358.732 81.7517 360.604 80.7656 362.374 79.6325C372.806 72.9553 379.73 61.1714 379.73 47.7501C379.73 26.9322 363.066 10.0559 342.5 10.0559H294.628V0Z" fill="#C6C5D0"/>
<path d="M337.18 166.387V95.9074C334.057 96.3618 331.056 97.2083 328.227 98.3961C314.747 104.068 305.265 117.531 305.265 133.236C305.265 154.059 321.937 170.945 342.5 170.945C363.066 170.945 379.73 154.059 379.73 133.236C379.73 117.531 370.252 104.068 356.772 98.3961C359.238 97.6306 361.623 96.6653 363.901 95.5312C365.422 94.7676 366.904 93.9305 368.327 93.0151C368.327 93.0151 368.327 93.0151 368.329 93.0151C369.554 93.7966 370.739 94.6413 371.886 95.5312C374.787 97.7843 377.421 100.361 379.73 103.213C386.389 111.42 390.371 121.867 390.371 133.236C390.371 144.61 386.389 155.056 379.73 163.254C377.421 166.108 374.787 168.694 371.886 170.945C363.777 177.246 353.574 181 342.5 181C331.422 181 321.224 177.246 313.112 170.945C310.209 168.693 307.575 166.108 305.265 163.254C298.612 155.058 294.628 144.611 294.628 133.236C294.628 121.867 298.612 111.42 305.265 103.213C307.576 100.361 310.21 97.7815 313.114 95.5312C314.261 94.6413 315.446 93.7966 316.669 93.0151C316.671 93.0151 316.671 93.0151 316.671 93.0151C318.096 92.1017 319.573 91.2608 321.098 90.5C326.032 88.0339 331.455 86.3936 337.18 85.7667C338.925 85.5706 340.7 85.4716 342.5 85.4716C344.3 85.4716 346.074 85.5706 347.822 85.7667V166.387H337.18Z" fill="#C6C5D0"/>
<path d="M603.944 138.37V126.061C608.058 121.981 611.466 117.279 614 112.113V138.37H603.944Z" fill="#C6C5D0"/>
<path d="M518.469 138.37V112.112C519.202 113.603 520.013 115.063 520.892 116.477C521.651 117.715 522.474 118.917 523.344 120.09C524.914 122.2 526.647 124.194 528.53 126.061V138.372H518.469V138.37Z" fill="#C6C5D0"/>
<path d="M433 138.37V90.5C433 79.4232 436.754 69.2259 443.056 61.1139C451.799 49.8636 465.435 42.6293 480.766 42.6293C481.606 42.6293 482.438 42.6481 483.273 42.6924H483.274C483.276 42.6924 483.276 42.6924 483.277 42.6924H483.28C497.488 43.4325 510.053 50.3953 518.314 60.9159C518.369 60.981 518.423 61.046 518.469 61.1139C519.329 62.2112 520.132 63.35 520.891 64.5208C521.838 65.9924 522.71 67.5215 523.5 69.0996C525.423 72.9505 526.845 77.0966 527.672 81.4491H517.322C516.871 79.6551 516.283 77.9064 515.574 76.2236C514.754 74.2675 513.767 72.4 512.632 70.6287C505.953 60.1957 494.172 53.2658 480.753 53.2658C459.938 53.2658 443.059 69.9367 443.059 90.5V138.37H433Z" fill="#C6C5D0"/>
<path d="M599.387 95.8197H528.908C529.362 98.9429 530.207 101.945 531.396 104.77C537.067 118.253 550.53 127.731 566.235 127.731C587.059 127.731 603.944 111.064 603.944 90.5C603.944 69.9367 587.059 53.2658 566.235 53.2658C550.53 53.2658 537.067 62.7457 531.396 76.2274C530.631 73.7584 529.665 71.3762 528.53 69.0996C527.769 67.5743 526.93 66.097 526.015 64.6726C526.015 64.6726 526.015 64.6726 526.015 64.6707C526.797 63.4471 527.64 62.2621 528.53 61.1139C530.783 58.2094 533.361 55.5755 536.214 53.2658C544.42 46.6132 554.866 42.6283 566.235 42.6283C577.61 42.6283 588.056 46.6132 596.254 53.2658C599.108 55.5755 601.695 58.2094 603.944 61.1139C610.245 69.2259 614 79.4232 614 90.5C614 101.575 610.245 111.777 603.944 119.888C601.693 122.787 599.108 125.421 596.254 127.731C588.058 134.39 577.611 138.37 566.235 138.37C554.866 138.37 544.42 134.389 536.214 127.731C533.361 125.421 530.781 122.787 528.53 119.886C527.64 118.738 526.797 117.554 526.015 116.331C526.015 116.329 526.015 116.329 526.015 116.329C525.101 114.904 524.263 113.424 523.5 111.903C521.035 106.968 519.394 101.549 518.767 95.8197C518.571 94.0747 518.469 92.3006 518.469 90.5C518.469 88.6994 518.571 86.9262 518.767 85.1784H599.387V95.8197Z" fill="#C6C5D0"/>
</g>
</g>
<defs>
<clipPath id="clip0_3_38">
<rect width="685" height="723" fill="white"/>
</clipPath>
<clipPath id="clip1_3_38">
<rect width="684.763" height="506.494" fill="white" transform="translate(0 217)"/>
</clipPath>
<clipPath id="clip2_3_38">
<rect width="543" height="181" fill="white" transform="translate(71)"/>
</clipPath>
</defs>
</svg>
