<svg width="32" height="17" viewBox="0 0 32 17" fill="none" xmlns="http://www.w3.org/2000/svg">
    <g clip-path="url(#clip0_118_45)">
        <path fill-rule="evenodd" clip-rule="evenodd" d="M1.76884 0V2.15687C1.04547 2.87038 0.445474 3.69497 0 4.59881V0H1.76884Z" fill="#5D70CE" />
        <path fill-rule="evenodd" clip-rule="evenodd" d="M16.8036 0V4.59922C16.6743 4.33721 16.532 4.08233 16.3783 3.83499C16.2436 3.61784 16.0996 3.40739 15.9472 3.20281C15.6705 2.83265 15.3653 2.48344 15.0352 2.15687V0H16.8036Z" fill="#5D70CE" />
        <path fill-rule="evenodd" clip-rule="evenodd" d="M31.838 0V8.38433C31.838 10.324 31.1778 12.1107 30.07 13.5311C28.5319 15.5005 26.1324 16.7687 23.4368 16.7687C23.2886 16.7687 23.1425 16.7645 22.9959 16.7582H22.9951C20.4949 16.6286 18.2839 15.4079 16.8313 13.5667C16.8216 13.5545 16.8124 13.5428 16.8035 13.5315C16.654 13.3391 16.5117 13.1399 16.3783 12.9337C16.2107 12.6767 16.0574 12.4088 15.9193 12.1321C15.5808 11.4584 15.3315 10.7319 15.1846 9.96897H17.006C17.0856 10.2842 17.1896 10.5902 17.3134 10.8854C17.4574 11.2275 17.6317 11.5553 17.8313 11.8647C19.0048 13.6929 21.0772 14.9065 23.4389 14.9065C27.0999 14.9065 30.0696 11.9858 30.0696 8.38475V0H31.838Z" fill="#5D70CE" />
        <path fill-rule="evenodd" clip-rule="evenodd" d="M2.57011 7.45325H14.9676C14.8876 6.90533 14.7394 6.37964 14.5297 5.88454C13.5318 3.52393 11.1638 1.863 8.40126 1.863C4.73811 1.863 1.76884 4.78326 1.76884 8.38433C1.76884 11.9854 4.73853 14.9061 8.40126 14.9061C11.1638 14.9061 13.5322 13.2447 14.5297 10.8841C14.6644 11.3163 14.8345 11.733 15.0349 12.1321C15.1676 12.4 15.3158 12.6587 15.4771 12.9085C15.3389 13.1232 15.1907 13.3302 15.0349 13.5315C14.6383 14.04 14.184 14.5003 13.6825 14.9061C12.2392 16.0711 10.4021 16.7687 8.40126 16.7687C6.40084 16.7687 4.56379 16.0711 3.12042 14.9061C2.61853 14.4999 2.16463 14.04 1.76884 13.5315C0.65979 12.1107 0 10.324 0 8.38433C0 6.44462 0.65979 4.65792 1.76884 3.23803C2.16505 2.72994 2.61895 2.26796 3.12042 1.863C4.56379 0.697995 6.40084 0 8.40126 0C10.4021 0 12.2392 0.697995 13.6821 1.863C14.184 2.26796 14.6383 2.72952 15.0345 3.23803C15.1903 3.43841 15.3385 3.64635 15.4766 3.86015C15.6371 4.11 15.7844 4.36866 15.9187 4.63612C16.3524 5.50012 16.64 6.44965 16.752 7.45325C16.7857 7.75802 16.8029 8.06908 16.8029 8.38433C16.8029 8.69958 16.7857 9.01064 16.752 9.31625H2.57011V7.45325Z" fill="#5D70CE" />
    </g>
    <defs>
        <clipPath id="clip0_118_45">
            <rect width="32" height="16.7687" fill="white" />
        </clipPath>
    </defs>
</svg>
