<svg width="180" height="95" viewBox="0 0 180 95" fill="none" xmlns="http://www.w3.org/2000/svg">
    <path fill-rule="evenodd" clip-rule="evenodd" d="M9.94974 0V12.1324C5.88079 16.1459 2.50579 20.7842 0 25.8683V0H9.94974Z" fill="#5D70CE" />
    <path fill-rule="evenodd" clip-rule="evenodd" d="M94.5191 0V25.8706C93.792 24.3968 92.9915 22.9631 92.127 21.5718C91.3691 20.3503 90.5591 19.1666 89.7018 18.0158C88.1457 15.9336 86.4286 13.9693 84.5718 12.1324V0H94.5191Z" fill="#5D70CE" />
    <path fill-rule="evenodd" clip-rule="evenodd" d="M179.088 0V47.1619C179.088 58.0728 175.375 68.123 169.143 76.1122C160.492 87.1905 146.994 94.3237 131.831 94.3237C130.998 94.3237 130.176 94.3001 129.352 94.2648H129.347C115.283 93.5361 102.847 86.6694 94.6755 76.3126C94.621 76.2442 94.5689 76.1782 94.5192 76.1145C93.6784 75.0322 92.8779 73.9121 92.1271 72.7519C91.1844 71.3064 90.3223 69.7996 89.5455 68.2432C87.6413 64.4538 86.2392 60.3672 85.4126 56.0755H95.6584C96.106 57.8487 96.691 59.5701 97.3873 61.2302C98.1973 63.1544 99.1779 64.9985 100.3 66.7387C106.901 77.0224 118.559 83.8491 131.843 83.8491C152.437 83.8491 169.141 67.4202 169.141 47.1642V0H179.088Z" fill="#5D70CE" />
    <path fill-rule="evenodd" clip-rule="evenodd" d="M14.4568 41.9245H84.1926C83.7426 38.8425 82.9089 35.8855 81.7295 33.1006C76.1163 19.8221 62.7963 10.4794 47.2571 10.4794C26.6518 10.4794 9.94974 26.9058 9.94974 47.1619C9.94974 67.4179 26.6542 83.8467 47.2571 83.8467C62.7963 83.8467 76.1187 74.5016 81.7295 61.2232C82.4874 63.6544 83.4442 65.9983 84.5716 68.2432C85.3176 69.75 86.1513 71.205 87.0584 72.6104C86.2816 73.8177 85.4479 74.9826 84.5716 76.1145C82.3405 78.9749 79.785 81.5641 76.9642 83.8467C68.8453 90.3999 58.5118 94.3237 47.2571 94.3237C36.0047 94.3237 25.6713 90.3999 17.5524 83.8467C14.7292 81.5617 12.1761 78.9749 9.94974 76.1145C3.71132 68.1229 0 58.0728 0 47.1619C0 36.251 3.71132 26.2008 9.94974 18.2139C12.1784 15.3559 14.7316 12.7573 17.5524 10.4794C25.6713 3.92622 36.0047 0 47.2571 0C58.5118 0 68.8453 3.92622 76.9618 10.4794C79.785 12.7573 82.3405 15.3535 84.5692 18.2139C85.4455 19.3411 86.2792 20.5107 87.0561 21.7133C87.9584 23.1187 88.7874 24.5737 89.5429 26.0782C91.9824 30.9382 93.6 36.2793 94.23 41.9245C94.4195 43.6389 94.5166 45.3886 94.5166 47.1619C94.5166 48.9351 94.4195 50.6849 94.23 52.4039H14.4568V41.9245Z" fill="#5D70CE" />
</svg>
