<svg width="192" height="101" viewBox="0 0 192 101" fill="none" xmlns="http://www.w3.org/2000/svg">
    <path fill-rule="evenodd" clip-rule="evenodd" d="M10.6131 0V12.9412C6.27284 17.2223 2.67284 22.1698 0 27.5928V0H10.6131Z" fill="#5D70CE" />
    <path fill-rule="evenodd" clip-rule="evenodd" d="M100.82 0V27.5953C100.044 26.0233 99.1905 24.494 98.2684 23.01C97.46 21.707 96.596 20.4444 95.6815 19.2169C94.0217 16.9959 92.1901 14.9006 90.2095 12.9412V0H100.82Z" fill="#5D70CE" />
    <path fill-rule="evenodd" clip-rule="evenodd" d="M191.027 0V50.306C191.027 61.9443 187.066 72.6645 180.419 81.1863C171.191 93.0032 156.793 100.612 140.62 100.612C139.73 100.612 138.854 100.587 137.975 100.549H137.97C122.968 99.7719 109.703 92.4473 100.987 81.4001C100.929 81.3272 100.873 81.2567 100.82 81.1888C99.9233 80.0343 99.0694 78.8395 98.2685 77.602C97.2631 76.0601 96.3435 74.4529 95.5149 72.7928C93.4837 68.7507 91.9881 64.3917 91.1064 59.8138H102.035C102.513 61.7053 103.137 63.5415 103.879 65.3123C104.743 67.3647 105.789 69.3317 106.987 71.188C114.028 82.1572 126.462 89.439 140.632 89.439C162.599 89.439 180.417 71.9149 180.417 50.3085V0H191.027Z" fill="#5D70CE" />
    <path fill-rule="evenodd" clip-rule="evenodd" d="M15.4206 44.7195H89.8055C89.3255 41.432 88.4362 38.2778 87.1781 35.3073C81.1907 21.1436 66.9827 11.178 50.4076 11.178C28.4286 11.178 10.6131 28.6996 10.6131 50.306C10.6131 71.9124 28.4312 89.4365 50.4076 89.4365C66.9827 89.4365 81.1933 79.4684 87.1781 65.3047C87.9865 67.898 89.0072 70.3982 90.2097 72.7928C91.0055 74.4 91.8947 75.952 92.8623 77.4511C92.0337 78.7389 91.1444 79.9815 90.2097 81.1888C87.8299 84.2399 85.104 87.0017 82.0952 89.4365C73.4349 96.4265 62.4126 100.612 50.4076 100.612C38.4051 100.612 27.3827 96.4265 18.7225 89.4365C15.7112 86.9992 12.9878 84.2399 10.6131 81.1888C3.95874 72.6645 0 61.9443 0 50.306C0 38.6677 3.95874 27.9475 10.6131 19.4282C12.9903 16.3796 15.7137 13.6078 18.7225 11.178C27.3827 4.18797 38.4051 0 50.4076 0C62.4126 0 73.4349 4.18797 82.0926 11.178C85.104 13.6078 87.8299 16.3771 90.2072 19.4282C91.1419 20.6305 92.0312 21.8781 92.8598 23.1609C93.8223 24.66 94.7065 26.2119 95.5124 27.8167C98.1145 33.0007 99.84 38.6979 100.512 44.7195C100.714 46.5481 100.818 48.4145 100.818 50.306C100.818 52.1975 100.714 54.0638 100.512 55.8975H15.4206V44.7195Z" fill="#5D70CE" />
</svg>
