<svg width="510" height="269" viewBox="0 0 510 269" fill="none" xmlns="http://www.w3.org/2000/svg">
    <path fill-rule="evenodd" clip-rule="evenodd" d="M28.3015 0V34.5099C16.7276 45.926 7.12758 59.1196 0 73.5809V0H28.3015Z" fill="#5D70CE" />
    <path fill-rule="evenodd" clip-rule="evenodd" d="M268.854 0V73.5876C266.786 69.3954 264.509 65.3173 262.05 61.3599C259.894 57.8854 257.59 54.5183 255.151 51.245C250.725 45.3223 245.841 39.735 240.559 34.5099V0H268.854Z" fill="#5D70CE" />
    <path fill-rule="evenodd" clip-rule="evenodd" d="M509.406 0V134.149C509.406 165.185 498.843 193.772 481.118 216.497C456.509 248.009 418.115 268.299 374.986 268.299C372.615 268.299 370.277 268.232 367.933 268.131H367.919C327.916 266.058 292.541 246.526 269.298 217.067C269.144 216.872 268.995 216.685 268.854 216.504C266.462 213.425 264.185 210.239 262.05 206.939C259.368 202.827 256.916 198.541 254.706 194.114C249.29 183.335 245.302 171.711 242.951 159.504H272.094C273.368 164.548 275.032 169.444 277.012 174.166C279.316 179.639 282.105 184.885 285.298 189.835C304.074 219.086 337.233 238.504 375.02 238.504C433.597 238.504 481.112 191.773 481.112 134.156V0H509.406Z" fill="#5D70CE" />
    <path fill-rule="evenodd" clip-rule="evenodd" d="M41.1217 119.252H239.481C238.201 110.485 235.83 102.074 232.475 94.1527C216.509 56.3829 178.621 29.808 134.42 29.808C75.8097 29.808 28.3015 76.5322 28.3015 134.149C28.3015 191.766 75.8164 238.497 134.42 238.497C178.621 238.497 216.515 211.916 232.475 174.146C234.631 181.061 237.352 187.729 240.559 194.114C242.681 198.4 245.053 202.539 247.633 206.536C245.423 209.97 243.052 213.284 240.559 216.504C234.213 224.64 226.944 232.004 218.92 238.497C195.827 257.137 166.434 268.299 134.42 268.299C102.413 268.299 73.0206 257.137 49.9267 238.497C41.8964 231.998 34.6341 224.64 28.3015 216.504C10.5566 193.772 0 165.185 0 134.149C0 103.114 10.5566 74.5266 28.3015 51.8085C34.6408 43.679 41.9032 36.2874 49.9267 29.808C73.0206 11.1679 102.413 0 134.42 0C166.434 0 195.827 11.1679 218.914 29.808C226.944 36.2874 234.213 43.6723 240.552 51.8085C243.045 55.0146 245.416 58.3415 247.626 61.7623C250.193 65.76 252.551 69.8985 254.7 74.1779C261.639 88.0019 266.24 103.194 268.032 119.252C268.571 124.128 268.847 129.105 268.847 134.149C268.847 139.193 268.571 144.17 268.032 149.06H41.1217V119.252Z" fill="#5D70CE" />
</svg>
