<svg width="16" height="9" viewBox="0 0 16 9" fill="none" xmlns="http://www.w3.org/2000/svg">
    <g clip-path="url(#clip0_118_39)">
        <path fill-rule="evenodd" clip-rule="evenodd" d="M0.884421 0V1.07843C0.522737 1.43519 0.222737 1.84749 0 2.2994V0H0.884421Z" fill="#5D70CE" />
        <path fill-rule="evenodd" clip-rule="evenodd" d="M8.40179 0V2.29961C8.33716 2.16861 8.266 2.04117 8.18916 1.9175C8.12179 1.80892 8.04979 1.7037 7.97358 1.60141C7.83526 1.41632 7.68263 1.24172 7.51758 1.07843V0H8.40179Z" fill="#5D70CE" />
        <path fill-rule="evenodd" clip-rule="evenodd" d="M15.919 0V4.19217C15.919 5.16202 15.5889 6.05537 15.035 6.76553C14.266 7.75027 13.0662 8.38433 11.7184 8.38433C11.6443 8.38433 11.5712 8.38223 11.498 8.37909H11.4975C10.2474 8.31432 9.14197 7.70394 8.41565 6.78334C8.41081 6.77726 8.40618 6.7714 8.40176 6.76574C8.32702 6.66953 8.25586 6.56996 8.18913 6.46683C8.10534 6.33834 8.02871 6.2044 7.95965 6.06606C7.79039 5.72922 7.66576 5.36597 7.59229 4.98448H8.50302C8.54281 5.14211 8.59481 5.29512 8.65671 5.44269C8.72871 5.61373 8.81586 5.77764 8.91565 5.93233C9.50239 6.84644 10.5386 7.45325 11.7194 7.45325C13.55 7.45325 15.0348 5.99291 15.0348 4.19237V0H15.919Z" fill="#5D70CE" />
        <path fill-rule="evenodd" clip-rule="evenodd" d="M1.28505 3.72663H7.48379C7.44379 3.45267 7.36968 3.18982 7.26484 2.94227C6.76589 1.76197 5.58189 0.931499 4.20063 0.931499C2.36905 0.931499 0.884421 2.39163 0.884421 4.19217C0.884421 5.9927 2.36926 7.45304 4.20063 7.45304C5.58189 7.45304 6.76611 6.62236 7.26484 5.44206C7.33221 5.65817 7.41726 5.86652 7.51747 6.06606C7.58379 6.2 7.65789 6.32933 7.73853 6.45426C7.66947 6.56158 7.59537 6.66512 7.51747 6.76574C7.31916 7.01999 7.092 7.25014 6.84126 7.45304C6.11958 8.03554 5.20105 8.38433 4.20063 8.38433C3.20042 8.38433 2.28189 8.03554 1.56021 7.45304C1.30926 7.24993 1.08232 7.01999 0.884421 6.76574C0.329895 6.05537 0 5.16202 0 4.19217C0 3.22231 0.329895 2.32896 0.884421 1.61901C1.08253 1.36497 1.30947 1.13398 1.56021 0.931499C2.28189 0.348998 3.20042 0 4.20063 0C5.20105 0 6.11958 0.348998 6.84105 0.931499C7.092 1.13398 7.31916 1.36476 7.51726 1.61901C7.59516 1.71921 7.66926 1.82317 7.73832 1.93007C7.81853 2.055 7.89221 2.18433 7.95937 2.31806C8.17621 2.75006 8.32 3.22482 8.376 3.72663C8.39284 3.87901 8.40147 4.03454 8.40147 4.19217C8.40147 4.34979 8.39284 4.50532 8.376 4.65812H1.28505V3.72663Z" fill="#5D70CE" />
    </g>
    <defs>
        <clipPath id="clip0_118_39">
            <rect width="16" height="8.38433" fill="white" />
        </clipPath>
    </defs>
</svg>
