<svg width="762" height="690" viewBox="0 0 762 690" fill="none" xmlns="http://www.w3.org/2000/svg">
    <rect width="762" height="690" fill="#1B1B1F" />
    <path d="M761 690H1C0.734784 690 0.480429 689.895 0.292892 689.707C0.105356 689.52 0 689.265 0 689C0 688.735 0.105356 688.48 0.292892 688.293C0.480429 688.105 0.734784 688 1 688H761C761.265 688 761.52 688.105 761.707 688.293C761.895 688.48 762 688.735 762 689C762 689.265 761.895 689.52 761.707 689.707C761.52 689.895 761.265 690 761 690Z" fill="#CCCCCC" />
    <path d="M238.48 525.124C236.942 524.81 235.49 524.163 234.228 523.228C232.966 522.293 231.925 521.093 231.177 519.711C230.43 518.33 229.994 516.802 229.901 515.234C229.808 513.667 230.059 512.097 230.638 510.638L186.304 415.446L208.794 409.125L245.341 504.799C247.729 505.934 249.618 507.906 250.65 510.34C251.681 512.775 251.784 515.503 250.938 518.009C250.093 520.514 248.357 522.622 246.061 523.933C243.765 525.245 241.068 525.668 238.48 525.124Z" fill="#A0616A" />
    <path d="M152.622 677.022H164.882L170.714 629.734H152.62L152.622 677.022Z" fill="#A0616A" />
    <path d="M188.526 688.405L149.995 688.406L149.995 673.519L173.639 673.518C177.587 673.518 181.373 675.086 184.165 677.878C186.957 680.67 188.526 684.456 188.526 688.405Z" fill="#2F2E41" />
    <path d="M88.8973 663.806L100.166 668.633L124.148 627.462L107.515 620.338L88.8973 663.806Z" fill="#A0616A" />
    <path d="M117.419 688.406L82 673.236L87.8613 659.551L109.595 668.861C113.225 670.415 116.088 673.348 117.555 677.013C119.022 680.679 118.973 684.777 117.419 688.406Z" fill="#2F2E41" />
    <path d="M182.934 370.789C196.498 370.789 207.495 359.792 207.495 346.228C207.495 332.663 196.498 321.667 182.934 321.667C169.369 321.667 158.373 332.663 158.373 346.228C158.373 359.792 169.369 370.789 182.934 370.789Z" fill="#A0616A" />
    <path d="M165.19 665.461L151.693 662.889C150.584 662.684 149.593 662.068 148.919 661.163C148.245 660.258 147.938 659.132 148.059 658.011L157.008 570.752C157.094 569.919 156.878 569.084 156.4 568.397C155.923 567.709 155.214 567.216 154.404 567.006C153.594 566.796 152.736 566.884 151.984 567.253C151.233 567.621 150.639 568.247 150.309 569.016L111.238 660.183C111.003 660.731 110.662 661.227 110.234 661.642C109.806 662.056 109.3 662.382 108.745 662.599C108.19 662.817 107.598 662.922 107.002 662.909C106.406 662.896 105.819 662.764 105.274 662.522L94.2974 657.643C93.2727 657.192 92.4538 656.374 92.0019 655.35C91.5501 654.325 91.4979 653.169 91.8558 652.108L118.578 571.941C118.653 571.716 118.705 571.483 118.733 571.247L127.407 498C127.502 497.2 127.809 496.441 128.297 495.8C128.785 495.16 129.436 494.662 130.182 494.359L157.571 483.233C158.381 482.904 159.27 482.818 160.128 482.986C160.986 483.153 161.777 483.567 162.404 484.177L196.974 517.839C197.513 518.361 197.912 519.01 198.135 519.726C198.358 520.443 198.397 521.204 198.249 521.939L170.445 661.917C170.239 662.937 169.687 663.855 168.882 664.515C168.078 665.176 167.069 665.537 166.028 665.54C165.747 665.54 165.466 665.513 165.19 665.461Z" fill="#2F2E41" />
    <path d="M149.803 502.039C145.019 496.499 141.527 493.984 139.139 494.381C136.769 494.764 135.402 498.074 133.954 501.579C131.979 506.363 129.74 511.786 124.22 512.21C123.361 512.357 122.477 512.26 121.67 511.93C120.864 511.599 120.166 511.048 119.658 510.34C115.316 503.883 125.73 482.516 126.681 480.596L126.193 379.535C126.186 378.72 126.402 377.918 126.816 377.216C127.231 376.514 127.829 375.938 128.546 375.55C157.163 360.118 195.803 386.956 203.258 392.494C203.855 392.936 204.332 393.519 204.648 394.19C204.964 394.862 205.109 395.601 205.069 396.343C204.169 413.268 199.682 498.663 199.682 517.712C199.682 522.985 197.863 526.336 194.275 527.67C193.064 528.099 191.786 528.309 190.501 528.289C179.555 528.289 161.628 515.73 149.803 502.039Z" fill="#CCCCCC" />
    <path d="M189.739 452.967C189.141 452.578 188.645 452.051 188.293 451.43C187.941 450.81 187.743 450.113 187.717 449.4L185.778 404.135C185.659 401.348 186.535 398.609 188.25 396.409C189.965 394.209 192.407 392.691 195.138 392.127C197.87 391.563 200.714 391.989 203.16 393.33C205.606 394.67 207.496 396.837 208.49 399.443L222.997 437.46C223.422 438.575 223.386 439.813 222.899 440.902C222.411 441.991 221.512 442.842 220.398 443.268L193.817 453.412C193.151 453.67 192.433 453.764 191.724 453.686C191.014 453.609 190.334 453.362 189.739 452.967V452.967Z" fill="#CCCCCC" />
    <path d="M122.192 523.695C120.889 522.818 119.794 521.667 118.984 520.321C118.174 518.976 117.669 517.469 117.504 515.907C117.34 514.345 117.52 512.766 118.031 511.281C118.543 509.796 119.374 508.442 120.466 507.313L115.776 402.408L138.977 405.14L136.284 507.522C138.059 509.481 139.053 512.024 139.079 514.668C139.104 517.312 138.159 519.874 136.422 521.867C134.685 523.861 132.277 525.148 129.654 525.485C127.032 525.822 124.376 525.185 122.192 523.695H122.192Z" fill="#A0616A" />
    <path d="M106.081 430.343C105.66 429.766 105.385 429.097 105.277 428.391C105.169 427.686 105.233 426.965 105.462 426.289L119.79 383.306C120.672 380.66 122.467 378.414 124.853 376.97C127.24 375.526 130.063 374.978 132.816 375.425C135.57 375.872 138.074 377.284 139.882 379.409C141.689 381.533 142.682 384.232 142.682 387.021V427.712C142.68 428.905 142.206 430.049 141.362 430.892C140.519 431.736 139.375 432.21 138.182 432.212H109.732C109.018 432.216 108.314 432.048 107.678 431.722C107.043 431.397 106.495 430.924 106.081 430.343Z" fill="#CCCCCC" />
    <path d="M167.073 362.747C166.153 363.468 165.005 363.832 163.838 363.774C162.671 363.716 161.565 363.239 160.722 362.431C155.458 357.51 151.015 351.627 148.767 344.813C146.191 337.005 146.849 327.86 151.782 321.283C155.953 315.722 162.554 312.581 169.057 310.126C171.595 309.052 174.277 308.356 177.017 308.058C179.784 307.771 182.557 308.55 184.771 310.236C185.85 311.097 186.644 312.264 187.05 313.583C187.456 314.903 187.455 316.314 187.047 317.633C190.381 314.604 194.449 312.5 198.848 311.528C201.632 310.79 204.574 310.912 207.288 311.878C211.059 313.428 213.508 317.216 214.637 321.134C215.571 324.123 215.646 327.314 214.855 330.343C214.449 331.849 213.732 333.254 212.749 334.465C211.766 335.676 210.54 336.668 209.149 337.375C205.699 339.001 201.605 338.387 197.998 337.15C194.391 335.913 190.97 334.087 187.239 333.297C183.508 332.508 179.2 332.969 176.56 335.721C174.701 337.659 173.969 340.385 173.304 342.987L169.845 356.521C169.463 358.492 168.733 360.38 167.688 362.095C167.514 362.339 167.306 362.558 167.073 362.747Z" fill="#2F2E41" />
    <path d="M266.681 558.035H234.381C233.556 558.034 232.758 557.739 232.129 557.204C231.501 556.67 231.083 555.929 230.949 555.115C228.842 541.43 228.842 527.505 230.949 513.821C231.083 513.006 231.501 512.266 232.129 511.731C232.758 511.196 233.556 510.901 234.381 510.9H266.681C267.204 510.898 267.721 511.016 268.192 511.244C268.663 511.472 269.076 511.805 269.399 512.217C269.729 512.635 269.96 513.122 270.073 513.642C270.186 514.162 270.179 514.701 270.053 515.218C267.032 527.873 267.032 541.062 270.053 553.717C270.179 554.234 270.186 554.773 270.073 555.293C269.96 555.813 269.729 556.3 269.399 556.718C269.076 557.13 268.663 557.463 268.192 557.691C267.721 557.919 267.204 558.037 266.681 558.035Z" fill="#FFB59D" />
    <path d="M740.728 333H445.736C444.215 332.998 442.757 332.393 441.682 331.318C440.607 330.243 440.002 328.785 440 327.264V21.7363C440.002 20.2155 440.607 18.7574 441.682 17.682C442.757 16.6066 444.215 16.0017 445.736 16H740.728C742.249 16.0017 743.707 16.6066 744.783 17.682C745.858 18.7574 746.463 20.2155 746.465 21.7363V327.264C746.463 328.785 745.858 330.243 744.783 331.318C743.707 332.393 742.249 332.998 740.728 333ZM445.736 18C444.746 18.0011 443.796 18.3951 443.096 19.0956C442.395 19.796 442.001 20.7457 442 21.7363V327.264C442.001 328.254 442.395 329.204 443.096 329.904C443.796 330.605 444.746 330.999 445.736 331H740.728C741.719 330.999 742.669 330.605 743.369 329.904C744.069 329.204 744.463 328.254 744.465 327.264V21.7363C744.463 20.7457 744.069 19.796 743.369 19.0956C742.669 18.3951 741.719 18.0011 740.728 18H445.736Z" fill="#3F3D56" />
    <path d="M648.835 144.406C655.426 156.579 657.84 170.579 655.705 184.256C653.571 197.933 647.007 210.532 637.02 220.118C627.033 229.703 614.176 235.747 600.423 237.319C586.67 238.892 572.781 235.907 560.888 228.824C548.995 221.74 539.756 210.948 534.589 198.106C529.422 185.264 528.613 171.081 532.286 157.734C535.958 144.388 543.91 132.615 554.92 124.225C565.93 115.834 579.389 111.289 593.232 111.287C593.734 111.287 594.233 111.294 594.732 111.306L594.064 84.3006C593.786 84.2981 593.51 84.29 593.232 84.29C573.315 84.2958 553.961 90.8946 538.188 103.057C522.416 115.219 511.113 132.26 506.044 151.521C500.975 170.782 502.425 191.18 510.167 209.53C517.909 227.881 531.509 243.152 548.842 252.961C566.176 262.771 586.27 266.566 605.987 263.754C625.705 260.943 643.937 251.684 657.839 237.421C671.741 223.159 680.53 204.695 682.836 184.912C685.141 165.129 680.833 145.139 670.583 128.062L648.835 144.406Z" fill="#FFB59D" />
    <g filter="url(#filter0_d_64_570)">
        <path d="M648.835 144.406L670.583 128.063C662.641 114.828 651.434 103.855 638.036 96.1922C624.638 88.5298 609.497 84.4353 594.064 84.3008L594.732 111.306C605.867 111.567 616.735 114.766 626.236 120.578C635.737 126.391 643.533 134.611 648.835 144.406Z" fill="#E6E6E6" />
    </g>
    <path d="M639.152 251.933L638.036 253.039L669.715 285.016L670.831 283.911L639.152 251.933Z" fill="#E6E6E6" />
    <path d="M659.49 56.1897L637.471 95.4482L638.841 96.2169L660.86 56.9583L659.49 56.1897Z" fill="#E6E6E6" />
    <path d="M693.977 296.815H647.227C646.396 296.815 645.599 296.484 645.012 295.897C644.424 295.309 644.093 294.513 644.092 293.682V287.098C644.093 286.267 644.424 285.47 645.012 284.883C645.599 284.295 646.396 283.965 647.227 283.964H693.977C694.808 283.965 695.604 284.295 696.192 284.883C696.78 285.47 697.11 286.267 697.112 287.098V293.682C697.11 294.513 696.78 295.309 696.192 295.897C695.604 296.484 694.808 296.815 693.977 296.815Z" fill="#FFB59D" />
    <path d="M682.125 57.1348H635.374C634.543 57.1338 633.747 56.8033 633.159 56.2158C632.572 55.6283 632.241 54.8318 632.24 54.001V47.4165C632.241 46.5857 632.572 45.7892 633.159 45.2017C633.747 44.6142 634.543 44.2837 635.374 44.2827H682.125C682.956 44.2837 683.753 44.6142 684.34 45.2017C684.928 45.7892 685.258 46.5857 685.259 47.4165V54.001C685.258 54.8318 684.928 55.6283 684.34 56.2158C683.753 56.8033 682.956 57.1338 682.125 57.1348Z" fill="#E6E6E6" />
    <path d="M371.834 288.873H38.4648C37.016 288.871 35.6269 288.295 34.6024 287.27C33.5779 286.246 33.0016 284.857 33 283.408V149.465C33.0016 148.016 33.5779 146.627 34.6024 145.602C35.6269 144.578 37.016 144.002 38.4648 144H371.834C373.283 144.002 374.672 144.578 375.696 145.602C376.721 146.627 377.297 148.016 377.299 149.465V283.408C377.297 284.857 376.721 286.246 375.696 287.27C374.672 288.295 373.283 288.871 371.834 288.873ZM38.4648 146C37.5462 146.001 36.6655 146.366 36.0159 147.016C35.3664 147.665 35.001 148.546 35 149.465V283.408C35.001 284.326 35.3664 285.207 36.0159 285.857C36.6655 286.506 37.5462 286.872 38.4648 286.873H371.834C372.753 286.872 373.633 286.506 374.283 285.857C374.932 285.207 375.298 284.326 375.299 283.408V149.465C375.298 148.546 374.932 147.666 374.283 147.016C373.633 146.366 372.753 146.001 371.834 146H38.4648Z" fill="#3F3D56" />
    <path d="M168.417 255.631H136.117C135.292 255.629 134.494 255.335 133.866 254.8C133.237 254.265 132.819 253.524 132.685 252.71C130.578 239.026 130.578 225.1 132.685 211.416C132.819 210.602 133.237 209.861 133.866 209.326C134.494 208.791 135.292 208.497 136.117 208.495H168.417C168.94 208.493 169.457 208.611 169.928 208.839C170.399 209.068 170.812 209.4 171.135 209.812C171.465 210.23 171.696 210.717 171.809 211.237C171.922 211.757 171.916 212.296 171.789 212.813C168.768 225.469 168.768 238.657 171.789 251.312C171.916 251.83 171.922 252.369 171.809 252.889C171.696 253.409 171.465 253.896 171.135 254.314C170.812 254.726 170.399 255.058 169.928 255.287C169.457 255.515 168.94 255.633 168.417 255.631Z" fill="#E6E6E6" />
    <path d="M276.562 255.631H244.262C243.437 255.629 242.639 255.335 242.01 254.8C241.382 254.265 240.963 253.524 240.83 252.71C238.723 239.026 238.723 225.1 240.83 211.416C240.963 210.602 241.382 209.861 242.01 209.326C242.639 208.791 243.437 208.497 244.262 208.495H276.562C277.085 208.493 277.602 208.611 278.073 208.84C278.544 209.068 278.957 209.401 279.28 209.813C279.61 210.23 279.84 210.717 279.954 211.237C280.067 211.757 280.06 212.297 279.934 212.814C276.912 225.469 276.912 238.657 279.934 251.313C280.06 251.83 280.067 252.369 279.954 252.889C279.84 253.409 279.61 253.896 279.28 254.314C278.957 254.725 278.544 255.058 278.073 255.286C277.602 255.515 277.085 255.633 276.562 255.631Z" fill="#E6E6E6" />
    <path d="M113.478 224.377H81.178C80.3527 224.376 79.5546 224.081 78.9261 223.547C78.2975 223.012 77.8792 222.271 77.7456 221.457C75.6387 207.773 75.6387 193.847 77.7456 180.163C77.8792 179.348 78.2975 178.608 78.9261 178.073C79.5546 177.538 80.3527 177.243 81.178 177.242H113.478C114.001 177.24 114.518 177.358 114.989 177.586C115.46 177.814 115.872 178.147 116.196 178.559C116.526 178.976 116.756 179.464 116.87 179.984C116.983 180.504 116.976 181.043 116.85 181.56C113.828 194.215 113.828 207.404 116.85 220.059C116.976 220.576 116.983 221.115 116.87 221.635C116.756 222.156 116.526 222.643 116.196 223.061C115.873 223.472 115.46 223.805 114.989 224.033C114.518 224.261 114.001 224.379 113.478 224.377Z" fill="#FFB59D" />
    <path d="M222.711 224.377H190.411C189.887 224.379 189.371 224.261 188.9 224.033C188.429 223.805 188.016 223.472 187.693 223.06C187.363 222.643 187.132 222.155 187.019 221.635C186.906 221.115 186.913 220.576 187.039 220.059C190.06 207.404 190.06 194.215 187.039 181.56C186.912 181.043 186.906 180.504 187.019 179.984C187.132 179.464 187.363 178.977 187.693 178.559C188.016 178.147 188.429 177.814 188.9 177.586C189.371 177.358 189.887 177.24 190.411 177.242H222.711C223.536 177.243 224.334 177.538 224.962 178.073C225.591 178.608 226.009 179.348 226.143 180.163C228.25 193.847 228.25 207.773 226.143 221.457C226.009 222.271 225.591 223.012 224.963 223.547C224.334 224.081 223.536 224.376 222.711 224.377Z" fill="#FFB59D" />
    <path d="M329.121 224.377H296.821C296.298 224.379 295.781 224.261 295.31 224.033C294.839 223.805 294.426 223.472 294.103 223.06C293.773 222.643 293.542 222.155 293.429 221.635C293.316 221.115 293.323 220.576 293.449 220.059C296.47 207.404 296.47 194.215 293.449 181.56C293.323 181.043 293.316 180.504 293.429 179.984C293.542 179.464 293.773 178.977 294.103 178.559C294.426 178.147 294.839 177.814 295.31 177.586C295.781 177.358 296.298 177.24 296.821 177.242H329.121C329.946 177.243 330.744 177.538 331.373 178.073C332.001 178.608 332.42 179.348 332.553 180.163C334.66 193.847 334.66 207.773 332.553 221.457C332.42 222.271 332.001 223.012 331.373 223.546C330.744 224.081 329.946 224.376 329.121 224.377Z" fill="#FF6584" />
    <g clip-path="url(#clip0_64_570)">
        <path fill-rule="evenodd" clip-rule="evenodd" d="M457.111 284V289.035C455.43 290.701 454.035 292.626 453 294.736V284H457.111Z" fill="#FFB59D" />
        <path fill-rule="evenodd" clip-rule="evenodd" d="M492.055 284V294.737C491.755 294.125 491.424 293.53 491.067 292.953C490.754 292.446 490.419 291.954 490.065 291.477C489.422 290.613 488.712 289.797 487.945 289.035V284H492.055Z" fill="#FFB59D" />
        <path fill-rule="evenodd" clip-rule="evenodd" d="M526.999 284V303.573C526.999 308.101 525.465 312.272 522.89 315.587C519.315 320.185 513.738 323.145 507.472 323.145C507.128 323.145 506.788 323.135 506.448 323.121H506.446C500.635 322.818 495.496 319.969 492.12 315.67C492.097 315.642 492.076 315.615 492.055 315.588C491.708 315.139 491.377 314.674 491.067 314.193C490.677 313.593 490.321 312.967 490 312.322C489.213 310.749 488.634 309.053 488.292 307.272H492.526C492.711 308.008 492.953 308.722 493.24 309.411C493.575 310.21 493.98 310.975 494.444 311.697C497.171 315.965 501.988 318.798 507.477 318.798C515.987 318.798 522.889 311.98 522.889 303.574V284H526.999Z" fill="#FFB59D" />
        <path fill-rule="evenodd" clip-rule="evenodd" d="M458.974 301.399H487.788C487.602 300.12 487.258 298.893 486.771 297.737C484.451 292.226 478.947 288.349 472.527 288.349C464.013 288.349 457.111 295.166 457.111 303.573C457.111 311.979 464.013 318.797 472.527 318.797C478.947 318.797 484.452 314.919 486.771 309.408C487.084 310.417 487.479 311.39 487.945 312.322C488.253 312.947 488.598 313.551 488.972 314.134C488.651 314.635 488.307 315.118 487.945 315.588C487.023 316.775 485.967 317.85 484.802 318.797C481.447 321.517 477.177 323.145 472.527 323.145C467.877 323.145 463.607 321.517 460.253 318.797C459.086 317.849 458.031 316.775 457.111 315.588C454.534 312.272 453 308.101 453 303.573C453 299.044 454.534 294.874 457.111 291.559C458.032 290.373 459.087 289.294 460.253 288.349C463.607 285.629 467.877 284 472.527 284C477.177 284 481.447 285.629 484.801 288.349C485.967 289.294 487.023 290.372 487.944 291.559C488.306 292.027 488.65 292.512 488.971 293.011C489.344 293.594 489.687 294.198 489.999 294.823C491.007 296.84 491.675 299.056 491.936 301.399C492.014 302.111 492.054 302.837 492.054 303.573C492.054 304.309 492.014 305.035 491.936 305.748H458.974V301.399Z" fill="#FFB59D" />
    </g>
    <path d="M636 524H383C376.902 523.993 371.056 521.568 366.744 517.256C362.432 512.944 360.007 507.098 360 501V407C360.007 400.902 362.432 395.056 366.744 390.744C371.056 386.432 376.902 384.007 383 384H636C642.098 384.007 647.944 386.432 652.256 390.744C656.568 395.056 658.993 400.902 659 407V501C658.993 507.098 656.568 512.944 652.256 517.256C647.944 521.568 642.098 523.993 636 524Z" fill="white" />
    <path d="M521.835 439.488H481.835C480.774 439.488 479.756 439.067 479.006 438.317C478.256 437.567 477.835 436.549 477.835 435.488C477.835 434.427 478.256 433.41 479.006 432.66C479.756 431.91 480.774 431.488 481.835 431.488H521.835C522.895 431.488 523.913 431.91 524.663 432.66C525.413 433.41 525.835 434.427 525.835 435.488C525.835 436.549 525.413 437.567 524.663 438.317C523.913 439.067 522.895 439.488 521.835 439.488Z" fill="#CCCCCC" />
    <path d="M607.835 461.488H480.835C479.774 461.488 478.756 461.067 478.006 460.317C477.256 459.567 476.835 458.549 476.835 457.488C476.835 456.427 477.256 455.41 478.006 454.66C478.756 453.91 479.774 453.488 480.835 453.488H607.835C608.895 453.488 609.913 453.91 610.663 454.66C611.413 455.41 611.835 456.427 611.835 457.488C611.835 458.549 611.413 459.567 610.663 460.317C609.913 461.067 608.895 461.488 607.835 461.488Z" fill="#CCCCCC" />
    <path d="M434.331 473.307C449.142 473.307 461.15 461.3 461.15 446.488C461.15 431.676 449.142 419.669 434.331 419.669C419.519 419.669 407.512 431.676 407.512 446.488C407.512 461.3 419.519 473.307 434.331 473.307Z" fill="#FFB59D" />
    <defs>
        <filter id="filter0_d_64_570" x="590.064" y="84.3008" width="84.519" height="68.1055" filterUnits="userSpaceOnUse" color-interpolation-filters="sRGB">
            <feFlood flood-opacity="0" result="BackgroundImageFix" />
            <feColorMatrix in="SourceAlpha" type="matrix" values="0 0 0 0 0 0 0 0 0 0 0 0 0 0 0 0 0 0 127 0" result="hardAlpha" />
            <feOffset dy="4" />
            <feGaussianBlur stdDeviation="2" />
            <feComposite in2="hardAlpha" operator="out" />
            <feColorMatrix type="matrix" values="0 0 0 0 0 0 0 0 0 0 0 0 0 0 0 0 0 0 0.25 0" />
            <feBlend mode="normal" in2="BackgroundImageFix" result="effect1_dropShadow_64_570" />
            <feBlend mode="normal" in="SourceGraphic" in2="effect1_dropShadow_64_570" result="shape" />
        </filter>
        <clipPath id="clip0_64_570">
            <rect width="74" height="39.1452" fill="white" transform="translate(453 284)" />
        </clipPath>
    </defs>
</svg>
