<svg width="762" height="690" viewBox="0 0 762 690" fill="none" xmlns="http://www.w3.org/2000/svg">
    <g clip-path="url(#clip0_64_531)">
        <rect width="762" height="690" fill="#1B1B1F" />
        <path d="M761 690H1C0.734784 690 0.480429 689.895 0.292892 689.707C0.105356 689.52 0 689.265 0 689C0 688.735 0.105356 688.48 0.292892 688.293C0.480429 688.105 0.734784 688 1 688H761C761.265 688 761.52 688.105 761.707 688.293C761.895 688.48 762 688.735 762 689C762 689.265 761.895 689.52 761.707 689.707C761.52 689.895 761.265 690 761 690Z" fill="#CCCCCC" />
        <path d="M703 442H450C443.902 441.993 438.056 439.568 433.744 435.256C429.432 430.944 427.007 425.098 427 419V325C427.007 318.902 429.432 313.056 433.744 308.744C438.056 304.432 443.902 302.007 450 302H703C709.098 302.007 714.944 304.432 719.256 308.744C723.568 313.056 725.993 318.902 726 325V419C725.993 425.098 723.568 430.944 719.256 435.256C714.944 439.568 709.098 441.993 703 442Z" fill="white" />
        <path d="M703 442H450C443.902 441.993 438.056 439.568 433.744 435.256C429.432 430.944 427.007 425.098 427 419V325C427.007 318.902 429.432 313.056 433.744 308.744C438.056 304.432 443.902 302.007 450 302H703C709.098 302.007 714.944 304.432 719.256 308.744C723.568 313.056 725.993 318.902 726 325V419C725.993 425.098 723.568 430.944 719.256 435.256C714.944 439.568 709.098 441.993 703 442ZM450 304C444.432 304.006 439.095 306.221 435.158 310.158C431.221 314.095 429.006 319.432 429 325V419C429.006 424.568 431.221 429.905 435.158 433.842C439.095 437.779 444.432 439.994 450 440H703C708.568 439.994 713.905 437.779 717.842 433.842C721.779 429.905 723.994 424.568 724 419V325C723.994 319.432 721.779 314.095 717.842 310.158C713.905 306.221 708.568 304.006 703 304H450Z" fill="#3F3D56" />
        <path d="M548.539 339.243H506.042C505.508 339.244 504.98 339.14 504.487 338.936C503.994 338.733 503.546 338.434 503.168 338.057C502.791 337.68 502.491 337.233 502.287 336.74C502.083 336.247 501.977 335.719 501.977 335.185C501.977 334.652 502.083 334.124 502.287 333.631C502.491 333.138 502.791 332.69 503.168 332.313C503.546 331.936 503.994 331.638 504.487 331.434C504.98 331.23 505.508 331.126 506.042 331.127H548.539C549.614 331.129 550.644 331.557 551.404 332.318C552.164 333.079 552.59 334.11 552.59 335.185C552.59 336.26 552.164 337.292 551.404 338.053C550.644 338.813 549.614 339.242 548.539 339.243Z" fill="#A8C8FF" />
        <path d="M643.802 355.842H506.042C504.966 355.842 503.934 355.414 503.172 354.653C502.411 353.892 501.984 352.86 501.984 351.784C501.984 350.707 502.411 349.675 503.172 348.914C503.934 348.153 504.966 347.725 506.042 347.725H643.802C644.878 347.725 645.911 348.153 646.672 348.914C647.433 349.675 647.86 350.707 647.86 351.784C647.86 352.86 647.433 353.892 646.672 354.653C645.911 355.414 644.878 355.842 643.802 355.842Z" fill="#E6E6E6" />
        <path d="M643.802 374.895H506.042C505.509 374.895 504.981 374.79 504.489 374.586C503.997 374.382 503.549 374.083 503.172 373.706C502.796 373.329 502.497 372.882 502.293 372.389C502.089 371.897 501.984 371.369 501.984 370.836C501.984 370.303 502.089 369.776 502.293 369.283C502.497 368.791 502.796 368.344 503.172 367.967C503.549 367.59 503.997 367.291 504.489 367.087C504.981 366.883 505.509 366.778 506.042 366.778H643.802C644.878 366.778 645.911 367.206 646.672 367.967C647.433 368.728 647.86 369.76 647.86 370.836C647.86 371.913 647.433 372.945 646.672 373.706C645.911 374.467 644.878 374.895 643.802 374.895Z" fill="#E6E6E6" />
        <path d="M643.802 393.947H506.042C505.508 393.948 504.98 393.844 504.487 393.64C503.994 393.437 503.546 393.138 503.168 392.761C502.791 392.384 502.491 391.936 502.287 391.444C502.083 390.951 501.977 390.423 501.977 389.889C501.977 389.356 502.083 388.827 502.287 388.335C502.491 387.842 502.791 387.394 503.168 387.017C503.546 386.64 503.994 386.341 504.487 386.138C504.98 385.934 505.508 385.83 506.042 385.831H643.802C644.877 385.833 645.908 386.261 646.667 387.022C647.427 387.783 647.854 388.814 647.854 389.889C647.854 390.964 647.427 391.996 646.667 392.756C645.908 393.517 644.877 393.946 643.802 393.947Z" fill="#E6E6E6" />
        <path d="M643.802 413H506.042C504.966 413 503.934 412.572 503.172 411.811C502.411 411.05 501.984 410.018 501.984 408.942C501.984 407.865 502.411 406.833 503.172 406.072C503.934 405.311 504.966 404.883 506.042 404.883H643.802C644.878 404.883 645.911 405.311 646.672 406.072C647.433 406.833 647.86 407.865 647.86 408.942C647.86 410.018 647.433 411.05 646.672 411.811C645.911 412.572 644.878 413 643.802 413Z" fill="#E6E6E6" />
        <path d="M703 279H450C443.902 278.993 438.056 276.568 433.744 272.256C429.432 267.944 427.007 262.098 427 256V162C427.007 155.902 429.432 150.056 433.744 145.744C438.056 141.432 443.902 139.007 450 139H703C709.098 139.007 714.944 141.432 719.256 145.744C723.568 150.056 725.993 155.902 726 162V256C725.993 262.098 723.568 267.944 719.256 272.256C714.944 276.568 709.098 278.993 703 279Z" fill="white" />
        <path d="M588.834 194.488H548.834C547.774 194.488 546.756 194.067 546.006 193.317C545.256 192.567 544.834 191.549 544.834 190.488C544.834 189.427 545.256 188.41 546.006 187.66C546.756 186.91 547.774 186.488 548.834 186.488H588.834C589.895 186.488 590.913 186.91 591.663 187.66C592.413 188.41 592.834 189.427 592.834 190.488C592.834 191.549 592.413 192.567 591.663 193.317C590.913 194.067 589.895 194.488 588.834 194.488Z" fill="#CCCCCC" />
        <path d="M674.834 216.488H547.834C546.774 216.488 545.756 216.067 545.006 215.317C544.256 214.567 543.834 213.549 543.834 212.488C543.834 211.427 544.256 210.41 545.006 209.66C545.756 208.91 546.774 208.488 547.834 208.488H674.834C675.895 208.488 676.913 208.91 677.663 209.66C678.413 210.41 678.834 211.427 678.834 212.488C678.834 213.549 678.413 214.567 677.663 215.317C676.913 216.067 675.895 216.488 674.834 216.488Z" fill="#CCCCCC" />
        <path d="M253 258H59C52.9021 257.993 47.056 255.568 42.7441 251.256C38.4323 246.944 36.0068 241.098 36 235V201C36.0069 194.902 38.4324 189.056 42.7442 184.744C47.056 180.432 52.9021 178.007 59 178H253C259.098 178.007 264.944 180.432 269.256 184.744C273.568 189.056 275.993 194.902 276 201V235C275.993 241.098 273.568 246.944 269.256 251.256C264.944 255.568 259.098 257.993 253 258Z" fill="white" />
        <path d="M253 258H59C52.9021 257.993 47.056 255.568 42.7441 251.256C38.4323 246.944 36.0068 241.098 36 235V201C36.0069 194.902 38.4324 189.056 42.7442 184.744C47.056 180.432 52.9021 178.007 59 178H253C259.098 178.007 264.944 180.432 269.256 184.744C273.568 189.056 275.993 194.902 276 201V235C275.993 241.098 273.568 246.944 269.256 251.256C264.944 255.568 259.098 257.993 253 258ZM59 180C53.4324 180.006 48.0946 182.221 44.1577 186.158C40.2207 190.095 38.0062 195.432 38 201V235C38.0063 240.568 40.2209 245.905 44.1577 249.842C48.0946 253.779 53.4324 255.994 59 256H253C258.568 255.994 263.905 253.779 267.842 249.842C271.779 245.905 273.994 240.568 274 235V201C273.994 195.432 271.779 190.095 267.842 186.158C263.905 182.221 258.568 180.006 253 180H59Z" fill="#3F3D56" />
        <path d="M171.476 238.752H140.288C138.621 238.75 137.023 238.087 135.844 236.908C134.665 235.73 134.002 234.131 134 232.464V203.288C134.002 201.621 134.665 200.023 135.844 198.844C137.023 197.665 138.621 197.002 140.288 197H171.476C173.143 197.002 174.742 197.665 175.921 198.844C177.099 200.023 177.762 201.621 177.764 203.288V232.464C177.762 234.131 177.099 235.73 175.921 236.908C174.742 238.087 173.143 238.75 171.476 238.752Z" fill="#E6E6E6" />
        <path d="M234.476 238.752H203.288C201.621 238.75 200.023 238.087 198.844 236.908C197.665 235.73 197.002 234.131 197 232.464V203.288C197.002 201.621 197.665 200.023 198.844 198.844C200.023 197.665 201.621 197.002 203.288 197H234.476C236.143 197.002 237.742 197.665 238.921 198.844C240.099 200.023 240.762 201.621 240.764 203.288V232.464C240.762 234.131 240.099 235.73 238.921 236.908C237.742 238.087 236.143 238.75 234.476 238.752Z" fill="#E6E6E6" />
        <path d="M253 378H59C52.9021 377.993 47.056 375.568 42.7441 371.256C38.4323 366.944 36.0068 361.098 36 355V321C36.0069 314.902 38.4324 309.056 42.7442 304.744C47.056 300.432 52.9021 298.007 59 298H253C259.098 298.007 264.944 300.432 269.256 304.744C273.568 309.056 275.993 314.902 276 321V355C275.993 361.098 273.568 366.944 269.256 371.256C264.944 375.568 259.098 377.993 253 378Z" fill="white" />
        <path d="M253 378H59C52.9021 377.993 47.056 375.568 42.7441 371.256C38.4323 366.944 36.0068 361.098 36 355V321C36.0069 314.902 38.4324 309.056 42.7442 304.744C47.056 300.432 52.9021 298.007 59 298H253C259.098 298.007 264.944 300.432 269.256 304.744C273.568 309.056 275.993 314.902 276 321V355C275.993 361.098 273.568 366.944 269.256 371.256C264.944 375.568 259.098 377.993 253 378ZM59 300C53.4324 300.006 48.0946 302.221 44.1577 306.158C40.2207 310.095 38.0062 315.432 38 321V355C38.0063 360.568 40.2209 365.905 44.1577 369.842C48.0946 373.779 53.4324 375.994 59 376H253C258.568 375.994 263.905 373.779 267.842 369.842C271.779 365.905 273.994 360.568 274 355V321C273.994 315.432 271.779 310.095 267.842 306.158C263.905 302.221 258.568 300.006 253 300H59Z" fill="#3F3D56" />
        <path d="M108.476 358.752H77.288C75.6209 358.75 74.0226 358.087 72.8438 356.908C71.6649 355.73 71.0019 354.131 71 352.464V323.288C71.0019 321.621 71.6649 320.023 72.8438 318.844C74.0226 317.665 75.6209 317.002 77.288 317H108.476C110.143 317.002 111.742 317.665 112.921 318.844C114.099 320.023 114.762 321.621 114.764 323.288V352.464C114.762 354.131 114.099 355.73 112.921 356.908C111.742 358.087 110.143 358.75 108.476 358.752Z" fill="#E6E6E6" />
        <path d="M171.476 358.752H140.288C138.621 358.75 137.023 358.087 135.844 356.908C134.665 355.73 134.002 354.131 134 352.464V323.288C134.002 321.621 134.665 320.023 135.844 318.844C137.023 317.665 138.621 317.002 140.288 317H171.476C173.143 317.002 174.742 317.665 175.921 318.844C177.099 320.023 177.762 321.621 177.764 323.288V352.464C177.762 354.131 177.099 355.73 175.921 356.908C174.742 358.087 173.143 358.75 171.476 358.752Z" fill="#E6E6E6" />
        <g filter="url(#filter0_dd_64_531)">
            <path d="M473.15 363.849C474.211 363.856 475.257 364.096 476.216 364.552C477.174 365.008 478.021 365.668 478.696 366.486C479.372 367.305 479.86 368.261 480.125 369.289C480.391 370.316 480.429 371.389 480.235 372.432L494.138 381.479L490.701 391.268L471.247 378.217C469.516 377.775 468.007 376.714 467.006 375.234C466.005 373.754 465.582 371.959 465.816 370.188C466.051 368.417 466.927 366.793 468.279 365.625C469.63 364.457 471.363 363.825 473.15 363.849Z" fill="#FFB6B6" />
            <path d="M478.102 387.637L488.024 376.18L500.846 382.126L527.047 402.978C530.482 403.379 556.546 406.743 556.067 416.315C556.055 417.433 555.801 418.536 555.323 419.548C554.845 420.559 554.153 421.455 553.296 422.173C549.182 425.569 542.053 424.605 541.786 424.566L524.729 423.712C523.837 423.928 514.578 426.055 509.677 423.011C508.19 422.087 478.102 387.637 478.102 387.637Z" fill="#3F3D56" />
            <path d="M506.718 680.261L498.591 680.26L494.725 648.913H506.719L506.718 680.261Z" fill="#FFB6B6" />
            <path d="M508.791 688.139L482.585 688.138V687.806C482.586 685.101 483.66 682.507 485.573 680.594C487.486 678.682 490.08 677.607 492.785 677.607H492.786L497.573 673.975L506.504 677.607L508.791 677.607L508.791 688.139Z" fill="#2F2E41" />
            <path d="M595.92 673.9L588.086 676.064L576.013 646.877L587.575 643.684L595.92 673.9Z" fill="#FFB6B6" />
            <path d="M600.016 680.942L574.756 687.919L574.668 687.599C573.948 684.992 574.293 682.205 575.627 679.852C576.962 677.499 579.176 675.772 581.784 675.052L581.784 675.052L585.431 670.277L595.007 671.4L597.212 670.791L600.016 680.942Z" fill="#2F2E41" />
            <path d="M507.076 490.551L568.487 493.684L568.507 493.74C572.185 503.958 573.044 514.978 570.993 525.643L572.873 541.309L582.273 590.186L594.805 652.85C594.805 652.85 611.098 657.237 589.792 664.756C568.487 672.276 572.873 667.889 576.006 662.25C579.139 656.61 560.654 593.006 560.654 593.006L538.095 542.249L516.162 594.886L513.656 653.164C513.656 653.164 520.236 660.997 501.436 664.13C482.637 667.263 483.577 661.31 487.964 656.923C492.35 652.537 496.11 594.26 496.11 594.26L500.496 539.116C500.496 539.116 499.243 507.157 507.076 490.551Z" fill="#2F2E41" />
            <path d="M567.124 418.96L562.186 406.009L546.286 390.348L526.148 388.768L511.349 402.018L507.164 415.2C512.653 440.616 512.54 464.024 504.763 486.702C504.21 488.27 504.006 489.94 504.165 491.594C504.325 493.249 504.843 494.849 505.684 496.283C506.525 497.717 507.668 498.95 509.035 499.896C510.401 500.842 511.958 501.479 513.596 501.762C536.409 505.596 578.889 511.344 575.963 500.401C572.093 485.925 558.626 454.768 563.615 438.292C565.43 432.568 566.572 426.652 567.019 420.663L567.124 418.96Z" fill="#3F3D56" />
            <path d="M532.831 383.714C542.757 383.714 550.804 375.667 550.804 365.741C550.804 355.815 542.757 347.769 532.831 347.769C522.905 347.769 514.859 355.815 514.859 365.741C514.859 375.667 522.905 383.714 532.831 383.714Z" fill="#FFB6B6" />
            <path d="M527.927 382.769L541.626 382.071C543.382 381.981 545.298 381.826 546.574 380.618C547.261 379.872 547.789 378.995 548.127 378.038C549.394 375.097 550.66 372.155 551.895 369.199C553.602 365.111 555.278 360.794 554.843 356.385C554.74 354.372 553.896 352.468 552.472 351.04C551.746 350.352 550.812 349.924 549.816 349.824C548.821 349.723 547.82 349.954 546.971 350.483C546.759 349.088 546.234 347.76 545.434 346.598C544.634 345.437 543.58 344.472 542.353 343.778C539.874 342.408 537.043 341.808 534.221 342.054C530.127 342.318 526.218 343.858 523.044 346.459C522.152 347.282 521.199 348.038 520.193 348.718C519.687 349.057 519.118 349.288 518.519 349.399C517.921 349.51 517.307 349.497 516.713 349.362C516.125 349.205 515.614 348.841 515.275 348.336C514.935 347.831 514.789 347.221 514.864 346.617C513.9 347.339 513.238 348.394 513.009 349.576C512.78 350.759 512.999 351.985 513.625 353.014C512.914 353.312 512.138 353.421 511.372 353.33C510.606 353.24 509.877 352.953 509.255 352.497C508.589 352.828 507.999 353.294 507.523 353.866C507.047 354.438 506.696 355.103 506.492 355.818C506.288 356.533 506.236 357.284 506.338 358.02C506.441 358.757 506.696 359.464 507.088 360.097C507.48 360.729 508 361.273 508.614 361.693C509.228 362.113 509.923 362.4 510.654 362.536C511.385 362.672 512.137 362.653 512.861 362.482C513.585 362.31 514.265 361.99 514.858 361.54C515.689 362.705 515.38 364.287 515.271 365.714C515.163 367.141 515.546 368.914 516.921 369.309C518.781 369.842 520.287 367.338 522.221 367.365C522.698 367.403 523.159 367.559 523.561 367.819C523.963 368.078 524.296 368.433 524.528 368.851C524.984 369.692 525.296 370.603 525.451 371.547L527.927 382.692" fill="#2F2E41" />
            <g filter="url(#filter1_d_64_531)">
                <path d="M436.162 411.365C429.319 411.37 422.622 409.385 416.886 405.652L414 403.775L417.421 404.155C418.318 404.255 419.283 404.313 420.29 404.327C424.902 404.331 429.417 403.004 433.294 400.506C430.99 400.006 428.857 398.915 427.105 397.338C425.352 395.761 424.042 393.754 423.304 391.516L422.876 390.195L424.238 390.463C424.856 390.585 425.484 390.656 426.115 390.674C423.956 389.563 422.144 387.881 420.878 385.81C419.611 383.739 418.938 381.36 418.932 378.932V377.534L420.15 378.072C420.872 378.479 421.637 378.804 422.43 379.042C420.553 376.936 419.387 374.292 419.098 371.485C418.81 368.679 419.412 365.853 420.821 363.409L421.416 362.382L422.162 363.303C427.598 370.03 435.387 374.439 443.951 375.637C444.186 375.671 444.426 375.653 444.653 375.585C444.881 375.517 445.091 375.401 445.269 375.244C445.451 375.086 445.597 374.89 445.697 374.671C445.797 374.451 445.848 374.213 445.848 373.972C445.828 371.361 446.586 368.804 448.025 366.626C449.463 364.448 451.518 362.748 453.927 361.742C456.335 360.737 458.989 360.471 461.549 360.979C464.109 361.487 466.46 362.746 468.302 364.596C470.823 364.046 473.24 363.097 475.461 361.784L477.335 360.675L476.652 362.743C476.019 364.662 474.957 366.411 473.547 367.858C474.798 367.532 476.022 367.107 477.205 366.587L479.745 365.471L478.215 367.785C476.594 370.24 474.569 372.403 472.225 374.181V375.361C472.225 393.059 458.763 411.365 436.235 411.365L436.162 411.365Z" fill="#A8C8FF" />
            </g>
            <path d="M452.301 398.764C453.361 398.72 454.418 398.909 455.397 399.318C456.377 399.727 457.254 400.346 457.968 401.131C458.682 401.916 459.216 402.848 459.531 403.861C459.846 404.874 459.935 405.944 459.792 406.996L474.114 415.362L471.153 425.305L451.093 413.207C449.343 412.849 447.784 411.862 446.713 410.432C445.642 409.002 445.133 407.229 445.282 405.449C445.431 403.668 446.227 402.005 447.521 400.773C448.815 399.54 450.516 398.826 452.301 398.764V398.764Z" fill="#FFB6B6" />
            <path d="M469.165 429.981L458.468 418.405L465.883 407.318L473.876 414.024L482.614 416.114L494.944 420.79C496.661 417.788 509.979 395.132 518.596 399.328C519.62 399.777 520.535 400.443 521.278 401.28C522.021 402.117 522.573 403.104 522.898 404.175C524.408 409.291 520.725 415.471 520.584 415.7L513.108 431.055C512.955 431.96 511.28 441.312 506.557 444.626C505.89 445.114 505.128 445.458 504.321 445.637C503.513 445.815 502.678 445.824 501.867 445.663C487.192 442.887 476.851 438.595 471.574 433.136C470.644 432.188 469.835 431.128 469.165 429.981Z" fill="#3F3D56" />
        </g>
        <path d="M167.121 678.126H174.067L177.373 651.332H167.121V678.126Z" fill="#9E616A" />
        <path d="M164.853 673.367L175.951 672.705V677.46L186.502 684.747C187.024 685.107 187.416 685.624 187.623 686.222C187.829 686.821 187.839 687.47 187.65 688.075C187.462 688.679 187.085 689.208 186.575 689.583C186.065 689.959 185.448 690.161 184.815 690.161H171.602L169.325 685.458L168.436 690.161H163.454L164.853 673.367Z" fill="#2F2E41" />
        <path d="M80.0579 672.224L86.5119 674.793L99.4919 651.122L89.9669 647.33L80.0579 672.224Z" fill="#9E616A" />
        <path d="M79.7108 666.965L90.2667 670.454L88.5082 674.872L95.6161 685.544C95.9672 686.071 96.1407 686.697 96.1111 687.329C96.0816 687.962 95.8506 688.568 95.4518 689.061C95.0531 689.553 94.5075 689.904 93.8947 690.064C93.282 690.224 92.6341 690.184 92.0457 689.95L79.7701 685.063L79.3937 679.852L76.8281 683.892L72.1997 682.05L79.7108 666.965Z" fill="#2F2E41" />
        <path d="M153.118 598.397L141.535 544.341L123.447 604.402L94.8056 661.356L94.6538 661.658L85.5812 656.773C84.3008 633.647 87.3418 611.977 98.4642 593.028L103.731 541.016C103.892 539.239 107.821 497.516 120.261 490.118L123.904 481.81L160.139 472.861L160.271 473.01C163.755 476.926 166.057 481.751 166.908 486.923L177.736 552.515L177.742 552.551L174.839 598.309L178.81 665.817H164.441C155.552 649.091 151.778 626.618 153.118 598.397Z" fill="#2F2E41" />
        <path d="M187.848 404.818C174.866 399.206 197.413 427.967 215.666 432.636C230.551 436.444 243.484 420.182 243.484 404.818C243.484 401.165 242.765 397.548 241.367 394.173C239.969 390.798 237.92 387.731 235.337 385.148C232.754 382.565 229.687 380.516 226.312 379.118C222.937 377.72 219.319 377 215.666 377C200.303 377 201.95 410.915 187.848 404.818Z" fill="#E6E6E6" />
        <path d="M169.492 387.338C167.845 383.796 170.458 379.842 171.391 376.029C173.131 368.915 168.228 361.212 161.581 358.747C154.935 356.282 147.297 358.342 141.588 362.656C135.991 366.885 132.056 368.877 128.201 374.852C126.908 376.856 125.539 383.077 125.295 385.476C125.05 387.876 126.291 390.626 128.555 391.152C128.338 391.58 128.243 392.06 128.28 392.538C128.316 393.017 128.484 393.476 128.763 393.866C129.043 394.256 129.424 394.562 129.866 394.751C130.307 394.939 130.792 395.003 131.267 394.935C135.599 394.098 143.557 396.398 143.557 396.398C150.976 396.823 158.395 397.248 165.814 397.673C167.715 397.781 169.688 397.88 171.396 396.83C171.868 396.553 172.275 396.178 172.589 395.729C172.903 395.28 173.115 394.769 173.213 394.23C173.647 391.42 170.627 389.78 169.492 387.338Z" fill="#2F2E41" />
        <path d="M175.094 418.326L173.471 429.132L170.896 446.253L170.46 452.597L167.256 499.089L158.432 505.877C153.323 509.807 146.946 511.719 140.517 511.247C134.089 510.775 128.059 507.953 123.579 503.32L112.863 498.161C118.606 492.511 117.538 466.328 117.538 466.328L117.474 414.901L131.999 410.016L136.783 400.598H153.947L158.238 410.61L166.026 414.171L169.573 415.802L175.094 418.326Z" fill="#E6E6E6" />
        <path d="M146.074 395.767C154.089 395.767 160.586 389.27 160.586 381.255C160.586 373.24 154.089 366.743 146.074 366.743C138.059 366.743 131.562 373.24 131.562 381.255C131.562 389.27 138.059 395.767 146.074 395.767Z" fill="#9E616A" />
        <path d="M137.782 376.703C133.949 376.71 130.207 375.529 127.07 373.324L126.966 373.25C126.966 371.397 127.331 369.561 128.04 367.849C128.749 366.136 129.789 364.58 131.1 363.269C132.411 361.958 133.967 360.919 135.679 360.209C137.392 359.5 139.228 359.135 141.081 359.135H146.843C148.685 359.137 150.508 359.502 152.208 360.21C153.908 360.917 155.452 361.953 156.751 363.258C158.051 364.563 159.08 366.111 159.78 367.815C160.48 369.518 160.837 371.343 160.831 373.184C160.819 374.025 160.48 374.827 159.885 375.421C159.29 376.015 158.486 376.353 157.646 376.364L138.113 376.7C138.003 376.702 137.892 376.703 137.782 376.703Z" fill="#2F2E41" />
        <path d="M180.262 448.161L167.117 448.268L166.151 471.665L155.47 484.741C154.171 484.96 152.958 485.533 151.964 486.399C150.97 487.264 150.235 488.387 149.839 489.643C149.444 490.9 149.403 492.242 149.722 493.52C150.041 494.799 150.707 495.964 151.647 496.887C152.587 497.811 153.764 498.457 155.047 498.753C156.331 499.05 157.672 498.986 158.922 498.569C160.171 498.151 161.281 497.397 162.129 496.388C162.977 495.379 163.529 494.156 163.725 492.853L178.438 472.457L180.262 448.161Z" fill="#9E616A" />
        <path d="M110.951 448.86L97.4756 442.561L82.7614 460.778L66.3934 464.917C65.2195 464.319 63.9031 464.057 62.5896 464.16C61.276 464.262 60.0165 464.726 58.95 465.5C57.8836 466.274 57.0518 467.327 56.5465 468.544C56.0412 469.761 55.8821 471.094 56.0867 472.395C56.2914 473.697 56.8518 474.917 57.7061 475.92C58.5603 476.923 59.6753 477.67 60.9277 478.079C62.1801 478.489 63.5212 478.544 64.803 478.239C66.0847 477.933 67.2572 477.28 68.1908 476.35L92.1588 468.733L110.951 448.86Z" fill="#9E616A" />
        <path d="M153.335 394.648L158.359 388.379C158.902 387.83 159.255 387.122 159.367 386.358C159.394 385.592 158.672 384.772 157.944 385.012C157.268 385.235 153.374 375.479 152.662 375.481C151.925 375.483 151.684 374.5 151.675 373.762C151.639 370.968 153.911 373.968 154.662 371.276C155.413 368.584 158.34 370.899 160.863 369.697C163.386 368.494 166.814 369.041 168.373 371.36C169.53 373.079 169.487 375.313 169.334 377.38C168.977 382.175 168.256 386.936 167.175 391.622C166.91 392.773 166.515 394.059 165.454 394.579C164.87 394.81 164.241 394.904 163.615 394.853L155.879 394.815" fill="#2F2E41" />
        <path d="M165.389 367.701C169.339 367.701 172.541 364.499 172.541 360.549C172.541 356.599 169.339 353.397 165.389 353.397C161.439 353.397 158.238 356.599 158.238 360.549C158.238 364.499 161.439 367.701 165.389 367.701Z" fill="#2F2E41" />
        <path d="M181.473 447.934C180.701 449.278 179.056 449.815 177.554 450.23C175.523 450.795 174.93 451.367 172.898 451.932C172.09 452.161 171.275 452.389 170.46 452.597C169.121 452.957 167.763 453.237 166.391 453.434C165.239 453.598 163.88 453.598 163.129 452.704C162.631 451.936 162.43 451.013 162.564 450.108C162.858 439.123 163.153 428.138 163.451 417.154L164.073 417.368C164.354 417.183 164.645 417.016 164.946 416.868C166.378 416.138 167.967 415.772 169.573 415.802C170.492 415.809 171.405 415.952 172.283 416.224C173.647 416.657 174.899 417.381 175.954 418.347C177.008 419.313 177.84 420.497 178.391 421.816C179.104 423.809 179.444 425.916 179.392 428.031C179.399 428.353 179.399 428.675 179.406 428.997C179.449 431.743 178.055 434.489 178.098 437.235C178.065 438.008 178.172 438.781 178.412 439.517C178.698 440.246 179.256 440.854 179.471 441.612C179.685 442.363 179.335 443.393 178.555 443.45C179.106 443.391 179.662 443.486 180.162 443.724C180.662 443.962 181.087 444.333 181.389 444.797C181.691 445.262 181.859 445.8 181.874 446.354C181.889 446.907 181.75 447.454 181.473 447.934V447.934Z" fill="#E6E6E6" />
        <path d="M117.534 414.963C118.964 415.049 120.357 415.45 121.615 416.136C122.872 416.823 123.962 417.779 124.808 418.936C125.653 420.092 126.233 421.421 126.506 422.828C126.778 424.234 126.737 425.684 126.385 427.072C125.637 429.393 124.462 431.552 122.92 433.44L118.113 440.13C117.626 440.73 117.251 441.413 117.006 442.146C116.804 442.905 116.884 443.727 116.607 444.462C116.33 445.196 115.438 445.812 114.775 445.391C115.252 445.672 115.643 446.079 115.903 446.568C116.163 447.057 116.283 447.608 116.25 448.161C116.216 448.714 116.031 449.247 115.713 449.701C115.396 450.154 114.96 450.512 114.452 450.733C113.026 451.356 111.388 450.8 109.934 450.244L104.031 447.985C101.932 447.236 99.8865 446.345 97.9087 445.317C96.8869 444.756 95.7964 443.948 95.7237 442.785C95.6671 441.879 96.4329 441.184 96.8168 440.362C101.624 430.069 108.693 421.879 117.474 414.901L117.534 414.963Z" fill="#E6E6E6" />
        <g filter="url(#filter2_dd_64_531)">
            <path d="M124.44 476.92C124.44 471.165 120.198 466.528 114.893 466.528C107.788 466.187 100.56 466.064 93.168 466.064H90.8632C83.4851 466.064 76.2297 466.187 69.1379 466.528C63.9146 466.528 59.6732 471.178 59.6732 476.947C59.3459 481.516 59.2094 486.071 59.2231 490.585C59.2367 495.099 59.3459 499.709 59.6595 504.223C59.6595 509.992 63.9009 514.67 69.1242 514.67C76.5706 515.011 84.2215 515.161 91.9951 515.161C99.7688 515.161 107.406 515.024 114.88 514.67C120.116 514.67 124.426 509.992 124.426 504.223C124.726 499.655 124.876 495.099 124.862 490.517C124.849 485.935 124.74 481.407 124.44 476.879L124.44 476.92ZM85.8034 503.2V478.025L104.378 490.599L85.8034 503.2Z" fill="#A8C8FF" />
        </g>
        <path d="M723.335 58.7086H38.6654C37.9533 58.6944 37.2755 58.418 36.7772 57.9388C36.279 57.4596 36 56.8157 36 56.1451C36 55.4745 36.279 54.8306 36.7772 54.3514C37.2755 53.8722 37.9533 53.5958 38.6654 53.5815H723.335C724.047 53.5958 724.724 53.8722 725.223 54.3514C725.721 54.8306 726 55.4745 726 56.1451C726 56.8157 725.721 57.4596 725.223 57.9388C724.724 58.418 724.047 58.6944 723.335 58.7086Z" fill="#CACACA" />
        <path d="M85.2715 40.4924C94.084 40.4924 101.228 33.6161 101.228 25.1339C101.228 16.6516 94.084 9.77539 85.2715 9.77539C76.4589 9.77539 69.3149 16.6516 69.3149 25.1339C69.3149 33.6161 76.4589 40.4924 85.2715 40.4924Z" fill="#3F3D56" />
        <path d="M140.394 40.4924C149.207 40.4924 156.351 33.6161 156.351 25.1339C156.351 16.6516 149.207 9.77539 140.394 9.77539C131.582 9.77539 124.438 16.6516 124.438 25.1339C124.438 33.6161 131.582 40.4924 140.394 40.4924Z" fill="#3F3D56" />
        <path d="M195.517 40.4924C204.33 40.4924 211.473 33.6161 211.473 25.1339C211.473 16.6516 204.33 9.77539 195.517 9.77539C186.704 9.77539 179.56 16.6516 179.56 25.1339C179.56 33.6161 186.704 40.4924 195.517 40.4924Z" fill="#3F3D56" />
        <path d="M690.146 13.582H650.99C650.214 13.5965 649.475 13.897 648.931 14.4189C648.388 14.9408 648.083 15.6426 648.083 16.3735C648.083 17.1045 648.388 17.8062 648.931 18.3282C649.475 18.8501 650.214 19.1506 650.99 19.165H690.146C690.923 19.1506 691.662 18.8501 692.205 18.3282C692.749 17.8062 693.053 17.1045 693.053 16.3735C693.053 15.6426 692.749 14.9408 692.205 14.4189C691.662 13.897 690.923 13.5965 690.146 13.582H690.146Z" fill="#3F3D56" />
        <path d="M690.146 24.0605H650.99C650.214 24.0751 649.475 24.3756 648.931 24.8975C648.388 25.4194 648.084 26.1212 648.084 26.852C648.084 27.5829 648.388 28.2846 648.931 28.8066C649.475 29.3285 650.214 29.629 650.99 29.6435H690.146C690.922 29.629 691.662 29.3285 692.205 28.8066C692.748 28.2846 693.053 27.5829 693.053 26.852C693.053 26.1212 692.748 25.4194 692.205 24.8975C691.662 24.3756 690.922 24.0751 690.146 24.0605H690.146Z" fill="#3F3D56" />
        <path d="M690.146 34.5254H650.99C650.214 34.5399 649.475 34.8404 648.931 35.3624C648.388 35.8843 648.084 36.586 648.084 37.3169C648.084 38.0478 648.388 38.7495 648.931 39.2714C649.475 39.7933 650.214 40.0938 650.99 40.1084H690.146C690.922 40.0938 691.662 39.7933 692.205 39.2714C692.748 38.7495 693.053 38.0478 693.053 37.3169C693.053 36.586 692.748 35.8843 692.205 35.3624C691.662 34.8404 690.922 34.5399 690.146 34.5254H690.146Z" fill="#3F3D56" />
        <path d="M338.513 149.752C334.906 164.686 350.968 177.57 366.331 177.57C369.985 177.57 373.602 176.851 376.977 175.453C380.352 174.055 383.419 172.006 386.002 169.423C388.585 166.839 390.634 163.773 392.032 160.398C393.43 157.023 394.15 153.405 394.15 149.752C394.15 134.389 373.442 135.553 366.331 121.934C358.191 106.343 346.268 117.651 338.513 149.752Z" fill="#E6E6E6" />
        <path d="M202 122.369C202 129.747 204.931 136.823 210.148 142.04C215.365 147.257 222.44 150.188 229.818 150.188C245.182 150.188 258.083 137.726 257.636 122.369C256.701 90.198 244.238 77.5918 229.818 94.5511C219.866 106.256 202 107.006 202 122.369Z" fill="#E6E6E6" />
        <g filter="url(#filter3_dd_64_531)">
            <path d="M515.099 190H477.889C477.116 190 476.35 190.152 475.635 190.448C474.921 190.744 474.272 191.178 473.725 191.725C473.178 192.272 472.744 192.921 472.448 193.635C472.152 194.35 472 195.115 472 195.889V233.099C472 234.661 472.62 236.158 473.725 237.263C474.829 238.367 476.327 238.988 477.889 238.988H515.099C516.661 238.988 518.158 238.367 519.263 237.263C520.367 236.158 520.988 234.661 520.988 233.099V195.889C520.988 194.327 520.367 192.829 519.263 191.725C518.158 190.62 516.661 190 515.099 190ZM508.112 202.563H503.845C500.931 202.563 500.364 203.942 500.364 205.979V210.297H507.312L506.41 217.078H500.351V234.76C497.76 235.246 495.101 235.24 492.513 234.742V217.078H486.957V210.297H492.616V205.283C492.616 199.288 496.78 196.014 502.143 196.014C504.721 196.014 507.48 196.207 508.112 196.297V202.563Z" fill="#A8C8FF" />
        </g>
        <g filter="url(#filter4_dd_64_531)">
            <path d="M109.099 194H71.8889C70.3271 194 68.8292 194.62 67.7248 195.725C66.6204 196.829 66 198.327 66 199.889V237.099C66 238.661 66.6204 240.158 67.7248 241.263C68.8292 242.367 70.327 242.988 71.8889 242.988H109.099C110.661 242.988 112.158 242.367 113.263 241.263C114.367 240.158 114.988 238.661 114.988 237.099V199.889C114.988 198.327 114.367 196.829 113.263 195.725C112.158 194.62 110.661 194 109.099 194ZM90.4937 231.557C87.91 231.557 85.3844 230.791 83.2361 229.356C81.0879 227.92 79.4135 225.88 78.4247 223.493C77.436 221.106 77.1773 218.479 77.6814 215.945C78.1854 213.411 79.4296 211.084 81.2565 209.257C83.0835 207.43 85.4111 206.185 87.9452 205.681C90.4792 205.177 93.1058 205.436 95.4929 206.425C97.8799 207.414 99.9201 209.088 101.356 211.236C102.791 213.384 103.557 215.91 103.557 218.494C103.557 221.958 102.181 225.281 99.731 227.731C97.2811 230.181 93.9584 231.557 90.4938 231.557H90.4937ZM105.19 205.43C104.544 205.43 103.913 205.239 103.376 204.88C102.839 204.521 102.42 204.011 102.173 203.414C101.926 202.818 101.861 202.161 101.987 201.527C102.113 200.894 102.424 200.312 102.881 199.855C103.337 199.399 103.919 199.087 104.553 198.961C105.186 198.835 105.843 198.9 106.44 199.147C107.037 199.395 107.547 199.813 107.905 200.35C108.264 200.887 108.456 201.519 108.456 202.165C108.456 203.031 108.112 203.861 107.499 204.474C106.887 205.086 106.056 205.43 105.19 205.43H105.19Z" fill="#A8C8FF" />
        </g>
        <path d="M703 279H450C443.902 278.993 438.056 276.568 433.744 272.256C429.432 267.944 427.007 262.098 427 256V162C427.007 155.902 429.432 150.056 433.744 145.744C438.056 141.432 443.902 139.007 450 139H703C709.098 139.007 714.944 141.432 719.256 145.744C723.568 150.056 725.993 155.902 726 162V256C725.993 262.098 723.568 267.944 719.256 272.256C714.944 276.568 709.098 278.993 703 279ZM450 141C444.432 141.006 439.095 143.221 435.158 147.158C431.221 151.095 429.006 156.432 429 162V256C429.006 261.568 431.221 266.905 435.158 270.842C439.095 274.779 444.432 276.994 450 277H703C708.568 276.994 713.905 274.779 717.842 270.842C721.779 266.905 723.994 261.568 724 256V162C723.994 156.432 721.779 151.095 717.842 147.158C713.905 143.221 708.568 141.006 703 141H450Z" fill="#3F3D56" />
        <path d="M234.476 358.752H203.288C201.621 358.75 200.023 358.087 198.844 356.908C197.665 355.73 197.002 354.131 197 352.464V323.288C197.002 321.621 197.665 320.023 198.844 318.844C200.023 317.665 201.621 317.002 203.288 317H234.476C236.143 317.002 237.742 317.665 238.921 318.844C240.099 320.023 240.762 321.621 240.764 323.288V352.464C240.762 354.131 240.099 355.73 238.921 356.908C237.742 358.087 236.143 358.75 234.476 358.752Z" fill="#A8C8FF" />
        <g clip-path="url(#clip1_64_531)">
            <path fill-rule="evenodd" clip-rule="evenodd" d="M652.278 239V243.014C650.937 244.342 649.826 245.877 649 247.559V239H652.278Z" fill="#A8C8FF" />
            <path fill-rule="evenodd" clip-rule="evenodd" d="M680.139 239V247.56C679.899 247.073 679.635 246.598 679.351 246.138C679.101 245.734 678.834 245.342 678.552 244.961C678.039 244.272 677.473 243.622 676.862 243.014V239H680.139Z" fill="#A8C8FF" />
            <path fill-rule="evenodd" clip-rule="evenodd" d="M707.999 239V254.605C707.999 258.215 706.776 261.541 704.723 264.184C701.873 267.85 697.426 270.21 692.431 270.21C692.156 270.21 691.885 270.203 691.614 270.191H691.612C686.979 269.95 682.882 267.678 680.19 264.251C680.172 264.228 680.155 264.206 680.139 264.185C679.862 263.827 679.598 263.456 679.35 263.073C679.04 262.594 678.756 262.096 678.5 261.581C677.873 260.327 677.411 258.975 677.138 257.555H680.514C680.661 258.141 680.854 258.711 681.083 259.26C681.35 259.897 681.673 260.507 682.043 261.083C684.218 264.486 688.058 266.744 692.435 266.744C699.219 266.744 704.722 261.308 704.722 254.606V239H707.999Z" fill="#A8C8FF" />
            <path fill-rule="evenodd" clip-rule="evenodd" d="M653.763 252.872H676.737C676.588 251.852 676.314 250.874 675.925 249.952C674.076 245.559 669.688 242.467 664.568 242.467C657.78 242.467 652.278 247.903 652.278 254.605C652.278 261.308 657.781 266.744 664.568 266.744C669.688 266.744 674.077 263.651 675.925 259.258C676.175 260.062 676.49 260.838 676.861 261.581C677.107 262.079 677.382 262.561 677.681 263.026C677.425 263.425 677.15 263.811 676.861 264.185C676.126 265.132 675.285 265.988 674.355 266.744C671.681 268.912 668.276 270.21 664.568 270.21C660.861 270.21 657.457 268.912 654.782 266.744C653.852 265.988 653.011 265.132 652.278 264.185C650.223 261.541 649 258.215 649 254.605C649 250.995 650.223 247.669 652.278 245.027C653.012 244.081 653.853 243.221 654.782 242.467C657.457 240.299 660.861 239 664.568 239C668.276 239 671.681 240.299 674.354 242.467C675.285 243.221 676.126 244.08 676.861 245.027C677.149 245.4 677.424 245.787 677.68 246.185C677.977 246.65 678.25 247.131 678.499 247.629C679.303 249.237 679.836 251.004 680.043 252.872C680.106 253.439 680.138 254.018 680.138 254.605C680.138 255.192 680.106 255.771 680.043 256.34H653.763V252.872Z" fill="#A8C8FF" />
        </g>
    </g>
    <defs>
        <filter id="filter0_dd_64_531" x="410" y="342" width="194.762" height="354.139" filterUnits="userSpaceOnUse" color-interpolation-filters="sRGB">
            <feFlood flood-opacity="0" result="BackgroundImageFix" />
            <feColorMatrix in="SourceAlpha" type="matrix" values="0 0 0 0 0 0 0 0 0 0 0 0 0 0 0 0 0 0 127 0" result="hardAlpha" />
            <feOffset dy="4" />
            <feGaussianBlur stdDeviation="2" />
            <feComposite in2="hardAlpha" operator="out" />
            <feColorMatrix type="matrix" values="0 0 0 0 0 0 0 0 0 0 0 0 0 0 0 0 0 0 0.25 0" />
            <feBlend mode="normal" in2="BackgroundImageFix" result="effect1_dropShadow_64_531" />
            <feColorMatrix in="SourceAlpha" type="matrix" values="0 0 0 0 0 0 0 0 0 0 0 0 0 0 0 0 0 0 127 0" result="hardAlpha" />
            <feOffset dy="4" />
            <feGaussianBlur stdDeviation="2" />
            <feComposite in2="hardAlpha" operator="out" />
            <feColorMatrix type="matrix" values="0 0 0 0 0 0 0 0 0 0 0 0 0 0 0 0 0 0 0.25 0" />
            <feBlend mode="normal" in2="effect1_dropShadow_64_531" result="effect2_dropShadow_64_531" />
            <feBlend mode="normal" in="SourceGraphic" in2="effect2_dropShadow_64_531" result="shape" />
        </filter>
        <filter id="filter1_d_64_531" x="410" y="360.675" width="73.7449" height="58.6907" filterUnits="userSpaceOnUse" color-interpolation-filters="sRGB">
            <feFlood flood-opacity="0" result="BackgroundImageFix" />
            <feColorMatrix in="SourceAlpha" type="matrix" values="0 0 0 0 0 0 0 0 0 0 0 0 0 0 0 0 0 0 127 0" result="hardAlpha" />
            <feOffset dy="4" />
            <feGaussianBlur stdDeviation="2" />
            <feComposite in2="hardAlpha" operator="out" />
            <feColorMatrix type="matrix" values="0 0 0 0 0 0 0 0 0 0 0 0 0 0 0 0 0 0 0.25 0" />
            <feBlend mode="normal" in2="BackgroundImageFix" result="effect1_dropShadow_64_531" />
            <feBlend mode="normal" in="SourceGraphic" in2="effect1_dropShadow_64_531" result="shape" />
        </filter>
        <filter id="filter2_dd_64_531" x="55.2222" y="466.064" width="73.6411" height="57.0967" filterUnits="userSpaceOnUse" color-interpolation-filters="sRGB">
            <feFlood flood-opacity="0" result="BackgroundImageFix" />
            <feColorMatrix in="SourceAlpha" type="matrix" values="0 0 0 0 0 0 0 0 0 0 0 0 0 0 0 0 0 0 127 0" result="hardAlpha" />
            <feOffset dy="4" />
            <feGaussianBlur stdDeviation="2" />
            <feComposite in2="hardAlpha" operator="out" />
            <feColorMatrix type="matrix" values="0 0 0 0 0 0 0 0 0 0 0 0 0 0 0 0 0 0 0.25 0" />
            <feBlend mode="normal" in2="BackgroundImageFix" result="effect1_dropShadow_64_531" />
            <feColorMatrix in="SourceAlpha" type="matrix" values="0 0 0 0 0 0 0 0 0 0 0 0 0 0 0 0 0 0 127 0" result="hardAlpha" />
            <feOffset dy="4" />
            <feGaussianBlur stdDeviation="2" />
            <feComposite in2="hardAlpha" operator="out" />
            <feColorMatrix type="matrix" values="0 0 0 0 0 0 0 0 0 0 0 0 0 0 0 0 0 0 0.25 0" />
            <feBlend mode="normal" in2="effect1_dropShadow_64_531" result="effect2_dropShadow_64_531" />
            <feBlend mode="normal" in="SourceGraphic" in2="effect2_dropShadow_64_531" result="shape" />
        </filter>
        <filter id="filter3_dd_64_531" x="468" y="190" width="56.9875" height="56.9875" filterUnits="userSpaceOnUse" color-interpolation-filters="sRGB">
            <feFlood flood-opacity="0" result="BackgroundImageFix" />
            <feColorMatrix in="SourceAlpha" type="matrix" values="0 0 0 0 0 0 0 0 0 0 0 0 0 0 0 0 0 0 127 0" result="hardAlpha" />
            <feOffset dy="4" />
            <feGaussianBlur stdDeviation="2" />
            <feComposite in2="hardAlpha" operator="out" />
            <feColorMatrix type="matrix" values="0 0 0 0 0 0 0 0 0 0 0 0 0 0 0 0 0 0 0.25 0" />
            <feBlend mode="normal" in2="BackgroundImageFix" result="effect1_dropShadow_64_531" />
            <feColorMatrix in="SourceAlpha" type="matrix" values="0 0 0 0 0 0 0 0 0 0 0 0 0 0 0 0 0 0 127 0" result="hardAlpha" />
            <feOffset dy="4" />
            <feGaussianBlur stdDeviation="2" />
            <feComposite in2="hardAlpha" operator="out" />
            <feColorMatrix type="matrix" values="0 0 0 0 0 0 0 0 0 0 0 0 0 0 0 0 0 0 0.25 0" />
            <feBlend mode="normal" in2="effect1_dropShadow_64_531" result="effect2_dropShadow_64_531" />
            <feBlend mode="normal" in="SourceGraphic" in2="effect2_dropShadow_64_531" result="shape" />
        </filter>
        <filter id="filter4_dd_64_531" x="62" y="194" width="56.9875" height="56.9875" filterUnits="userSpaceOnUse" color-interpolation-filters="sRGB">
            <feFlood flood-opacity="0" result="BackgroundImageFix" />
            <feColorMatrix in="SourceAlpha" type="matrix" values="0 0 0 0 0 0 0 0 0 0 0 0 0 0 0 0 0 0 127 0" result="hardAlpha" />
            <feOffset dy="4" />
            <feGaussianBlur stdDeviation="2" />
            <feComposite in2="hardAlpha" operator="out" />
            <feColorMatrix type="matrix" values="0 0 0 0 0 0 0 0 0 0 0 0 0 0 0 0 0 0 0.25 0" />
            <feBlend mode="normal" in2="BackgroundImageFix" result="effect1_dropShadow_64_531" />
            <feColorMatrix in="SourceAlpha" type="matrix" values="0 0 0 0 0 0 0 0 0 0 0 0 0 0 0 0 0 0 127 0" result="hardAlpha" />
            <feOffset dy="4" />
            <feGaussianBlur stdDeviation="2" />
            <feComposite in2="hardAlpha" operator="out" />
            <feColorMatrix type="matrix" values="0 0 0 0 0 0 0 0 0 0 0 0 0 0 0 0 0 0 0.25 0" />
            <feBlend mode="normal" in2="effect1_dropShadow_64_531" result="effect2_dropShadow_64_531" />
            <feBlend mode="normal" in="SourceGraphic" in2="effect2_dropShadow_64_531" result="shape" />
        </filter>
        <clipPath id="clip0_64_531">
            <rect width="762" height="690" fill="white" />
        </clipPath>
        <clipPath id="clip1_64_531">
            <rect width="59" height="31.2104" fill="white" transform="translate(649 239)" />
        </clipPath>
    </defs>
</svg>
