<svg width="241" height="260" viewBox="0 0 241 260" fill="none" xmlns="http://www.w3.org/2000/svg">
    <g clip-path="url(#clip0_51700_6250)">
        <path d="M100.249 206.312L102.881 197.74C99.7138 194.254 95.7437 191.595 91.3154 189.991C95.6418 197.159 91.4495 206.509 93.1965 214.697C93.761 217.247 94.8919 219.637 96.5055 221.69C98.1192 223.743 100.174 225.407 102.518 226.558L106.512 231.507C108.607 227.848 109.883 223.779 110.253 219.58C110.623 215.381 110.078 211.151 108.656 207.183C107.836 204.965 106.74 202.858 105.394 200.914C103.021 203.704 100.249 206.312 100.249 206.312Z" fill="#F2F2F2" />
        <path d="M85.7751 207.408L84.308 198.561C79.9188 196.854 75.1792 196.244 70.5007 196.784C77.5697 201.27 77.9874 211.508 83.2028 218.058C84.845 220.088 86.9231 221.723 89.283 222.841C91.6429 223.959 94.2241 224.531 96.8353 224.516L102.618 227.164C102.86 222.956 102.188 218.745 100.646 214.821C99.1046 210.898 96.7308 207.355 93.6882 204.437C91.9652 202.818 90.045 201.421 87.973 200.281C87.093 203.837 85.7751 207.408 85.7751 207.408Z" fill="#F2F2F2" />
        <path d="M171.925 229.307L167.87 229.306L165.941 213.668L171.926 213.668L171.925 229.307Z" fill="#FFB6B6" />
        <path d="M172.959 233.237L159.886 233.236V233.071C159.886 231.721 160.422 230.427 161.376 229.473C162.33 228.519 163.625 227.983 164.974 227.983H164.974L167.362 226.171L171.818 227.983L172.959 227.983L172.959 233.237Z" fill="#2F2E41" />
        <path d="M237.42 214.518L234.656 217.484L221.9 208.232L225.98 203.855L237.42 214.518Z" fill="#FFB6B6" />
        <path d="M241 216.441L232.086 226.005L231.965 225.892C230.978 224.972 230.397 223.697 230.349 222.348C230.302 221 230.792 219.687 231.712 218.7L231.712 218.7L232.015 215.718L236.379 213.694L237.157 212.859L241 216.441Z" fill="#2F2E41" />
        <path d="M231.421 205.729L227.135 214.692L200.819 197.268L196.991 192.052L184.438 174.949L179.336 183.045L175.785 191.509C174.628 192.264 173.653 193.266 172.931 194.444C172.208 195.621 171.756 196.944 171.607 198.318L171.445 199.816L173.688 219.985L165.161 222.603L160.263 195.509L161.864 189.638L163.513 181.397L171.811 155.355H194.018L206.755 182.466L207.686 187.99L211.297 192.135L231.421 205.729Z" fill="#2F2E41" />
        <path d="M185.271 112.747L189.009 115.593L193.517 116.979C193.517 116.979 195.381 143.195 197.061 144.875C198.74 146.554 197.225 146.599 197.563 148.781C197.9 150.962 198.72 155.434 198.72 155.434C187.385 161.435 177.612 161.596 169.762 154.574C169.662 154.14 169.713 153.684 169.907 153.283C170.101 152.881 170.426 152.558 170.829 152.367C172.29 151.592 169.482 147.974 170.676 147.369C171.87 146.764 170.191 141.516 170.191 141.516L171.292 130.566L170.422 128.816L172.546 118.106L176.232 116.76L177.704 113.213L185.271 112.747Z" fill="#3F3D56" />
        <path d="M187.613 159.343C187.596 158.869 187.683 158.398 187.868 157.962C188.053 157.526 188.332 157.135 188.684 156.819C189.036 156.502 189.454 156.266 189.907 156.128C190.36 155.99 190.838 155.953 191.307 156.02L196.576 145.78L199.511 150.995L194.058 159.919C193.894 160.7 193.449 161.393 192.808 161.867C192.166 162.342 191.374 162.565 190.579 162.494C189.785 162.423 189.044 162.063 188.497 161.482C187.95 160.901 187.636 160.14 187.613 159.343H187.613Z" fill="#FFB6B6" />
        <path d="M196.485 156.837L207.785 139.324L207.748 139.243C207.705 139.151 205.146 133.625 202.667 128.563C202.285 127.783 201.905 127.015 201.536 126.279C201.377 125.961 201.221 125.65 201.066 125.346C200.025 123.293 199.115 121.596 198.572 120.79C197.371 118.968 195.582 117.611 193.504 116.945L193.451 116.932L193.401 116.952C192.385 117.382 191.544 118.144 191.019 119.115C190.494 120.086 190.315 121.206 190.513 122.292C191.493 127.529 193.677 132.467 196.892 136.716L198.724 139.13L192.358 152.971L196.485 156.837Z" fill="#3F3D56" />
        <path d="M157.628 89.7058C157.939 90.063 158.168 90.4841 158.299 90.9395C158.43 91.3948 158.459 91.8733 158.385 92.3412C158.311 92.8091 158.135 93.2551 157.87 93.6477C157.605 94.0403 157.257 94.37 156.85 94.6136L159.206 105.886L153.642 103.683L152.258 93.3163C151.894 92.6066 151.803 91.788 152.002 91.0157C152.202 90.2433 152.677 89.5709 153.339 89.1259C154.001 88.6808 154.803 88.494 155.594 88.6009C156.384 88.7078 157.108 89.1009 157.628 89.7058H157.628Z" fill="#FFB6B6" />
        <path d="M152.313 97.2385L154.563 117.959L154.643 117.998C154.708 118.031 157.559 119.429 161.058 121.094C161.648 121.375 161.564 122.592 162.181 122.882C162.606 123.083 163.728 122.356 164.157 122.557C167.982 124.345 171.85 126.085 173.391 126.556C175.472 127.215 177.715 127.143 179.749 126.351L179.798 126.329L179.824 126.281C180.344 125.307 180.516 124.186 180.313 123.101C180.11 122.016 179.543 121.033 178.706 120.314C174.646 116.863 169.84 114.402 164.667 113.126L161.724 112.404L157.954 97.6436L152.313 97.2385Z" fill="#3F3D56" />
        <path d="M181.285 111.573C185.369 111.573 188.68 108.262 188.68 104.178C188.68 100.095 185.369 96.7842 181.285 96.7842C177.201 96.7842 173.891 100.095 173.891 104.178C173.891 108.262 177.201 111.573 181.285 111.573Z" fill="#FFB6B6" />
        <path d="M173.944 99.2237C174.552 97.4546 177.579 96.2275 182.486 96.0569C187.394 95.8863 188.638 101.669 188.638 101.669C191.914 104.327 185.14 111.442 184.813 111.186L184.96 109.849C185.204 107.635 186.241 105.907 184.922 103.6L183.656 103.614C182.021 103.929 180.385 104.243 178.75 104.558L180.686 102.853L180.631 102.768C179.808 103.197 178.912 103.469 177.989 103.571C176.948 103.632 175.811 103.218 175.312 102.302C175.179 102.051 175.098 101.775 175.073 101.491C173.67 102.052 173.028 103.782 173.028 103.782C173.028 103.782 173.336 100.993 173.944 99.2237Z" fill="#2F2E41" />
        <path d="M29.7917 99.6673C29.6914 99.54 29.5833 99.4191 29.4682 99.3051C29.4963 99.2664 29.5245 99.2242 29.5526 99.1855L29.7917 99.6673Z" fill="#2F2E41" />
        <path d="M31.2298 129.407C30.0202 131.555 27.6046 132.754 25.2101 133.342C22.5205 134.046 19.6883 133.991 17.028 133.183C16.6905 133.074 16.3529 132.948 16.0259 132.807C16.1831 132.39 16.3077 131.961 16.3986 131.524C16.521 130.933 16.5823 130.331 16.5815 129.727C16.315 130.247 15.9699 130.723 15.5583 131.137C15.2407 131.471 14.8801 131.76 14.4858 131.998C13.2631 131.256 12.2043 130.273 11.374 129.108C11.4268 128.978 11.4795 128.848 11.5288 128.718C11.7841 128.038 11.9863 127.34 12.1335 126.629C12.3333 125.668 12.4335 124.689 12.4324 123.707C11.9989 124.553 11.4366 125.327 10.7657 126C10.5646 126.215 10.3509 126.418 10.1258 126.608C9.7772 125.549 9.64244 124.432 9.72935 123.321C9.81627 122.21 10.1231 121.127 10.6321 120.135C12.0245 117.561 14.7249 116.032 17.13 114.368C19.5386 112.705 21.9471 110.455 22.1511 107.533C22.2882 105.56 21.374 103.584 21.7397 101.643C21.8935 100.825 22.2689 100.064 22.8252 99.4446C23.3814 98.8248 24.097 98.3695 24.8941 98.1283C25.6913 97.8872 26.5393 97.8694 27.3458 98.0769C28.1523 98.2844 28.8865 98.7093 29.4682 99.3052C28.1039 101.239 26.7467 103.24 26.1946 105.539C25.6321 107.881 26.0927 110.627 27.9387 112.178C28.5716 112.712 29.3487 113.092 29.8374 113.76C30.4879 114.646 30.4914 115.828 30.5969 116.918C30.8078 119.038 31.5005 121.077 31.8733 123.176C32.2495 125.272 32.2706 127.547 31.2298 129.407Z" fill="#2F2E41" />
        <path d="M6.43445 216.602L9.6436 219.082L20.7344 207.884L15.9979 204.224L6.43445 216.602Z" fill="#A0616A" />
        <path d="M6.57097 214.18L11.8777 217.797L10.1983 219.97L12.4474 227.027C12.5586 227.376 12.5554 227.751 12.4383 228.097C12.3212 228.444 12.0965 228.744 11.7968 228.954C11.4971 229.164 11.1381 229.272 10.7724 229.264C10.4067 229.255 10.0533 229.13 9.76378 228.906L3.72447 224.24L4.34466 221.285L2.27706 223.121L0 221.362L6.57097 214.18Z" fill="#2F2E41" />
        <path d="M22.7155 105.914C22.715 107.168 23.0223 108.403 23.6105 109.51C24.1986 110.617 25.0496 111.563 26.0887 112.265C27.1278 112.967 28.3232 113.403 29.5701 113.534C30.817 113.666 32.0771 113.49 33.24 113.021C34.4028 112.552 35.4327 111.805 36.2394 110.845C37.046 109.885 37.6047 108.742 37.8664 107.516C38.128 106.29 38.0847 105.018 37.7402 103.812C37.3956 102.607 36.7604 101.504 35.8903 100.601L35.8535 100.565C35.7922 100.5 35.731 100.436 35.6666 100.375C35.6662 100.375 35.6658 100.375 35.6654 100.374C35.6651 100.374 35.6647 100.374 35.6644 100.374C35.6642 100.374 35.6639 100.373 35.6638 100.373C35.6636 100.372 35.6636 100.372 35.6636 100.372C35.5839 100.298 35.5042 100.225 35.4215 100.154C34.0734 98.9714 32.1786 97.6877 30.2453 97.6877C26.014 97.6877 22.7155 101.683 22.7155 105.914Z" fill="#2F2E41" />
        <path d="M66.3751 101.981C66.4117 102.389 66.3584 102.801 66.2187 103.186C66.0791 103.572 65.8566 103.922 65.567 104.213C65.2773 104.503 64.9274 104.727 64.5421 104.867C64.1568 105.008 63.7453 105.062 63.3367 105.027L44.3691 122.152L41.105 116.997L60.7759 101.784C60.8813 101.102 61.2334 100.481 61.7654 100.041C62.2975 99.6009 62.9726 99.3711 63.6628 99.3953C64.3529 99.4195 65.0102 99.6961 65.5101 100.173C66.01 100.649 66.3178 101.292 66.3751 101.981V101.981Z" fill="#A0616A" />
        <path d="M36.2627 127.322C36.2627 127.322 36.9684 128.625 39.3791 126.613C41.309 125.001 50.5552 118.006 52.5471 115.14C53.002 115.32 53.5038 115.344 53.9737 115.207C54.4435 115.071 54.8546 114.782 55.1422 114.386L49.6844 109.606C48.0515 109.794 48.0865 110.891 48.2565 111.514L44.1396 113.379L33.5085 120.174L35.7358 126.389L36.2627 127.322Z" fill="#a8c8ff" />
        <path d="M25.9636 139.33L25.5661 141.223L25.2285 148.207L40.0905 149.024L39.629 138.283L38.1884 135.916L25.9636 139.33Z" fill="#A0616A" />
        <path d="M32.2624 114.11C35.8097 114.11 38.6854 111.234 38.6854 107.686C38.6854 104.139 35.8097 101.263 32.2624 101.263C28.715 101.263 25.8393 104.139 25.8393 107.686C25.8393 111.234 28.715 114.11 32.2624 114.11Z" fill="#A0616A" />
        <path d="M20.859 131.378L20.8195 126.039C20.8185 124.118 21.4687 122.253 22.6637 120.749C23.8588 119.245 25.5283 118.19 27.3999 117.757L27.4241 117.751L28.6942 116.04L33.8543 116.556L34.8001 118.489L38.5392 120.715L39.9788 125.343C40.6032 125.759 41.1354 126.299 41.5422 126.93C41.949 127.56 42.2219 128.268 42.3437 129.008C42.8325 132.13 40.6466 135.254 40.3866 135.612L39.7167 139.385L25.1428 141.957L25.0244 141.972L20.859 131.378Z" fill="#a8c8ff" />
        <path d="M40.1221 106.541C39.3729 107.016 38.5956 107.445 37.7944 107.825C36.9813 108.215 36.1307 108.523 35.2558 108.743C35.0054 108.193 34.6991 107.671 34.3416 107.185C34.4335 107.761 34.4359 108.348 34.3486 108.925C32.8983 109.159 31.4129 109.037 30.0202 108.57L28.8106 106.541L28.7192 108.806C27.7171 108.989 26.7185 109.161 25.7164 109.34C25.6566 109.347 25.5969 109.361 25.5406 109.372C24.9182 106.566 25.8008 103.475 27.7628 101.605C28.737 100.686 29.9521 100.062 31.2668 99.8071C32.5815 99.5518 33.9417 99.6753 35.189 100.163C35.3472 100.226 35.5089 100.297 35.6636 100.371C35.6636 100.371 35.6637 100.371 35.6639 100.372C35.664 100.372 35.6643 100.373 35.6646 100.373C35.665 100.373 35.6654 100.374 35.6658 100.374C35.6662 100.374 35.6667 100.374 35.6671 100.374C35.7586 100.42 35.8359 100.529 35.9379 100.518C40.3261 100.029 40.4667 103.433 40.1221 106.541Z" fill="#2F2E41" />
        <path d="M29.4368 208.32L32.6509 210.793L43.7193 199.573L38.9756 195.923L29.4368 208.32Z" fill="#A0616A" />
        <path d="M29.8599 206.121L35.1739 209.728L33.4989 211.904L35.7622 218.957C35.8741 219.305 35.8716 219.68 35.7553 220.027C35.6389 220.374 35.4147 220.675 35.1155 220.885C34.8162 221.095 34.4575 221.205 34.0917 221.197C33.726 221.189 33.3723 221.064 33.0824 220.841L27.0337 216.187L27.6479 213.231L25.584 215.071L23.3034 213.317L29.8599 206.121Z" fill="#2F2E41" />
        <path d="M19.0072 194.626L19.0071 194.584L20.5304 191.959L18.9749 188.542L18.9283 179.763L19.1804 178.446C19.5195 176.673 19.4209 174.845 18.8929 173.119L18.8645 167.775C18.8099 166.437 20.8836 165.259 20.4 164.143C15.829 153.595 25.0678 145.548 25.1302 145.483L25.319 145.287L26.3433 146.063L27.3183 146.064L40.4752 148.461L40.5702 148.638C41.0877 149.609 42.0864 152.955 42.1457 154.469C42.8014 155.228 50.2706 163.871 50.9345 164.471C55.4214 168.531 57.9902 175.25 59.1221 178.895C59.4033 179.795 59.4599 180.751 59.2872 181.678C59.1145 182.606 58.7176 183.477 58.1312 184.216L41.1454 202.821L36.5744 198.602L45.7652 181.854L45.1024 180.154C43.9133 179.935 42.8371 179.31 42.0575 178.386L40.1964 176.176C39.6812 175.567 39.3537 174.82 39.2538 174.028L38.1252 173.892L34.0824 169.648L31.2776 195.048L30.515 197.055L17.2355 212.666L11.6096 209.15L19.0072 194.626Z" fill="#2F2E41" />
        <path d="M16.9792 85.5602C16.7241 85.8814 16.5425 86.2546 16.4472 86.6536C16.3519 87.0525 16.3453 87.4675 16.4277 87.8693C16.5102 88.2712 16.6797 88.65 16.9244 88.9792C17.1691 89.3084 17.483 89.5799 17.844 89.7747L13.6214 102.276L17.0694 115.523L22.6293 113.01L19.1984 103.017L21.7653 88.4727C22.0523 87.8446 22.0989 87.133 21.8962 86.4728C21.6936 85.8126 21.2559 85.2497 20.6659 84.8906C20.076 84.5316 19.3748 84.4015 18.6953 84.5249C18.0159 84.6483 17.4052 85.0167 16.9792 85.5602V85.5602Z" fill="#A0616A" />
        <path d="M22.0685 126.439C22.0685 126.439 20.7626 127.14 19.8544 124.134C19.1274 121.727 14.1793 108.66 14.0902 105.171C13.6111 105.071 13.1788 104.815 12.8612 104.443C12.5436 104.071 12.3589 103.604 12.3361 103.115L19.5225 102.121C20.7836 103.175 20.1515 104.072 19.6672 104.499L22.1149 108.645L27.2308 119.838L23.0214 125.949L22.0685 126.439Z" fill="#a8c8ff" />
        <path d="M25.715 109.34C26.453 107.114 27.7763 105.128 29.5461 103.59C31.316 102.052 33.4671 101.019 35.7738 100.598C35.783 100.595 35.8137 100.583 35.8535 100.565C35.878 100.549 35.9086 100.534 35.9393 100.519C35.8474 100.467 35.7585 100.421 35.6666 100.375C35.6662 100.375 35.6658 100.375 35.6654 100.374C35.665 100.374 35.6647 100.374 35.6644 100.374C35.6641 100.374 35.6639 100.373 35.6637 100.373C35.6636 100.372 35.6635 100.372 35.6635 100.372C35.5839 100.298 35.5042 100.225 35.4215 100.154L35.1886 100.163C35.1886 100.163 27.0049 98.8673 25.715 109.34Z" fill="#FD6584" />
        <path d="M131.315 180.915C132.208 179.572 131.679 177.651 130.134 176.622C128.588 175.594 126.612 175.849 125.719 177.192C124.825 178.534 125.354 180.456 126.899 181.484C128.445 182.512 130.421 182.257 131.315 180.915Z" fill="#F2F2F2" />
        <path d="M113.184 130.808C114.077 129.466 113.548 127.544 112.003 126.516C110.458 125.488 108.481 125.743 107.588 127.085C106.695 128.428 107.223 130.349 108.769 131.377C110.314 132.405 112.291 132.151 113.184 130.808Z" fill="#F2F2F2" />
        <path d="M189.003 207.946C189.897 206.604 189.368 204.682 187.823 203.654C186.277 202.626 184.301 202.881 183.407 204.223C182.514 205.566 183.043 207.487 184.588 208.516C186.134 209.544 188.11 209.289 189.003 207.946Z" fill="#F2F2F2" />
        <path d="M35.7159 46.7471C36.6091 45.4046 36.0804 43.4829 34.5351 42.4548C32.9898 41.4267 31.0131 41.6816 30.1199 43.024C29.2267 44.3665 29.7554 46.2883 31.3007 47.3164C32.846 48.3445 34.8228 48.0896 35.7159 46.7471Z" fill="#F2F2F2" />
        <path d="M107.25 30.9238C108.143 29.5814 107.615 27.6596 106.069 26.6315C104.524 25.6034 102.547 25.8583 101.654 27.2008C100.761 28.5433 101.29 30.465 102.835 31.4931C104.38 32.5212 106.357 32.2663 107.25 30.9238Z" fill="#F2F2F2" />
        <path d="M73.3949 163.679C74.2881 162.336 73.7594 160.415 72.2141 159.387C70.6688 158.359 68.692 158.613 67.7989 159.956C66.9057 161.298 67.4344 163.22 68.9797 164.248C70.525 165.276 72.5017 165.021 73.3949 163.679Z" fill="#a8c8ff" />
        <path d="M220.954 233.553H6.58418C6.48028 233.552 6.38073 233.511 6.30737 233.437C6.23401 233.364 6.19281 233.264 6.19281 233.16C6.19281 233.056 6.23401 232.957 6.30737 232.883C6.38073 232.809 6.48028 232.768 6.58418 232.768H220.954C221.058 232.768 221.158 232.809 221.232 232.883C221.305 232.956 221.347 233.056 221.347 233.16C221.347 233.264 221.305 233.364 221.232 233.438C221.158 233.511 221.058 233.553 220.954 233.553V233.553Z" fill="#CCCCCC" />
        <path d="M46.4836 103.192C44.6803 103.186 42.9423 102.517 41.6016 101.311C40.261 100.105 39.4118 98.4471 39.2165 96.6545L35.0314 57.7865C34.8258 55.8567 35.3941 53.9241 36.6116 52.4127C37.8291 50.9014 39.5964 49.9347 41.5258 49.7248L165.789 36.345C167.719 36.1393 169.651 36.7075 171.163 37.925C172.674 39.1425 173.641 40.9098 173.851 42.8392L178.036 81.7071C178.242 83.637 177.673 85.5696 176.456 87.081C175.238 88.5924 173.471 89.5591 171.541 89.769L171.524 89.6052L171.541 89.769L47.2782 103.149C47.0143 103.177 46.7491 103.192 46.4836 103.192V103.192Z" fill="#a8c8ff" />
        <path d="M164.42 38.1494C164.187 38.1495 163.954 38.1621 163.721 38.1871L43.9385 51.0845C43.1009 51.1747 42.2893 51.429 41.55 51.8328C40.8107 52.2366 40.1582 52.7821 39.6298 53.4381C39.1013 54.0942 38.7072 54.8478 38.47 55.6562C38.2328 56.4645 38.1571 57.3116 38.2473 58.1491L40.3633 77.8012C40.7054 80.9782 41.6698 84.0567 43.2016 86.861C44.7334 89.6653 46.8025 92.1403 49.2909 94.1449C51.7793 96.1495 54.6381 97.6444 57.7041 98.5441C60.7702 99.4439 63.9835 99.7309 67.1605 99.3888L151.388 90.3197C154.555 89.9787 157.624 89.0172 160.42 87.49C163.216 85.9629 165.683 83.9 167.682 81.4192C169.68 78.9384 171.171 76.0883 172.068 73.0315C172.965 69.9748 173.251 66.7713 172.91 63.604L170.786 43.8782C170.617 42.307 169.873 40.8535 168.699 39.7964C167.524 38.7392 166.001 38.1528 164.42 38.1494V38.1494Z" fill="white" />
        <path d="M139.196 58.6016L72.2475 65.8102C72.0561 65.831 71.8624 65.814 71.6776 65.7599C71.4928 65.7059 71.3204 65.616 71.1704 65.4953C71.0203 65.3746 70.8956 65.2255 70.8032 65.0565C70.7108 64.8875 70.6527 64.702 70.6321 64.5106C70.6115 64.3191 70.6288 64.1255 70.6831 63.9407C70.7374 63.756 70.8275 63.5838 70.9484 63.4339C71.0693 63.284 71.2186 63.1594 71.3877 63.0673C71.5568 62.9752 71.7423 62.9172 71.9338 62.8969L138.882 55.6883C139.073 55.6674 139.267 55.6845 139.452 55.7386C139.637 55.7926 139.809 55.8825 139.959 56.0032C140.109 56.1239 140.234 56.273 140.326 56.442C140.419 56.6109 140.477 56.7965 140.497 56.9879C140.518 57.1794 140.501 57.373 140.446 57.5578C140.392 57.7425 140.302 57.9147 140.181 58.0646C140.06 58.2145 139.911 58.3391 139.742 58.4312C139.573 58.5233 139.387 58.5812 139.196 58.6016V58.6016Z" fill="#a8c8ff" />
        <path d="M140.158 67.5426L73.2102 74.7511C72.8239 74.7927 72.4369 74.6792 72.1343 74.4354C71.8317 74.1916 71.6383 73.8377 71.5967 73.4513C71.5551 73.065 71.6687 72.678 71.9125 72.3754C72.1562 72.0728 72.5102 71.8794 72.8965 71.8378L139.845 64.6293C140.231 64.5877 140.618 64.7013 140.921 64.945C141.223 65.1888 141.417 65.5428 141.458 65.9291C141.5 66.3154 141.386 66.7024 141.143 67.005C140.899 67.3076 140.545 67.501 140.158 67.5426V67.5426Z" fill="#a8c8ff" />
        <path d="M81.9748 82.8518L74.1729 83.6919C73.7866 83.7335 73.3996 83.6199 73.097 83.3762C72.7944 83.1324 72.601 82.7784 72.5594 82.3921C72.5179 82.0058 72.6314 81.6187 72.8752 81.3162C73.1189 81.0136 73.4729 80.8202 73.8592 80.7786L81.6611 79.9386C81.8525 79.9177 82.0462 79.9348 82.231 79.9888C82.4158 80.0428 82.5882 80.1328 82.7382 80.2535C82.8882 80.3742 83.013 80.5233 83.1054 80.6922C83.1978 80.8612 83.2559 81.0467 83.2765 81.2382C83.2971 81.4296 83.2798 81.6232 83.2255 81.808C83.1712 81.9928 83.0811 82.165 82.9602 82.3149C82.8393 82.4647 82.69 82.5893 82.5209 82.6814C82.3518 82.7736 82.1663 82.8315 81.9748 82.8518Z" fill="#a8c8ff" />
        <path d="M43.8494 59.4265C45.3059 59.4265 46.4866 58.2458 46.4866 56.7893C46.4866 55.3328 45.3059 54.1521 43.8494 54.1521C42.3929 54.1521 41.2122 55.3328 41.2122 56.7893C41.2122 58.2458 42.3929 59.4265 43.8494 59.4265Z" fill="#3F3D56" />
        <path d="M161.864 46.2405C163.321 46.2405 164.502 45.0598 164.502 43.6033C164.502 42.1468 163.321 40.9661 161.864 40.9661C160.408 40.9661 159.227 42.1468 159.227 43.6033C159.227 45.0598 160.408 46.2405 161.864 46.2405Z" fill="#3F3D56" />
        <path d="M126.21 100.381C125.968 100.168 125.776 99.9043 125.649 99.608C125.521 99.3117 125.461 98.9908 125.473 98.6685C125.606 94.838 124.975 91.0194 123.617 87.4351C123.502 87.1338 123.456 86.8106 123.481 86.4891C123.507 86.1675 123.603 85.8557 123.764 85.5762C123.919 85.3077 124.13 85.0761 124.383 84.8979C124.637 84.7197 124.926 84.599 125.231 84.5445C128.296 82.6947 131.439 82.1754 134.573 83.0013C135.078 82.9269 135.593 83.0351 136.026 83.3065C136.459 83.5778 136.781 83.9945 136.934 84.4818C138.203 88.6011 138.909 92.8731 139.032 97.1816C139.044 97.6985 138.869 98.2023 138.539 98.6005C138.209 98.9987 137.747 99.2645 137.237 99.3492L127.963 100.881C127.652 100.933 127.333 100.915 127.03 100.829C126.727 100.742 126.447 100.59 126.21 100.381V100.381Z" fill="#a8c8ff" />
        <path d="M127.034 89.2206L134.84 87.931C134.904 87.9206 134.966 87.8976 135.021 87.8633C135.076 87.8291 135.124 87.7842 135.162 87.7314C135.2 87.6786 135.227 87.6188 135.242 87.5555C135.257 87.4921 135.259 87.4265 135.248 87.3624C135.238 87.2982 135.215 87.2368 135.18 87.1816C135.146 87.1264 135.101 87.0785 135.048 87.0407C134.995 87.0029 134.935 86.9759 134.872 86.9612C134.809 86.9466 134.743 86.9445 134.679 86.9553L126.873 88.2449C126.744 88.2665 126.629 88.3385 126.552 88.445C126.476 88.5516 126.445 88.684 126.467 88.8132C126.488 88.9423 126.56 89.0578 126.666 89.1342C126.773 89.2106 126.905 89.2417 127.034 89.2206Z" fill="white" />
        <path d="M127.679 93.1235L135.485 91.8339C135.614 91.8125 135.73 91.7406 135.806 91.634C135.882 91.5274 135.913 91.3948 135.892 91.2654C135.871 91.1361 135.799 91.0205 135.692 90.9441C135.585 90.8677 135.453 90.8368 135.324 90.8582L127.518 92.1478C127.454 92.1582 127.392 92.1812 127.337 92.2155C127.281 92.2497 127.233 92.2946 127.196 92.3474C127.158 92.4002 127.13 92.46 127.116 92.5233C127.101 92.5866 127.099 92.6523 127.109 92.7164C127.12 92.7806 127.143 92.842 127.177 92.8972C127.212 92.9524 127.257 93.0003 127.31 93.0381C127.363 93.0759 127.422 93.1029 127.486 93.1176C127.549 93.1322 127.615 93.1342 127.679 93.1235V93.1235Z" fill="white" />
        <path d="M128.324 97.0265L136.13 95.737C136.259 95.7156 136.375 95.6437 136.451 95.5371C136.527 95.4305 136.558 95.2979 136.537 95.1685C136.515 95.0391 136.444 94.9235 136.337 94.8471C136.23 94.7708 136.098 94.7399 135.968 94.7613L128.163 96.0508C128.098 96.0614 128.037 96.0845 127.982 96.1188C127.927 96.1531 127.879 96.1979 127.841 96.2507C127.803 96.3035 127.776 96.3632 127.762 96.4265C127.747 96.4897 127.745 96.5552 127.755 96.6193C127.766 96.6833 127.789 96.7447 127.823 96.7998C127.858 96.855 127.902 96.9028 127.955 96.9407C128.008 96.9785 128.068 97.0055 128.131 97.0203C128.194 97.035 128.26 97.0371 128.324 97.0265Z" fill="white" />
    </g>
    <defs>
        <clipPath id="clip0_51700_6250">
            <rect width="241" height="207.553" fill="white" transform="translate(0 26)" />
        </clipPath>
    </defs>
</svg>
