<svg width="685" height="723" viewBox="0 0 685 723" fill="none" xmlns="http://www.w3.org/2000/svg">
    <g clip-path="url(#clip0_3_38)">
        <g clip-path="url(#clip1_3_38)">
            <path d="M81.0559 42.6283V54.9382C76.9457 59.0173 73.5312 63.7233 71 68.8875V42.6283H81.0559Z" fill="#C6C5D0" />
            <path d="M166.527 42.6283V68.8903C165.793 67.3923 164.988 65.9368 164.108 64.5218C163.345 63.285 162.525 62.083 161.656 60.9122C160.086 58.8014 158.353 56.8029 156.472 54.9382V42.6283H166.527Z" fill="#B8C3FF" />
            <path d="M252 42.6283V90.5C252 101.574 248.246 111.777 241.944 119.886C233.204 131.136 219.562 138.37 204.234 138.37C203.394 138.37 202.559 138.349 201.731 138.31H201.73C201.728 138.31 201.728 138.31 201.727 138.31H201.723C187.513 137.57 174.947 130.604 166.684 120.087C166.633 120.02 166.581 119.95 166.529 119.885C165.676 118.788 164.87 117.646 164.111 116.479C163.159 115.005 162.288 113.478 161.501 111.9C159.578 108.052 158.157 103.903 157.326 99.5509H167.679C168.132 101.347 168.717 103.094 169.427 104.776C170.248 106.732 171.234 108.604 172.368 110.374C179.045 120.806 190.829 127.73 204.249 127.73C225.068 127.73 241.944 111.066 241.944 90.5V42.6283H252Z" fill="#C6C5D0" />
            <path d="M85.6157 85.1803H156.089C155.637 82.0571 154.793 79.0555 153.601 76.2274C147.932 62.7467 134.47 53.2649 118.764 53.2649C97.9369 53.2649 81.0549 69.9376 81.0549 90.5C81.0549 111.066 97.9369 127.73 118.764 127.73C134.469 127.73 147.932 118.252 153.601 104.772C154.372 107.238 155.335 109.623 156.473 111.901C157.231 113.422 158.073 114.904 158.986 116.327C158.986 116.327 158.986 116.327 158.986 116.329C158.201 117.554 157.363 118.739 156.473 119.886C154.218 122.787 151.639 125.421 148.786 127.73C140.584 134.389 130.137 138.37 118.765 138.37C107.39 138.37 96.9452 134.389 88.7427 127.73C85.8901 125.421 83.3108 122.787 81.0559 119.886C74.7539 111.777 71 101.574 71 90.5C71 79.4222 74.7539 69.225 81.0559 61.1139C83.3108 58.2094 85.8901 55.5755 88.7427 53.2649C96.9443 46.6122 107.39 42.6283 118.765 42.6283C130.137 42.6283 140.584 46.6122 148.786 53.2649C151.639 55.5764 154.218 58.2104 156.473 61.1139C157.363 62.2612 158.201 63.4452 158.986 64.6698C158.986 64.6707 158.986 64.6707 158.986 64.6707C159.899 66.0961 160.741 67.5733 161.5 69.0977C163.966 74.0328 165.605 79.4552 166.233 85.1803C166.429 86.9252 166.528 88.7004 166.528 90.5C166.528 92.2996 166.429 94.0738 166.233 95.8216H85.6157V85.1803Z" fill="#C6C5D0" />
            <path d="M411.686 138.37C414.81 138.37 417.343 135.838 417.343 132.714C417.343 129.589 414.81 127.057 411.686 127.057C408.562 127.057 406.03 129.589 406.03 132.714C406.03 135.838 408.562 138.37 411.686 138.37Z" fill="#B8C3FF" />
            <path d="M294.628 170.945H306.938C311.017 175.058 315.723 178.467 320.887 181H294.628V170.945Z" fill="#C6C5D0" />
            <path d="M294.628 85.4725H320.888C319.392 86.2069 317.937 87.0101 316.522 87.8925C315.284 88.6551 314.083 89.4753 312.912 90.3445C310.801 91.915 308.803 93.6468 306.938 95.5312H294.628V85.4725Z" fill="#C6C5D0" />
            <path d="M294.628 0H342.5C353.574 0 363.777 3.75481 371.886 10.0559C383.136 18.7957 390.37 32.4376 390.37 47.7661C390.37 48.606 390.349 49.4413 390.31 50.2699V50.2709C390.31 50.2727 390.31 50.2727 390.31 50.2737V50.2775C389.57 64.4878 382.604 77.0541 372.088 85.3179C372.02 85.3688 371.95 85.4197 371.885 85.4725C370.788 86.3257 369.646 87.1326 368.479 87.8915C367.005 88.8427 365.478 89.7138 363.9 90.5009C360.052 92.4241 355.903 93.8457 351.551 94.6734V84.3215C353.347 83.868 355.094 83.2826 356.776 82.5728C358.732 81.7517 360.604 80.7656 362.374 79.6325C372.806 72.9553 379.73 61.1714 379.73 47.7501C379.73 26.9322 363.066 10.0559 342.5 10.0559H294.628V0Z" fill="#C6C5D0" />
            <path d="M337.18 166.387V95.9074C334.057 96.3618 331.056 97.2083 328.227 98.3961C314.747 104.068 305.265 117.531 305.265 133.236C305.265 154.059 321.937 170.945 342.5 170.945C363.066 170.945 379.73 154.059 379.73 133.236C379.73 117.531 370.252 104.068 356.772 98.3961C359.238 97.6306 361.623 96.6653 363.901 95.5312C365.422 94.7676 366.904 93.9305 368.327 93.0151C368.327 93.0151 368.327 93.0151 368.329 93.0151C369.554 93.7966 370.739 94.6413 371.886 95.5312C374.787 97.7843 377.421 100.361 379.73 103.213C386.389 111.42 390.371 121.867 390.371 133.236C390.371 144.61 386.389 155.056 379.73 163.254C377.421 166.108 374.787 168.694 371.886 170.945C363.777 177.246 353.574 181 342.5 181C331.422 181 321.224 177.246 313.112 170.945C310.209 168.693 307.575 166.108 305.265 163.254C298.612 155.058 294.628 144.611 294.628 133.236C294.628 121.867 298.612 111.42 305.265 103.213C307.576 100.361 310.21 97.7815 313.114 95.5312C314.261 94.6413 315.446 93.7966 316.669 93.0151C316.671 93.0151 316.671 93.0151 316.671 93.0151C318.096 92.1017 319.573 91.2608 321.098 90.5C326.032 88.0339 331.455 86.3936 337.18 85.7667C338.925 85.5706 340.7 85.4716 342.5 85.4716C344.3 85.4716 346.074 85.5706 347.822 85.7667V166.387H337.18Z" fill="#C6C5D0" />
            <path d="M603.944 138.37V126.061C608.058 121.981 611.466 117.279 614 112.113V138.37H603.944Z" fill="#C6C5D0" />
            <path d="M518.469 138.37V112.112C519.202 113.603 520.013 115.063 520.892 116.477C521.651 117.715 522.474 118.917 523.344 120.09C524.914 122.2 526.647 124.194 528.53 126.061V138.372H518.469V138.37Z" fill="#C6C5D0" />
            <path d="M433 138.37V90.5C433 79.4232 436.754 69.2259 443.056 61.1139C451.799 49.8636 465.435 42.6293 480.766 42.6293C481.606 42.6293 482.438 42.6481 483.273 42.6924H483.274C483.276 42.6924 483.276 42.6924 483.277 42.6924H483.28C497.488 43.4325 510.053 50.3953 518.314 60.9159C518.369 60.981 518.423 61.046 518.469 61.1139C519.329 62.2112 520.132 63.35 520.891 64.5208C521.838 65.9924 522.71 67.5215 523.5 69.0996C525.423 72.9505 526.845 77.0966 527.672 81.4491H517.322C516.871 79.6551 516.283 77.9064 515.574 76.2236C514.754 74.2675 513.767 72.4 512.632 70.6287C505.953 60.1957 494.172 53.2658 480.753 53.2658C459.938 53.2658 443.059 69.9367 443.059 90.5V138.37H433Z" fill="#C6C5D0" />
            <path d="M599.387 95.8197H528.908C529.362 98.9429 530.207 101.945 531.396 104.77C537.067 118.253 550.53 127.731 566.235 127.731C587.059 127.731 603.944 111.064 603.944 90.5C603.944 69.9367 587.059 53.2658 566.235 53.2658C550.53 53.2658 537.067 62.7457 531.396 76.2274C530.631 73.7584 529.665 71.3762 528.53 69.0996C527.769 67.5743 526.93 66.097 526.015 64.6726C526.015 64.6726 526.015 64.6726 526.015 64.6707C526.797 63.4471 527.64 62.2621 528.53 61.1139C530.783 58.2094 533.361 55.5755 536.214 53.2658C544.42 46.6132 554.866 42.6283 566.235 42.6283C577.61 42.6283 588.056 46.6132 596.254 53.2658C599.108 55.5755 601.695 58.2094 603.944 61.1139C610.245 69.2259 614 79.4232 614 90.5C614 101.575 610.245 111.777 603.944 119.888C601.693 122.787 599.108 125.421 596.254 127.731C588.058 134.39 577.611 138.37 566.235 138.37C554.866 138.37 544.42 134.389 536.214 127.731C533.361 125.421 530.781 122.787 528.53 119.886C527.64 118.738 526.797 117.554 526.015 116.331C526.015 116.329 526.015 116.329 526.015 116.329C525.101 114.904 524.263 113.424 523.5 111.903C521.035 106.968 519.394 101.549 518.767 95.8197C518.571 94.0747 518.469 92.3006 518.469 90.5C518.469 88.6994 518.571 86.9262 518.767 85.1784H599.387V95.8197Z" fill="#C6C5D0" />
        </g>
        <path d="M154.858 420.242C154.858 420.242 144.816 462.64 157.089 462.64C169.362 462.64 198.372 414.663 198.372 414.663L188.33 402.39L170.306 427.413L169.362 414.663L154.858 420.242Z" fill="#A0616A" />
        <path d="M195.696 416.506C201.092 416.506 205.465 412.132 205.465 406.737C205.465 401.342 201.092 396.968 195.696 396.968C190.301 396.968 185.927 401.342 185.927 406.737C185.927 412.132 190.301 416.506 195.696 416.506Z" fill="#A0616A" />
        <path d="M146.344 709.013L159.346 709.012L165.533 658.855L146.341 658.855L146.344 709.013Z" fill="#A0616A" />
        <path d="M145.885 722.578L185.873 722.576V722.071C185.873 717.943 184.233 713.984 181.314 711.065C178.395 708.147 174.437 706.507 170.309 706.507H170.308L163.004 700.965L149.375 706.507L145.885 706.508L145.885 722.578Z" fill="#2F2E41" />
        <path d="M6.46771 692.789L18.1027 698.595L46.0362 656.479L28.8637 647.909L6.46771 692.789Z" fill="#A0616A" />
        <path d="M0 704.722L35.7798 722.578L36.0056 722.125C37.8487 718.432 38.1492 714.158 36.841 710.243C35.5328 706.328 32.7231 703.093 29.0298 701.249L29.0289 701.249L24.968 693.029L10.2992 691.902L7.17586 690.343L0 704.722Z" fill="#2F2E41" />
        <path d="M62.2718 497.159C62.2718 497.159 57.0752 559.642 55.9595 573.031C55.1945 581.424 53.3185 589.679 50.3808 597.578C50.3808 597.578 48.1492 602.041 48.1492 606.504L22.8587 652.467C22.8587 652.467 15.1305 658.147 16.2462 662.61C17.3619 667.073 11.5867 669.751 11.5867 669.751L38.2199 674.884C38.2199 674.884 37.1042 671.536 40.4514 670.421C43.7987 669.305 46.4632 659.627 46.4632 659.627L83.8534 598.694L110.631 542.906C110.631 542.906 126.252 593.115 129.599 598.694C129.599 598.694 141.873 661.176 144.104 666.755C146.336 672.334 147.451 672.334 146.336 674.565C145.22 676.797 145.22 679.028 146.336 680.144C147.451 681.26 168.651 680.144 168.651 680.144L163.072 600.925L153.03 506.086L101.705 490.466L62.2718 497.159Z" fill="#2F2E41" />
        <path d="M112.522 347.996C125.462 347.996 135.952 337.505 135.952 324.565C135.952 311.624 125.462 301.134 112.522 301.134C99.5811 301.134 89.0907 311.624 89.0907 324.565C89.0907 337.505 99.5811 347.996 112.522 347.996Z" fill="#A0616A" />
        <path d="M155.262 382.237L127.369 365.338C127.369 365.338 126.596 354.844 118.648 354.35C114.658 354.102 108.671 353.723 99.6853 353.144C97.7863 353.021 96.5048 363.41 94.3286 363.269L64.8855 371.08L69.3485 446.951C69.3485 446.951 62.654 477.076 64.8855 482.655C67.117 488.234 59.3067 490.466 61.5382 491.581C63.7697 492.697 61.5382 500.507 61.5382 500.507C61.5382 500.507 105.053 522.822 153.03 506.086L148.567 491.581C149.175 489.685 149.288 487.666 148.898 485.713C148.507 483.761 147.626 481.94 146.336 480.424C146.336 480.424 150.799 473.729 145.22 468.15C145.22 468.15 147.451 458.109 141.873 453.646L140.757 438.025L144.104 430.215L155.262 382.237Z" fill="#E6E6E6" />
        <path d="M92.1896 337.95L91.5347 336.429C91.4503 336.232 83.164 316.643 90.5087 304.56C93.9087 298.967 100.091 295.808 108.883 295.174C122.641 294.18 132.056 297.443 136.876 304.867C137.684 306.125 138.139 307.578 138.191 309.073C138.244 310.567 137.893 312.048 137.175 313.36C136.457 314.672 135.399 315.766 134.112 316.528C132.825 317.289 131.357 317.69 129.861 317.688H129.676L127.149 314.406L127.002 314.725C126.086 316.705 123.985 317.789 121.523 317.551C121.104 317.521 120.733 317.883 120.435 318.656C120.335 318.995 120.146 319.3 119.887 319.54C119.628 319.78 119.309 319.945 118.964 320.019C117.145 320.374 114.553 318.082 113.392 316.941C113.347 317.203 113.247 317.454 113.097 317.674C112.947 317.895 112.752 318.08 112.524 318.219C111.301 318.925 109.398 318.003 108.851 317.709C104.499 318.634 101.682 318.387 100.475 316.975C99.657 322.764 97.9009 333.184 95.7951 333.762C95.575 333.812 95.3445 333.791 95.1375 333.7C94.9306 333.61 94.7582 333.455 94.6459 333.259C94.1388 332.601 93.6857 332.273 93.4027 332.365C92.7177 332.583 92.3133 334.839 92.2554 336.295L92.1896 337.95Z" fill="#2F2E41" />
        <path d="M142.988 383.353L154.119 381.545C162.136 389.248 167.598 399.226 169.767 410.131C173.114 427.983 174.23 431.331 174.23 431.331L147.451 438.025L132.947 410.131L142.988 383.353Z" fill="#E6E6E6" />
        <path d="M93.5998 406.573L86.7215 493.769L262.253 507.615L269.131 420.42L93.5998 406.573Z" fill="white" />
        <path d="M112.353 413.329C108.057 410.261 102.604 410.039 100.52 410.083C101.156 412.067 103.131 417.156 107.427 420.225C111.733 423.3 117.18 423.515 119.26 423.472C118.625 421.489 116.649 416.398 112.353 413.329Z" fill="#B8C3FF" />
        <path d="M129.299 468.813L101.114 466.59C100.281 466.524 99.4435 466.623 98.6489 466.881C97.8544 467.139 97.1184 467.551 96.4831 468.094C95.8477 468.636 95.3255 469.298 94.9461 470.042C94.5667 470.787 94.3376 471.598 94.2719 472.431C94.2062 473.264 94.3052 474.102 94.5632 474.896C94.8212 475.691 95.2332 476.427 95.7756 477.062C96.318 477.697 96.9803 478.22 97.7246 478.599C98.4688 478.978 99.2805 479.208 100.113 479.273V479.273L128.299 481.497C129.981 481.629 131.646 481.088 132.929 479.993C134.213 478.897 135.008 477.337 135.141 475.655C135.273 473.973 134.732 472.307 133.637 471.024C132.541 469.741 130.981 468.946 129.299 468.813V468.813Z" fill="#B8C3FF" />
        <path d="M262.211 411.944L104.185 399.477C102.347 399.332 100.499 399.551 98.7453 400.121C96.9918 400.691 95.3676 401.6 93.9656 402.797C92.5636 403.995 91.4112 405.457 90.5741 407.099C89.7371 408.742 89.2318 410.534 89.0871 412.372L83.0096 489.36C82.7175 493.073 83.912 496.75 86.3303 499.583C88.7487 502.416 92.193 504.172 95.906 504.466L253.932 516.933C255.77 517.077 257.619 516.859 259.372 516.289C261.126 515.719 262.75 514.81 264.152 513.612C265.554 512.415 266.706 510.953 267.543 509.31C268.38 507.668 268.886 505.876 269.03 504.038L274.806 430.864L274.922 429.369L275.106 427.042C275.251 425.204 275.032 423.356 274.462 421.602C273.893 419.849 272.983 418.225 271.786 416.823C270.588 415.421 269.127 414.268 267.484 413.431C265.841 412.594 264.05 412.089 262.211 411.944V411.944ZM257.545 478.928L256.544 491.612C256.361 493.852 255.298 495.929 253.588 497.388C251.879 498.847 249.661 499.569 247.42 499.398L226.278 497.732C224.038 497.549 221.962 496.486 220.503 494.777C219.044 493.067 218.321 490.849 218.493 488.608L219.494 475.924C219.678 473.684 220.741 471.608 222.45 470.149C224.16 468.691 226.377 467.968 228.618 468.138L249.752 469.806C251.992 469.99 254.069 471.052 255.529 472.761C256.989 474.47 257.713 476.687 257.545 478.928V478.928ZM92.8733 472.315C93.0374 470.262 94.0088 468.359 95.5746 467.021C97.1403 465.684 99.1725 465.023 101.225 465.182L129.41 467.407C130.428 467.486 131.42 467.764 132.331 468.227C133.241 468.689 134.052 469.326 134.716 470.102C135.38 470.878 135.884 471.777 136.201 472.748C136.517 473.719 136.639 474.742 136.56 475.761C136.48 476.779 136.201 477.771 135.738 478.681C135.275 479.591 134.637 480.401 133.861 481.064C133.084 481.728 132.185 482.232 131.214 482.547C130.243 482.863 129.219 482.984 128.201 482.904L128.186 482.908L100.002 480.683C98.984 480.602 97.9919 480.322 97.0825 479.858C96.1731 479.393 95.3642 478.754 94.7021 477.977C94.0399 477.2 93.5376 476.3 93.2238 475.328C92.91 474.356 92.7909 473.332 92.8733 472.315V472.315ZM98.9071 409.581L98.7144 408.792L99.5251 408.718C99.8421 408.684 107.339 408.011 113.175 412.18C119.012 416.348 120.801 423.663 120.879 423.969L121.064 424.759L120.255 424.84C119.107 424.926 117.954 424.918 116.807 424.818C113.158 424.604 109.634 423.414 106.603 421.372C100.767 417.203 98.9775 409.888 98.9071 409.581V409.581Z" fill="#B8C3FF" />
        <path d="M233.836 487.34L224.676 486.618C224.022 486.567 223.375 486.778 222.877 487.204C222.379 487.63 222.071 488.236 222.019 488.89C221.968 489.543 222.178 490.19 222.603 490.689C223.028 491.187 223.633 491.497 224.287 491.55L233.447 492.273C234.1 492.323 234.747 492.112 235.245 491.686C235.743 491.26 236.052 490.654 236.103 490.001C236.155 489.347 235.945 488.7 235.52 488.201C235.095 487.702 234.489 487.393 233.836 487.34V487.34Z" fill="#B8C3FF" />
        <path d="M234.336 480.998L225.176 480.276C224.523 480.226 223.876 480.437 223.379 480.863C222.881 481.289 222.573 481.895 222.521 482.548C222.47 483.201 222.679 483.848 223.104 484.346C223.529 484.845 224.134 485.155 224.787 485.208L233.947 485.931C234.6 485.981 235.247 485.77 235.745 485.344C236.243 484.918 236.552 484.312 236.603 483.659C236.655 483.005 236.445 482.358 236.02 481.86C235.595 481.361 234.989 481.051 234.336 480.998V480.998Z" fill="#B8C3FF" />
        <path d="M234.836 474.657L225.676 473.934C225.023 473.884 224.376 474.095 223.878 474.521C223.38 474.947 223.071 475.553 223.02 476.206C222.968 476.859 223.178 477.507 223.603 478.005C224.028 478.504 224.634 478.814 225.287 478.867L234.447 479.589C235.1 479.639 235.747 479.428 236.244 479.002C236.742 478.576 237.05 477.97 237.102 477.317C237.153 476.664 236.944 476.017 236.519 475.518C236.094 475.02 235.489 474.71 234.836 474.657V474.657Z" fill="#B8C3FF" />
        <path d="M86.7381 436.664L86.6204 438.163L272.122 452.735L272.24 451.236L86.7381 436.664Z" fill="white" />
        <path d="M274.922 429.368L274.806 430.864L268.35 430.357L199.566 424.954L199.69 423.457L268.466 428.862L274.922 429.368Z" fill="#3F3D56" />
        <path d="M48.1493 413.478C48.1493 413.478 38.1075 455.877 50.3808 455.877C62.6541 455.877 91.6638 407.9 91.6638 407.9L81.6219 395.626L63.598 420.65L62.654 407.9L48.1493 413.478Z" fill="#A0616A" />
        <path d="M88.9878 409.743C94.3831 409.743 98.7569 405.369 98.7569 399.974C98.7569 394.578 94.3831 390.205 88.9878 390.205C83.5925 390.205 79.2188 394.578 79.2188 399.974C79.2188 405.369 83.5925 409.743 88.9878 409.743Z" fill="#A0616A" />
        <path d="M73.0135 377.774L66.3189 371.08C66.3189 371.08 52.9299 378.89 51.8141 386.7C50.6984 394.511 45.1196 419.057 45.1196 419.057L65.7611 420.731L72.4556 410.689L73.0135 377.774Z" fill="#E6E6E6" />
        <path d="M685 721H0V723H685V721Z" fill="#CCCCCC" />
        <path d="M458.841 238.138C457.723 234.835 443.696 223.608 452.291 221.721L459.34 231.119L491.746 198.714L495.006 201.973L458.841 238.138Z" fill="#B8C3FF" />
        <path d="M458.841 348.332C457.723 345.029 443.696 333.802 452.291 331.915L459.34 341.314L491.746 308.908L495.006 312.167L458.841 348.332Z" fill="#B8C3FF" />
        <path d="M458.841 460.1C457.723 456.797 443.696 445.57 452.291 443.683L459.34 453.082L491.746 420.676L495.006 423.935L458.841 460.1Z" fill="#B8C3FF" />
        <path d="M429 369.738C434.523 369.738 439 365.261 439 359.738C439 354.215 434.523 349.738 429 349.738C423.477 349.738 419 354.215 419 359.738C419 365.261 423.477 369.738 429 369.738Z" fill="#C3C2DA" />
        <path d="M429 260.738C434.523 260.738 439 256.261 439 250.738C439 245.215 434.523 240.738 429 240.738C423.477 240.738 419 245.215 419 250.738C419 256.261 423.477 260.738 429 260.738Z" fill="#C3C2DA" />
        <path d="M685.5 227.738H524.5V229.738H685.5V227.738Z" fill="#DCDAF5" />
        <path d="M434 485.932C439.523 485.932 444 481.455 444 475.932C444 470.409 439.523 465.932 434 465.932C428.477 465.932 424 470.409 424 475.932C424 481.455 428.477 485.932 434 485.932Z" fill="#C3C2DA" />
        <path d="M685.5 337.932H524.5V339.932H685.5V337.932Z" fill="#C3C2DA" />
        <path d="M685.5 449.7H524.5V451.7H685.5V449.7Z" fill="#C3C2DA" />
        <path d="M484.098 475H434.098V424H468.098V426H436.098V473H482.098V450H484.098V475Z" fill="#C3C2DA" />
        <path d="M484.098 363H434.098V312H468.098V314H436.098V361H482.098V338H484.098V363Z" fill="#C3C2DA" />
        <path d="M484.098 249H434.098V198H468.098V200H436.098V247H482.098V224H484.098V249Z" fill="#C3C2DA" />
    </g>
    <defs>
        <clipPath id="clip0_3_38">
            <rect width="685" height="723" fill="white" />
        </clipPath>
        <clipPath id="clip1_3_38">
            <rect width="543" height="181" fill="white" transform="translate(71)" />
        </clipPath>
    </defs>
</svg>
