<svg width="762" height="690" viewBox="0 0 762 690" fill="none" xmlns="http://www.w3.org/2000/svg">
    <g clip-path="url(#clip0_64_316)">
        <rect width="762" height="690" fill="#1B1B1F" />
        <path d="M508.535 242.623H253.697C249.322 242.618 245.128 240.877 242.035 237.783C238.941 234.689 237.201 230.493 237.197 226.117V25.9019C237.2 22.6961 238.475 19.6225 240.741 17.3556C243.007 15.0887 246.08 13.8135 249.284 13.8098H512.738C515.998 13.8135 519.124 15.1107 521.429 17.4169C523.735 19.723 525.031 22.8497 525.035 26.111V226.117C525.03 230.493 523.29 234.689 520.197 237.783C517.103 240.877 512.91 242.618 508.535 242.623Z" fill="#F2F2F2" />
        <path d="M269.697 226.118H492.535C496.778 226.118 500.848 224.431 503.849 221.43C506.849 218.428 508.535 214.357 508.535 210.113V56.5174C508.535 52.2726 506.849 48.2017 503.849 45.2002C500.848 42.1987 496.778 40.5125 492.535 40.5125H269.697C265.453 40.5125 261.383 42.1987 258.383 45.2002C255.382 48.2017 253.697 52.2726 253.697 56.5174V210.113C253.697 214.357 255.382 218.428 258.383 221.43C261.383 224.431 265.453 226.118 269.697 226.118Z" fill="white" />
        <path d="M524.805 24.9579H236.965V16.5549C236.971 12.1645 238.718 7.9558 241.823 4.85223C244.927 1.74866 249.136 0.0036405 253.525 0H508.245C512.634 0.00360612 516.843 1.74862 519.947 4.85219C523.052 7.95576 524.799 12.1644 524.805 16.5549V24.9579Z" fill="#CCCCCC" />
        <path d="M267.06 16.7885C269.426 16.7885 271.344 14.8701 271.344 12.5037C271.344 10.1373 269.426 8.21899 267.06 8.21899C264.695 8.21899 262.777 10.1373 262.777 12.5037C262.777 14.8701 264.695 16.7885 267.06 16.7885Z" fill="white" />
        <path d="M283.319 16.7885C285.685 16.7885 287.602 14.8701 287.602 12.5037C287.602 10.1373 285.685 8.21899 283.319 8.21899C280.953 8.21899 279.036 10.1373 279.036 12.5037C279.036 14.8701 280.953 16.7885 283.319 16.7885Z" fill="white" />
        <path d="M299.578 16.7885C301.944 16.7885 303.861 14.8701 303.861 12.5037C303.861 10.1373 301.944 8.21899 299.578 8.21899C297.212 8.21899 295.295 10.1373 295.295 12.5037C295.295 14.8701 297.212 16.7885 299.578 16.7885Z" fill="white" />
        <path d="M286.095 112.491H275.059C274.46 112.49 273.887 112.252 273.463 111.829C273.04 111.405 272.802 110.831 272.802 110.233V99.1931C272.802 98.5945 273.04 98.0205 273.463 97.5972C273.887 97.1738 274.46 96.9357 275.059 96.9351H286.095C286.693 96.9357 287.267 97.1738 287.69 97.5972C288.114 98.0205 288.352 98.5945 288.352 99.1931V110.233C288.352 110.831 288.114 111.405 287.69 111.829C287.267 112.252 286.693 112.49 286.095 112.491Z" fill="#CCCC56" />
        <path d="M286.095 141.093H275.059C274.46 141.092 273.887 140.854 273.463 140.431C273.04 140.007 272.802 139.433 272.802 138.835V127.795C272.802 127.197 273.04 126.623 273.463 126.199C273.887 125.776 274.46 125.538 275.059 125.537H286.095C286.693 125.538 287.267 125.776 287.69 126.199C288.114 126.623 288.352 127.197 288.352 127.795V138.835C288.352 139.433 288.114 140.007 287.69 140.431C287.267 140.854 286.693 141.092 286.095 141.093Z" fill="#3F3D56" />
        <path d="M286.095 169.695H275.059C274.46 169.694 273.887 169.456 273.463 169.033C273.04 168.61 272.802 168.036 272.802 167.437V156.397C272.802 155.799 273.04 155.225 273.463 154.802C273.887 154.378 274.46 154.14 275.059 154.139H286.095C286.693 154.14 287.267 154.378 287.69 154.802C288.114 155.225 288.352 155.799 288.352 156.397V167.437C288.352 168.036 288.114 168.61 287.69 169.033C287.267 169.456 286.693 169.694 286.095 169.695Z" fill="#CCCCCC" />
        <path d="M358.331 106.971H305.157C304.559 106.97 303.986 106.731 303.564 106.308C303.142 105.885 302.905 105.311 302.905 104.713C302.905 104.115 303.142 103.541 303.564 103.118C303.986 102.695 304.559 102.456 305.157 102.455H358.331C358.627 102.454 358.922 102.512 359.196 102.625C359.47 102.739 359.72 102.905 359.93 103.115C360.14 103.324 360.307 103.573 360.42 103.848C360.534 104.122 360.593 104.416 360.593 104.713C360.593 105.01 360.534 105.304 360.42 105.578C360.307 105.852 360.14 106.102 359.93 106.311C359.72 106.521 359.47 106.687 359.196 106.8C358.922 106.914 358.627 106.972 358.331 106.971Z" fill="#CCCCCC" />
        <path d="M358.331 135.573H305.157C304.559 135.572 303.986 135.333 303.564 134.91C303.142 134.487 302.905 133.913 302.905 133.315C302.905 132.717 303.142 132.143 303.564 131.72C303.986 131.297 304.559 131.058 305.157 131.057H358.331C358.929 131.057 359.503 131.295 359.927 131.718C360.35 132.142 360.588 132.716 360.588 133.315C360.588 133.914 360.35 134.488 359.927 134.912C359.503 135.335 358.929 135.573 358.331 135.573Z" fill="#CCCCCC" />
        <path d="M358.331 164.175H305.157C304.559 164.174 303.986 163.936 303.564 163.512C303.142 163.089 302.905 162.515 302.905 161.917C302.905 161.319 303.142 160.746 303.564 160.322C303.986 159.899 304.559 159.66 305.157 159.659H358.331C358.627 159.659 358.922 159.717 359.196 159.83C359.47 159.943 359.72 160.109 359.93 160.319C360.14 160.529 360.307 160.778 360.42 161.052C360.534 161.326 360.593 161.62 360.593 161.917C360.593 162.214 360.534 162.508 360.42 162.782C360.307 163.057 360.14 163.306 359.93 163.516C359.72 163.725 359.47 163.892 359.196 164.005C358.922 164.118 358.627 164.176 358.331 164.175Z" fill="#CCCCCC" />
        <g filter="url(#filter0_d_64_316)">
            <path d="M489.341 134.032C489.398 133.083 489.43 132.127 489.43 131.164C489.43 118.61 484.445 106.571 475.571 97.6946C466.697 88.8181 454.662 83.8313 442.112 83.8313V134.032H489.341Z" fill="#CCCC56" />
        </g>
        <path d="M438.528 138.335V88.1343C429.291 88.1339 420.257 90.8376 412.538 95.9121C404.819 100.987 398.754 108.21 395.09 116.691C391.426 125.172 390.324 134.541 391.919 143.641C393.514 152.742 397.737 161.176 404.067 167.905C410.397 174.633 418.558 179.361 427.542 181.506C436.526 183.651 445.941 183.118 454.627 179.974C463.312 176.831 470.888 171.213 476.419 163.813C481.951 156.414 485.197 147.558 485.756 138.335H438.528Z" fill="#3F3D56" />
        <path d="M761 690H1C0.734784 690 0.480429 689.894 0.292892 689.707C0.105356 689.519 0 689.265 0 689C0 688.734 0.105356 688.48 0.292892 688.292C0.480429 688.105 0.734784 688 1 688H761C761.265 688 761.52 688.105 761.707 688.292C761.895 688.48 762 688.734 762 689C762 689.265 761.895 689.519 761.707 689.707C761.52 689.894 761.265 690 761 690Z" fill="#CCCCCC" />
        <path d="M504.69 413.053C505.024 413.506 505.321 413.985 505.58 414.485L555.693 420.121L562.981 410.271L579.28 419.331L564.933 443.258L503.537 427.14C501.975 428.642 499.993 429.634 497.853 429.981C495.714 430.329 493.52 430.018 491.562 429.088C489.605 428.158 487.976 426.653 486.894 424.775C485.812 422.897 485.327 420.734 485.504 418.573C485.68 416.412 486.511 414.357 487.884 412.68C489.257 411.002 491.108 409.783 493.191 409.184C495.274 408.585 497.489 408.634 499.543 409.325C501.598 410.016 503.393 411.316 504.69 413.053Z" fill="#FFB8B8" />
        <path d="M248.987 400.111C247.72 400.856 246.305 401.314 244.841 401.453C243.377 401.592 241.901 401.408 240.517 400.915C239.132 400.421 237.872 399.63 236.826 398.597C235.78 397.563 234.973 396.313 234.462 394.934L198.735 395.679L208.633 379.962L241.042 381.664C243.415 380.959 245.964 381.15 248.206 382.199C250.447 383.248 252.226 385.084 253.206 387.358C254.185 389.632 254.297 392.186 253.519 394.536C252.742 396.887 251.129 398.87 248.987 400.111V400.111Z" fill="#FFB8B8" />
        <path d="M233.285 395.612C233.001 396.559 232.414 397.387 231.614 397.968C230.814 398.549 229.845 398.85 228.856 398.826L163.47 397.165L104.263 379.63C102.634 379.147 101.117 378.346 99.8002 377.272C98.4834 376.198 97.3933 374.872 96.5932 373.373C95.793 371.874 95.2988 370.23 95.1394 368.538C94.9799 366.846 95.1583 365.139 95.6642 363.516C96.1701 361.894 96.9934 360.388 98.0862 359.087C99.179 357.785 100.52 356.714 102.03 355.936C103.54 355.157 105.19 354.687 106.884 354.552C108.578 354.417 110.281 354.62 111.896 355.15L165.386 372.693L229.587 378.891C230.712 379.005 231.753 379.536 232.506 380.379C233.259 381.223 233.668 382.317 233.655 383.448L233.469 394.402C233.463 394.812 233.401 395.219 233.285 395.612Z" fill="#3F3D56" />
        <path d="M138.461 676.81L150.72 676.809L156.553 629.506L138.459 629.507L138.461 676.81Z" fill="#FFB8B8" />
        <path d="M135.333 672.805L159.477 672.804H159.478C161.499 672.804 163.5 673.202 165.366 673.976C167.233 674.749 168.929 675.883 170.358 677.312C171.787 678.741 172.92 680.438 173.694 682.305C174.467 684.173 174.865 686.174 174.865 688.195V688.696L135.334 688.697L135.333 672.805Z" fill="#2F2E41" />
        <path d="M102.461 676.81L114.72 676.809L120.553 629.506L102.459 629.507L102.461 676.81Z" fill="#FFB8B8" />
        <path d="M99.3335 672.805L123.477 672.804H123.478C125.499 672.804 127.5 673.202 129.366 673.976C131.233 674.749 132.929 675.883 134.358 677.312C135.787 678.741 136.92 680.438 137.694 682.305C138.467 684.173 138.865 686.174 138.865 688.195V688.696L99.3343 688.697L99.3335 672.805Z" fill="#2F2E41" />
        <path d="M94.233 485.642L97.1605 659.39C97.1697 659.94 97.2924 660.483 97.5207 660.983C97.749 661.484 98.0782 661.932 98.4875 662.3C98.8969 662.667 99.3776 662.947 99.8997 663.12C100.422 663.293 100.974 663.357 101.522 663.307L115.868 662.003C116.809 661.917 117.69 661.501 118.353 660.828C119.017 660.156 119.421 659.27 119.494 658.327L127.893 549.949C127.913 549.694 128.029 549.457 128.218 549.285C128.407 549.113 128.655 549.021 128.91 549.026C129.165 549.031 129.409 549.133 129.591 549.312C129.773 549.491 129.88 549.733 129.889 549.988L134.087 660.848C134.126 661.882 134.565 662.861 135.31 663.579C136.055 664.297 137.05 664.698 138.084 664.698H153.47C154.489 664.698 155.469 664.309 156.211 663.611C156.953 662.913 157.4 661.958 157.463 660.941L168.233 484.642L104.233 468.637L94.233 485.642Z" fill="#2F2E41" />
        <path d="M140.654 322.496C154.219 322.496 165.215 311.496 165.215 297.927C165.215 284.358 154.219 273.359 140.654 273.359C127.089 273.359 116.093 284.358 116.093 297.927C116.093 311.496 127.089 322.496 140.654 322.496Z" fill="#FFB8B8" />
        <path d="M167.292 492.084C167.268 492.084 167.244 492.083 167.22 492.083L109.789 491.199C108.685 491.182 107.626 490.76 106.813 490.012C106 489.265 105.49 488.245 105.381 487.146L104.731 480.641C104.718 480.518 104.66 480.403 104.568 480.32C104.477 480.237 104.357 480.191 104.233 480.191C104.109 480.191 103.989 480.237 103.897 480.32C103.806 480.403 103.748 480.518 103.735 480.641L103.064 487.36C102.96 488.412 102.488 489.393 101.732 490.132C100.977 490.871 99.9849 491.319 98.9312 491.399L94.8726 491.712C94.1573 491.767 93.4392 491.65 92.7782 491.371C92.1172 491.092 91.5324 490.66 91.0726 490.109C90.6129 489.558 90.2915 488.905 90.1353 488.204C89.9791 487.504 89.9926 486.776 90.1746 486.082L93.6693 472.754C100.901 445.054 101.482 416.035 95.367 388.068L93.6304 380.166C92.3214 374.263 92.9205 368.096 95.3415 362.556C97.7625 357.016 101.88 352.388 107.101 349.34L118.381 342.725L123.499 335.046C124.489 333.564 125.822 332.342 127.385 331.485C128.948 330.628 130.694 330.16 132.476 330.122C139.616 329.966 151.863 331.274 154.164 341.716C159.866 343.665 164.804 347.372 168.268 352.304C171.733 357.236 173.545 363.139 173.446 369.166L171.789 487.645C171.772 488.828 171.291 489.956 170.45 490.786C169.608 491.617 168.474 492.083 167.292 492.084Z" fill="#3F3D56" />
        <path d="M138.733 312.089C138.632 315.562 136.222 317.571 133.262 319.391C130.303 321.21 126.844 321.999 123.454 322.759C122.999 323.001 122.49 323.122 121.974 323.109C121.459 323.096 120.956 322.951 120.513 322.687C120.07 322.423 119.703 322.05 119.447 321.603C119.19 321.155 119.053 320.65 119.049 320.134L115.941 308.307C114.841 304.529 114.041 300.67 113.548 296.767C112.799 289.255 114.579 281.175 119.82 275.744C125.061 270.313 134.151 268.384 140.432 272.568C147.885 263.045 181.955 284.085 173.551 290.706C172.056 291.884 169.77 290.394 167.872 290.249C165.975 290.105 163.848 290.439 162.642 291.912C161.067 293.837 161.753 296.704 161.104 299.105C160.836 299.95 160.403 300.733 159.83 301.41C159.258 302.087 158.557 302.643 157.768 303.047C156.98 303.452 156.119 303.696 155.235 303.766C154.352 303.836 153.463 303.73 152.621 303.455C151.052 302.681 149.576 301.732 148.221 300.625C146.765 299.656 144.926 298.939 143.287 299.551C141.127 300.357 140.36 303.002 140.165 305.3C139.836 307.592 139.357 309.86 138.733 312.089Z" fill="#2F2E41" />
        <path opacity="0.2" d="M144.469 377.936L148.469 426.951L169.469 477.966L138.469 427.951L144.469 377.936Z" fill="black" />
        <path d="M402.819 646.346L183.649 516.279C179.889 514.042 177.17 510.404 176.088 506.164C175.006 501.924 175.649 497.428 177.877 493.662L280.002 321.47C281.64 318.714 284.304 316.722 287.409 315.929C290.514 315.135 293.807 315.607 296.565 317.239L523.145 451.703C525.947 453.371 527.974 456.081 528.78 459.241C529.587 462.401 529.107 465.752 527.447 468.559L425.428 640.572C423.192 644.333 419.556 647.053 415.317 648.135C411.079 649.218 406.584 648.574 402.819 646.346Z" fill="#F2F2F2" />
        <path d="M205.828 510.25L397.477 623.985C401.127 626.15 405.487 626.777 409.599 625.727C413.71 624.677 417.236 622.037 419.402 618.386L497.747 486.288C499.912 482.638 500.539 478.276 499.489 474.163C498.439 470.05 495.799 466.523 492.15 464.357L300.5 350.623C296.851 348.457 292.491 347.83 288.379 348.88C284.268 349.93 280.741 352.571 278.576 356.222L200.231 488.319C198.066 491.97 197.439 496.331 198.489 500.444C199.539 504.557 202.178 508.084 205.828 510.25Z" fill="white" />
        <path d="M527.837 467.45L280.284 320.54L284.57 313.313C286.815 309.54 290.464 306.812 294.718 305.727C298.971 304.643 303.48 305.29 307.257 307.527L526.326 437.533C530.098 439.777 532.828 443.425 533.915 447.679C535.002 451.933 534.358 456.444 532.124 460.223L527.837 467.45Z" fill="#CCCCCC" />
        <path d="M312.52 329.474C314.885 329.474 316.803 327.555 316.803 325.189C316.803 322.823 314.885 320.904 312.52 320.904C310.154 320.904 308.236 322.823 308.236 325.189C308.236 327.555 310.154 329.474 312.52 329.474Z" fill="white" />
        <path d="M326.503 337.772C328.869 337.772 330.786 335.854 330.786 333.487C330.786 331.121 328.869 329.203 326.503 329.203C324.137 329.203 322.219 331.121 322.219 333.487C322.219 335.854 324.137 337.772 326.503 337.772Z" fill="white" />
        <path d="M340.486 346.07C342.852 346.07 344.77 344.152 344.77 341.786C344.77 339.419 342.852 337.501 340.486 337.501C338.12 337.501 336.203 339.419 336.203 341.786C336.203 344.152 338.12 346.07 340.486 346.07Z" fill="white" />
        <path d="M472.757 492.528L472.478 492.998L475.296 494.67L475.574 494.2L472.757 492.528Z" fill="#E6E6E6" />
        <path d="M466.786 489.62L461.094 486.242L461.372 485.772L467.065 489.15L466.786 489.62ZM455.402 482.864L449.709 479.486L449.988 479.016L455.68 482.394L455.402 482.864ZM444.017 476.108L438.325 472.73L438.604 472.26L444.296 475.638L444.017 476.108ZM432.633 469.352L426.941 465.974L427.219 465.504L432.911 468.882L432.633 469.352ZM421.248 462.596L415.556 459.218L415.835 458.748L421.527 462.126L421.248 462.596ZM409.864 455.84L404.172 452.462L404.45 451.992L410.142 455.37L409.864 455.84ZM398.479 449.083L392.787 445.705L393.066 445.236L398.758 448.614L398.479 449.083ZM387.095 442.327L381.403 438.949L381.681 438.48L387.374 441.858L387.095 442.327ZM375.711 435.571L370.018 432.193L370.297 431.724L375.989 435.102L375.711 435.571ZM364.326 428.815L358.634 425.437L358.913 424.967L364.605 428.345L364.326 428.815ZM352.942 422.059L347.25 418.681L347.528 418.211L353.22 421.589L352.942 422.059ZM341.557 415.303L335.865 411.925L336.144 411.455L341.836 414.833L341.557 415.303ZM330.173 408.547L324.481 405.169L324.759 404.699L330.452 408.077L330.173 408.547ZM318.788 401.791L313.096 398.413L313.375 397.943L319.067 401.321L318.788 401.791ZM307.404 395.035L301.712 391.657L301.991 391.187L307.683 394.565L307.404 395.035ZM296.02 388.279L290.327 384.901L290.606 384.431L296.298 387.809L296.02 388.279Z" fill="#E6E6E6" />
        <path d="M282.096 379.381L281.818 379.85L284.635 381.522L284.914 381.053L282.096 379.381Z" fill="#E6E6E6" />
        <path d="M354.334 481.314L354.055 481.783L356.873 483.455L357.151 482.986L354.334 481.314Z" fill="#E6E6E6" />
        <path d="M348.448 478.455L342.84 475.127L343.119 474.658L348.726 477.985L348.448 478.455ZM337.232 471.799L331.625 468.472L331.903 468.002L337.511 471.33L337.232 471.799ZM326.017 465.144L320.409 461.816L320.688 461.346L326.296 464.674L326.017 465.144ZM314.802 458.488L309.194 455.16L309.473 454.69L315.08 458.018L314.802 458.488ZM303.586 451.832L297.979 448.504L298.257 448.035L303.865 451.363L303.586 451.832ZM292.371 445.176L286.763 441.849L287.042 441.379L292.65 444.707L292.371 445.176ZM281.156 438.521L275.548 435.193L275.827 434.723L281.434 438.051L281.156 438.521ZM269.94 431.865L264.333 428.537L264.611 428.067L270.219 431.395L269.94 431.865Z" fill="#E6E6E6" />
        <path d="M256.186 423.068L255.907 423.537L258.725 425.209L259.003 424.74L256.186 423.068Z" fill="#E6E6E6" />
        <path d="M287.131 469.376L286.853 469.846L289.67 471.518L289.949 471.048L287.131 469.376Z" fill="#E6E6E6" />
        <path d="M281.083 466.422L275.314 462.998L275.593 462.528L281.362 465.952L281.083 466.422ZM269.544 459.574L263.775 456.15L264.054 455.681L269.823 459.104L269.544 459.574ZM258.005 452.726L252.236 449.303L252.515 448.833L258.284 452.257L258.005 452.726Z" fill="#E6E6E6" />
        <path d="M243.927 443.737L243.649 444.207L246.466 445.879L246.745 445.409L243.927 443.737Z" fill="#E6E6E6" />
        <path d="M266.212 504.649L265.933 505.118L268.751 506.79L269.029 506.321L266.212 504.649Z" fill="#E6E6E6" />
        <path d="M260.164 501.694L254.395 498.271L254.673 497.801L260.443 501.225L260.164 501.694ZM248.625 494.847L242.855 491.423L243.134 490.953L248.904 494.377L248.625 494.847ZM237.086 487.999L231.317 484.575L231.595 484.105L237.365 487.529L237.086 487.999Z" fill="#E6E6E6" />
        <path d="M223.008 479.009L222.729 479.479L225.547 481.151L225.825 480.681L223.008 479.009Z" fill="#E6E6E6" />
        <path d="M238.402 489.267L400.811 585.649C404.746 587.978 409.445 588.651 413.875 587.52C418.305 586.388 422.106 583.545 424.443 579.614L471.897 499.603L471.57 499.422L363.905 526.912L355.376 493.508C355.22 492.891 354.924 492.317 354.51 491.834C354.095 491.35 353.575 490.969 352.989 490.72C352.092 490.359 351.102 490.303 350.171 490.562L293.749 504.966L287.513 480.543C287.378 480.016 287.142 479.521 286.816 479.085C286.49 478.65 286.081 478.283 285.614 478.005C285.146 477.728 284.628 477.545 284.09 477.468C283.552 477.39 283.003 477.42 282.476 477.555C282.095 477.656 245.381 487.387 238.402 489.267Z" fill="#CCCC56" />
        <path d="M237.431 489.325L237.296 488.796L282.445 477.267C283.638 476.963 284.902 477.146 285.96 477.774C287.019 478.402 287.785 479.424 288.09 480.617L294.2 504.559L350.308 490.231C351.501 489.928 352.765 490.11 353.823 490.738C354.882 491.366 355.648 492.389 355.953 493.581L364.356 526.505L472.582 498.868L472.717 499.397L363.962 527.169L355.424 493.716C355.291 493.195 355.057 492.705 354.735 492.274C354.412 491.844 354.008 491.481 353.546 491.206C353.083 490.932 352.571 490.751 352.039 490.675C351.507 490.598 350.965 490.627 350.443 490.76L293.806 505.223L287.561 480.752C287.291 479.7 286.615 478.798 285.682 478.244C284.748 477.689 283.633 477.528 282.58 477.796L237.431 489.325Z" fill="#3F3D56" />
        <path d="M289.81 475.107C291.921 475.107 293.632 473.395 293.632 471.283C293.632 469.172 291.921 467.46 289.81 467.46C287.699 467.46 285.988 469.172 285.988 471.283C285.988 473.395 287.699 475.107 289.81 475.107Z" fill="#3F3D56" />
        <path d="M357.012 487.044C359.123 487.044 360.835 485.332 360.835 483.221C360.835 481.109 359.123 479.397 357.012 479.397C354.901 479.397 353.19 481.109 353.19 483.221C353.19 485.332 354.901 487.044 357.012 487.044Z" fill="#3F3D56" />
        <path d="M474.091 496.252C476.202 496.252 477.914 494.54 477.914 492.428C477.914 490.317 476.202 488.605 474.091 488.605C471.981 488.605 470.269 490.317 470.269 492.428C470.269 494.54 471.981 496.252 474.091 496.252Z" fill="#3F3D56" />
        <path d="M174.38 496.964C173.233 496.044 172.303 494.883 171.653 493.563C171.004 492.244 170.652 490.798 170.622 489.328C170.591 487.858 170.884 486.399 171.478 485.054C172.073 483.709 172.954 482.511 174.062 481.543L160.683 448.397L178.886 452.074L188.8 482.987C190.3 484.955 191.027 487.406 190.842 489.875C190.657 492.344 189.573 494.659 187.796 496.382C186.019 498.105 183.671 499.116 181.198 499.223C178.726 499.331 176.299 498.527 174.38 496.964Z" fill="#FFB8B8" />
        <path d="M174.158 482.603C173.171 482.674 172.189 482.419 171.363 481.877C170.536 481.334 169.91 480.535 169.581 479.603L147.924 417.865L143.295 356.273C143.168 354.578 143.378 352.875 143.915 351.262C144.451 349.649 145.303 348.159 146.42 346.879C147.537 345.598 148.898 344.553 150.423 343.803C151.948 343.053 153.606 342.614 155.302 342.511C156.998 342.408 158.698 342.643 160.302 343.204C161.907 343.764 163.383 344.637 164.647 345.773C165.911 346.91 166.936 348.286 167.664 349.822C168.391 351.358 168.805 353.023 168.883 354.721L171.475 410.971L188.472 473.21C188.765 474.302 188.638 475.464 188.117 476.467C187.596 477.471 186.719 478.242 185.657 478.631L175.353 482.346C174.968 482.485 174.566 482.572 174.158 482.603Z" fill="#3F3D56" />
        <path d="M575.719 427.9C575.315 427.723 574.939 427.488 574.603 427.203L554.462 410.232C553.978 409.824 553.583 409.32 553.304 408.752C553.024 408.183 552.866 407.564 552.838 406.931C552.811 406.298 552.914 405.667 553.143 405.077C553.372 404.486 553.721 403.95 554.168 403.501L572.444 385.143C573.212 384.366 574.233 383.89 575.322 383.804C576.411 383.717 577.494 384.025 578.375 384.671L592.196 394.71C593.059 395.338 593.676 396.246 593.94 397.279C594.204 398.313 594.1 399.406 593.644 400.37L581.687 425.66C581.178 426.735 580.271 427.571 579.157 427.989C578.043 428.407 576.81 428.375 575.719 427.9L575.719 427.9Z" fill="#CCCC56" />
        <path d="M654.276 667.936L642.247 671.21L623.898 626.355L641.652 621.524L654.276 667.936Z" fill="#FFB8B8" />
        <path d="M632.478 670.176L655.919 663.796L659.893 678.408L622.087 688.697L622.021 688.455C620.985 684.644 621.504 680.577 623.465 677.149C625.426 673.721 628.668 671.213 632.478 670.176Z" fill="#2F2E41" />
        <path d="M551.441 677.118L538.975 677.117L533.044 629.017L551.444 629.018L551.441 677.118Z" fill="#FFB8B8" />
        <path d="M529.819 673.554H554.113V688.696H514.933V688.445C514.933 684.496 516.501 680.708 519.293 677.915C522.085 675.123 525.871 673.554 529.819 673.554Z" fill="#2F2E41" />
        <path d="M570.221 359.539C584.014 359.539 595.196 348.353 595.196 334.556C595.196 320.758 584.014 309.573 570.221 309.573C556.428 309.573 545.246 320.758 545.246 334.556C545.246 348.353 556.428 359.539 570.221 359.539Z" fill="#FFB8B8" />
        <path d="M550.678 642.823H533.642C532.478 642.821 531.357 642.376 530.508 641.578C529.66 640.781 529.146 639.69 529.071 638.527C523.994 557.804 526.964 499.899 538.415 456.298C538.465 456.108 538.527 455.92 538.601 455.737L539.513 453.456C539.85 452.604 540.436 451.875 541.194 451.361C541.952 450.848 542.847 450.575 543.762 450.578H578.795C579.455 450.577 580.107 450.72 580.707 450.996C581.307 451.272 581.84 451.674 582.269 452.176L587.027 457.73C587.12 457.838 587.207 457.948 587.291 458.065C608.747 487.996 627.976 546.512 650.246 625.163C650.575 626.306 650.445 627.533 649.883 628.581C649.321 629.629 648.372 630.416 647.238 630.775L628.93 636.635C627.879 636.966 626.744 636.909 625.731 636.474C624.719 636.038 623.896 635.254 623.413 634.263L575.903 535.692C575.571 535.003 575.026 534.44 574.348 534.085C573.671 533.73 572.897 533.603 572.142 533.722C571.387 533.842 570.69 534.201 570.155 534.748C569.62 535.294 569.275 535.998 569.171 536.756L555.212 638.865C555.058 639.96 554.516 640.963 553.683 641.69C552.85 642.417 551.783 642.819 550.678 642.823Z" fill="#2F2E41" />
        <path d="M585.107 458.136C585.059 458.136 585.011 458.135 584.963 458.134L542.409 456.79C541.315 456.76 540.269 456.337 539.461 455.598C538.653 454.86 538.137 453.855 538.008 452.768C532.613 409.09 547.408 397.388 554.019 394.385C554.571 394.136 555.05 393.748 555.408 393.259C555.767 392.77 555.993 392.197 556.065 391.595L556.637 387.017C556.734 386.208 557.046 385.441 557.541 384.794C567.906 371.362 582.06 367.061 589.575 365.693C590.184 365.584 590.809 365.599 591.413 365.739C592.016 365.878 592.585 366.139 593.084 366.505C593.583 366.872 594.003 367.336 594.318 367.869C594.632 368.403 594.835 368.994 594.914 369.609L595.771 376.183C595.859 376.81 596.109 377.403 596.497 377.903C618.114 406.172 594.031 447.912 588.984 455.992C588.571 456.648 588 457.189 587.322 457.564C586.643 457.939 585.881 458.136 585.107 458.136Z" fill="#CCCC56" />
        <path d="M597.7 319.019C595.845 313.394 594.476 307.62 593.607 301.761C593.334 298.35 594.208 294.679 596.691 292.326C601.339 287.921 609.235 290.019 614.095 294.188C621.119 300.212 624.623 309.47 625.947 318.631C627.271 327.791 626.688 337.106 627.007 346.356C627.325 355.606 628.648 365.117 633.362 373.081C638.077 381.045 646.825 387.158 656.053 386.48C659.777 386.279 663.314 384.78 666.049 382.243C667.392 380.965 668.409 379.384 669.014 377.632C669.62 375.88 669.797 374.009 669.53 372.174C674.247 380.622 671.856 392.072 664.821 398.713C657.786 405.354 646.965 407.232 637.717 404.396C628.468 401.561 620.856 394.451 616.31 385.911C611.763 377.37 610.097 367.504 610.338 357.831C610.524 350.403 611.786 342.914 610.531 335.59C609.276 328.266 604.694 320.83 597.469 319.106L597.7 319.019Z" fill="#2F2E41" />
        <path d="M565.253 328.647C564.021 332.764 559.309 335.302 555.07 334.606C552.96 334.167 551.008 333.165 549.421 331.706C547.835 330.247 546.672 328.385 546.058 326.319C544.893 322.132 545.37 317.659 547.391 313.811C548.504 311.505 550.061 309.442 551.973 307.738C553.884 306.035 556.113 304.726 558.531 303.885C560.963 303.079 563.553 302.869 566.083 303.273C568.613 303.678 571.008 304.684 573.068 306.208C573.287 305.284 573.749 304.434 574.406 303.747C575.062 303.06 575.89 302.561 576.804 302.3C578.644 301.804 580.586 301.833 582.41 302.383C587.668 303.882 592.223 307.197 595.267 311.739C598.272 316.268 600.26 321.394 601.094 326.765C602.529 334.819 602 343.62 597.478 350.437C592.955 357.254 583.704 361.279 576.198 358.029C575.73 355.636 576.839 353.226 578.121 351.152C579.404 349.078 580.924 347.058 581.417 344.669C581.91 342.281 580.965 339.359 578.655 338.578C576.685 337.912 574.584 338.992 572.509 339.122C571.33 339.196 570.152 338.959 569.094 338.434C568.036 337.909 567.134 337.115 566.48 336.131C565.825 335.148 565.441 334.01 565.365 332.83C565.289 331.651 565.525 330.473 566.048 329.414L565.253 328.647Z" fill="#2F2E41" />
        <path d="M501.956 431.567C502.369 431.949 502.751 432.363 503.099 432.805L553.376 428.891L558.678 417.843L576.392 423.667L566.811 449.87L503.478 445.618C502.227 447.389 500.467 448.736 498.432 449.481C496.397 450.226 494.183 450.333 492.085 449.789C489.987 449.245 488.105 448.075 486.688 446.434C485.271 444.794 484.387 442.761 484.153 440.605C483.92 438.45 484.348 436.275 485.38 434.369C486.413 432.463 488.001 430.916 489.933 429.935C491.866 428.954 494.051 428.584 496.199 428.876C498.346 429.167 500.354 430.106 501.956 431.566V431.567Z" fill="#FFB8B8" />
        <path d="M576.119 441.12C575.695 440.999 575.291 440.818 574.918 440.582L552.653 426.514C552.118 426.176 551.659 425.73 551.305 425.206C550.95 424.681 550.709 424.088 550.595 423.466C550.482 422.843 550.498 422.203 550.645 421.587C550.791 420.971 551.063 420.392 551.445 419.887L567.05 399.208C567.704 398.334 568.651 397.723 569.718 397.489C570.785 397.255 571.9 397.412 572.861 397.932L587.921 405.994C588.861 406.497 589.596 407.313 589.999 408.301C590.401 409.289 590.447 410.386 590.127 411.403L581.727 438.087C581.369 439.222 580.584 440.173 579.537 440.739C578.49 441.306 577.265 441.442 576.119 441.12Z" fill="#CCCC56" />
        <g clip-path="url(#clip1_64_316)">
            <path fill-rule="evenodd" clip-rule="evenodd" d="M439.278 41V45.0144C437.937 46.3424 436.826 47.8772 436 49.5594V41H439.278Z" fill="#CCCC56" />
            <path fill-rule="evenodd" clip-rule="evenodd" d="M467.139 41V49.5602C466.899 49.0726 466.635 48.5982 466.35 48.1378C466.101 47.7336 465.834 47.3419 465.551 46.9612C465.039 46.2722 464.473 45.6223 463.861 45.0144V41H467.139Z" fill="#CCCC56" />
            <path fill-rule="evenodd" clip-rule="evenodd" d="M494.999 41V56.6052C494.999 60.2154 493.776 63.5409 491.723 66.1844C488.873 69.8501 484.426 72.2104 479.431 72.2104C479.156 72.2104 478.885 72.2025 478.614 72.1908H478.612C473.979 71.9497 469.882 69.6776 467.19 66.2507C467.172 66.2281 467.155 66.2063 467.139 66.1852C466.862 65.8271 466.598 65.4564 466.35 65.0725C466.04 64.5942 465.756 64.0957 465.5 63.5807C464.873 62.3268 464.411 60.9746 464.138 59.5546H467.514C467.661 60.1413 467.854 60.7109 468.083 61.2602C468.35 61.8969 468.673 62.5071 469.043 63.0829C471.218 66.4856 475.058 68.7444 479.435 68.7444C486.219 68.7444 491.722 63.3084 491.722 56.606V41H494.999Z" fill="#CCCC56" />
            <path fill-rule="evenodd" clip-rule="evenodd" d="M440.763 54.8722H463.737C463.588 53.8524 463.314 52.874 462.925 51.9525C461.076 47.5589 456.688 44.4675 451.568 44.4675C444.78 44.4675 439.278 49.9028 439.278 56.6052C439.278 63.3076 444.781 68.7437 451.568 68.7437C456.688 68.7437 461.077 65.6515 462.925 61.2579C463.175 62.0623 463.49 62.8379 463.861 63.5807C464.107 64.0793 464.382 64.5607 464.681 65.0257C464.425 65.4252 464.15 65.8107 463.861 66.1852C463.126 67.1316 462.285 67.9884 461.355 68.7437C458.681 70.912 455.276 72.2104 451.568 72.2104C447.861 72.2104 444.457 70.912 441.782 68.7437C440.852 67.9876 440.011 67.1316 439.278 66.1852C437.223 63.5409 436 60.2154 436 56.6052C436 52.9949 437.223 49.6695 439.278 47.0267C440.012 46.081 440.853 45.2212 441.782 44.4675C444.457 42.2991 447.861 41 451.568 41C455.276 41 458.681 42.2991 461.354 44.4675C462.285 45.2212 463.126 46.0803 463.861 47.0267C464.149 47.3997 464.424 47.7867 464.68 48.1846C464.977 48.6497 465.25 49.1311 465.499 49.6289C466.303 51.237 466.836 53.0043 467.043 54.8722C467.106 55.4395 467.138 56.0184 467.138 56.6052C467.138 57.1919 467.106 57.7709 467.043 58.3397H440.763V54.8722Z" fill="#CCCC56" />
        </g>
    </g>
    <defs>
        <filter id="filter0_d_64_316" x="438.112" y="83.8313" width="55.3176" height="58.2009" filterUnits="userSpaceOnUse" color-interpolation-filters="sRGB">
            <feFlood flood-opacity="0" result="BackgroundImageFix" />
            <feColorMatrix in="SourceAlpha" type="matrix" values="0 0 0 0 0 0 0 0 0 0 0 0 0 0 0 0 0 0 127 0" result="hardAlpha" />
            <feOffset dy="4" />
            <feGaussianBlur stdDeviation="2" />
            <feComposite in2="hardAlpha" operator="out" />
            <feColorMatrix type="matrix" values="0 0 0 0 0 0 0 0 0 0 0 0 0 0 0 0 0 0 0.25 0" />
            <feBlend mode="normal" in2="BackgroundImageFix" result="effect1_dropShadow_64_316" />
            <feBlend mode="normal" in="SourceGraphic" in2="effect1_dropShadow_64_316" result="shape" />
        </filter>
        <clipPath id="clip0_64_316">
            <rect width="762" height="690" fill="white" />
        </clipPath>
        <clipPath id="clip1_64_316">
            <rect width="59" height="31.2104" fill="white" transform="translate(436 41)" />
        </clipPath>
    </defs>
</svg>
