<svg width="404" height="228" viewBox="0 0 404 228" fill="none" xmlns="http://www.w3.org/2000/svg">
    <g filter="url(#filter0_dd_46_96)">
        <path d="M161.558 128.721V94.4873H172.029C177.257 94.4873 181.448 96.0651 184.604 99.2207C187.791 102.376 189.385 106.504 189.385 111.604C189.385 116.736 187.791 120.88 184.604 124.035C181.448 127.159 177.257 128.721 172.029 128.721H161.558ZM165.957 98.6948V124.514H172.029C176.013 124.514 179.153 123.382 181.448 121.119C183.743 118.824 184.891 115.652 184.891 111.604C184.891 107.588 183.743 104.432 181.448 102.137C179.153 99.8423 176.013 98.6948 172.029 98.6948H165.957Z" fill="#959595" />
        <path d="M197.054 121.549C197.054 122.697 197.533 123.653 198.489 124.418C199.477 125.183 200.624 125.565 201.931 125.565C203.78 125.565 205.422 124.88 206.856 123.51C208.322 122.139 209.055 120.529 209.055 118.68C207.685 117.597 205.772 117.055 203.318 117.055C201.533 117.055 200.035 117.485 198.823 118.346C197.644 119.206 197.054 120.274 197.054 121.549ZM202.744 104.528C205.995 104.528 208.561 105.404 210.442 107.158C212.323 108.879 213.263 111.254 213.263 114.282V128.721H209.055V125.47H208.864C207.047 128.147 204.625 129.486 201.597 129.486C199.015 129.486 196.847 128.721 195.094 127.191C193.373 125.661 192.512 123.749 192.512 121.454C192.512 119.031 193.421 117.103 195.238 115.668C197.086 114.234 199.541 113.517 202.601 113.517C205.214 113.517 207.366 113.995 209.055 114.951V113.947C209.055 112.417 208.45 111.126 207.238 110.074C206.027 108.99 204.609 108.449 202.983 108.449C200.529 108.449 198.584 109.484 197.15 111.556L193.277 109.118C195.413 106.058 198.568 104.528 202.744 104.528Z" fill="#959595" />
        <path d="M227.033 129.104C225.12 129.104 223.527 128.514 222.252 127.335C221.009 126.155 220.371 124.514 220.339 122.41V109.309H216.227V105.293H220.339V98.121H224.738V105.293H230.475V109.309H224.738V120.975C224.738 122.537 225.041 123.605 225.646 124.179C226.252 124.721 226.937 124.992 227.702 124.992C228.053 124.992 228.388 124.96 228.706 124.896C229.057 124.8 229.376 124.689 229.663 124.561L231.049 128.482C229.902 128.896 228.563 129.104 227.033 129.104Z" fill="#959595" />
        <path d="M237.396 121.549C237.396 122.697 237.874 123.653 238.831 124.418C239.819 125.183 240.966 125.565 242.273 125.565C244.122 125.565 245.763 124.88 247.198 123.51C248.664 122.139 249.397 120.529 249.397 118.68C248.027 117.597 246.114 117.055 243.66 117.055C241.875 117.055 240.377 117.485 239.165 118.346C237.986 119.206 237.396 120.274 237.396 121.549ZM243.086 104.528C246.337 104.528 248.903 105.404 250.784 107.158C252.664 108.879 253.605 111.254 253.605 114.282V128.721H249.397V125.47H249.206C247.389 128.147 244.967 129.486 241.938 129.486C239.357 129.486 237.189 128.721 235.436 127.191C233.715 125.661 232.854 123.749 232.854 121.454C232.854 119.031 233.762 117.103 235.579 115.668C237.428 114.234 239.882 113.517 242.942 113.517C245.556 113.517 247.708 113.995 249.397 114.951V113.947C249.397 112.417 248.792 111.126 247.58 110.074C246.369 108.99 244.951 108.449 243.325 108.449C240.871 108.449 238.926 109.484 237.492 111.556L233.619 109.118C235.755 106.058 238.91 104.528 243.086 104.528Z" fill="#959595" />
        <path d="M289.522 119.589C289.522 122.585 288.423 124.992 286.223 126.809C283.992 128.594 281.283 129.486 278.095 129.486C275.258 129.486 272.756 128.657 270.589 127C268.421 125.342 266.923 123.079 266.094 120.21L270.302 118.489C270.589 119.509 270.987 120.434 271.497 121.262C272.007 122.091 272.597 122.808 273.266 123.414C273.967 123.988 274.732 124.45 275.561 124.8C276.39 125.119 277.266 125.279 278.191 125.279C280.199 125.279 281.84 124.769 283.115 123.749C284.39 122.697 285.028 121.31 285.028 119.589C285.028 118.154 284.502 116.927 283.45 115.907C282.462 114.919 280.613 113.963 277.904 113.039C275.163 112.05 273.457 111.381 272.788 111.03C269.154 109.182 267.337 106.456 267.337 102.854C267.337 100.336 268.341 98.1848 270.35 96.3998C272.39 94.6148 274.892 93.7223 277.856 93.7223C280.47 93.7223 282.733 94.3917 284.645 95.7304C286.558 97.0373 287.833 98.6789 288.47 100.655L284.359 102.376C283.976 101.101 283.211 100.049 282.064 99.2207C280.948 98.3601 279.577 97.9298 277.952 97.9298C276.23 97.9298 274.78 98.4079 273.601 99.3642C272.421 100.257 271.832 101.42 271.832 102.854C271.832 104.034 272.294 105.054 273.218 105.914C274.238 106.775 276.454 107.795 279.864 108.974C283.339 110.154 285.809 111.604 287.275 113.325C288.773 115.015 289.522 117.103 289.522 119.589Z" fill="#959595" />
        <path d="M302.113 129.104C300.201 129.104 298.607 128.514 297.332 127.335C296.089 126.155 295.452 124.514 295.42 122.41V109.309H291.308V105.293H295.42V98.121H299.818V105.293H305.556V109.309H299.818V120.975C299.818 122.537 300.121 123.605 300.727 124.179C301.333 124.721 302.018 124.992 302.783 124.992C303.133 124.992 303.468 124.96 303.787 124.896C304.138 124.8 304.456 124.689 304.743 124.561L306.13 128.482C304.982 128.896 303.643 129.104 302.113 129.104Z" fill="#959595" />
        <path d="M330.3 128.721H326.092V125.47H325.901C325.232 126.617 324.196 127.574 322.793 128.339C321.423 129.104 319.988 129.486 318.49 129.486C315.621 129.486 313.406 128.673 311.844 127.048C310.314 125.39 309.549 123.047 309.549 120.019V105.293H313.948V119.732C314.043 123.557 315.972 125.47 319.733 125.47C321.486 125.47 322.953 124.769 324.132 123.366C325.311 121.932 325.901 120.226 325.901 118.25V105.293H330.3V128.721Z" fill="#959595" />
        <path d="M345.94 125.47C348.107 125.47 349.876 124.689 351.247 123.127C352.681 121.565 353.398 119.525 353.398 117.007C353.398 114.553 352.681 112.529 351.247 110.935C349.844 109.341 348.075 108.544 345.94 108.544C343.836 108.544 342.067 109.341 340.632 110.935C339.198 112.529 338.481 114.553 338.481 117.007C338.481 119.493 339.198 121.517 340.632 123.079C342.067 124.673 343.836 125.47 345.94 125.47ZM345.222 129.486C342.162 129.486 339.533 128.275 337.333 125.852C335.166 123.398 334.082 120.449 334.082 117.007C334.082 113.564 335.166 110.616 337.333 108.162C339.533 105.739 342.162 104.528 345.222 104.528C346.944 104.528 348.506 104.894 349.908 105.628C351.342 106.361 352.442 107.333 353.207 108.544H353.398L353.207 105.293V94.4873H357.606V128.721H353.398V125.47H353.207C352.442 126.681 351.342 127.653 349.908 128.386C348.506 129.12 346.944 129.486 345.222 129.486Z" fill="#959595" />
        <path d="M368.659 97.2126C368.659 98.0732 368.356 98.8064 367.75 99.412C367.145 100.018 366.412 100.32 365.551 100.32C364.69 100.32 363.957 100.018 363.352 99.412C362.746 98.8064 362.443 98.0732 362.443 97.2126C362.443 96.352 362.746 95.6189 363.352 95.0132C363.957 94.4076 364.69 94.1048 365.551 94.1048C366.412 94.1048 367.145 94.4076 367.75 95.0132C368.356 95.6189 368.659 96.352 368.659 97.2126ZM367.75 105.293V128.721H363.352V105.293H367.75Z" fill="#959595" />
        <path d="M371.903 117.007C371.903 113.405 373.034 110.425 375.297 108.066C377.592 105.707 380.477 104.528 383.951 104.528C387.426 104.528 390.294 105.707 392.558 108.066C394.853 110.425 396 113.405 396 117.007C396 120.641 394.853 123.621 392.558 125.948C390.294 128.307 387.426 129.486 383.951 129.486C380.477 129.486 377.592 128.307 375.297 125.948C373.034 123.589 371.903 120.609 371.903 117.007ZM376.301 117.007C376.301 119.525 377.034 121.565 378.501 123.127C379.967 124.689 381.784 125.47 383.951 125.47C386.119 125.47 387.936 124.689 389.402 123.127C390.868 121.565 391.601 119.525 391.601 117.007C391.601 114.521 390.868 112.497 389.402 110.935C387.904 109.341 386.087 108.544 383.951 108.544C381.816 108.544 379.999 109.341 378.501 110.935C377.034 112.497 376.301 114.521 376.301 117.007Z" fill="#959595" />
    </g>
    <g filter="url(#filter1_dd_46_96)">
        <path d="M126.647 141.112H78.6579C67.0381 141.112 60.5635 149.129 60.5635 157.633C60.5635 165.5 66.0705 174.154 78.6579 174.154H126.647V141.112Z" fill="#669DF6" />
        <path d="M126.647 174.154C135.772 174.154 143.168 166.757 143.168 157.633C143.168 148.509 135.772 141.112 126.647 141.112C117.523 141.112 110.126 148.509 110.126 157.633C110.126 166.757 117.523 174.154 126.647 174.154Z" fill="#1A73E8" />
        <path d="M77.084 97.056H29.0944C17.4747 97.056 11 105.073 11 113.577C11 121.444 16.507 130.098 29.0944 130.098H77.084V97.056Z" fill="#669DF6" />
        <path d="M77.084 130.098C86.2083 130.098 93.605 122.701 93.605 113.577C93.605 104.453 86.2083 97.056 77.084 97.056C67.9597 97.056 60.563 104.453 60.563 113.577C60.563 122.701 67.9597 130.098 77.084 130.098Z" fill="#1A73E8" />
        <path d="M126.647 53H78.6579C67.0381 53 60.5635 61.0166 60.5635 69.521C60.5635 77.3881 66.0705 86.042 78.6579 86.042H126.647V53Z" fill="#669DF6" />
        <path d="M126.647 86.042C135.772 86.042 143.168 78.6453 143.168 69.521C143.168 60.3967 135.772 53 126.647 53C117.523 53 110.126 60.3967 110.126 69.521C110.126 78.6453 117.523 86.042 126.647 86.042Z" fill="#1A73E8" />
    </g>
    <defs>
        <filter id="filter0_dd_46_96" x="153.558" y="87.7223" width="250.442" height="51.7638" filterUnits="userSpaceOnUse" color-interpolation-filters="sRGB">
            <feFlood flood-opacity="0" result="BackgroundImageFix" />
            <feColorMatrix in="SourceAlpha" type="matrix" values="0 0 0 0 0 0 0 0 0 0 0 0 0 0 0 0 0 0 127 0" result="hardAlpha" />
            <feOffset dy="1" />
            <feGaussianBlur stdDeviation="1" />
            <feColorMatrix type="matrix" values="0 0 0 0 0 0 0 0 0 0 0 0 0 0 0 0 0 0 0.3 0" />
            <feBlend mode="normal" in2="BackgroundImageFix" result="effect1_dropShadow_46_96" />
            <feColorMatrix in="SourceAlpha" type="matrix" values="0 0 0 0 0 0 0 0 0 0 0 0 0 0 0 0 0 0 127 0" result="hardAlpha" />
            <feMorphology radius="2" operator="dilate" in="SourceAlpha" result="effect2_dropShadow_46_96" />
            <feOffset dy="2" />
            <feGaussianBlur stdDeviation="3" />
            <feColorMatrix type="matrix" values="0 0 0 0 0 0 0 0 0 0 0 0 0 0 0 0 0 0 0.15 0" />
            <feBlend mode="normal" in2="effect1_dropShadow_46_96" result="effect2_dropShadow_46_96" />
            <feBlend mode="normal" in="SourceGraphic" in2="effect2_dropShadow_46_96" result="shape" />
        </filter>
        <filter id="filter1_dd_46_96" x="0" y="46" width="154.168" height="143.154" filterUnits="userSpaceOnUse" color-interpolation-filters="sRGB">
            <feFlood flood-opacity="0" result="BackgroundImageFix" />
            <feColorMatrix in="SourceAlpha" type="matrix" values="0 0 0 0 0 0 0 0 0 0 0 0 0 0 0 0 0 0 127 0" result="hardAlpha" />
            <feOffset dy="1" />
            <feGaussianBlur stdDeviation="1.5" />
            <feColorMatrix type="matrix" values="0 0 0 0 0 0 0 0 0 0 0 0 0 0 0 0 0 0 0.3 0" />
            <feBlend mode="normal" in2="BackgroundImageFix" result="effect1_dropShadow_46_96" />
            <feColorMatrix in="SourceAlpha" type="matrix" values="0 0 0 0 0 0 0 0 0 0 0 0 0 0 0 0 0 0 127 0" result="hardAlpha" />
            <feMorphology radius="3" operator="dilate" in="SourceAlpha" result="effect2_dropShadow_46_96" />
            <feOffset dy="4" />
            <feGaussianBlur stdDeviation="4" />
            <feColorMatrix type="matrix" values="0 0 0 0 0 0 0 0 0 0 0 0 0 0 0 0 0 0 0.15 0" />
            <feBlend mode="normal" in2="effect1_dropShadow_46_96" result="effect2_dropShadow_46_96" />
            <feBlend mode="normal" in="SourceGraphic" in2="effect2_dropShadow_46_96" result="shape" />
        </filter>
    </defs>
</svg>
