<svg width="241" height="260" viewBox="0 0 241 260" fill="none" xmlns="http://www.w3.org/2000/svg">
    <g clip-path="url(#clip0_51693_6159)">
        <rect x="37.5" y="0.5" width="203" height="199" fill="white" stroke="#76767F" />
        <g clip-path="url(#clip1_51693_6159)">
            <path d="M71.047 244.443L75.6218 244.442L77.7978 226.798H71.0463L71.047 244.443Z" fill="#FFB6B6" />
            <path d="M71.1692 242.949L76.0534 240.962L76.1933 240.905L78.89 242.949C80.4126 242.949 81.8728 243.554 82.9495 244.63C84.0261 245.707 84.6311 247.167 84.6313 248.69V248.876H69.8817V242.949H71.1692Z" fill="#2F2E41" />
            <path d="M29.7126 238.495L33.8068 240.536L43.6259 225.714L37.583 222.703L29.7126 238.495Z" fill="#FFB6B6" />
            <path d="M29.3338 236.637L30.3809 237.157L30.4885 237.211L35.7385 237.616L35.8963 237.627L37.3989 240.657C38.0737 240.993 38.6757 241.459 39.1703 242.028C39.665 242.597 40.0427 243.258 40.2818 243.973C40.5209 244.688 40.6168 245.443 40.5639 246.195C40.5111 246.948 40.3105 247.682 39.9737 248.356L39.8913 248.521L26.6908 241.945L29.3338 236.637Z" fill="#2F2E41" />
            <path d="M74.1497 149.603L48.9247 150.486L48.7489 150.23C48.7489 150.23 46.5972 155.251 46.5972 159.554C46.5972 160.985 47.5923 170.343 47.0865 172.113C47.0235 172.333 47.4564 172.873 47.3145 173.898C47.2224 174.564 46.7141 174.052 46.5972 174.974C46.5134 175.636 47.4081 176.002 47.3145 176.767C47.2122 177.604 45.9816 180.314 45.8708 181.244C44.6914 191.151 43.1212 205.503 43.1212 205.503C43.1212 205.503 36.8145 222.395 35.4803 222.669C33.241 223.13 31.7291 227.202 32.9701 228.048C33.561 228.452 41.1982 231.164 41.1982 231.164C41.6178 231.24 42.9306 230.582 42.0943 229.025C41.9404 228.738 42.8585 229.467 43.0111 229.124C43.1734 228.759 42.8549 227.307 43.0407 226.902C44.7098 223.265 47.2724 218.224 49.7008 215.635C53.2889 211.811 55.5612 206.941 56.1861 201.734L61.7562 170.849L63.6653 179.51L65.2449 181.071L64.8116 184.71L64.8863 188.243L68.831 202.946C68.831 202.946 69.4226 230.404 68.4724 231.276C67.9578 231.748 65.774 237.565 69.9069 238.089L77.4155 237.51C77.4155 237.51 78.4272 235.378 77.9214 234.619C77.4155 233.861 77.4458 234.068 78.063 232.826C78.6802 231.584 78.4272 229.48 78.4272 229.48C79.4108 219.592 79.7989 209.653 79.5893 199.718C79.2129 183.4 76.9319 164.655 76.9319 164.273C76.9128 163.882 76.9847 163.493 77.142 163.135V162.105L76.1731 158.455L74.1497 149.603Z" fill="#2F2E41" />
            <path d="M38.652 152.687C33.1501 152.687 28.6898 148.227 28.6898 142.725C28.6898 137.223 33.1501 132.763 38.652 132.763C44.154 132.763 48.6142 137.223 48.6142 142.725C48.6142 148.227 44.154 152.687 38.652 152.687Z" fill="#cccc56" />
            <path d="M40.0111 147.91C40.1831 147.91 40.3528 147.87 40.5066 147.793C40.6605 147.716 40.7943 147.604 40.8975 147.467L43.6153 143.843C43.7026 143.726 43.7662 143.594 43.8023 143.453C43.8384 143.312 43.8464 143.165 43.8258 143.021C43.8052 142.877 43.7565 142.738 43.6823 142.613C43.6082 142.488 43.5101 142.379 43.3937 142.291C43.2772 142.204 43.1448 142.141 43.0038 142.104C42.8628 142.068 42.7161 142.06 42.572 142.081C42.428 142.101 42.2894 142.15 42.1642 142.224C42.039 142.299 41.9296 142.397 41.8423 142.513L40.0642 144.884L35.4974 138.033C35.4167 137.912 35.3129 137.808 35.192 137.727C35.0711 137.646 34.9353 137.589 34.7926 137.561C34.6498 137.532 34.5028 137.532 34.3599 137.56C34.2171 137.588 34.0812 137.645 33.96 137.725C33.8389 137.806 33.7348 137.91 33.6538 138.031C33.5728 138.152 33.5165 138.288 33.488 138.431C33.4595 138.573 33.4594 138.72 33.4878 138.863C33.5161 139.006 33.5724 139.142 33.6532 139.263L39.0889 147.416C39.1872 147.564 39.3195 147.686 39.4746 147.771C39.6297 147.857 39.8031 147.905 39.9802 147.91C39.9905 147.91 40.0008 147.91 40.0111 147.91Z" fill="white" />
            <path d="M33.7259 153.257C33.6288 152.849 33.6222 152.426 33.7066 152.016C33.7909 151.605 33.9642 151.219 34.2142 150.883C34.4642 150.547 34.7848 150.27 35.1535 150.071C35.5222 149.872 35.9299 149.757 36.348 149.733L41.4526 132.341L44.9058 136.348L39.4118 152.632C39.4057 153.337 39.1411 154.016 38.6682 154.539C38.1954 155.062 37.5471 155.393 36.8462 155.47C36.1453 155.547 35.4406 155.364 34.8655 154.956C34.2904 154.548 33.8849 153.944 33.7259 153.257V153.257Z" fill="#FFB8B8" />
            <path d="M37.3272 144.772L37.9906 142.341L37.2304 140.888L37.2877 140.72L37.5173 140.067L38.7078 139.113L38.2811 137.898L39.7873 133.619L40.1566 132.877L48.8027 115.517L50.8754 111.353L51.356 110.6L52.8514 108.255L54.8955 105.053C55.2204 104.541 55.644 104.099 56.1414 103.752C56.6389 103.405 57.2003 103.161 57.793 103.034C57.9846 102.991 58.1786 102.962 58.374 102.944L58.5138 102.933C58.8629 102.914 59.213 102.934 59.5574 102.994H59.5646C60.1715 103.099 60.7502 103.329 61.2644 103.668C61.6691 103.93 62.0297 104.255 62.333 104.629C63.0311 105.495 63.3939 106.584 63.355 107.695L63.2905 109.446L63.2259 111.038L60.1921 116.524L59.9949 116.883L59.9913 116.894L50.6567 133.784L47.8416 138.877L47.4149 139.651L45.5214 140.906L46.027 142.169L45.88 144.134L44.2699 145.349L41.9353 147.72L41.8421 147.914L41.1249 147.551L41.0567 147.515L40.8953 147.469L38.6756 146.798L37.3272 146.393L37.2842 146.379L36.9148 146.285L37.3272 144.772Z" fill="#cccc56" />
            <path d="M-1.04756 223.723C-0.371405 222.864 0.546802 222.226 1.58867 221.893C2.63054 221.56 3.74829 221.547 4.79777 221.855L5.02728 221.923L7.0857 229.96C7.3941 228.762 8.05394 226.058 8.46992 223.411L8.5058 223.193L8.71018 223.282C10.8621 224.234 12.8852 225.453 14.7312 226.911C18.0018 229.535 20.6619 232.839 22.5266 236.595C24.3912 240.35 25.4158 244.466 25.5289 248.658L25.5325 248.812L25.5361 248.909L25.2636 248.812L19.4147 246.721C16.8251 246.949 14.2173 246.596 11.7815 245.688C9.34576 244.78 7.14357 243.339 5.33568 241.471C2.97245 238.979 1.35154 235.773 -0.21558 232.671C-0.6746 231.767 -1.14437 230.835 -1.62491 229.938C-2.16098 228.963 -2.39252 227.85 -2.2896 226.742C-2.18668 225.634 -1.75404 224.583 -1.04756 223.723V223.723Z" fill="#F2F2F2" />
            <path d="M130 63.4068V62.6896H97.8882V63.4068H130Z" fill="#3F3D56" />
            <path d="M89.9332 70.9243C84.4312 70.9243 79.971 66.4641 79.971 60.9622C79.971 55.4602 84.4312 51 89.9332 51C95.4351 51 99.8953 55.4602 99.8953 60.9622C99.8953 66.4641 95.4351 70.9243 89.9332 70.9243Z" fill="#cccc56" />
            <path d="M91.2922 66.1471C91.4642 66.1471 91.6339 66.107 91.7878 66.03C91.9416 65.9531 92.0754 65.8414 92.1786 65.7037L94.8965 62.0799C94.9838 61.9635 95.0473 61.831 95.0834 61.69C95.1195 61.549 95.1275 61.4023 95.1069 61.2583C95.0864 61.1142 95.0376 60.9756 94.9635 60.8504C94.8893 60.7252 94.7912 60.6158 94.6748 60.5285C94.5584 60.4412 94.4259 60.3777 94.2849 60.3416C94.144 60.3055 93.9972 60.2975 93.8532 60.318C93.7091 60.3386 93.5705 60.3874 93.4453 60.4615C93.3201 60.5357 93.2107 60.6338 93.1234 60.7502L91.3453 63.1208L86.7785 56.2707C86.6978 56.1494 86.5941 56.0453 86.4731 55.9642C86.3522 55.8831 86.2165 55.8266 86.0737 55.798C85.9309 55.7694 85.7839 55.7692 85.6411 55.7974C85.4982 55.8256 85.3623 55.8817 85.2411 55.9625C85.12 56.0433 85.0159 56.1471 84.935 56.2681C84.854 56.3891 84.7976 56.5249 84.7691 56.6677C84.7406 56.8105 84.7405 56.9575 84.7689 57.1003C84.7972 57.2432 84.8535 57.379 84.9344 57.5001L90.37 65.6536C90.4684 65.801 90.6006 65.9228 90.7557 66.0086C90.9108 66.0944 91.0842 66.1417 91.2614 66.1467C91.2716 66.1469 91.2819 66.1471 91.2922 66.1471Z" fill="white" />
            <path d="M180.075 121H180.793V148.628H128.917V147.911H180.075V121Z" fill="#3F3D56" />
            <path d="M120.962 158.609C115.46 158.609 111 154.149 111 148.647C111 143.145 115.46 138.685 120.962 138.685C126.464 138.685 130.924 143.145 130.924 148.647C130.924 154.149 126.464 158.609 120.962 158.609Z" fill="#cccc56" />
            <path d="M122.321 153.832C122.493 153.832 122.663 153.792 122.817 153.715C122.971 153.638 123.104 153.526 123.208 153.389L125.925 149.765C126.013 149.648 126.076 149.516 126.112 149.375C126.149 149.234 126.157 149.087 126.136 148.943C126.115 148.799 126.067 148.66 125.992 148.535C125.918 148.41 125.82 148.301 125.704 148.213C125.587 148.126 125.455 148.063 125.314 148.026C125.173 147.99 125.026 147.982 124.882 148.003C124.738 148.023 124.6 148.072 124.474 148.146C124.349 148.221 124.24 148.319 124.152 148.435L122.374 150.806L117.808 143.955C117.727 143.834 117.623 143.73 117.502 143.649C117.381 143.568 117.246 143.511 117.103 143.483C116.96 143.454 116.813 143.454 116.67 143.482C116.527 143.51 116.391 143.567 116.27 143.647C116.149 143.728 116.045 143.832 115.964 143.953C115.883 144.074 115.827 144.21 115.798 144.353C115.77 144.495 115.77 144.642 115.798 144.785C115.826 144.928 115.883 145.064 115.963 145.185L121.399 153.338C121.497 153.486 121.63 153.608 121.785 153.693C121.94 153.779 122.113 153.827 122.29 153.832C122.301 153.832 122.311 153.832 122.321 153.832Z" fill="white" />
            <path d="M46.2386 158.41C46.2282 159.165 46.3496 159.916 46.5972 160.63L46.651 160.619C53.0202 161.721 58.7018 161.901 61.3301 157.991C64.7591 153.625 69.4759 153.674 74.7373 155.591L75.3613 154.917L76.4227 153.773L75.4473 152.669L76.4227 150.539L75.6087 147.91L74.5688 147.72L74.8485 145.457L75.286 144.134L74.0022 142.724L72.912 139.207L73.6973 131.844C74.7721 121.753 72.6897 111.576 67.7373 102.718L64.7572 100.043L63.52 98.9312L61.8597 95.8328L60.106 96.0372L55.3581 96.5858L55.1967 96.9731L54.0312 99.7846L47.8918 106.379L48.168 109.162L48.2899 110.389L48.3795 111.271L48.8027 115.517L50.5276 132.863L50.6567 133.784L52.0445 143.757C49.7889 145.938 47.795 150.137 46.8375 153.974C46.7299 154.401 47.0348 154.835 46.9559 155.251C46.8447 155.839 46.3606 156.398 46.3068 156.947C46.2567 157.433 46.2339 157.921 46.2386 158.41V158.41Z" fill="#cccc56" />
            <path d="M58.3985 94.7222C53.844 94.7222 50.1518 91.03 50.1518 86.4755C50.1518 81.921 53.844 78.2289 58.3985 78.2289C62.953 78.2289 66.6452 81.921 66.6452 86.4755C66.6452 91.03 62.953 94.7222 58.3985 94.7222Z" fill="#FFB6B6" />
            <path d="M48.4574 84.2258C48.9455 82.7042 50.2843 81.4167 51.8734 81.2485C51.753 80.2379 51.9121 79.2136 52.3335 78.2871C52.7549 77.3607 53.4224 76.5677 54.2634 75.9943C55.1043 75.421 56.0864 75.0893 57.1027 75.0355C58.119 74.9817 59.1307 75.2077 60.0274 75.689C60.2179 75.46 60.4643 75.2842 60.7427 75.1784C61.0211 75.0726 61.3221 75.0404 61.6166 75.0851C62.2053 75.1821 62.7603 75.4253 63.2307 75.7923C64.399 76.6468 65.3138 77.8022 65.8776 79.1353C66.4414 80.4685 66.6332 81.9296 66.4325 83.3631C66.4361 82.6359 66.114 84.0428 65.1904 84.1671C64.4204 84.3219 63.6877 84.6242 63.0325 85.0571C62.3775 85.4901 61.647 85.7962 60.879 85.9598C60.104 86.0732 59.9041 89.1801 60.4577 91.1812C60.5627 91.5604 60.616 92.0692 60.2664 92.2499C59.836 92.4725 59.4009 91.9129 58.9194 91.8584C58.7033 91.855 58.4944 91.9356 58.3366 92.0832C58.1788 92.2308 58.0845 92.434 58.0735 92.6498C58.0731 92.8663 58.1244 93.0797 58.2231 93.2724C58.3218 93.4651 58.4652 93.6314 58.6411 93.7576C58.9951 94.0062 59.387 94.196 59.8015 94.3197L59.6624 94.5171C59.5408 94.7427 59.3445 94.919 59.1071 95.0158C58.8697 95.1125 58.6061 95.1237 58.3614 95.0474C57.8099 95.7125 52.127 93.8656 51.8499 92.6515C50.6598 91.5792 49.6713 90.3023 48.9314 88.8814C48.1921 87.4448 48.0228 85.7819 48.4574 84.2258V84.2258Z" fill="#2F2E41" />
            <path d="M41.7883 109.342C41.903 110.303 42.8031 111.02 43.7499 111.221C44.2313 111.313 44.7251 111.322 45.2094 111.246C45.6825 111.175 46.1499 111.071 46.608 110.934C47.1746 110.772 47.7352 110.591 48.2899 110.389C49.8743 109.823 51.4016 109.109 52.8514 108.255C53.9477 107.615 54.9974 106.898 55.9928 106.11C56.5092 105.702 57.0101 105.275 57.4954 104.83L56.8893 105.117C57.4308 104.389 57.9723 103.661 58.5138 102.933C59.0374 102.23 59.5598 101.527 60.0809 100.825C60.1132 100.782 60.1383 100.753 60.1491 100.738V100.735C60.3893 100.416 60.626 100.097 60.8627 99.7774C61.5764 98.8199 62.2792 97.4142 61.458 96.5499C61.2828 96.3816 61.0703 96.2572 60.8378 96.1867C60.6054 96.1163 60.3595 96.1019 60.1204 96.1447C59.863 96.1781 59.6138 96.2583 59.3852 96.3814C58.7579 96.7876 58.2258 97.3246 57.8253 97.9557C57.2659 97.1416 56.1793 96.8404 55.1967 96.9731C55.1429 96.9767 55.0927 96.9838 55.0425 96.991C54.0204 97.1667 53.5794 96.6145 52.6936 97.156C52.2812 97.407 52.0302 98.698 51.6178 98.949C51.3847 99.0924 50.5204 99.3076 50.2837 99.4546C49.8175 99.7415 49.9359 100.814 49.4661 101.101C49.1183 101.312 48.1859 100.742 47.838 100.954C47.4722 101.18 46.963 102.671 46.5972 102.894C45.8692 103.342 45.2847 102.524 44.5567 102.969C43.6208 103.546 42.6238 104.188 42.2294 105.214C41.8815 106.118 42.3298 107.355 43.194 107.613C42.7812 107.662 42.4037 107.87 42.1414 108.193C41.879 108.515 41.7524 108.927 41.7883 109.342V109.342Z" fill="#cccc56" />
            <path opacity="0.2" d="M48.2899 110.389L48.3795 111.271C49.3959 111.173 50.3959 110.948 51.356 110.6C52.6199 110.176 53.7162 109.361 54.4866 108.273C54.9743 107.541 55.4836 106.813 55.9928 106.111C56.8391 104.934 57.6783 103.837 58.374 102.944C59.2239 101.865 59.8622 101.083 60.0809 100.825C60.1132 100.782 60.1383 100.753 60.1491 100.739L60.1598 100.728L60.1491 100.735C55.8881 106.128 51.8633 109.238 48.1679 109.162C48.1679 109.162 47.734 110.59 48.2899 110.389Z" fill="black" />
            <path d="M87.2834 67.202C87.3883 67.6074 87.4031 68.0309 87.3267 68.4427C87.2503 68.8544 87.0845 69.2444 86.8411 69.5852C86.5976 69.9259 86.2824 70.2092 85.9177 70.4149C85.5529 70.6207 85.1475 70.744 84.73 70.7761L79.9629 88.2635L76.4328 84.3236L81.6106 67.9363C81.6031 67.2313 81.8545 66.548 82.3172 66.0159C82.7798 65.4839 83.4216 65.14 84.1208 65.0495C84.8201 64.959 85.5282 65.1281 86.1111 65.5248C86.694 65.9215 87.1111 66.5183 87.2834 67.202Z" fill="#FFB8B8" />
            <path d="M59.2956 111.92L59.3279 110.328L62.333 104.629L62.4442 104.421L62.4514 104.411L64.7572 100.043L75.884 78.9472L77.079 78.5083L77.0193 76.7947L77.079 74.9222L78.5146 73.9597L79.1267 72.7992L79.9945 73.0466H79.9981L80.0232 73.0538L83.8173 74.1189H83.8209L84.6098 74.5636L85.327 76.7152L85.4841 77.7339L85.327 79.5841L83.534 79.9427L84.128 81.8399L82.3255 87.2978C80.0698 96.8368 76.9894 105.07 71.6712 109.772L71.2337 110.489L67.7731 116.151C67.3009 116.926 66.6099 117.543 65.7873 117.926C64.9646 118.308 64.0471 118.438 63.1506 118.3H63.1471C62.5384 118.205 61.9552 117.988 61.4329 117.661C60.9512 117.364 60.5302 116.978 60.1921 116.524C59.5742 115.704 59.2474 114.701 59.2633 113.673L59.2956 111.92Z" fill="#cccc56" />
            <path d="M-3.57302 249.632L93.8791 249.743C93.9923 249.743 94.1009 249.698 94.181 249.618C94.2611 249.538 94.3061 249.429 94.3061 249.316C94.3061 249.202 94.2611 249.094 94.181 249.014C94.1009 248.934 93.9923 248.889 93.8791 248.889L-3.57302 248.778C-3.68626 248.778 -3.79488 248.823 -3.87496 248.904C-3.95503 248.984 -4 249.092 -4 249.205C-4 249.319 -3.95503 249.427 -3.87496 249.507C-3.79488 249.587 -3.68626 249.632 -3.57302 249.632V249.632Z" fill="#CACACA" />
        </g>
        <path d="M208.811 71.2447C208.817 65.5343 206.757 60.0385 203.056 55.8872L215.759 37.3659C216.282 36.6029 216.954 35.9681 217.729 35.505C218.504 35.0418 219.365 34.7611 220.252 34.6819C221.139 34.6027 222.031 34.7269 222.869 35.0461C223.706 35.3652 224.469 35.8718 225.105 36.5314C229.457 41.025 232.912 46.3992 235.264 52.3347C237.617 58.2703 238.819 64.6462 238.801 71.0837C238.801 73.5147 238.629 75.9423 238.289 78.3463C238.155 79.2968 237.827 80.2049 237.328 81.0074C236.829 81.8099 236.171 82.4874 235.399 82.9927C234.636 83.4929 233.78 83.8107 232.889 83.9241C231.998 84.0375 231.095 83.9436 230.242 83.6491L208.307 76.0993C208.641 74.5053 208.81 72.8775 208.811 71.2447V71.2447Z" fill="#F2F2F2" />
        <path d="M207.644 78.5835L230.448 86.4325C231.292 86.7215 232.067 87.1993 232.722 87.8335C233.376 88.4677 233.894 89.2435 234.241 90.1084C234.587 90.9732 234.755 91.9069 234.731 92.8461C234.707 93.7853 234.493 94.7082 234.103 95.5521C230.855 102.531 226.068 108.579 220.147 113.183C214.225 117.787 207.344 120.811 200.085 122.001C199.201 122.145 198.298 122.084 197.438 121.824C196.578 121.563 195.781 121.109 195.103 120.492C194.425 119.876 193.881 119.112 193.508 118.253C193.135 117.394 192.943 116.459 192.943 115.514V92.9513C196.32 92.0231 199.429 90.226 201.994 87.7196C204.558 85.2132 206.499 82.0751 207.644 78.5835Z" fill="#cccc56" />
        <path d="M139.067 92.6806C139.452 91.7121 140.029 90.8429 140.76 90.1319C141.49 89.421 142.357 88.885 143.3 88.5605L168.171 80.0001C169.623 83.617 171.946 86.7663 174.908 89.1325C177.871 91.4988 181.368 92.999 185.05 93.4828V120.933C185.05 121.987 184.834 123.028 184.418 123.985C184.003 124.942 183.396 125.793 182.641 126.479C181.886 127.165 181 127.669 180.044 127.959C179.087 128.248 178.083 128.315 177.1 128.155C169.019 126.831 161.359 123.464 154.767 118.339C148.175 113.213 142.846 106.481 139.231 98.7123C138.797 97.7784 138.557 96.7562 138.529 95.7154C138.5 94.6746 138.684 93.6395 139.067 92.6806Z" fill="#3F3D56" />
        <path d="M145.246 29.7178C145.954 28.9835 146.803 28.4195 147.735 28.0642C148.668 27.7089 149.661 27.5706 150.649 27.6587C151.636 27.7469 152.594 28.0594 153.457 28.575C154.32 29.0907 155.068 29.7972 155.65 30.6467L172.654 55.4383C170.698 57.5155 169.147 59.9805 168.09 62.6925C167.033 65.4046 166.491 68.3106 166.495 71.2446C166.495 71.7905 166.52 72.3297 166.556 72.8658L139.528 82.1688C138.572 82.4956 137.561 82.5977 136.564 82.4681C135.567 82.3385 134.609 81.9803 133.756 81.4184C132.904 80.8564 132.177 80.1043 131.627 79.2145C131.076 78.3246 130.716 77.3184 130.57 76.2658C130.191 73.5895 130 70.887 130 68.1807C129.979 61.0146 131.318 53.9171 133.937 47.3097C136.556 40.7024 140.402 34.72 145.246 29.7178Z" fill="#cccc56" />
        <path d="M187.653 48.8316C184.012 48.8273 180.433 49.8228 177.265 51.7212L166.887 36.5895C166.358 35.8189 165.993 34.9358 165.817 34.0013C165.642 33.0668 165.66 32.103 165.87 31.1766C166.073 30.2678 166.461 29.4166 167.005 28.6817C167.549 27.9469 168.238 27.3459 169.022 26.9203C175.43 23.4683 182.515 21.6637 189.703 21.6526C196.892 21.6416 203.982 23.4243 210.398 26.8565C211.208 27.289 211.918 27.9028 212.482 28.6552C213.045 29.4076 213.447 30.2807 213.66 31.214C213.87 32.134 213.888 33.0914 213.714 34.0198C213.54 34.9481 213.178 35.8254 212.652 36.5906L200.879 53.7564C197.13 50.5631 192.463 48.8252 187.653 48.8316V48.8316Z" fill="#cccc56" />
    </g>
    <defs>
        <clipPath id="clip0_51693_6159">
            <rect width="241" height="260" fill="white" />
        </clipPath>
        <clipPath id="clip1_51693_6159">
            <rect width="247.14" height="198.743" fill="white" transform="matrix(-1 0 0 1 243.14 51)" />
        </clipPath>
    </defs>
</svg>
