<svg width="385" height="228" viewBox="0 0 385 228" fill="none" xmlns="http://www.w3.org/2000/svg">
    <g clip-path="url(#clip0_38_25)">
        <g filter="url(#filter0_dd_38_25)">
            <path d="M144.918 129.9L153.361 152.066H137.003L144.922 129.9H144.918ZM141.751 122.476L123.283 171.014H130.141L134.889 157.828H155.464L160.212 171.014H167.07L148.602 122.476H141.744H141.751ZM241.445 171.057H247.808V122.511H241.445V171.05V171.057ZM176.573 142.527C178.683 139.36 182.936 136.723 187.126 136.723C195.568 136.723 199.789 142.527 199.789 150.97V171.545H193.425V152.023C193.425 145.165 189.731 142.524 184.983 142.524C179.705 142.524 176.014 147.802 176.014 152.55V171.018H169.651V137.295H176.014L176.545 142.573L176.573 142.527ZM205.067 161.031C205.067 153.607 211.925 149.421 219.844 149.421C224.592 149.421 227.763 150.482 228.813 151.532V150.471C228.813 145.193 224.592 142.552 220.371 142.552C216.677 142.552 213.513 144.136 212.452 147.3L206.647 144.663C207.708 141.495 211.925 136.744 220.364 136.744C228.283 136.744 235.141 141.492 235.141 150.991V171.043H229.336V166.295H228.806C227.222 168.932 223.528 172.1 217.727 172.1C210.868 172.1 205.063 167.879 205.063 161.02L205.067 161.031ZM228.806 156.799C228.806 156.799 226.169 154.689 220.887 154.689C214.524 154.689 211.918 158.383 211.918 161.052C211.918 164.746 215.613 166.33 218.777 166.33C223.524 166.33 228.802 162.109 228.802 156.831" fill="#959595" />
            <path fill-rule="evenodd" clip-rule="evenodd" d="M256.78 185.834L264.204 168.423L251.018 137.819H257.381L267.407 161.034L277.433 137.819H283.797L263.222 185.834H256.858H256.78ZM349.651 148.891C348.067 144.67 344.373 142.033 340.682 142.033C335.404 142.033 330.656 146.78 330.656 153.642C330.656 160.504 335.404 165.252 340.682 165.252C344.377 165.252 348.106 162.615 349.651 158.889L354.929 162.056C352.292 167.861 347.01 171.555 340.682 171.555C331.713 171.555 324.325 163.636 324.325 153.614C324.325 143.061 331.749 135.673 340.682 135.673C347.046 135.673 352.292 139.367 354.929 145.172L349.651 148.866V148.891Z" fill="#959595" />
            <path d="M372.337 172.111C380.779 172.111 385 167.363 385 161.558C385 148.895 366.532 153.639 366.532 146.257C366.532 143.62 368.643 142.036 372.337 142.036C376.031 142.036 379.761 143.62 381.306 146.257L385 142.563C382.89 139.926 377.081 136.2 371.814 136.2C363.895 136.2 359.677 140.947 359.677 146.752C359.677 158.889 378.672 154.671 378.672 160.999C378.672 164.167 376.562 166.277 372.309 166.277C368.056 166.277 365.945 163.64 363.867 160.999L359.179 164.729C362.347 167.897 367.098 172.153 372.365 172.153L372.337 172.111ZM312.185 171.057H318.548V137.288H312.185V171.057V171.057Z" fill="#959595" />
            <path fill-rule="evenodd" clip-rule="evenodd" d="M314.822 120.963C317.46 120.963 319.044 123.073 319.044 125.184C319.044 127.821 316.933 129.405 314.822 129.405C312.712 129.405 310.601 127.294 310.601 125.184C310.601 123.073 312.712 120.963 314.822 120.963ZM305.854 165.814L306.914 170.562H300.551C294.746 170.562 292.109 166.341 292.109 160.009V143.588H285.745V137.225H292.109V127.262H298.472V137.288H305.896V143.652H298.472V161.063C298.472 165.811 302.166 165.811 305.896 165.811L305.854 165.814Z" fill="#959595" />
            <path d="M155.365 68.8461V76.7651H173.833C173.302 80.9861 171.722 84.1891 169.612 86.2642C166.974 88.9015 162.753 92.0691 155.365 92.0691C144.285 92.0691 135.313 83.1002 135.313 71.494C135.313 60.4146 144.282 50.9189 155.365 50.9189C161.728 50.9189 165.917 53.5562 169.081 56.197L174.359 50.9189C169.612 46.6979 163.807 43 155.365 43C140.064 43 126.871 55.6632 126.871 70.9284C126.871 86.1935 140.057 98.8568 155.365 98.8568C163.807 98.8568 170.142 96.2195 174.886 90.9378C180.164 85.6597 181.745 78.8014 181.745 72.9965C181.745 71.4127 181.745 69.3022 181.214 68.2487H155.361L155.365 68.8461ZM202.32 62.4827C192.294 62.4827 184.378 69.9067 184.378 80.424C184.378 90.9414 192.297 98.3654 202.32 98.3654C204.682 98.3866 207.024 97.937 209.211 97.0429C211.397 96.1488 213.383 94.828 215.053 93.1578C216.724 91.4875 218.044 89.5012 218.939 87.3149C219.833 85.1286 220.282 82.786 220.261 80.424C220.261 69.8713 212.342 62.4827 202.32 62.4827ZM202.32 91.4717C197.042 91.4717 192.294 86.7238 192.294 80.3922C192.294 74.0606 197.042 69.3481 202.32 69.3481C207.598 69.3481 212.349 73.5904 212.349 80.4134C212.349 87.2364 207.601 91.4929 202.323 91.4929L202.32 91.4717ZM288.827 66.1735C286.716 64.063 283.549 61.9524 278.801 61.9524C269.832 61.9524 261.917 69.8713 261.917 79.8937C261.917 89.9162 269.836 97.8351 278.801 97.8351C283.022 97.8351 286.72 95.7245 288.3 93.614H288.83V96.2513C288.83 103.11 285.136 106.804 279.331 106.804C274.583 106.804 271.412 103.11 270.362 100.441L263.504 103.078C265.615 107.826 270.928 113.631 279.335 113.631C288.834 113.631 296.746 108.352 296.746 94.6357V61.9241H289.322V66.1452L288.827 66.1735ZM279.858 91.4999C274.58 91.4999 270.359 86.7521 270.359 80.4205C270.359 74.0889 274.58 69.3411 279.858 69.3411C285.136 69.3411 289.357 74.0889 289.357 80.4205C289.357 86.7521 285.136 91.4999 279.858 91.4999V91.4999ZM241.335 62.511C231.309 62.511 223.393 69.935 223.393 80.4523C223.393 90.9697 231.312 98.3937 241.335 98.3937C243.697 98.4149 246.039 97.9653 248.225 97.0712C250.412 96.1771 252.398 94.8563 254.068 93.1861C255.739 91.5158 257.059 89.5295 257.953 87.3432C258.848 85.1569 259.297 82.8143 259.276 80.4523C259.806 69.8996 251.357 62.511 241.335 62.511ZM241.335 91.4999C236.056 91.4999 231.309 86.7521 231.309 80.4205C231.309 74.0889 236.056 69.3411 241.335 69.3411C246.613 69.3411 251.361 73.5621 251.361 80.4205C251.361 87.2789 246.613 91.4999 241.335 91.4999V91.4999ZM302.614 43.5197H310.533V98.3937H302.614V43.5197ZM332.162 91.5353C327.941 91.5353 325.304 89.4247 323.193 86.2572L347.466 76.2312L346.405 74.1207C344.822 69.8996 340.042 62.511 331.105 62.511C321.606 62.511 314.221 69.935 314.221 80.4523C314.199 82.8143 314.649 85.1569 315.543 87.3432C316.437 89.5295 317.758 91.5158 319.428 93.1861C321.098 94.8563 323.085 96.1771 325.271 97.0712C327.457 97.9653 329.8 98.4149 332.162 98.3937C340.604 98.3937 345.348 93.1155 347.462 90.4747L341.099 86.2536C338.988 89.4212 336.351 91.5318 332.13 91.5318L332.162 91.5353ZM331.632 69.3693C334.799 69.3693 337.436 70.9531 338.49 73.5904L322.132 80.4488C322.132 72.5298 327.411 69.3693 331.632 69.3693V69.3693Z" fill="#959595" />
        </g>
        <g filter="url(#filter1_dd_38_25)">
            <path d="M77.2375 60.7653V153.45C77.2375 163.821 84.3996 169.599 91.9829 169.599C99.0045 169.599 106.728 164.684 106.728 153.45V61.4674C106.728 51.9602 99.7066 46.02 91.9829 46.02C84.2591 46.02 77.2375 52.5711 77.2375 60.7653Z" fill="#F9AB00" />
            <path d="M38.6184 107.81V153.45C38.6184 163.82 45.7804 169.599 53.3637 169.599C60.3853 169.599 68.1091 164.684 68.1091 153.45V108.512C68.1091 99.0046 61.0875 93.0643 53.3637 93.0643C45.64 93.0643 38.6184 99.6154 38.6184 107.81Z" fill="#E37400" />
            <path d="M14.7453 169.599C22.8889 169.599 29.4907 162.997 29.4907 154.854C29.4907 146.71 22.8889 140.109 14.7453 140.109C6.60171 140.109 0 146.71 0 154.854C0 162.997 6.60171 169.599 14.7453 169.599Z" fill="#E37400" />
        </g>
    </g>
    <defs>
        <filter id="filter0_dd_38_25" x="115.283" y="37" width="277.718" height="158.834" filterUnits="userSpaceOnUse" color-interpolation-filters="sRGB">
            <feFlood flood-opacity="0" result="BackgroundImageFix" />
            <feColorMatrix in="SourceAlpha" type="matrix" values="0 0 0 0 0 0 0 0 0 0 0 0 0 0 0 0 0 0 127 0" result="hardAlpha" />
            <feOffset dy="1" />
            <feGaussianBlur stdDeviation="1" />
            <feColorMatrix type="matrix" values="0 0 0 0 0 0 0 0 0 0 0 0 0 0 0 0 0 0 0.3 0" />
            <feBlend mode="normal" in2="BackgroundImageFix" result="effect1_dropShadow_38_25" />
            <feColorMatrix in="SourceAlpha" type="matrix" values="0 0 0 0 0 0 0 0 0 0 0 0 0 0 0 0 0 0 127 0" result="hardAlpha" />
            <feMorphology radius="2" operator="dilate" in="SourceAlpha" result="effect2_dropShadow_38_25" />
            <feOffset dy="2" />
            <feGaussianBlur stdDeviation="3" />
            <feColorMatrix type="matrix" values="0 0 0 0 0 0 0 0 0 0 0 0 0 0 0 0 0 0 0.15 0" />
            <feBlend mode="normal" in2="effect1_dropShadow_38_25" result="effect2_dropShadow_38_25" />
            <feBlend mode="normal" in="SourceGraphic" in2="effect2_dropShadow_38_25" result="shape" />
        </filter>
        <filter id="filter1_dd_38_25" x="-11" y="39.02" width="128.728" height="145.579" filterUnits="userSpaceOnUse" color-interpolation-filters="sRGB">
            <feFlood flood-opacity="0" result="BackgroundImageFix" />
            <feColorMatrix in="SourceAlpha" type="matrix" values="0 0 0 0 0 0 0 0 0 0 0 0 0 0 0 0 0 0 127 0" result="hardAlpha" />
            <feOffset dy="1" />
            <feGaussianBlur stdDeviation="1.5" />
            <feColorMatrix type="matrix" values="0 0 0 0 0 0 0 0 0 0 0 0 0 0 0 0 0 0 0.3 0" />
            <feBlend mode="normal" in2="BackgroundImageFix" result="effect1_dropShadow_38_25" />
            <feColorMatrix in="SourceAlpha" type="matrix" values="0 0 0 0 0 0 0 0 0 0 0 0 0 0 0 0 0 0 127 0" result="hardAlpha" />
            <feMorphology radius="3" operator="dilate" in="SourceAlpha" result="effect2_dropShadow_38_25" />
            <feOffset dy="4" />
            <feGaussianBlur stdDeviation="4" />
            <feColorMatrix type="matrix" values="0 0 0 0 0 0 0 0 0 0 0 0 0 0 0 0 0 0 0.15 0" />
            <feBlend mode="normal" in2="effect1_dropShadow_38_25" result="effect2_dropShadow_38_25" />
            <feBlend mode="normal" in="SourceGraphic" in2="effect2_dropShadow_38_25" result="shape" />
        </filter>
        <clipPath id="clip0_38_25">
            <rect width="385" height="228" fill="white" />
        </clipPath>
    </defs>
</svg>
