<svg width="404" height="228" viewBox="0 0 404 228" fill="none" xmlns="http://www.w3.org/2000/svg">
    <g filter="url(#filter0_dd_46_54)">
        <path d="M221.338 112.966C221.338 118.757 219.408 123.602 215.547 127.499C211.65 131.433 206.878 133.399 201.233 133.399C195.551 133.399 190.779 131.433 186.918 127.499C183.058 123.602 181.127 118.757 181.127 112.966C181.127 107.175 183.058 102.331 186.918 98.4333C190.779 94.4996 195.551 92.5328 201.233 92.5328C206.915 92.5328 211.686 94.5178 215.547 98.4879C219.408 102.385 221.338 107.211 221.338 112.966ZM186.263 112.966C186.263 117.483 187.683 121.216 190.524 124.166C193.402 127.116 196.971 128.592 201.233 128.592C205.494 128.592 209.045 127.116 211.886 124.166C214.764 121.252 216.203 117.519 216.203 112.966C216.203 108.413 214.764 104.68 211.886 101.766C209.045 98.8157 205.494 97.3406 201.233 97.3406C196.971 97.3406 193.402 98.8157 190.524 101.766C187.683 104.716 186.263 108.45 186.263 112.966Z" fill="#959595" />
        <path d="M239.508 128.81C241.912 128.81 243.933 127.899 245.572 126.078C247.211 124.294 248.031 121.981 248.031 119.14C248.031 116.335 247.211 114.022 245.572 112.201C243.933 110.38 241.912 109.469 239.508 109.469C237.068 109.469 235.028 110.38 233.389 112.201C231.786 114.022 230.985 116.335 230.985 119.14C230.985 121.981 231.786 124.312 233.389 126.133C235.028 127.918 237.068 128.81 239.508 128.81ZM240.327 133.399C238.361 133.399 236.558 132.98 234.919 132.143C233.316 131.305 232.078 130.194 231.204 128.81H230.985L231.204 132.525V144.326H226.177V105.754H230.985V109.469H231.204C232.078 108.085 233.316 106.974 234.919 106.137C236.558 105.299 238.361 104.88 240.327 104.88C243.86 104.88 246.847 106.264 249.288 109.032C251.801 111.837 253.057 115.206 253.057 119.14C253.057 123.11 251.801 126.479 249.288 129.247C246.847 132.015 243.86 133.399 240.327 133.399Z" fill="#959595" />
        <path d="M267.193 132.962C265.008 132.962 263.187 132.288 261.73 130.941C260.309 129.593 259.581 127.717 259.544 125.313V110.344H254.846V105.754H259.544V97.5591H264.571V105.754H271.127V110.344H264.571V123.674C264.571 125.459 264.917 126.679 265.609 127.335C266.301 127.954 267.084 128.264 267.958 128.264C268.359 128.264 268.741 128.227 269.105 128.154C269.506 128.045 269.87 127.918 270.198 127.772L271.782 132.252C270.471 132.726 268.941 132.962 267.193 132.962Z" fill="#959595" />
        <path d="M282.676 96.5211C282.676 97.5045 282.33 98.3422 281.638 99.0343C280.946 99.7263 280.109 100.072 279.125 100.072C278.142 100.072 277.304 99.7263 276.612 99.0343C275.92 98.3422 275.574 97.5045 275.574 96.5211C275.574 95.5377 275.92 94.6999 276.612 94.0079C277.304 93.3159 278.142 92.9699 279.125 92.9699C280.109 92.9699 280.946 93.3159 281.638 94.0079C282.33 94.6999 282.676 95.5377 282.676 96.5211ZM281.638 105.754V132.525H276.612V105.754H281.638Z" fill="#959595" />
        <path d="M293.206 132.525H288.18V105.754H292.987V109.469H293.206C293.971 108.158 295.136 107.066 296.703 106.191C298.305 105.317 299.89 104.88 301.456 104.88C303.423 104.88 305.153 105.335 306.646 106.246C308.139 107.157 309.232 108.413 309.924 110.016C312.146 106.592 315.224 104.88 319.157 104.88C322.253 104.88 324.639 105.827 326.314 107.721C327.99 109.615 328.828 112.31 328.828 115.807V132.525H323.801V116.572C323.801 114.059 323.346 112.256 322.435 111.163C321.525 110.034 319.995 109.469 317.846 109.469C315.916 109.469 314.295 110.289 312.984 111.928C311.672 113.567 311.017 115.497 311.017 117.719V132.525H305.99V116.572C305.99 114.059 305.535 112.256 304.625 111.163C303.714 110.034 302.184 109.469 300.035 109.469C298.105 109.469 296.484 110.289 295.173 111.928C293.862 113.567 293.206 115.497 293.206 117.719V132.525Z" fill="#959595" />
        <path d="M341.206 96.5211C341.206 97.5045 340.86 98.3422 340.168 99.0343C339.476 99.7263 338.638 100.072 337.654 100.072C336.671 100.072 335.833 99.7263 335.141 99.0343C334.449 98.3422 334.103 97.5045 334.103 96.5211C334.103 95.5377 334.449 94.6999 335.141 94.0079C335.833 93.3159 336.671 92.9699 337.654 92.9699C338.638 92.9699 339.476 93.3159 340.168 94.0079C340.86 94.6999 341.206 95.5377 341.206 96.5211ZM340.168 105.754V132.525H335.141V105.754H340.168Z" fill="#959595" />
        <path d="M367.033 132.525H345.398V128.154L360.641 110.344H345.835V105.754H366.814V110.125L351.571 127.936H367.033V132.525Z" fill="#959595" />
        <path d="M383.325 133.399C379.391 133.399 376.149 132.052 373.6 129.356C371.05 126.661 369.775 123.256 369.775 119.14C369.775 115.06 371.014 111.673 373.49 108.978C375.967 106.246 379.136 104.88 382.997 104.88C386.967 104.88 390.117 106.173 392.448 108.759C394.816 111.309 396 114.896 396 119.522L395.945 120.069H374.911C374.984 122.691 375.858 124.804 377.533 126.406C379.209 128.009 381.212 128.81 383.543 128.81C386.748 128.81 389.261 127.207 391.083 124.002L395.563 126.188C394.361 128.446 392.685 130.212 390.536 131.487C388.424 132.762 386.02 133.399 383.325 133.399ZM375.293 115.916H390.646C390.5 114.059 389.735 112.529 388.351 111.327C387.003 110.089 385.182 109.469 382.887 109.469C380.993 109.469 379.354 110.052 377.97 111.218C376.623 112.383 375.73 113.949 375.293 115.916Z" fill="#959595" />
    </g>
    <g filter="url(#filter1_dd_46_54)">
        <path d="M99.8109 113.914C99.6802 103.614 91.1475 95.6297 80.6556 95.6297H30.1554C20.2295 96.0912 11.8708 103.927 11.8708 113.914C11.8708 123.901 20.2295 132.608 30.1554 133.07H62.371V163.544C62.371 174.192 71.1825 182.699 81.5263 182.699C91.8614 182.699 99.8109 174.192 99.8109 163.544V113.914Z" fill="#B366F6" />
        <path d="M29.7199 133.069C40.0586 133.069 48.4398 124.688 48.4398 114.349C48.4398 104.011 40.0586 95.6296 29.7199 95.6296C19.3812 95.6296 11 104.011 11 114.349C11 124.688 19.3812 133.069 29.7199 133.069Z" fill="#8430CE" />
        <path d="M149.44 64.2846C149.31 53.9843 140.777 46 130.285 46H79.7848C69.8589 46.4615 61.5002 54.2977 61.5002 64.2846C61.5002 74.2714 69.8589 82.9783 79.7848 83.4398H112V113.914C112 124.563 120.812 133.069 131.156 133.069C141.491 133.069 149.44 124.563 149.44 113.914V64.2846Z" fill="#C58AF8" />
    </g>
    <defs>
        <filter id="filter0_dd_46_54" x="173.127" y="86.5328" width="230.872" height="67.7935" filterUnits="userSpaceOnUse" color-interpolation-filters="sRGB">
            <feFlood flood-opacity="0" result="BackgroundImageFix" />
            <feColorMatrix in="SourceAlpha" type="matrix" values="0 0 0 0 0 0 0 0 0 0 0 0 0 0 0 0 0 0 127 0" result="hardAlpha" />
            <feOffset dy="1" />
            <feGaussianBlur stdDeviation="1" />
            <feColorMatrix type="matrix" values="0 0 0 0 0 0 0 0 0 0 0 0 0 0 0 0 0 0 0.3 0" />
            <feBlend mode="normal" in2="BackgroundImageFix" result="effect1_dropShadow_46_54" />
            <feColorMatrix in="SourceAlpha" type="matrix" values="0 0 0 0 0 0 0 0 0 0 0 0 0 0 0 0 0 0 127 0" result="hardAlpha" />
            <feMorphology radius="2" operator="dilate" in="SourceAlpha" result="effect2_dropShadow_46_54" />
            <feOffset dy="2" />
            <feGaussianBlur stdDeviation="3" />
            <feColorMatrix type="matrix" values="0 0 0 0 0 0 0 0 0 0 0 0 0 0 0 0 0 0 0.15 0" />
            <feBlend mode="normal" in2="effect1_dropShadow_46_54" result="effect2_dropShadow_46_54" />
            <feBlend mode="normal" in="SourceGraphic" in2="effect2_dropShadow_46_54" result="shape" />
        </filter>
        <filter id="filter1_dd_46_54" x="0" y="39" width="160.44" height="158.699" filterUnits="userSpaceOnUse" color-interpolation-filters="sRGB">
            <feFlood flood-opacity="0" result="BackgroundImageFix" />
            <feColorMatrix in="SourceAlpha" type="matrix" values="0 0 0 0 0 0 0 0 0 0 0 0 0 0 0 0 0 0 127 0" result="hardAlpha" />
            <feOffset dy="1" />
            <feGaussianBlur stdDeviation="1.5" />
            <feColorMatrix type="matrix" values="0 0 0 0 0 0 0 0 0 0 0 0 0 0 0 0 0 0 0.3 0" />
            <feBlend mode="normal" in2="BackgroundImageFix" result="effect1_dropShadow_46_54" />
            <feColorMatrix in="SourceAlpha" type="matrix" values="0 0 0 0 0 0 0 0 0 0 0 0 0 0 0 0 0 0 127 0" result="hardAlpha" />
            <feMorphology radius="3" operator="dilate" in="SourceAlpha" result="effect2_dropShadow_46_54" />
            <feOffset dy="4" />
            <feGaussianBlur stdDeviation="4" />
            <feColorMatrix type="matrix" values="0 0 0 0 0 0 0 0 0 0 0 0 0 0 0 0 0 0 0.15 0" />
            <feBlend mode="normal" in2="effect1_dropShadow_46_54" result="effect2_dropShadow_46_54" />
            <feBlend mode="normal" in="SourceGraphic" in2="effect2_dropShadow_46_54" result="shape" />
        </filter>
    </defs>
</svg>
