<svg width="398" height="228" viewBox="0 0 398 228" fill="none" xmlns="http://www.w3.org/2000/svg">
    <g filter="url(#filter0_dd_60_25)">
        <path d="M219.04 121.014C219.04 124.749 217.669 127.749 214.927 130.014C212.145 132.24 208.768 133.352 204.794 133.352C201.257 133.352 198.138 132.319 195.436 130.253C192.734 128.186 190.866 125.365 189.833 121.789L195.078 119.643C195.436 120.914 195.933 122.067 196.568 123.1C197.204 124.133 197.939 125.027 198.774 125.782C199.648 126.498 200.602 127.074 201.635 127.511C202.668 127.908 203.761 128.107 204.913 128.107C207.417 128.107 209.463 127.471 211.053 126.2C212.642 124.888 213.437 123.16 213.437 121.014C213.437 119.226 212.781 117.696 211.47 116.424C210.238 115.192 207.933 114 204.556 112.848C201.138 111.616 199.012 110.781 198.178 110.344C193.648 108.04 191.383 104.642 191.383 100.152C191.383 97.0125 192.634 94.3303 195.138 92.105C197.681 89.8797 200.8 88.767 204.496 88.767C207.755 88.767 210.576 89.6015 212.96 91.2705C215.344 92.8997 216.934 94.9462 217.729 97.4099L212.602 99.5557C212.126 97.9662 211.172 96.6549 209.741 95.6217C208.351 94.5488 206.642 94.0123 204.615 94.0123C202.469 94.0123 200.661 94.6084 199.191 95.8005C197.721 96.9132 196.986 98.3636 196.986 100.152C196.986 101.622 197.562 102.894 198.714 103.967C199.986 105.039 202.748 106.311 207 107.781C211.331 109.252 214.411 111.06 216.238 113.205C218.106 115.312 219.04 117.914 219.04 121.014Z" fill="#959595" />
        <path d="M249.444 132.399H244.199V128.345H243.96C243.126 129.776 241.834 130.968 240.086 131.922C238.377 132.875 236.589 133.352 234.721 133.352C231.145 133.352 228.383 132.339 226.436 130.312C224.529 128.246 223.575 125.325 223.575 121.55V103.192H229.059V121.193C229.178 125.961 231.582 128.345 236.271 128.345C238.457 128.345 240.285 127.471 241.755 125.723C243.225 123.935 243.96 121.809 243.96 119.345V103.192H249.444V132.399Z" fill="#959595" />
        <path d="M261.603 132.399H256.119V103.192H261.365V107.96H261.603C262.16 106.41 263.292 105.099 265.001 104.026C266.749 102.914 268.458 102.357 270.127 102.357C271.716 102.357 273.067 102.596 274.18 103.072L272.511 108.377C271.836 108.099 270.763 107.96 269.292 107.96C267.226 107.96 265.418 108.795 263.868 110.464C262.358 112.133 261.603 114.08 261.603 116.305V132.399Z" fill="#959595" />
        <path d="M292.541 132.399H287.058L275.256 103.192H281.216L289.8 125.842H289.919L298.621 103.192H304.463L292.541 132.399Z" fill="#959595" />
        <path d="M320.282 133.352C315.99 133.352 312.454 131.882 309.672 128.941C306.891 126.001 305.5 122.285 305.5 117.795C305.5 113.345 306.851 109.649 309.553 106.708C312.255 103.728 315.712 102.238 319.924 102.238C324.256 102.238 327.693 103.649 330.236 106.47C332.819 109.252 334.111 113.166 334.111 118.212L334.051 118.808H311.103C311.182 121.67 312.136 123.974 313.964 125.723C315.792 127.471 317.977 128.345 320.52 128.345C324.017 128.345 326.759 126.597 328.746 123.1L333.634 125.484C332.322 127.948 330.494 129.875 328.15 131.266C325.845 132.657 323.223 133.352 320.282 133.352ZM311.52 114.278H328.269C328.11 112.252 327.276 110.583 325.766 109.271C324.295 107.92 322.309 107.245 319.805 107.245C317.739 107.245 315.951 107.881 314.441 109.152C312.97 110.424 311.997 112.133 311.52 114.278Z" fill="#959595" />
        <path d="M364.651 103.192L346.352 145.273H340.689L347.484 130.551L335.444 103.192H341.404L350.107 124.173H350.226L358.69 103.192H364.651Z" fill="#959595" />
        <path d="M390 124.292C390 126.835 388.887 128.981 386.662 130.73C384.437 132.478 381.635 133.352 378.258 133.352C375.317 133.352 372.734 132.597 370.509 131.087C368.284 129.537 366.694 127.511 365.74 125.007L370.628 122.921C371.343 124.67 372.376 126.041 373.728 127.034C375.118 127.988 376.628 128.465 378.258 128.465C380.006 128.465 381.456 128.087 382.609 127.332C383.801 126.577 384.397 125.683 384.397 124.65C384.397 122.782 382.966 121.411 380.105 120.537L375.098 119.285C369.416 117.855 366.575 115.113 366.575 111.06C366.575 108.397 367.648 106.271 369.794 104.682C371.979 103.053 374.761 102.238 378.138 102.238C380.721 102.238 383.046 102.854 385.112 104.086C387.218 105.318 388.689 106.967 389.523 109.033L384.635 111.06C384.079 109.828 383.165 108.874 381.894 108.199C380.662 107.483 379.271 107.126 377.721 107.126C376.291 107.126 374.999 107.483 373.847 108.199C372.734 108.914 372.178 109.788 372.178 110.821C372.178 112.49 373.747 113.682 376.887 114.398L381.297 115.53C387.099 116.961 390 119.881 390 124.292Z" fill="#959595" />
    </g>
    <g clip-path="url(#clip0_60_25)" filter="url(#filter1_dd_60_25)">
        <path d="M93.7186 169.599L146.66 75.8145C151.396 67.5152 148.588 56.9112 140.383 52.1204C132.186 47.3297 121.7 50.1774 116.964 58.4687L63.5977 152.002L93.7186 169.599Z" fill="#FCC934" />
        <path d="M37.2525 118.294L87.5983 145.85C95.9762 150.531 99.115 160.631 94.277 168.742C89.4391 176.852 78.7013 179.661 70.3234 174.98L19.7651 146.637L37.2525 118.294Z" fill="#FBBC04" />
        <path d="M36.6626 117.358C28.5758 112.685 18.2313 115.462 13.5586 123.549C8.89373 131.635 11.6628 141.98 19.7496 146.645C27.8364 151.318 38.1809 148.541 42.8536 140.454C47.5184 132.375 44.7494 122.03 36.6626 117.358Z" fill="#F29900" />
    </g>
    <defs>
        <filter id="filter0_dd_60_25" x="181.833" y="82.767" width="216.167" height="72.5064" filterUnits="userSpaceOnUse" color-interpolation-filters="sRGB">
            <feFlood flood-opacity="0" result="BackgroundImageFix" />
            <feColorMatrix in="SourceAlpha" type="matrix" values="0 0 0 0 0 0 0 0 0 0 0 0 0 0 0 0 0 0 127 0" result="hardAlpha" />
            <feOffset dy="1" />
            <feGaussianBlur stdDeviation="1" />
            <feColorMatrix type="matrix" values="0 0 0 0 0 0 0 0 0 0 0 0 0 0 0 0 0 0 0.3 0" />
            <feBlend mode="normal" in2="BackgroundImageFix" result="effect1_dropShadow_60_25" />
            <feColorMatrix in="SourceAlpha" type="matrix" values="0 0 0 0 0 0 0 0 0 0 0 0 0 0 0 0 0 0 127 0" result="hardAlpha" />
            <feMorphology radius="2" operator="dilate" in="SourceAlpha" result="effect2_dropShadow_60_25" />
            <feOffset dy="2" />
            <feGaussianBlur stdDeviation="3" />
            <feColorMatrix type="matrix" values="0 0 0 0 0 0 0 0 0 0 0 0 0 0 0 0 0 0 0.15 0" />
            <feBlend mode="normal" in2="effect1_dropShadow_60_25" result="effect2_dropShadow_60_25" />
            <feBlend mode="normal" in="SourceGraphic" in2="effect2_dropShadow_60_25" result="shape" />
        </filter>
        <filter id="filter1_dd_60_25" x="-6" y="31" width="173.038" height="173.038" filterUnits="userSpaceOnUse" color-interpolation-filters="sRGB">
            <feFlood flood-opacity="0" result="BackgroundImageFix" />
            <feColorMatrix in="SourceAlpha" type="matrix" values="0 0 0 0 0 0 0 0 0 0 0 0 0 0 0 0 0 0 127 0" result="hardAlpha" />
            <feOffset dy="1" />
            <feGaussianBlur stdDeviation="1.5" />
            <feColorMatrix type="matrix" values="0 0 0 0 0 0 0 0 0 0 0 0 0 0 0 0 0 0 0.3 0" />
            <feBlend mode="normal" in2="BackgroundImageFix" result="effect1_dropShadow_60_25" />
            <feColorMatrix in="SourceAlpha" type="matrix" values="0 0 0 0 0 0 0 0 0 0 0 0 0 0 0 0 0 0 127 0" result="hardAlpha" />
            <feMorphology radius="3" operator="dilate" in="SourceAlpha" result="effect2_dropShadow_60_25" />
            <feOffset dy="4" />
            <feGaussianBlur stdDeviation="4" />
            <feColorMatrix type="matrix" values="0 0 0 0 0 0 0 0 0 0 0 0 0 0 0 0 0 0 0.15 0" />
            <feBlend mode="normal" in2="effect1_dropShadow_60_25" result="effect2_dropShadow_60_25" />
            <feBlend mode="normal" in="SourceGraphic" in2="effect2_dropShadow_60_25" result="shape" />
        </filter>
        <clipPath id="clip0_60_25">
            <rect width="151.038" height="151.038" fill="white" transform="translate(5 38)" />
        </clipPath>
    </defs>
</svg>