<svg width="397" height="228" viewBox="0 0 397 228" fill="none" xmlns="http://www.w3.org/2000/svg">
    <g filter="url(#filter0_dd_60_12)">
        <path d="M69.9994 165.839L50.4814 146.807L92.3987 104.001L112.607 123.807L69.9994 165.839Z" fill="#8AB4F8" />
    </g>
    <g filter="url(#filter1_dd_60_12)">
        <path d="M70.0831 81.6915L50.6354 61.8349L8.11123 103.957C2.62959 109.438 2.62959 118.325 8.11123 123.813L49.9965 165.973L69.802 147.446L37.8897 113.885L70.0831 81.6915Z" fill="#4285F4" />
    </g>
    <g filter="url(#filter2_dd_60_12)">
        <path d="M112.326 104.282L70.1597 62.116C64.6717 56.628 55.772 56.628 50.284 62.116C44.796 67.604 44.796 76.5037 50.284 81.9917L92.4504 124.158C97.9384 129.646 106.838 129.646 112.326 124.158C117.814 118.67 117.814 109.77 112.326 104.282Z" fill="#8AB4F8" />
    </g>
    <path d="M59.8991 170.445C67.4853 170.445 73.6352 164.296 73.6352 156.709C73.6352 149.123 67.4853 142.973 59.8991 142.973C52.3129 142.973 46.1631 149.123 46.1631 156.709C46.1631 164.296 52.3129 170.445 59.8991 170.445Z" fill="#246FDB" />
    <g filter="url(#filter3_dd_60_12)">
        <path d="M154.559 100.409V128.276H150.476V100.409H141.602V96.5042H163.434V100.409H154.559Z" fill="#959595" />
        <path d="M166.622 121.62C166.622 122.685 167.066 123.573 167.953 124.283C168.87 124.993 169.935 125.348 171.148 125.348C172.864 125.348 174.387 124.712 175.719 123.44C177.079 122.167 177.76 120.674 177.76 118.958C176.488 117.952 174.713 117.449 172.435 117.449C170.778 117.449 169.388 117.848 168.264 118.647C167.169 119.446 166.622 120.437 166.622 121.62ZM171.902 105.823C174.92 105.823 177.301 106.636 179.047 108.263C180.792 109.861 181.665 112.065 181.665 114.875V128.276H177.76V125.259H177.582C175.896 127.744 173.648 128.986 170.837 128.986C168.441 128.986 166.43 128.276 164.802 126.856C163.205 125.436 162.406 123.661 162.406 121.531C162.406 119.283 163.249 117.493 164.936 116.162C166.651 114.831 168.929 114.165 171.769 114.165C174.195 114.165 176.192 114.609 177.76 115.497V114.565C177.76 113.145 177.198 111.947 176.074 110.97C174.949 109.964 173.633 109.462 172.124 109.462C169.846 109.462 168.042 110.423 166.711 112.346L163.116 110.083C165.098 107.243 168.027 105.823 171.902 105.823Z" fill="#959595" />
        <path d="M195.815 125.259C197.827 125.259 199.469 124.534 200.741 123.085C202.072 121.635 202.738 119.742 202.738 117.405C202.738 115.127 202.072 113.248 200.741 111.769C199.439 110.29 197.797 109.55 195.815 109.55C193.863 109.55 192.221 110.29 190.89 111.769C189.558 113.248 188.893 115.127 188.893 117.405C188.893 119.712 189.558 121.591 190.89 123.04C192.221 124.519 193.863 125.259 195.815 125.259ZM195.682 138.571C194.469 138.571 193.33 138.409 192.265 138.083C191.2 137.787 190.224 137.358 189.336 136.796C188.479 136.234 187.739 135.569 187.118 134.799C186.496 134.03 186.023 133.172 185.698 132.226L189.558 130.628C190.002 131.9 190.771 132.921 191.866 133.69C192.96 134.459 194.232 134.844 195.682 134.844C197.901 134.844 199.631 134.178 200.874 132.847C202.116 131.516 202.738 129.682 202.738 127.345V125.259H202.56C201.791 126.413 200.741 127.33 199.409 128.01C198.108 128.661 196.688 128.986 195.149 128.986C192.309 128.986 189.869 127.877 187.828 125.658C185.816 123.38 184.81 120.629 184.81 117.405C184.81 114.18 185.816 111.444 187.828 109.195C189.869 106.947 192.309 105.823 195.149 105.823C196.688 105.823 198.108 106.163 199.409 106.843C200.741 107.494 201.791 108.397 202.56 109.55H202.738V106.533H206.642V127.345C206.642 130.835 205.651 133.572 203.669 135.554C201.658 137.565 198.995 138.571 195.682 138.571Z" fill="#959595" />
        <path d="M226.163 128.276H222.08V96.5042H226.163L237.212 115.852H237.389L248.439 96.5042H252.521V128.276H248.439V109.417L248.616 104.092H248.439L238.499 121.531H236.103L226.163 104.092H225.985L226.163 109.417V128.276Z" fill="#959595" />
        <path d="M260.528 121.62C260.528 122.685 260.971 123.573 261.859 124.283C262.776 124.993 263.841 125.348 265.054 125.348C266.77 125.348 268.293 124.712 269.624 123.44C270.985 122.167 271.666 120.674 271.666 118.958C270.394 117.952 268.619 117.449 266.341 117.449C264.684 117.449 263.294 117.848 262.17 118.647C261.075 119.446 260.528 120.437 260.528 121.62ZM265.808 105.823C268.826 105.823 271.207 106.636 272.953 108.263C274.698 109.861 275.571 112.065 275.571 114.875V128.276H271.666V125.259H271.488C269.802 127.744 267.554 128.986 264.743 128.986C262.347 128.986 260.335 128.276 258.708 126.856C257.111 125.436 256.312 123.661 256.312 121.531C256.312 119.283 257.155 117.493 258.841 116.162C260.557 114.831 262.835 114.165 265.675 114.165C268.101 114.165 270.098 114.609 271.666 115.497V114.565C271.666 113.145 271.104 111.947 269.979 110.97C268.855 109.964 267.539 109.462 266.03 109.462C263.752 109.462 261.948 110.423 260.616 112.346L257.022 110.083C259.004 107.243 261.933 105.823 265.808 105.823Z" fill="#959595" />
        <path d="M280.175 106.533H284.08V109.55H284.258C284.879 108.485 285.826 107.598 287.098 106.888C288.399 106.178 289.745 105.823 291.136 105.823C293.798 105.823 295.839 106.592 297.259 108.13C298.709 109.639 299.434 111.799 299.434 114.609V128.276H295.351V114.875C295.263 111.325 293.473 109.55 289.982 109.55C288.355 109.55 286.994 110.216 285.899 111.547C284.805 112.849 284.258 114.417 284.258 116.251V128.276H280.175V106.533Z" fill="#959595" />
        <path d="M306.982 121.62C306.982 122.685 307.426 123.573 308.313 124.283C309.231 124.993 310.296 125.348 311.508 125.348C313.224 125.348 314.748 124.712 316.079 123.44C317.44 122.167 318.12 120.674 318.12 118.958C316.848 117.952 315.073 117.449 312.795 117.449C311.139 117.449 309.748 117.848 308.624 118.647C307.53 119.446 306.982 120.437 306.982 121.62ZM312.263 105.823C315.28 105.823 317.662 106.636 319.407 108.263C321.153 109.861 322.025 112.065 322.025 114.875V128.276H318.12V125.259H317.943C316.257 127.744 314.008 128.986 311.198 128.986C308.802 128.986 306.79 128.276 305.163 126.856C303.565 125.436 302.767 123.661 302.767 121.531C302.767 119.283 303.61 117.493 305.296 116.162C307.012 114.831 309.29 114.165 312.13 114.165C314.555 114.165 316.552 114.609 318.12 115.497V114.565C318.12 113.145 317.558 111.947 316.434 110.97C315.31 109.964 313.993 109.462 312.485 109.462C310.207 109.462 308.402 110.423 307.071 112.346L303.477 110.083C305.459 107.243 308.387 105.823 312.263 105.823Z" fill="#959595" />
        <path d="M336.175 125.259C338.187 125.259 339.829 124.534 341.101 123.085C342.432 121.635 343.098 119.742 343.098 117.405C343.098 115.127 342.432 113.248 341.101 111.769C339.799 110.29 338.158 109.55 336.175 109.55C334.223 109.55 332.581 110.29 331.25 111.769C329.919 113.248 329.253 115.127 329.253 117.405C329.253 119.712 329.919 121.591 331.25 123.04C332.581 124.519 334.223 125.259 336.175 125.259ZM336.042 138.571C334.829 138.571 333.691 138.409 332.626 138.083C331.561 137.787 330.584 137.358 329.697 136.796C328.839 136.234 328.099 135.569 327.478 134.799C326.857 134.03 326.383 133.172 326.058 132.226L329.919 130.628C330.362 131.9 331.132 132.921 332.226 133.69C333.321 134.459 334.593 134.844 336.042 134.844C338.261 134.844 339.992 134.178 341.234 132.847C342.477 131.516 343.098 129.682 343.098 127.345V125.259H342.92C342.151 126.413 341.101 127.33 339.77 128.01C338.468 128.661 337.048 128.986 335.51 128.986C332.67 128.986 330.229 127.877 328.188 125.658C326.176 123.38 325.171 120.629 325.171 117.405C325.171 114.18 326.176 111.444 328.188 109.195C330.229 106.947 332.67 105.823 335.51 105.823C337.048 105.823 338.468 106.163 339.77 106.843C341.101 107.494 342.151 108.397 342.92 109.55H343.098V106.533H347.003V127.345C347.003 130.835 346.012 133.572 344.03 135.554C342.018 137.565 339.356 138.571 336.042 138.571Z" fill="#959595" />
        <path d="M361.526 128.986C358.331 128.986 355.698 127.892 353.627 125.703C351.557 123.514 350.521 120.747 350.521 117.405C350.521 114.091 351.527 111.34 353.539 109.151C355.55 106.932 358.124 105.823 361.26 105.823C364.484 105.823 367.043 106.873 368.937 108.973C370.86 111.044 371.821 113.958 371.821 117.715L371.777 118.159H354.692C354.752 120.289 355.462 122.005 356.822 123.306C358.183 124.608 359.81 125.259 361.704 125.259C364.307 125.259 366.348 123.957 367.827 121.354L371.466 123.129C370.49 124.963 369.129 126.398 367.384 127.433C365.668 128.469 363.715 128.986 361.526 128.986ZM355.003 114.787H367.472C367.354 113.278 366.733 112.035 365.609 111.059C364.514 110.053 363.035 109.55 361.171 109.55C359.633 109.55 358.302 110.024 357.177 110.97C356.083 111.917 355.358 113.189 355.003 114.787Z" fill="#959595" />
        <path d="M379.637 128.276H375.554V106.533H379.459V110.083H379.637C380.051 108.929 380.894 107.953 382.166 107.154C383.468 106.326 384.74 105.912 385.982 105.912C387.166 105.912 388.172 106.089 389 106.444L387.757 110.393C387.254 110.186 386.456 110.083 385.361 110.083C383.823 110.083 382.477 110.704 381.323 111.947C380.199 113.189 379.637 114.639 379.637 116.295V128.276Z" fill="#959595" />
    </g>
    <defs>
        <filter id="filter0_dd_60_12" x="42.4814" y="100.001" width="78.125" height="77.8377" filterUnits="userSpaceOnUse" color-interpolation-filters="sRGB">
            <feFlood flood-opacity="0" result="BackgroundImageFix" />
            <feColorMatrix in="SourceAlpha" type="matrix" values="0 0 0 0 0 0 0 0 0 0 0 0 0 0 0 0 0 0 127 0" result="hardAlpha" />
            <feOffset dy="1" />
            <feGaussianBlur stdDeviation="1.5" />
            <feColorMatrix type="matrix" values="0 0 0 0 0 0 0 0 0 0 0 0 0 0 0 0 0 0 0.3 0" />
            <feBlend mode="normal" in2="BackgroundImageFix" result="effect1_dropShadow_60_12" />
            <feColorMatrix in="SourceAlpha" type="matrix" values="0 0 0 0 0 0 0 0 0 0 0 0 0 0 0 0 0 0 127 0" result="hardAlpha" />
            <feOffset dy="4" />
            <feGaussianBlur stdDeviation="4" />
            <feColorMatrix type="matrix" values="0 0 0 0 0 0 0 0 0 0 0 0 0 0 0 0 0 0 0.15 0" />
            <feBlend mode="normal" in2="effect1_dropShadow_60_12" result="effect2_dropShadow_60_12" />
            <feBlend mode="normal" in="SourceGraphic" in2="effect2_dropShadow_60_12" result="shape" />
        </filter>
        <filter id="filter1_dd_60_12" x="0" y="61.8349" width="79.083" height="112.138" filterUnits="userSpaceOnUse" color-interpolation-filters="sRGB">
            <feFlood flood-opacity="0" result="BackgroundImageFix" />
            <feColorMatrix in="SourceAlpha" type="matrix" values="0 0 0 0 0 0 0 0 0 0 0 0 0 0 0 0 0 0 127 0" result="hardAlpha" />
            <feOffset dx="5" dy="4" />
            <feGaussianBlur stdDeviation="2" />
            <feComposite in2="hardAlpha" operator="out" />
            <feColorMatrix type="matrix" values="0 0 0 0 0 0 0 0 0 0 0 0 0 0 0 0 0 0 0.25 0" />
            <feBlend mode="normal" in2="BackgroundImageFix" result="effect1_dropShadow_60_12" />
            <feColorMatrix in="SourceAlpha" type="matrix" values="0 0 0 0 0 0 0 0 0 0 0 0 0 0 0 0 0 0 127 0" result="hardAlpha" />
            <feOffset dy="4" />
            <feGaussianBlur stdDeviation="2" />
            <feComposite in2="hardAlpha" operator="out" />
            <feColorMatrix type="matrix" values="0 0 0 0 0 0 0 0 0 0 0 0 0 0 0 0 0 0 0.25 0" />
            <feBlend mode="normal" in2="effect1_dropShadow_60_12" result="effect2_dropShadow_60_12" />
            <feBlend mode="normal" in="SourceGraphic" in2="effect2_dropShadow_60_12" result="shape" />
        </filter>
        <filter id="filter2_dd_60_12" x="38.168" y="54" width="86.2744" height="86.2742" filterUnits="userSpaceOnUse" color-interpolation-filters="sRGB">
            <feFlood flood-opacity="0" result="BackgroundImageFix" />
            <feColorMatrix in="SourceAlpha" type="matrix" values="0 0 0 0 0 0 0 0 0 0 0 0 0 0 0 0 0 0 127 0" result="hardAlpha" />
            <feOffset dy="1" />
            <feGaussianBlur stdDeviation="1.5" />
            <feColorMatrix type="matrix" values="0 0 0 0 0 0 0 0 0 0 0 0 0 0 0 0 0 0 0.3 0" />
            <feBlend mode="normal" in2="BackgroundImageFix" result="effect1_dropShadow_60_12" />
            <feColorMatrix in="SourceAlpha" type="matrix" values="0 0 0 0 0 0 0 0 0 0 0 0 0 0 0 0 0 0 127 0" result="hardAlpha" />
            <feOffset dy="4" />
            <feGaussianBlur stdDeviation="4" />
            <feColorMatrix type="matrix" values="0 0 0 0 0 0 0 0 0 0 0 0 0 0 0 0 0 0 0.15 0" />
            <feBlend mode="normal" in2="effect1_dropShadow_60_12" result="effect2_dropShadow_60_12" />
            <feBlend mode="normal" in="SourceGraphic" in2="effect2_dropShadow_60_12" result="shape" />
        </filter>
        <filter id="filter3_dd_60_12" x="133.602" y="90.5042" width="263.398" height="58.067" filterUnits="userSpaceOnUse" color-interpolation-filters="sRGB">
            <feFlood flood-opacity="0" result="BackgroundImageFix" />
            <feColorMatrix in="SourceAlpha" type="matrix" values="0 0 0 0 0 0 0 0 0 0 0 0 0 0 0 0 0 0 127 0" result="hardAlpha" />
            <feOffset dy="1" />
            <feGaussianBlur stdDeviation="1" />
            <feColorMatrix type="matrix" values="0 0 0 0 0 0 0 0 0 0 0 0 0 0 0 0 0 0 0.3 0" />
            <feBlend mode="normal" in2="BackgroundImageFix" result="effect1_dropShadow_60_12" />
            <feColorMatrix in="SourceAlpha" type="matrix" values="0 0 0 0 0 0 0 0 0 0 0 0 0 0 0 0 0 0 127 0" result="hardAlpha" />
            <feMorphology radius="2" operator="dilate" in="SourceAlpha" result="effect2_dropShadow_60_12" />
            <feOffset dy="2" />
            <feGaussianBlur stdDeviation="3" />
            <feColorMatrix type="matrix" values="0 0 0 0 0 0 0 0 0 0 0 0 0 0 0 0 0 0 0.15 0" />
            <feBlend mode="normal" in2="effect1_dropShadow_60_12" result="effect2_dropShadow_60_12" />
            <feBlend mode="normal" in="SourceGraphic" in2="effect2_dropShadow_60_12" result="shape" />
        </filter>
    </defs>
</svg>
