<svg width="762" height="690" viewBox="0 0 762 690" fill="none" xmlns="http://www.w3.org/2000/svg">
    <rect width="762" height="690" fill="#1B1B1F" />
    <path d="M761 690H1C0.734784 690 0.480429 689.895 0.292892 689.707C0.105356 689.52 0 689.265 0 689C0 688.735 0.105356 688.48 0.292892 688.293C0.480429 688.105 0.734784 688 1 688H761C761.265 688 761.52 688.105 761.707 688.293C761.895 688.48 762 688.735 762 689C762 689.265 761.895 689.52 761.707 689.707C761.52 689.895 761.265 690 761 690Z" fill="#CCCCCC" />
    <path d="M720.674 487.5H503.326C495.418 487.491 487.837 484.346 482.246 478.755C476.654 473.163 473.509 465.582 473.5 457.675V114.832C473.509 106.924 476.654 99.3429 482.246 93.7514C487.837 88.1599 495.418 85.0147 503.326 85.0059H720.674C728.582 85.0147 736.163 88.1599 741.754 93.7514C747.346 99.3429 750.491 106.924 750.5 114.832V457.675C750.491 465.582 747.346 473.163 741.754 478.755C736.163 484.346 728.582 487.491 720.674 487.5Z" fill="#E6E6E6" />
    <path d="M724.279 102.803H502.916C500.441 102.806 498.067 103.791 496.317 105.541C494.567 107.292 493.582 109.665 493.579 112.14V459.453C493.583 461.928 494.568 464.301 496.318 466.051C498.068 467.801 500.441 468.786 502.916 468.79H724.279C726.754 468.787 729.127 467.802 730.877 466.052C732.628 464.302 733.612 461.929 733.615 459.453V112.14C733.612 109.665 732.628 107.292 730.877 105.541C729.127 103.791 726.754 102.806 724.279 102.803Z" fill="white" />
    <path d="M508.638 85.0058C508.639 84.4009 508.88 83.821 509.307 83.3932C509.735 82.9655 510.315 82.7248 510.92 82.7241H526.436C527.041 82.7241 527.621 82.9645 528.049 83.3924C528.477 83.8203 528.718 84.4007 528.718 85.0058C528.718 85.611 528.477 86.1914 528.049 86.6193C527.621 87.0472 527.041 87.2875 526.436 87.2875H510.92C510.315 87.2868 509.735 87.0462 509.307 86.6184C508.88 86.1907 508.639 85.6107 508.638 85.0058Z" fill="#E6E6E6" />
    <path d="M534.194 85.0058C534.194 84.4009 534.435 83.821 534.863 83.3932C535.29 82.9655 535.87 82.7248 536.475 82.7241H551.991C552.596 82.7241 553.176 82.9645 553.604 83.3924C554.032 83.8203 554.273 84.4007 554.273 85.0058C554.273 85.611 554.032 86.1914 553.604 86.6193C553.176 87.0472 552.596 87.2875 551.991 87.2875H536.475C535.87 87.2868 535.29 87.0462 534.863 86.6185C534.435 86.1907 534.194 85.6108 534.194 85.0058Z" fill="#E6E6E6" />
    <path d="M687.525 85.0058C687.526 84.4009 687.766 83.821 688.194 83.3932C688.622 82.9655 689.202 82.7248 689.807 82.7241H705.322C705.927 82.7241 706.508 82.9645 706.936 83.3924C707.364 83.8203 707.604 84.4007 707.604 85.0058C707.604 85.611 707.364 86.1914 706.936 86.6193C706.508 87.0472 705.927 87.2875 705.322 87.2875H689.807C689.202 87.2868 688.622 87.0462 688.194 86.6185C687.766 86.1907 687.526 85.6108 687.525 85.0058Z" fill="#E6E6E6" />
    <path d="M644.273 461.634C644.273 464.035 644.227 466.426 644.117 468.79H502.916C500.441 468.786 498.068 467.801 496.318 466.051C494.568 464.301 493.583 461.928 493.579 459.453V284.637C535.628 291.431 573.885 312.973 601.497 345.405C629.109 377.837 644.273 419.04 644.273 461.634Z" fill="#F2F2F2" />
    <path d="M639.477 192.056H586.817C584.42 192.056 582.478 193.999 582.478 196.395V201.809C582.478 204.206 584.42 206.148 586.817 206.148H639.477C641.874 206.148 643.816 204.206 643.816 201.809V196.395C643.816 193.999 641.874 192.056 639.477 192.056Z" fill="#58DBC3" />
    <path d="M672.947 220.241H553.347C550.951 220.241 549.008 222.183 549.008 224.58V229.994C549.008 232.39 550.951 234.333 553.347 234.333H672.947C675.343 234.333 677.286 232.39 677.286 229.994V224.58C677.286 222.183 675.343 220.241 672.947 220.241Z" fill="#E6E6E6" />
    <path d="M672.947 248.426H553.347C550.951 248.426 549.008 250.368 549.008 252.765V258.179C549.008 260.575 550.951 262.518 553.347 262.518H672.947C675.343 262.518 677.286 260.575 677.286 258.179V252.765C677.286 250.368 675.343 248.426 672.947 248.426Z" fill="#E6E6E6" />
    <path d="M652.467 445.054C651.781 445.085 651.103 444.905 650.523 444.538C649.943 444.171 649.489 443.634 649.225 443.001C648.96 442.368 648.896 441.668 649.042 440.997C649.188 440.327 649.537 439.717 650.041 439.251L650.27 438.339C650.24 438.266 650.21 438.193 650.179 438.12C649.488 436.488 648.331 435.097 646.852 434.121C645.373 433.145 643.638 432.628 641.866 432.635C640.095 432.641 638.364 433.171 636.892 434.158C635.421 435.145 634.274 436.545 633.595 438.182C630.882 444.715 627.429 451.258 626.579 458.166C626.204 461.219 626.362 464.314 627.046 467.313C620.675 453.416 617.367 438.312 617.346 423.024C617.344 419.188 617.557 415.355 617.984 411.542C618.337 408.417 618.826 405.314 619.451 402.233C622.866 385.516 630.197 369.848 640.843 356.515C645.996 353.703 650.163 349.38 652.782 344.128C653.732 342.239 654.402 340.224 654.774 338.144C654.193 338.22 653.602 338.267 653.021 338.306C652.84 338.315 652.649 338.325 652.468 338.334L652.4 338.337C651.761 338.366 651.127 338.209 650.576 337.886C650.024 337.563 649.577 337.088 649.289 336.517C649.001 335.946 648.885 335.304 648.953 334.668C649.022 334.032 649.273 333.43 649.676 332.933C649.926 332.624 650.178 332.316 650.429 332.007C650.81 331.531 651.201 331.064 651.582 330.587C651.626 330.542 651.667 330.494 651.706 330.444C652.144 329.901 652.582 329.368 653.021 328.825C652.221 327.583 651.145 326.543 649.876 325.785C645.484 323.212 639.423 324.994 636.25 328.968C633.068 332.941 632.468 338.515 633.573 343.48C634.66 347.704 636.458 351.712 638.89 355.333C638.652 355.638 638.404 355.933 638.166 356.238C633.811 361.838 630.016 367.851 626.834 374.19C627.608 367.088 626.684 359.903 624.14 353.227C621.56 347.006 616.726 341.766 612.469 336.387C607.356 329.926 596.871 332.746 595.97 340.936C595.961 341.015 595.953 341.094 595.944 341.174C596.577 341.53 597.196 341.909 597.801 342.309C598.562 342.818 599.152 343.544 599.493 344.393C599.834 345.242 599.91 346.174 599.712 347.068C599.514 347.961 599.051 348.774 598.383 349.399C597.716 350.025 596.875 350.434 595.97 350.574L595.878 350.588C596.103 352.867 596.501 355.125 597.069 357.344C598.714 363.537 601.62 369.324 605.606 374.341C609.592 379.359 614.572 383.498 620.233 386.501C620.604 386.692 620.967 386.882 621.338 387.063C618.142 396.122 616.136 405.558 615.373 415.134C614.941 420.784 614.967 426.459 615.449 432.105L615.421 431.905C614.201 425.627 610.852 419.963 605.94 415.868C598.644 409.875 588.336 407.668 580.464 402.85C579.628 402.313 578.655 402.026 577.661 402.024C576.667 402.022 575.693 402.303 574.854 402.836C574.015 403.369 573.346 404.131 572.925 405.032C572.505 405.933 572.351 406.935 572.481 407.921C572.492 407.991 572.503 408.061 572.514 408.131C573.687 408.609 574.829 409.16 575.934 409.78C576.567 410.136 577.186 410.515 577.791 410.915C578.552 411.424 579.141 412.15 579.482 412.999C579.823 413.848 579.9 414.78 579.702 415.674C579.504 416.567 579.041 417.38 578.373 418.005C577.706 418.631 576.865 419.04 575.96 419.179L575.868 419.194C575.801 419.203 575.744 419.213 575.677 419.222C577.682 424.009 580.496 428.416 583.996 432.248C588.319 436.887 593.544 440.594 599.351 443.142C605.158 445.69 611.424 447.025 617.765 447.065H617.774C619.496 454.545 621.99 461.826 625.216 468.79H651.801C651.896 468.495 651.982 468.19 652.068 467.894C649.607 468.049 647.137 467.902 644.712 467.456C646.684 465.036 648.657 462.596 650.629 460.176C650.673 460.131 650.714 460.083 650.753 460.033C651.753 458.795 652.763 457.565 653.764 456.327L653.764 456.325C653.818 452.528 653.382 448.74 652.468 445.054L652.467 445.054ZM622.024 385.167L622.038 385.148L622.024 385.186V385.167ZM616.136 438.251L615.907 437.736C615.916 437.365 615.916 436.993 615.907 436.612C615.907 436.507 615.888 436.402 615.888 436.298C615.974 436.955 616.05 437.613 616.145 438.27L616.136 438.251Z" fill="#CCCCCC" />
    <path d="M713.214 133.466H513.981C513.55 133.457 513.14 133.279 512.838 132.971C512.537 132.662 512.368 132.248 512.368 131.817C512.368 131.386 512.537 130.972 512.838 130.664C513.14 130.356 513.55 130.178 513.981 130.168H713.214C713.645 130.178 714.055 130.356 714.356 130.664C714.658 130.972 714.827 131.386 714.827 131.817C714.827 132.248 714.658 132.662 714.356 132.971C714.055 133.279 713.645 133.457 713.214 133.466Z" fill="#CACACA" />
    <path d="M524.611 125.4C527.287 125.4 529.457 123.182 529.457 120.446C529.457 117.71 527.287 115.492 524.611 115.492C521.934 115.492 519.764 117.71 519.764 120.446C519.764 123.182 521.934 125.4 524.611 125.4Z" fill="#3F3D56" />
    <path d="M541.352 125.4C544.029 125.4 546.198 123.182 546.198 120.446C546.198 117.71 544.029 115.492 541.352 115.492C538.676 115.492 536.506 117.71 536.506 120.446C536.506 123.182 538.676 125.4 541.352 125.4Z" fill="#3F3D56" />
    <path d="M558.094 125.4C560.77 125.4 562.94 123.182 562.94 120.446C562.94 117.71 560.77 115.492 558.094 115.492C555.417 115.492 553.247 117.71 553.247 120.446C553.247 123.182 555.417 125.4 558.094 125.4Z" fill="#3F3D56" />
    <path d="M705.426 117.406H694.581C694.366 117.41 694.161 117.499 694.011 117.652C693.86 117.806 693.776 118.012 693.776 118.227C693.776 118.442 693.86 118.649 694.011 118.802C694.161 118.956 694.366 119.044 694.581 119.048H705.426C705.641 119.044 705.846 118.956 705.996 118.802C706.147 118.649 706.231 118.442 706.231 118.227C706.231 118.012 706.147 117.806 705.996 117.652C705.846 117.499 705.641 117.41 705.426 117.406Z" fill="#3F3D56" />
    <path d="M705.426 120.489H694.581C694.366 120.493 694.161 120.581 694.011 120.735C693.86 120.888 693.776 121.095 693.776 121.31C693.776 121.525 693.86 121.731 694.011 121.885C694.161 122.038 694.366 122.127 694.581 122.131H705.426C705.641 122.127 705.846 122.038 705.996 121.885C706.147 121.731 706.231 121.525 706.231 121.31C706.231 121.095 706.147 120.888 705.996 120.735C705.846 120.581 705.641 120.493 705.426 120.489Z" fill="#3F3D56" />
    <path d="M705.426 123.567H694.581C694.366 123.571 694.161 123.66 694.011 123.813C693.86 123.967 693.776 124.173 693.776 124.388C693.776 124.603 693.86 124.81 694.011 124.963C694.161 125.117 694.366 125.205 694.581 125.209H705.426C705.641 125.205 705.846 125.117 705.996 124.963C706.147 124.81 706.231 124.603 706.231 124.388C706.231 124.173 706.147 123.967 705.996 123.813C705.846 123.66 705.641 123.571 705.426 123.567Z" fill="#3F3D56" />
    <path d="M382.172 284.768H266.662C265.028 284.77 263.462 285.422 262.308 286.579C261.154 287.736 260.507 289.303 260.509 290.937V473.409H388.342V290.937C388.342 290.127 388.183 289.325 387.873 288.576C387.563 287.827 387.109 287.147 386.536 286.574C385.963 286.001 385.283 285.546 384.534 285.237C383.785 284.927 382.983 284.767 382.172 284.768ZM324.806 388.446C321.194 388.429 317.734 386.987 315.18 384.432C312.625 381.878 311.183 378.419 311.166 374.806V353.76C311.169 350.144 312.608 346.678 315.165 344.123C317.723 341.567 321.19 340.132 324.806 340.132C328.421 340.132 331.889 341.567 334.447 344.123C337.004 346.678 338.443 350.144 338.446 353.76V374.806C338.429 378.419 336.986 381.878 334.432 384.433C331.878 386.987 328.418 388.429 324.806 388.446Z" fill="#E6E6E6" />
    <path d="M260.112 467.573V485.178C260.114 486.09 260.477 486.964 261.122 487.609C261.767 488.254 262.641 488.617 263.554 488.619H385.297C386.208 488.615 387.081 488.251 387.725 487.606C388.37 486.962 388.734 486.089 388.738 485.178V467.573L260.112 467.573Z" fill="#CCCCCC" />
    <path d="M573.446 0H79.6861C75.4439 0.00674883 71.3774 1.69493 68.3777 4.6946C65.3781 7.69426 63.6899 11.7607 63.6831 16.0029V349.194C63.6872 353.437 65.3745 357.505 68.3748 360.506C71.3751 363.506 75.4431 365.193 79.6861 365.197H573.446C577.689 365.193 581.757 363.506 584.758 360.506C587.758 357.505 589.445 353.437 589.449 349.194V16.0029C589.443 11.7607 587.754 7.69426 584.755 4.6946C581.755 1.69493 577.689 0.00674619 573.446 0Z" fill="#E6E6E6" />
    <path d="M569.325 11.5586H83.8115C81.5401 11.5635 79.3635 12.4692 77.759 14.077C76.1546 15.6848 75.2534 17.8634 75.2532 20.1348V345.068C75.2571 347.336 76.16 349.511 77.7642 351.115C79.3683 352.719 81.5429 353.622 83.8115 353.626H569.325C571.594 353.622 573.768 352.719 575.372 351.115C576.977 349.511 577.879 347.336 577.883 345.068V20.1348C577.883 17.8634 576.982 15.6848 575.377 14.077C573.773 12.4692 571.596 11.5635 569.325 11.5586Z" fill="white" />
    <path d="M577.883 20.1348V345.068C577.879 347.336 576.976 349.511 575.372 351.115C573.768 352.719 571.594 353.622 569.325 353.626H398.122C379.183 336.062 363.645 315.156 352.288 291.956C351.54 290.461 350.829 288.949 350.153 287.419C339.805 264.964 333.539 240.846 331.648 216.194C331.524 214.682 331.417 213.169 331.346 211.639C331.114 207.725 331.007 203.757 331.007 199.771C330.973 173.264 335.979 146.992 345.758 122.355C346.345 120.824 346.968 119.312 347.608 117.8C367.288 71.5611 402.848 33.8804 447.871 11.5586H569.325C571.596 11.5635 573.773 12.4692 575.377 14.077C576.982 15.6848 577.883 17.8634 577.883 20.1348Z" fill="#58DBC3" />
    <path d="M544.919 56.3273H90.6259C90.1534 56.3172 89.7037 56.1225 89.3731 55.7848C89.0426 55.4471 88.8574 54.9933 88.8574 54.5207C88.8574 54.0481 89.0426 53.5943 89.3731 53.2566C89.7037 52.9189 90.1534 52.7242 90.6259 52.7141H544.919C545.391 52.7242 545.841 52.9189 546.172 53.2566C546.502 53.5943 546.687 54.0481 546.687 54.5207C546.687 54.9933 546.502 55.4471 546.172 55.7848C545.841 56.1225 545.391 56.3172 544.919 56.3273Z" fill="#CACACA" />
    <path d="M121.55 43.4899C127.398 43.4899 132.138 38.6441 132.138 32.6665C132.138 26.6888 127.398 21.843 121.55 21.843C115.703 21.843 110.963 26.6888 110.963 32.6665C110.963 38.6441 115.703 43.4899 121.55 43.4899Z" fill="#3F3D56" />
    <path d="M158.125 43.4899C163.973 43.4899 168.713 38.6441 168.713 32.6665C168.713 26.6888 163.973 21.843 158.125 21.843C152.278 21.843 147.538 26.6888 147.538 32.6665C147.538 38.6441 152.278 43.4899 158.125 43.4899Z" fill="#3F3D56" />
    <path d="M194.7 43.4899C200.548 43.4899 205.288 38.6441 205.288 32.6665C205.288 26.6888 200.548 21.843 194.7 21.843C188.853 21.843 184.113 26.6888 184.113 32.6665C184.113 38.6441 188.853 43.4899 194.7 43.4899Z" fill="#3F3D56" />
    <path d="M522.898 24.5256H496.917C496.402 24.5358 495.911 24.7476 495.551 25.1154C495.19 25.4832 494.988 25.9778 494.988 26.4929C494.988 27.008 495.19 27.5025 495.551 27.8703C495.911 28.2382 496.402 28.4499 496.917 28.4601H522.898C523.413 28.4499 523.903 28.2382 524.264 27.8703C524.624 27.5025 524.826 27.008 524.826 26.4929C524.826 25.9778 524.624 25.4832 524.264 25.1154C523.903 24.7476 523.413 24.5358 522.898 24.5256Z" fill="#3F3D56" />
    <path d="M522.898 31.9102H496.917C496.402 31.9203 495.911 32.1321 495.551 32.4999C495.19 32.8677 494.988 33.3623 494.988 33.8774C494.988 34.3925 495.19 34.8871 495.551 35.2549C495.911 35.6227 496.402 35.8344 496.917 35.8446H522.898C523.413 35.8344 523.903 35.6227 524.264 35.2549C524.624 34.8871 524.826 34.3925 524.826 33.8774C524.826 33.3623 524.624 32.8677 524.264 32.4999C523.903 32.1321 523.413 31.9203 522.898 31.9102Z" fill="#3F3D56" />
    <path d="M522.898 39.2847H496.917C496.402 39.2949 495.911 39.5066 495.551 39.8744C495.19 40.2422 494.988 40.7368 494.988 41.2519C494.988 41.767 495.19 42.2616 495.551 42.6294C495.911 42.9972 496.402 43.2089 496.917 43.2191H522.898C523.413 43.2089 523.903 42.9972 524.264 42.6294C524.624 42.2616 524.826 41.767 524.826 41.2519C524.826 40.7368 524.624 40.2422 524.264 39.8744C523.903 39.5066 523.413 39.2949 522.898 39.2847Z" fill="#3F3D56" />
    <path d="M229.725 161.871H166.196C163.8 161.871 161.857 163.813 161.857 166.21V172.972C161.857 175.369 163.8 177.311 166.196 177.311H229.725C232.121 177.311 234.064 175.369 234.064 172.972V166.21C234.064 163.813 232.121 161.871 229.725 161.871Z" fill="#58DBC3" />
    <path d="M266.396 192.752H129.525C127.128 192.752 125.186 194.694 125.186 197.091V203.853C125.186 206.25 127.128 208.192 129.525 208.192H266.396C268.793 208.192 270.735 206.25 270.735 203.853V197.091C270.735 194.694 268.793 192.752 266.396 192.752Z" fill="#E6E6E6" />
    <path d="M266.396 223.633H129.525C127.128 223.633 125.186 225.575 125.186 227.972V234.734C125.186 237.131 127.128 239.073 129.525 239.073H266.396C268.793 239.073 270.735 237.131 270.735 234.734V227.972C270.735 225.575 268.793 223.633 266.396 223.633Z" fill="#E6E6E6" />
    <path d="M137.066 334.997C137.076 341.357 135.943 347.667 133.72 353.626H83.8115C81.5429 353.622 79.3683 352.719 77.7642 351.115C76.16 349.511 75.2571 347.337 75.2532 345.068V282.295C78.0418 281.844 80.8621 281.618 83.687 281.619C90.6969 281.618 97.6382 282.999 104.115 285.681C110.591 288.363 116.476 292.295 121.432 297.252C126.389 302.209 130.321 308.093 133.003 314.57C135.686 321.046 137.066 327.987 137.066 334.997Z" fill="#58DBC3" />
    <path opacity="0.2" d="M578.328 122.355V117.8H501.979V65.0085H497.442V117.8H409.937V65.0085H405.4V117.8H347.608C346.968 119.312 346.345 120.825 345.758 122.355H405.4V211.639H331.346C331.417 213.17 331.524 214.682 331.648 216.194H405.4V287.419H350.153C350.829 288.949 351.541 290.462 352.288 291.956H405.4V351.829H409.937V291.956H497.442V351.829H501.979V291.956H578.328V287.419H501.979V287.419C501.979 278.066 503.821 268.804 507.401 260.163C510.98 251.521 516.227 243.669 522.84 237.056C529.454 230.442 537.306 225.195 545.947 221.616C554.589 218.037 563.851 216.194 573.204 216.194H578.328V211.639H501.979V122.355H578.328ZM497.442 287.419H409.937V216.194H497.442V287.419ZM497.442 211.639H409.937V209.86C409.937 186.652 419.156 164.395 435.566 147.985C451.977 131.574 474.234 122.355 497.442 122.355H497.442V211.639Z" fill="black" />
    <path d="M516.856 319.916C515.882 319.96 514.918 319.705 514.094 319.183C513.27 318.662 512.627 317.899 512.251 317C511.874 316.101 511.784 315.107 511.991 314.155C512.199 313.202 512.694 312.336 513.41 311.674C513.53 311.198 513.616 310.856 513.735 310.379C513.693 310.275 513.649 310.172 513.606 310.068C509.229 299.63 494.393 299.702 490.053 310.156C486.201 319.434 481.296 328.727 480.089 338.537C479.557 342.873 479.781 347.269 480.752 351.529C471.704 331.792 467.006 310.34 466.975 288.629C466.973 283.18 467.276 277.736 467.882 272.322C468.383 267.883 469.077 263.476 469.966 259.1C474.816 235.359 485.228 213.107 500.347 194.171C507.665 190.178 513.583 184.038 517.303 176.578C518.651 173.897 519.604 171.034 520.132 168.08C519.306 168.188 518.467 168.256 517.642 168.31C517.385 168.323 517.114 168.337 516.857 168.35L516.76 168.355C515.852 168.395 514.953 168.173 514.169 167.714C513.385 167.256 512.751 166.58 512.342 165.769C511.933 164.958 511.767 164.046 511.865 163.143C511.962 162.241 512.318 161.385 512.891 160.68C513.247 160.241 513.604 159.803 513.961 159.365C514.502 158.688 515.057 158.025 515.598 157.348C515.661 157.284 515.719 157.216 515.774 157.145C516.397 156.374 517.019 155.616 517.642 154.845C516.505 153.081 514.977 151.604 513.176 150.528C506.937 146.874 498.33 149.405 493.824 155.048C489.304 160.691 488.452 168.607 490.021 175.658C491.361 181.694 494.284 187.228 497.573 192.493C497.234 192.926 496.882 193.345 496.544 193.778C490.36 201.731 484.969 210.27 480.451 219.274C481.55 209.187 480.238 198.983 476.624 189.502C472.961 180.666 466.096 173.224 460.05 165.585C452.788 156.41 437.897 160.414 436.617 172.045C436.605 172.158 436.593 172.271 436.581 172.383C437.479 172.89 438.358 173.427 439.218 173.996C440.299 174.718 441.136 175.75 441.62 176.955C442.104 178.161 442.213 179.485 441.932 180.754C441.651 182.023 440.993 183.177 440.045 184.065C439.097 184.954 437.902 185.535 436.618 185.733L436.486 185.753C436.806 188.99 437.372 192.197 438.178 195.348C440.514 204.144 444.642 212.362 450.303 219.488C455.964 226.614 463.036 232.493 471.076 236.758C471.603 237.029 472.118 237.299 472.646 237.556C468.106 250.422 465.258 263.824 464.174 277.424C463.56 285.447 463.597 293.508 464.282 301.525L464.242 301.241C462.509 292.325 457.753 284.281 450.777 278.466C440.415 269.954 425.775 266.819 414.596 259.977C409.215 256.683 402.319 260.94 403.258 267.178C403.273 267.278 403.289 267.378 403.304 267.477C404.971 268.156 406.593 268.938 408.162 269.818C409.06 270.325 409.939 270.863 410.799 271.431C411.88 272.153 412.717 273.185 413.201 274.391C413.686 275.596 413.794 276.92 413.513 278.189C413.232 279.458 412.574 280.612 411.626 281.501C410.678 282.389 409.483 282.97 408.199 283.168L408.068 283.189C407.973 283.202 407.892 283.216 407.797 283.229C410.644 290.028 414.641 296.286 419.611 301.728C425.751 308.317 433.172 313.582 441.419 317.2C449.666 320.819 458.565 322.715 467.571 322.772H467.584C470.029 333.395 473.571 343.735 478.153 353.626H515.909C516.045 353.207 516.167 352.773 516.288 352.354C512.794 352.574 509.285 352.365 505.841 351.732C508.642 348.294 511.444 344.83 514.245 341.393C514.307 341.328 514.366 341.26 514.421 341.19C515.842 339.43 517.276 337.685 518.697 335.925L518.698 335.923C518.774 330.531 518.155 325.151 516.857 319.916L516.856 319.916ZM473.62 234.863L473.64 234.837L473.62 234.89V234.863ZM465.257 310.254L464.932 309.523C464.945 308.995 464.945 308.468 464.932 307.926C464.932 307.777 464.905 307.629 464.905 307.48C465.027 308.413 465.135 309.347 465.27 310.281L465.257 310.254Z" fill="#2F2E41" />
    <path d="M180.65 231.612V180.868C180.65 173.079 177.556 165.609 172.048 160.101C166.541 154.594 159.071 151.5 151.282 151.5H43.7748C35.9857 151.5 28.5157 154.594 23.0079 160.101C17.5002 165.609 14.406 173.079 14.406 180.868V459.25C14.406 467.039 17.5002 474.51 23.0079 480.017C28.5157 485.525 35.9857 488.619 43.7748 488.619H151.282C155.138 488.619 158.957 487.86 162.521 486.384C166.084 484.908 169.321 482.744 172.048 480.017C174.776 477.29 176.939 474.053 178.415 470.489C179.891 466.926 180.65 463.107 180.65 459.25V267.732C181.142 267.732 181.613 267.537 181.96 267.189C182.308 266.842 182.503 266.371 182.503 265.879V233.464C182.503 232.973 182.308 232.502 181.96 232.154C181.613 231.807 181.142 231.612 180.65 231.612Z" fill="#E6E6E6" />
    <path d="M174.4 181.07V459.05C174.401 464.824 172.123 470.365 168.062 474.47C164.001 478.574 158.484 480.91 152.71 480.97C152.63 480.978 152.55 480.982 152.47 480.98H44.44C38.624 480.98 33.0463 478.669 28.9337 474.556C24.8212 470.444 22.5106 464.866 22.51 459.05V181.07C22.5105 175.254 24.8212 169.676 28.9337 165.564C33.0463 161.451 38.624 159.141 44.44 159.14H57.55C56.9055 160.723 56.6599 162.44 56.8347 164.14C57.0096 165.839 57.5996 167.47 58.5527 168.889C59.5059 170.307 60.793 171.469 62.3009 172.274C63.8087 173.078 65.4911 173.499 67.2 173.5H128.79C130.497 173.495 132.178 173.072 133.683 172.267C135.189 171.461 136.473 170.299 137.425 168.881C138.377 167.464 138.966 165.834 139.141 164.136C139.316 162.438 139.072 160.722 138.43 159.14H152.47C158.286 159.141 163.864 161.451 167.976 165.564C172.089 169.676 174.4 175.254 174.4 181.07Z" fill="white" />
    <path d="M152.98 472.4C152.98 475.28 152.89 478.137 152.71 480.97C152.63 480.978 152.55 480.982 152.47 480.98H44.44C38.624 480.979 33.0463 478.669 28.9337 474.556C24.8212 470.444 22.5106 464.866 22.51 459.05V335.17C57.708 336.945 90.878 352.178 115.161 377.719C139.445 403.261 152.984 437.157 152.98 472.4Z" fill="#F2F2F2" />
    <path d="M15 260C14.3372 259.999 13.7018 259.735 13.2331 259.266C12.7644 258.798 12.5008 258.162 12.5 257.5V240.5C12.5 239.836 12.7634 239.201 13.2322 238.732C13.7011 238.263 14.337 238 15 238C15.663 238 16.2989 238.263 16.7678 238.732C17.2366 239.201 17.5 239.836 17.5 240.5V257.5C17.4992 258.162 17.2356 258.798 16.7669 259.266C16.2982 259.735 15.6628 259.999 15 260Z" fill="#E6E6E6" />
    <path d="M111.72 246.426H85.1908C82.7944 246.426 80.8518 248.368 80.8518 250.765V257.527C80.8518 259.924 82.7944 261.866 85.1908 261.866H111.72C114.116 261.866 116.059 259.924 116.059 257.527V250.765C116.059 248.368 114.116 246.426 111.72 246.426Z" fill="#58DBC3" />
    <path d="M148.391 277.307H48.5194C46.123 277.307 44.1804 279.25 44.1804 281.646V288.408C44.1804 290.805 46.123 292.747 48.5194 292.747H148.391C150.787 292.747 152.73 290.805 152.73 288.408V281.646C152.73 279.25 150.787 277.307 148.391 277.307Z" fill="#E6E6E6" />
    <path d="M148.391 308.188H48.5194C46.123 308.188 44.1804 310.131 44.1804 312.527V319.29C44.1804 321.686 46.123 323.629 48.5194 323.629H148.391C150.787 323.629 152.73 321.686 152.73 319.29V312.527C152.73 310.131 150.787 308.188 148.391 308.188Z" fill="#E6E6E6" />
    <path d="M124.36 465.161C123.903 465.182 123.451 465.062 123.064 464.817C122.678 464.572 122.376 464.215 122.199 463.793C122.023 463.371 121.98 462.904 122.078 462.457C122.175 462.01 122.407 461.604 122.743 461.294L122.896 460.686C122.876 460.637 122.856 460.588 122.835 460.54C122.375 459.452 121.604 458.525 120.618 457.875C119.632 457.224 118.476 456.88 117.295 456.884C116.115 456.888 114.961 457.242 113.98 457.899C113 458.557 112.235 459.49 111.783 460.581C109.975 464.935 107.674 469.296 107.107 473.899C106.857 475.934 106.963 477.997 107.418 479.996C103.172 470.734 100.967 460.668 100.953 450.479C100.952 447.922 101.094 445.368 101.379 442.827C101.614 440.744 101.94 438.676 102.357 436.622C104.632 425.481 109.518 415.039 116.613 406.153C120.047 404.279 122.824 401.398 124.57 397.897C125.203 396.639 125.65 395.296 125.898 393.909C125.51 393.96 125.117 393.992 124.729 394.017C124.609 394.024 124.482 394.03 124.361 394.036L124.315 394.038C123.89 394.057 123.467 393.953 123.1 393.738C122.732 393.523 122.434 393.206 122.242 392.825C122.05 392.445 121.973 392.017 122.018 391.593C122.064 391.169 122.231 390.768 122.5 390.437C122.667 390.231 122.834 390.025 123.002 389.82C123.256 389.502 123.516 389.191 123.77 388.873C123.8 388.843 123.827 388.811 123.853 388.778C124.145 388.416 124.437 388.061 124.729 387.699C124.196 386.871 123.479 386.178 122.634 385.673C119.706 383.958 115.667 385.146 113.552 387.794C111.431 390.442 111.031 394.157 111.768 397.466C112.492 400.281 113.691 402.952 115.312 405.365C115.153 405.569 114.988 405.765 114.829 405.969C111.927 409.701 109.397 413.708 107.277 417.933C107.792 413.2 107.177 408.411 105.481 403.962C103.762 399.816 100.541 396.323 97.7034 392.739C96.953 391.776 95.934 391.057 94.7752 390.673C93.6163 390.289 92.3696 390.257 91.1928 390.582C90.0159 390.906 88.9616 391.572 88.1632 392.496C87.3648 393.419 86.8581 394.559 86.7072 395.77C86.7014 395.823 86.6957 395.876 86.6902 395.929C87.1116 396.166 87.5241 396.419 87.9277 396.686C88.4347 397.025 88.8276 397.509 89.0548 398.074C89.2821 398.64 89.3331 399.262 89.2012 399.857C89.0693 400.452 88.7606 400.994 88.3157 401.411C87.8707 401.828 87.3101 402.101 86.7074 402.193L86.6457 402.203C86.7959 403.722 87.0612 405.227 87.4395 406.705C88.5357 410.833 90.4728 414.69 93.1293 418.034C95.7859 421.378 99.1046 424.137 102.877 426.138C103.125 426.265 103.366 426.392 103.614 426.512C101.484 432.55 100.147 438.839 99.6387 445.221C99.3508 448.986 99.3678 452.768 99.6895 456.531L99.6705 456.398C98.8575 452.214 96.6257 448.439 93.3518 445.71C88.4892 441.715 81.6193 440.244 76.3734 437.034C75.8159 436.676 75.1676 436.485 74.5051 436.483C73.8426 436.481 73.1934 436.669 72.6342 437.025C72.0749 437.38 71.6289 437.888 71.3488 438.488C71.0686 439.088 70.966 439.756 71.0531 440.413L71.0745 440.553C71.8565 440.872 72.6179 441.239 73.3543 441.652C73.7757 441.89 74.1882 442.142 74.5918 442.409C75.0988 442.748 75.4917 443.232 75.7189 443.797C75.9462 444.363 75.9972 444.985 75.8653 445.58C75.7334 446.175 75.4247 446.717 74.9797 447.134C74.5348 447.551 73.9742 447.824 73.3715 447.917L73.3098 447.926C73.2654 447.932 73.2272 447.939 73.1828 447.945C74.5189 451.136 76.3943 454.072 78.7267 456.626C81.608 459.718 85.0904 462.189 88.9604 463.887C92.8304 465.585 97.0065 466.474 101.233 466.501H101.239C102.386 471.486 104.048 476.339 106.199 480.98H123.916C123.98 480.783 124.037 480.58 124.094 480.383C122.454 480.486 120.808 480.388 119.192 480.091C120.506 478.478 121.821 476.852 123.135 475.239C123.165 475.209 123.192 475.177 123.218 475.144C123.885 474.318 124.558 473.499 125.225 472.674L125.225 472.673C125.26 470.142 124.97 467.618 124.361 465.161L124.36 465.161ZM104.071 425.249L104.081 425.236L104.071 425.261V425.249ZM100.147 460.627L99.9943 460.284C100.001 460.036 100.001 459.789 99.9943 459.535C99.9943 459.465 99.9816 459.395 99.9816 459.325C100.039 459.763 100.09 460.202 100.153 460.64L100.147 460.627Z" fill="#CCCCCC" />
    <path d="M14.5 227C13.8372 226.999 13.2018 226.735 12.7331 226.266C12.2644 225.798 12.0008 225.162 12 224.5V207.5C12 206.836 12.2634 206.201 12.7322 205.732C13.2011 205.263 13.837 205 14.5 205C15.163 205 15.7989 205.263 16.2678 205.732C16.7366 206.201 17 206.836 17 207.5V224.5C16.9992 225.162 16.7356 225.798 16.2669 226.266C15.7982 226.735 15.1628 226.999 14.5 227Z" fill="#E6E6E6" />
    <path d="M81 162C81.0008 161.337 81.2644 160.701 81.7331 160.233C82.2018 159.764 82.8372 159.5 83.5 159.5H100.5C101.163 159.5 101.799 159.763 102.268 160.232C102.737 160.701 103 161.336 103 162C103 162.663 102.737 163.298 102.268 163.767C101.799 164.236 101.163 164.5 100.5 164.5H83.5C82.8372 164.499 82.2018 164.235 81.7331 163.766C81.2644 163.298 81.0008 162.662 81 162Z" fill="white" />
    <path d="M15 289C14.3372 288.999 13.7018 288.735 13.2331 288.266C12.7644 287.798 12.5008 287.162 12.5 286.5V269.5C12.5 268.836 12.7634 268.201 13.2322 267.732C13.7011 267.263 14.337 267 15 267C15.663 267 16.2989 267.263 16.7678 267.732C17.2366 268.201 17.5 268.836 17.5 269.5V286.5C17.4992 287.162 17.2356 287.798 16.7669 288.266C16.2982 288.735 15.6628 288.999 15 289Z" fill="#E6E6E6" />
    <path d="M110 164.5C111.381 164.5 112.5 163.38 112.5 162C112.5 160.619 111.381 159.5 110 159.5C108.619 159.5 107.5 160.619 107.5 162C107.5 163.38 108.619 164.5 110 164.5Z" fill="white" />
    <path d="M364.024 661.962L364.505 651.131C369.527 648.446 375.128 647.028 380.823 647C372.986 653.407 373.965 665.758 368.652 674.375C366.974 677.049 364.716 679.312 362.045 680.996C359.374 682.679 356.358 683.739 353.221 684.099L346.663 688.114C345.763 683.097 345.961 677.945 347.244 673.012C348.527 668.08 350.865 663.484 354.095 659.541C355.929 657.347 358.032 655.393 360.354 653.725C361.925 657.867 364.024 661.962 364.024 661.962Z" fill="#F2F2F2" />
    <path d="M197.689 363.096L193.178 364.062C193.148 362.175 192.913 360.297 192.476 358.461C192.066 360.709 191.202 362.851 189.936 364.754L164.06 370.28L139.216 344.063C139.178 330.954 146.458 320.992 159.51 320.992C160.297 320.992 161.112 321.03 161.936 321.106C168.988 319.926 176.223 321.528 182.117 325.574C188.012 329.621 192.106 335.797 193.538 342.802C202.789 351.911 199.433 357.266 197.689 363.096Z" fill="#2F2E41" />
    <path d="M210.411 669.7H219.797L224.263 633.495L210.409 633.496L210.411 669.7Z" fill="#FFB6B6" />
    <path d="M208.083 665.07L222.921 664.185V670.542L237.028 680.284C237.724 680.765 238.249 681.457 238.525 682.257C238.801 683.057 238.814 683.925 238.562 684.734C238.31 685.542 237.807 686.249 237.125 686.75C236.442 687.252 235.618 687.523 234.771 687.523H217.106L214.062 681.235L212.873 687.523H206.212L208.083 665.07Z" fill="#2F2E41" />
    <path d="M100.447 659.483L108.611 664.115L130.361 634.83L118.312 627.994L100.447 659.483Z" fill="#FFB6B6" />
    <path d="M100.707 654.308L114.049 660.86L110.912 666.389L118.374 681.824C118.742 682.586 118.858 683.446 118.703 684.279C118.548 685.111 118.131 685.872 117.513 686.451C116.895 687.03 116.108 687.396 115.267 687.496C114.426 687.595 113.575 687.424 112.839 687.006L97.475 678.289L97.93 671.317L93.7928 676.199L88 672.912L100.707 654.308Z" fill="#2F2E41" />
    <path d="M245.106 369.439C243.903 369.613 242.753 370.048 241.737 370.715C240.721 371.381 239.863 372.262 239.224 373.296C238.585 374.33 238.181 375.491 238.04 376.698C237.898 377.905 238.023 379.129 238.406 380.282L224.043 392.714L229.469 403.285L249.506 385.444C251.401 384.673 252.947 383.233 253.852 381.398C254.757 379.563 254.957 377.46 254.415 375.487C253.873 373.514 252.625 371.809 250.91 370.694C249.194 369.579 247.129 369.132 245.106 369.439H245.106Z" fill="#FFB6B6" />
    <path d="M230.642 412.189C225.851 419.445 215.113 426.453 199.176 432.666C198.297 433.018 197.355 433.184 196.408 433.153C195.462 433.122 194.532 432.895 193.678 432.486C187.664 429.749 183.81 419.574 183.448 418.587L171.8 402.875C171.593 402.646 166.147 396.464 166.77 390.387C166.91 389.113 167.324 387.885 167.984 386.787C168.644 385.689 169.534 384.747 170.592 384.025C179.41 377.489 199.171 400.19 201.735 403.208L214.632 395.35L224.029 391.158L231.615 381.927L242.297 392.848L232.69 408.131C232.178 409.563 231.49 410.926 230.642 412.189Z" fill="#2F2E41" />
    <path d="M197.144 440.029C197.144 440.029 224.742 483.989 219.742 488.989C214.742 493.989 206.962 495.302 206.962 495.302L189.742 472.989L197.144 440.029Z" fill="#2F2E41" />
    <path d="M172.742 379.99L185.75 388.789C191.795 392.878 196.342 398.828 198.701 405.736C201.06 412.643 201.103 420.131 198.821 427.065L195.16 438.195L172.742 379.99Z" fill="#2F2E41" />
    <path d="M149.742 499.989L148.003 506.046L142.069 579.087L112.423 634.337L126.572 644.443L166.999 591.888L182.989 539.705L208.1 655.224L226.966 653.876L213.863 493.711L189 448.628L149.742 499.989Z" fill="#2F2E41" />
    <path d="M170.53 382.202L188.634 396.997C192.607 400.244 195.468 404.65 196.818 409.601C197.431 411.849 197.722 414.172 197.683 416.502L197.144 448.629L213.742 492.989C213.742 492.989 168.742 509.989 162.742 494.989C156.742 479.989 170.53 382.202 170.53 382.202Z" fill="#58DBC3" />
    <path d="M175.945 502.776C153.465 502.776 147.986 502.945 147.631 502.873L147.276 502.801V489.28L152.742 464.99C152.104 457.448 150.607 447.504 150.742 438.99C151.232 408.214 149.719 378.152 149.719 378.152L161.618 367.17L167.023 370.687L177.049 380.713C188.704 409.395 197.952 436.397 198.01 438.132L198.742 467.99L195.742 479.99C182.171 489.57 194.571 502.776 175.945 502.776Z" fill="#2F2E41" />
    <path opacity="0.2" d="M154.762 404.962L152.029 422.02L170.53 429.651L154.762 404.962Z" fill="black" />
    <path d="M173.4 363.97C183.403 363.97 191.513 355.86 191.513 345.856C191.513 335.852 183.403 327.742 173.4 327.742C163.396 327.742 155.286 335.852 155.286 345.856C155.286 355.86 163.396 363.97 173.4 363.97Z" fill="#FFB6B6" />
    <path opacity="0.2" d="M143.049 437.763C147.869 443.345 154.409 447.167 161.638 448.628C168.868 450.089 176.378 449.107 182.988 445.836L186.93 443.884L143.049 437.763Z" fill="black" />
    <path d="M206.08 433.593C205.272 432.685 204.275 431.966 203.158 431.485C202.042 431.004 200.834 430.774 199.62 430.811C198.405 430.848 197.213 431.15 196.128 431.697C195.043 432.245 194.091 433.023 193.339 433.978L175.05 428.844L169.219 439.197L195.149 446.085C196.836 447.241 198.89 447.738 200.92 447.482C202.95 447.226 204.815 446.234 206.163 444.694C207.51 443.154 208.246 441.174 208.23 439.128C208.215 437.082 207.45 435.113 206.08 433.593H206.08Z" fill="#FFB6B6" />
    <path d="M162.436 445.083C153.741 445.083 141.975 439.985 128.009 430.111C127.231 429.571 126.573 428.876 126.077 428.069C125.581 427.263 125.258 426.362 125.129 425.424C124.099 418.897 130.465 410.073 131.089 409.228L137.782 390.849C137.859 390.55 140.015 382.599 145.43 379.77C146.57 379.185 147.823 378.854 149.103 378.799C150.383 378.745 151.66 378.968 152.845 379.454C163.159 383.209 155.106 412.209 154 416.012L167.664 422.444L176.341 427.975L188.225 429.218L184.998 444.149L166.951 444.555C165.474 444.917 163.957 445.094 162.436 445.083Z" fill="#2F2E41" />
    <path d="M195.121 333.94C193.67 335.826 188.675 337.494 182.742 338.84C182.751 338.717 182.751 338.594 182.751 338.471C182.722 336.583 182.486 334.705 182.05 332.869C181.639 335.118 180.775 337.259 179.509 339.163C179.415 339.305 179.32 339.447 179.216 339.589C174.126 340.594 168.742 341.371 164.524 341.892C167.424 352.338 178.543 360.906 177.339 367.257L144.761 373.911C144.962 371.272 144.751 368.618 144.136 366.044C143.513 369.441 141.865 372.566 139.415 375.001L136.648 375.57L135.823 371.503C128.676 354.338 138.638 336.765 154.96 327.675C157.87 323.312 162.389 320.279 167.529 319.239L171.595 318.405C174.16 317.88 176.803 317.865 179.373 318.362C181.943 318.859 184.391 319.857 186.575 321.3C188.76 322.742 190.639 324.601 192.105 326.77C193.571 328.939 194.596 331.375 195.121 333.94Z" fill="#2F2E41" />
    <g clip-path="url(#clip0_64_421)">
        <path fill-rule="evenodd" clip-rule="evenodd" d="M244.556 62V68.8041C242.284 71.055 240.399 73.6563 239 76.5075V62H244.556Z" fill="#58DBC3" />
        <path fill-rule="evenodd" clip-rule="evenodd" d="M291.777 62V76.5088C291.371 75.6823 290.924 74.8782 290.442 74.098C290.018 73.4129 289.566 72.749 289.087 72.1037C288.219 70.9359 287.26 69.8343 286.223 68.8041V62H291.777Z" fill="#58DBC3" />
        <path fill-rule="evenodd" clip-rule="evenodd" d="M338.999 62V88.4494C338.999 94.5685 336.925 100.205 333.446 104.685C328.615 110.898 321.078 114.899 312.611 114.899C312.146 114.899 311.687 114.886 311.227 114.866H311.224C303.371 114.457 296.427 110.606 291.865 104.798C291.834 104.759 291.805 104.722 291.777 104.687C291.308 104.08 290.861 103.452 290.442 102.801C289.915 101.99 289.434 101.145 289 100.272C287.937 98.1471 287.154 95.8553 286.692 93.4484H292.413C292.663 94.4429 292.99 95.4083 293.379 96.3393C293.831 97.4184 294.379 98.4526 295.005 99.4286C298.691 105.196 305.2 109.024 312.618 109.024C324.117 109.024 333.444 99.8108 333.444 88.4507V62H338.999Z" fill="#58DBC3" />
        <path fill-rule="evenodd" clip-rule="evenodd" d="M247.072 85.5122H286.011C285.76 83.7837 285.294 82.1254 284.636 80.5635C281.502 73.1167 274.064 67.8771 265.387 67.8771C253.882 67.8771 244.556 77.0894 244.556 88.4494C244.556 99.8095 253.883 109.023 265.387 109.023C274.064 109.023 281.503 103.782 284.636 96.3353C285.059 97.6988 285.593 99.0133 286.223 100.272C286.639 101.117 287.105 101.933 287.611 102.722C287.178 103.399 286.712 104.052 286.223 104.687C284.977 106.291 283.55 107.743 281.975 109.023C277.442 112.698 271.672 114.899 265.387 114.899C259.104 114.899 253.334 112.698 248.801 109.023C247.224 107.742 245.799 106.291 244.556 104.687C241.072 100.205 239 94.5685 239 88.4494C239 82.3304 241.072 76.694 244.556 72.2148C245.8 70.6119 247.226 69.1546 248.801 67.8771C253.334 64.2019 259.104 62 265.387 62C271.672 62 277.442 64.2019 281.974 67.8771C283.55 69.1546 284.977 70.6106 286.221 72.2148C286.711 72.8469 287.176 73.5029 287.61 74.1773C288.114 74.9655 288.577 75.7815 288.999 76.6252C290.361 79.3508 291.264 82.3462 291.616 85.5122C291.722 86.4737 291.776 87.4549 291.776 88.4494C291.776 89.4439 291.722 90.4252 291.616 91.3893H247.072V85.5122Z" fill="#58DBC3" />
    </g>
    <defs>
        <clipPath id="clip0_64_421">
            <rect width="100" height="52.8989" fill="white" transform="translate(239 62)" />
        </clipPath>
    </defs>
</svg>
