<svg width="241" height="260" viewBox="0 0 241 260" fill="none" xmlns="http://www.w3.org/2000/svg">
    <g clip-path="url(#clip0_51696_6199)">
        <path d="M200.611 197H4.38917C3.22551 196.999 2.50001 197 0 197C0 195.5 0.00134894 193.591 6.88434e-06 192.361V4.6385C0.00130529 3.40872 1.04308e-06 1.5 1.04308e-06 2.42591e-05C1.00001 0 3.22549 0.00137217 4.38917 0H200.611C201.774 0.00137073 204 6.83069e-05 205 6.83069e-05C205 1.00007 204.999 3.40872 205 4.6385V192.361C204.999 193.591 205 196 205 197C200.611 197 201.774 196.999 200.611 197Z" fill="#3F3D56" />
        <path d="M199.471 196H5.52888C4.32817 195.999 3 196 1 196C1 194.5 1.00139 192.469 1.00001 191.196V5.80435C1.00135 4.5306 1.00001 4.00001 1.00001 2.50001C1.00001 1.50001 1 2.00001 1 1.00001H199.471C200.672 1.00143 202 0.999982 204 1C204 2.49992 203.999 4.5306 204 5.80435V191.196C203.999 192.469 204 194.5 204 196C202.5 196 200.672 195.999 199.471 196Z" fill="white" />
        <path d="M17.5542 23.3893C33.9439 23.1061 50.3353 23.0654 66.7285 23.2672C83.1194 23.4702 99.5047 23.9168 115.885 24.6069C125.076 24.9942 134.264 25.4582 143.448 25.9988C144.185 26.0422 144.183 24.9016 143.448 24.8584C127.084 23.8963 110.709 23.1765 94.3211 22.6988C77.9361 22.2224 61.5463 21.9896 45.1517 22.0004C35.952 22.0064 26.7529 22.0893 17.5542 22.2489C16.8164 22.2616 16.8141 23.4021 17.5542 23.3893V23.3893Z" fill="#3F3D56" />
        <path d="M131.533 15.9989L138.467 15.6823C139.175 15.65 139.181 14.9685 138.467 15.0011L131.533 15.3177C130.825 15.35 130.819 16.0315 131.533 15.9989V15.9989Z" fill="#3F3D56" />
        <path d="M131.533 22.9989L138.467 22.6823C139.175 22.65 139.181 21.9685 138.467 22.0011L131.533 22.3177C130.825 22.35 130.819 23.0315 131.533 22.9989V22.9989Z" fill="#3F3D56" />
        <path d="M131.536 20.1068L141.464 20.9973C142.181 21.0616 142.176 19.9571 141.464 19.8932L131.536 19.0027C130.819 18.9384 130.824 20.0429 131.536 20.1068V20.1068Z" fill="#3F3D56" />
        <path d="M21.6473 15C21.1364 14.9969 20.6359 15.1437 20.2082 15.422C19.7804 15.7004 19.4443 16.098 19.2418 16.5654C19.0153 17.0228 18.9454 17.5416 19.0428 18.0424C19.1401 18.5432 19.3994 18.9984 19.781 19.3384C20.1397 19.6425 20.5699 19.851 21.0314 19.9444C21.493 20.0379 21.9707 20.0132 22.4201 19.8727C22.8796 19.7127 23.2781 19.4148 23.5607 19.0199C23.8433 18.625 23.9961 18.1525 23.9981 17.6675C24.0186 17.1294 23.8723 16.5981 23.5791 16.1458C23.2859 15.6934 22.8599 15.3421 22.3592 15.1394C22.2088 15.0987 22.0483 15.1189 21.9127 15.1956C21.7772 15.2723 21.6775 15.3993 21.6355 15.5489C21.5984 15.6986 21.6203 15.8569 21.6968 15.991C21.7732 16.1251 21.8984 16.225 22.0464 16.27C22.149 16.3094 21.9528 16.2197 22.0485 16.2717C22.0879 16.2931 22.128 16.3124 22.1666 16.3352C22.1995 16.3546 22.231 16.3758 22.2629 16.3966C22.3727 16.468 22.2093 16.3442 22.2795 16.4084C22.3404 16.4641 22.4007 16.5184 22.456 16.5798C22.4769 16.6031 22.5589 16.6676 22.4952 16.6225C22.4465 16.588 22.4764 16.5961 22.4952 16.6238C22.5095 16.6449 22.5245 16.6653 22.5386 16.6865C22.5845 16.7557 22.6262 16.8275 22.6635 16.9016C22.6721 16.9187 22.68 16.9363 22.6888 16.9533C22.7053 16.9853 22.7292 16.9937 22.6904 16.9536C22.6534 16.9154 22.677 16.918 22.6902 16.9548C22.6989 16.979 22.7084 17.0029 22.7169 17.0272C22.7445 17.1063 22.7677 17.1868 22.7863 17.2684C22.7949 17.3062 22.8018 17.3441 22.8092 17.3821C22.8355 17.5167 22.8054 17.2984 22.8118 17.3984C22.8171 17.4819 22.8233 17.5645 22.8218 17.6483C22.8211 17.6867 22.8195 17.725 22.8168 17.7632C22.8154 17.7823 22.8133 17.8014 22.812 17.8205C22.8059 17.9124 22.8057 17.7868 22.8186 17.7782C22.7918 17.8563 22.7739 17.9372 22.7655 18.0194C22.7549 18.0558 22.7424 18.0915 22.7307 18.1275C22.6898 18.2533 22.7691 18.059 22.7255 18.1449C22.6896 18.2188 22.6495 18.2905 22.6053 18.3597C22.5861 18.3887 22.5139 18.4543 22.573 18.4087C22.6371 18.3592 22.5393 18.4444 22.5185 18.4663C22.4917 18.4945 22.4639 18.5217 22.435 18.5479C22.4166 18.5658 22.3971 18.5827 22.3767 18.5984C22.373 18.5965 22.475 18.5305 22.42 18.5654C22.3501 18.6099 22.2839 18.6574 22.2102 18.6961C22.2016 18.7006 22.1075 18.744 22.1079 18.7456C22.1038 18.7298 22.2289 18.7017 22.143 18.7293C22.125 18.7351 22.1073 18.7422 22.0893 18.7482C22.0111 18.7744 21.9313 18.7956 21.8503 18.8116C21.8318 18.8153 21.8122 18.8172 21.7939 18.8219C21.7331 18.8375 21.852 18.8127 21.8556 18.8147C21.8107 18.8128 21.7657 18.8168 21.7217 18.8265C21.6383 18.8313 21.5546 18.8313 21.4711 18.8265C21.4518 18.8254 21.4325 18.8235 21.4132 18.8224C21.3684 18.8198 21.3355 18.7876 21.3951 18.8225C21.4412 18.8495 21.4373 18.8298 21.3966 18.8223C21.3775 18.8188 21.3583 18.8159 21.3393 18.8123C21.2567 18.7969 21.175 18.7769 21.0945 18.7526C21.0513 18.7394 21.0089 18.7241 20.9662 18.7093C20.9476 18.7039 20.9295 18.697 20.9121 18.6885C20.9118 18.6837 21.0221 18.741 20.9639 18.7098C20.8904 18.6703 20.8144 18.6372 20.7426 18.5941C20.7043 18.5711 20.6675 18.546 20.6303 18.5214C20.6139 18.5116 20.5984 18.5005 20.5837 18.4882C20.585 18.4832 20.675 18.5663 20.6277 18.5214C20.568 18.4647 20.5041 18.4139 20.4475 18.3535C20.4346 18.3397 20.4223 18.3253 20.4094 18.3114L20.3969 18.2972C20.3651 18.2584 20.3645 18.2586 20.3952 18.2978C20.4264 18.3069 20.4249 18.341 20.3953 18.2967C20.3848 18.2809 20.3736 18.2656 20.3631 18.2498C20.3153 18.182 20.2746 18.1095 20.2415 18.0334C20.2443 18.0312 20.2924 18.1745 20.2557 18.0664C20.2487 18.0459 20.2409 18.0258 20.2341 18.0054C20.2206 17.9648 20.2087 17.9237 20.1984 17.8822C20.1882 17.8411 20.183 17.7986 20.1727 17.7577C20.1554 17.6886 20.1828 17.8121 20.1797 17.8091C20.1699 17.7994 20.1741 17.7395 20.1733 17.7252C20.1686 17.6332 20.1792 17.5439 20.1808 17.4525C20.1821 17.3817 20.1749 17.5077 20.1734 17.504C20.1738 17.4828 20.1776 17.4618 20.1846 17.4418C20.1952 17.3935 20.2052 17.3454 20.2182 17.2977C20.2331 17.2431 20.2503 17.1892 20.2698 17.1359C20.277 17.116 20.2859 17.0963 20.2926 17.0762C20.3174 17.0026 20.2436 17.1651 20.2843 17.0988C20.3403 17.0074 20.3819 16.9086 20.4414 16.8184C20.4555 16.797 20.5411 16.6779 20.4956 16.7381C20.4504 16.798 20.5421 16.6844 20.5595 16.6652C20.6317 16.5851 20.7165 16.5194 20.7913 16.4427C20.8355 16.3973 20.7604 16.4651 20.756 16.4682C20.7791 16.4517 20.8018 16.4346 20.8252 16.4186C20.866 16.3905 20.9079 16.364 20.9507 16.339C20.999 16.3108 21.0536 16.2898 21.1003 16.26C21.1556 16.2247 21.0581 16.2754 21.0563 16.2765C21.0816 16.264 21.108 16.254 21.1351 16.2466C21.1807 16.2305 21.3788 16.1453 21.4204 16.1719C21.4185 16.1707 21.27 16.1838 21.39 16.1762C21.4184 16.1743 21.4467 16.1716 21.4751 16.1704C21.5326 16.168 21.5899 16.1695 21.6473 16.1724C21.8031 16.1714 21.9521 16.1093 22.0622 15.9996C22.1723 15.8899 22.2346 15.7414 22.2357 15.5862C22.2323 15.4318 22.1693 15.2846 22.0596 15.1754C21.95 15.0662 21.8023 15.0034 21.6473 15V15Z" fill="#3F3D56" />
        <path d="M29.6473 15C29.1364 14.9969 28.6359 15.1437 28.2082 15.422C27.7804 15.7004 27.4443 16.098 27.2418 16.5654C27.0153 17.0228 26.9454 17.5416 27.0428 18.0424C27.1401 18.5432 27.3994 18.9984 27.781 19.3384C28.1397 19.6425 28.5699 19.851 29.0314 19.9444C29.493 20.0379 29.9707 20.0132 30.4201 19.8727C30.8796 19.7127 31.2781 19.4148 31.5607 19.0199C31.8433 18.625 31.9961 18.1525 31.9981 17.6675C32.0186 17.1294 31.8723 16.5981 31.5791 16.1458C31.2859 15.6934 30.8599 15.3421 30.3592 15.1394C30.2088 15.0987 30.0483 15.1189 29.9127 15.1956C29.7772 15.2723 29.6775 15.3993 29.6355 15.5489C29.5984 15.6986 29.6203 15.8569 29.6968 15.991C29.7732 16.1251 29.8984 16.225 30.0464 16.27C30.149 16.3094 29.9528 16.2197 30.0485 16.2717C30.0879 16.2931 30.128 16.3124 30.1666 16.3352C30.1995 16.3546 30.231 16.3758 30.2629 16.3966C30.3727 16.468 30.2093 16.3442 30.2795 16.4084C30.3404 16.4641 30.4007 16.5184 30.456 16.5798C30.4769 16.6031 30.5589 16.6676 30.4952 16.6225C30.4465 16.588 30.4764 16.5961 30.4952 16.6238C30.5095 16.6449 30.5245 16.6653 30.5386 16.6865C30.5845 16.7557 30.6262 16.8275 30.6635 16.9016C30.6721 16.9187 30.68 16.9363 30.6888 16.9533C30.7053 16.9853 30.7292 16.9937 30.6904 16.9536C30.6534 16.9154 30.677 16.918 30.6902 16.9548C30.6989 16.979 30.7084 17.0029 30.7169 17.0272C30.7445 17.1063 30.7677 17.1868 30.7863 17.2684C30.7949 17.3062 30.8018 17.3441 30.8092 17.3821C30.8355 17.5167 30.8054 17.2984 30.8118 17.3984C30.8171 17.4819 30.8233 17.5645 30.8218 17.6483C30.8211 17.6867 30.8195 17.725 30.8168 17.7632C30.8154 17.7823 30.8133 17.8014 30.812 17.8205C30.8059 17.9124 30.8057 17.7868 30.8186 17.7782C30.7918 17.8563 30.7739 17.9372 30.7655 18.0194C30.7549 18.0558 30.7424 18.0915 30.7307 18.1275C30.6898 18.2533 30.7691 18.059 30.7255 18.1449C30.6896 18.2188 30.6495 18.2905 30.6053 18.3597C30.5861 18.3887 30.5139 18.4543 30.573 18.4087C30.6371 18.3592 30.5393 18.4444 30.5185 18.4663C30.4917 18.4945 30.4639 18.5217 30.435 18.5479C30.4166 18.5658 30.3971 18.5827 30.3767 18.5984C30.373 18.5965 30.475 18.5305 30.42 18.5654C30.3501 18.6099 30.2839 18.6574 30.2102 18.6961C30.2016 18.7006 30.1075 18.744 30.1079 18.7456C30.1038 18.7298 30.2289 18.7017 30.143 18.7293C30.125 18.7351 30.1073 18.7422 30.0893 18.7482C30.0111 18.7744 29.9313 18.7956 29.8503 18.8116C29.8318 18.8153 29.8122 18.8172 29.7939 18.8219C29.7331 18.8375 29.852 18.8127 29.8556 18.8147C29.8107 18.8128 29.7657 18.8168 29.7217 18.8265C29.6383 18.8313 29.5546 18.8313 29.4711 18.8265C29.4518 18.8254 29.4325 18.8235 29.4132 18.8224C29.3684 18.8198 29.3355 18.7876 29.3951 18.8225C29.4412 18.8495 29.4373 18.8298 29.3966 18.8223C29.3775 18.8188 29.3583 18.8159 29.3393 18.8123C29.2567 18.7969 29.175 18.7769 29.0945 18.7526C29.0513 18.7394 29.0089 18.7241 28.9662 18.7093C28.9476 18.7039 28.9295 18.697 28.9121 18.6885C28.9118 18.6837 29.0221 18.741 28.9639 18.7098C28.8904 18.6703 28.8144 18.6372 28.7426 18.5941C28.7043 18.5711 28.6675 18.546 28.6303 18.5214C28.6139 18.5116 28.5984 18.5005 28.5837 18.4882C28.585 18.4832 28.675 18.5663 28.6277 18.5214C28.568 18.4647 28.5041 18.4139 28.4475 18.3535C28.4346 18.3397 28.4223 18.3253 28.4094 18.3114L28.3969 18.2972C28.3651 18.2584 28.3645 18.2586 28.3952 18.2978C28.4264 18.3069 28.4249 18.341 28.3953 18.2967C28.3848 18.2809 28.3736 18.2656 28.3631 18.2498C28.3153 18.182 28.2746 18.1095 28.2415 18.0334C28.2443 18.0312 28.2924 18.1745 28.2557 18.0664C28.2487 18.0459 28.2409 18.0258 28.2341 18.0054C28.2206 17.9648 28.2087 17.9237 28.1984 17.8822C28.1882 17.8411 28.183 17.7986 28.1727 17.7577C28.1554 17.6886 28.1828 17.8121 28.1797 17.8091C28.1699 17.7994 28.1741 17.7395 28.1733 17.7252C28.1686 17.6332 28.1792 17.5439 28.1808 17.4525C28.1821 17.3817 28.1749 17.5077 28.1734 17.504C28.1738 17.4828 28.1776 17.4618 28.1846 17.4418C28.1952 17.3935 28.2052 17.3454 28.2182 17.2977C28.2331 17.2431 28.2503 17.1892 28.2698 17.1359C28.277 17.116 28.2859 17.0963 28.2926 17.0762C28.3174 17.0026 28.2436 17.1651 28.2843 17.0988C28.3403 17.0074 28.3819 16.9086 28.4414 16.8184C28.4555 16.797 28.5411 16.6779 28.4956 16.7381C28.4504 16.798 28.5421 16.6844 28.5595 16.6652C28.6317 16.5851 28.7165 16.5194 28.7913 16.4427C28.8355 16.3973 28.7604 16.4651 28.756 16.4682C28.7791 16.4517 28.8018 16.4346 28.8252 16.4186C28.866 16.3905 28.9079 16.364 28.9507 16.339C28.999 16.3108 29.0536 16.2898 29.1003 16.26C29.1556 16.2247 29.0581 16.2754 29.0563 16.2765C29.0816 16.264 29.108 16.254 29.1351 16.2466C29.1807 16.2305 29.3788 16.1453 29.4204 16.1719C29.4185 16.1707 29.27 16.1838 29.39 16.1762C29.4184 16.1743 29.4467 16.1716 29.4751 16.1704C29.5326 16.168 29.5899 16.1695 29.6473 16.1724C29.8031 16.1714 29.9521 16.1093 30.0622 15.9996C30.1723 15.8899 30.2346 15.7414 30.2357 15.5862C30.2323 15.4318 30.1693 15.2846 30.0596 15.1754C29.95 15.0662 29.8023 15.0034 29.6473 15V15Z" fill="#3F3D56" />
        <path d="M37.6473 15C37.1364 14.9969 36.6359 15.1437 36.2082 15.422C35.7804 15.7004 35.4443 16.098 35.2418 16.5654C35.0153 17.0228 34.9454 17.5416 35.0428 18.0424C35.1401 18.5432 35.3994 18.9984 35.781 19.3384C36.1397 19.6425 36.5699 19.851 37.0314 19.9444C37.493 20.0379 37.9707 20.0132 38.4201 19.8727C38.8796 19.7127 39.2781 19.4148 39.5607 19.0199C39.8433 18.625 39.9961 18.1525 39.9981 17.6675C40.0186 17.1294 39.8723 16.5981 39.5791 16.1458C39.2859 15.6934 38.8599 15.3421 38.3592 15.1394C38.2088 15.0987 38.0483 15.1189 37.9127 15.1956C37.7772 15.2723 37.6775 15.3993 37.6355 15.5489C37.5984 15.6986 37.6203 15.8569 37.6968 15.991C37.7732 16.1251 37.8984 16.225 38.0464 16.27C38.149 16.3094 37.9528 16.2197 38.0485 16.2717C38.0879 16.2931 38.128 16.3124 38.1666 16.3352C38.1995 16.3546 38.231 16.3758 38.2629 16.3966C38.3727 16.468 38.2093 16.3442 38.2795 16.4084C38.3404 16.4641 38.4007 16.5184 38.456 16.5798C38.4769 16.6031 38.5589 16.6676 38.4952 16.6225C38.4465 16.588 38.4764 16.5961 38.4952 16.6238C38.5094 16.6449 38.5245 16.6653 38.5386 16.6865C38.5845 16.7557 38.6262 16.8275 38.6635 16.9016C38.6721 16.9187 38.68 16.9363 38.6888 16.9533C38.7053 16.9853 38.7292 16.9937 38.6904 16.9536C38.6534 16.9154 38.677 16.918 38.6902 16.9548C38.6989 16.979 38.7084 17.0029 38.7169 17.0272C38.7445 17.1063 38.7676 17.1868 38.7863 17.2684C38.7949 17.3062 38.8018 17.3441 38.8092 17.3821C38.8355 17.5167 38.8054 17.2984 38.8117 17.3984C38.817 17.4819 38.8232 17.5645 38.8218 17.6483C38.8211 17.6867 38.8194 17.725 38.8168 17.7632C38.8154 17.7823 38.8133 17.8014 38.812 17.8205C38.8059 17.9124 38.8057 17.7868 38.8186 17.7782C38.7917 17.8563 38.7739 17.9372 38.7655 18.0194C38.7549 18.0558 38.7424 18.0915 38.7307 18.1275C38.6898 18.2533 38.7691 18.059 38.7255 18.1449C38.6896 18.2188 38.6495 18.2905 38.6053 18.3597C38.5861 18.3887 38.5138 18.4543 38.5729 18.4087C38.6371 18.3592 38.5393 18.4444 38.5185 18.4663C38.4917 18.4945 38.4639 18.5217 38.435 18.5479C38.4166 18.5658 38.3971 18.5827 38.3767 18.5984C38.3729 18.5965 38.475 18.5305 38.42 18.5654C38.3501 18.6099 38.2839 18.6574 38.2102 18.6961C38.2016 18.7006 38.1074 18.744 38.1078 18.7456C38.1038 18.7298 38.2289 18.7017 38.143 18.7293C38.125 18.7351 38.1073 18.7422 38.0893 18.7482C38.0111 18.7744 37.9312 18.7956 37.8503 18.8116C37.8318 18.8153 37.8122 18.8172 37.7939 18.8219C37.7331 18.8375 37.852 18.8127 37.8556 18.8147C37.8106 18.8128 37.7656 18.8168 37.7217 18.8265C37.6382 18.8313 37.5546 18.8313 37.4711 18.8265C37.4518 18.8254 37.4325 18.8235 37.4132 18.8224C37.3684 18.8198 37.3355 18.7876 37.3951 18.8225C37.4412 18.8495 37.4373 18.8298 37.3966 18.8223C37.3775 18.8188 37.3583 18.8159 37.3393 18.8123C37.2566 18.7969 37.1749 18.7769 37.0945 18.7526C37.0513 18.7394 37.0088 18.7241 36.9662 18.7093C36.9476 18.7039 36.9295 18.697 36.912 18.6885C36.9118 18.6837 37.0221 18.741 36.9638 18.7098C36.8903 18.6703 36.8143 18.6372 36.7426 18.5941C36.7043 18.5711 36.6675 18.546 36.6303 18.5214C36.6139 18.5116 36.5983 18.5005 36.5837 18.4882C36.5849 18.4832 36.6749 18.5663 36.6277 18.5214C36.568 18.4647 36.5041 18.4139 36.4475 18.3535C36.4346 18.3397 36.4223 18.3253 36.4094 18.3114L36.3969 18.2972C36.365 18.2584 36.3644 18.2586 36.3952 18.2978C36.4263 18.3069 36.4249 18.341 36.3953 18.2967C36.3848 18.2809 36.3736 18.2656 36.3631 18.2498C36.3153 18.182 36.2745 18.1095 36.2415 18.0334C36.2443 18.0312 36.2924 18.1745 36.2556 18.0664C36.2487 18.0459 36.2409 18.0258 36.2341 18.0054C36.2206 17.9648 36.2087 17.9237 36.1984 17.8822C36.1882 17.8411 36.183 17.7986 36.1727 17.7577C36.1554 17.6886 36.1828 17.8121 36.1797 17.8091C36.1699 17.7994 36.1741 17.7395 36.1733 17.7252C36.1686 17.6332 36.1792 17.5439 36.1808 17.4525C36.1821 17.3817 36.1749 17.5077 36.1734 17.504C36.1738 17.4828 36.1776 17.4618 36.1846 17.4418C36.1952 17.3935 36.2052 17.3454 36.2182 17.2977C36.2331 17.2431 36.2503 17.1892 36.2697 17.1359C36.277 17.116 36.2859 17.0963 36.2926 17.0762C36.3174 17.0026 36.2436 17.1651 36.2843 17.0988C36.3403 17.0074 36.3819 16.9086 36.4414 16.8184C36.4555 16.797 36.5411 16.6779 36.4956 16.7381C36.4504 16.798 36.5421 16.6844 36.5595 16.6652C36.6317 16.5851 36.7165 16.5194 36.7913 16.4427C36.8355 16.3973 36.7604 16.4651 36.756 16.4682C36.7791 16.4517 36.8018 16.4346 36.8252 16.4186C36.866 16.3905 36.9079 16.364 36.9507 16.339C36.999 16.3108 37.0536 16.2898 37.1003 16.26C37.1556 16.2247 37.0581 16.2754 37.0563 16.2765C37.0816 16.264 37.108 16.254 37.1351 16.2466C37.1807 16.2305 37.3788 16.1453 37.4204 16.1719C37.4185 16.1707 37.27 16.1838 37.3901 16.1762C37.4184 16.1743 37.4467 16.1716 37.4751 16.1704C37.5326 16.168 37.5899 16.1695 37.6473 16.1724C37.8031 16.1714 37.9521 16.1093 38.0622 15.9996C38.1723 15.8899 38.2346 15.7414 38.2357 15.5862C38.2323 15.4318 38.1693 15.2846 38.0597 15.1754C37.95 15.0662 37.8023 15.0034 37.6473 15V15Z" fill="#3F3D56" />
        <path d="M21.0003 44.3269L21.514 63.6676L22.0277 83.0083C22.0925 85.4487 21.742 88.7774 24.2588 90.2069C25.3086 90.8032 26.5639 90.9339 27.7538 90.9664C29.3333 91.0096 30.9178 90.9776 32.4979 90.9793L52.1793 90.9999C54.7653 91.0027 57.6055 90.9285 59.4582 88.8799C61.0047 87.1699 61.443 84.7994 61.598 82.5875C61.8027 79.6681 61.7045 76.7124 61.731 73.7873L61.8194 64.0674L61.9078 54.3474C61.9346 51.3945 62.0765 48.4176 61.9449 45.4666C61.8444 43.215 61.4574 40.8106 59.9226 39.0412C58.1742 37.0256 55.4096 36.7535 52.8881 36.6741C46.3669 36.4688 39.8445 36.2954 33.3228 36.1063C31.8224 36.0627 30.3177 35.9835 28.8164 36.003C27.4813 35.9776 26.1517 36.1779 24.8856 36.5953C22.777 37.3717 21.1299 39.2342 21.2032 41.5443C21.2079 42.0281 21.3165 42.5056 21.5218 42.9453C21.7271 43.385 22.0245 43.7771 22.3946 44.096C22.9574 44.5643 23.7763 43.7666 23.2092 43.2947C21.6722 42.0159 22.4166 39.6196 23.7602 38.4846C25.7068 36.8402 28.7587 37.107 31.1324 37.1759L49.6073 37.7118C51.04 37.7533 52.4768 37.7673 53.9079 37.8502C55.1853 37.9241 56.5197 38.0874 57.6631 38.6925C59.6403 39.7387 60.4119 41.8856 60.6717 43.9618C60.9986 46.5742 60.8018 49.2698 60.778 51.8938L60.6939 61.1419L60.5275 79.4494C60.5072 81.6762 60.5422 83.9745 59.7804 86.1036C59.453 87.0913 58.8535 87.9703 58.0486 88.6429C57.0377 89.3645 55.8298 89.7707 54.5814 89.809C53.1791 89.9202 51.7607 89.8664 50.3552 89.8649L45.5548 89.8598L36.3382 89.8502L31.5379 89.8451C30.1352 89.8436 28.7223 89.892 27.3214 89.8162C26.2462 89.758 25.0463 89.5752 24.2542 88.7886C23.3667 87.9074 23.2844 86.5465 23.2437 85.3779C22.8195 73.2082 22.5959 61.0283 22.2726 48.8555L22.1523 44.3269C22.133 43.5991 20.9808 43.5963 21.0002 44.3269L21.0003 44.3269Z" fill="#3F3D56" />
        <path d="M94.0003 44.3269L94.514 63.6676L95.0277 83.0083C95.0925 85.4487 94.742 88.7774 97.2588 90.2069C98.3086 90.8032 99.5639 90.9339 100.754 90.9664C102.333 91.0096 103.918 90.9776 105.498 90.9793L125.179 90.9999C127.765 91.0027 130.606 90.9285 132.458 88.8799C134.005 87.1699 134.443 84.7994 134.598 82.5875C134.803 79.6681 134.704 76.7124 134.731 73.7873L134.819 64.0674L134.908 54.3474C134.935 51.3945 135.076 48.4176 134.945 45.4666C134.844 43.215 134.457 40.8106 132.923 39.0412C131.174 37.0256 128.41 36.7535 125.888 36.6741C119.367 36.4688 112.844 36.2954 106.323 36.1063C104.822 36.0627 103.318 35.9835 101.816 36.003C100.481 35.9776 99.1517 36.1779 97.8856 36.5953C95.777 37.3717 94.1299 39.2342 94.2032 41.5443C94.2079 42.0281 94.3165 42.5056 94.5218 42.9453C94.7271 43.385 95.0245 43.7771 95.3946 44.096C95.9574 44.5643 96.7763 43.7666 96.2092 43.2947C94.6722 42.0159 95.4166 39.6196 96.7601 38.4846C98.7068 36.8402 101.759 37.107 104.132 37.1759L122.607 37.7118C124.04 37.7533 125.477 37.7673 126.908 37.8502C128.185 37.9241 129.52 38.0874 130.663 38.6925C132.64 39.7387 133.412 41.8856 133.672 43.9618C133.999 46.5742 133.802 49.2698 133.778 51.8938L133.694 61.1419L133.527 79.4494C133.507 81.6762 133.542 83.9745 132.78 86.1036C132.453 87.0913 131.854 87.9703 131.049 88.6429C130.038 89.3645 128.83 89.7707 127.581 89.809C126.179 89.9202 124.761 89.8664 123.355 89.8649L118.555 89.8598L109.338 89.8502L104.538 89.8451C103.135 89.8436 101.722 89.892 100.321 89.8162C99.2462 89.758 98.0463 89.5752 97.2542 88.7886C96.3667 87.9074 96.2844 86.5465 96.2437 85.3779C95.8195 73.2082 95.5959 61.0283 95.2726 48.8555L95.1523 44.3269C95.133 43.5991 93.9808 43.5963 94.0002 44.3269L94.0003 44.3269Z" fill="#3F3D56" />
        <path d="M96.0478 95.8759C95.6416 95.5031 95.1417 95.2363 94.5962 95.1009C94.0506 94.9656 93.4777 94.9664 92.9325 95.1032C92.3908 95.2448 91.8888 95.4992 91.4626 95.8481C91.0365 96.197 90.6967 96.6317 90.4679 97.1208C89.3702 99.35 90.3536 101.948 91.8704 103.769C93.2798 105.46 95.5696 106.575 97.8001 105.687C98.8164 105.272 99.6703 104.563 100.241 103.66C100.812 102.757 101.072 101.706 100.983 100.655C100.702 98.1799 98.5923 96.1753 96.1152 95.5708C95.3905 95.3939 95.0813 96.4622 95.8063 96.6391C96.6674 96.838 97.4645 97.2345 98.1282 97.7941C98.792 98.3536 99.3024 99.0593 99.615 99.8498C99.8892 100.623 99.9011 101.459 99.6488 102.239C99.3966 103.02 98.8931 103.704 98.2099 104.196C94.7477 106.731 90.7876 101.884 91.1757 98.7126C91.2172 98.2446 91.3709 97.7921 91.6251 97.3899C91.8793 96.9877 92.2271 96.6466 92.6416 96.3931C93.0452 96.1666 93.5146 96.0702 93.9801 96.1182C94.4457 96.1661 94.8826 96.3559 95.2262 96.6593C95.3364 96.7574 95.4822 96.8109 95.6329 96.8085C95.7837 96.8061 95.9275 96.7479 96.0341 96.6462C96.1407 96.5446 96.2017 96.4074 96.2043 96.2637C96.2068 96.12 96.1507 95.9809 96.0478 95.8759L96.0478 95.8759Z" fill="#3F3D56" />
        <path d="M110.841 56.2477C109.426 55.8034 107.783 55.3623 106.318 55.8831C104.936 56.3743 104.175 57.577 104.026 58.8824C103.859 60.338 104.537 61.7264 105.256 62.9867C106.121 64.5027 107.013 66.0063 107.892 67.5156L110.932 72.7359C111.001 72.838 111.105 72.9169 111.227 72.961C111.349 73.0051 111.484 73.012 111.611 72.9806C111.738 72.9492 111.851 72.8813 111.932 72.7869C112.013 72.6924 112.059 72.5766 112.062 72.4566C111.89 70.7062 112.195 68.9442 112.949 67.3269C113.726 65.6923 114.996 64.3117 115.9 62.7399C116.731 61.293 117.285 59.6329 116.845 58.002C116.489 56.683 115.437 55.3996 113.922 55.0925C113.157 54.9157 112.347 54.9939 111.639 55.3131C110.931 55.6322 110.371 56.1714 110.06 56.8336C109.773 57.4965 110.946 57.784 111.229 57.1278C111.633 56.1932 113.045 55.9067 113.986 56.2644C115.213 56.7304 115.795 58.0678 115.793 59.2046C115.791 60.7587 114.919 62.1789 114.033 63.4553C113.139 64.7446 112.199 65.9915 111.605 67.4285C110.949 69.033 110.691 70.7502 110.849 72.4566L111.979 72.1773C110.005 68.7876 107.923 65.432 106.059 61.9907C105.342 60.6673 104.698 58.8824 105.796 57.5623C106.923 56.2089 109.073 56.8611 110.519 57.3149C111.259 57.547 111.576 56.4783 110.841 56.2476L110.841 56.2477Z" fill="#3F3D56" />
        <path d="M224.269 118.974H169.049C167.445 118.972 165.908 118.298 164.774 117.099C163.64 115.9 163.002 114.275 163 112.579V36.3948C163.002 34.6994 163.64 33.074 164.774 31.8751C165.908 30.6763 167.446 30.0019 169.049 30H224.269C225.873 30.0019 227.41 30.6763 228.545 31.8751C229.679 33.0739 230.317 34.6994 230.318 36.3948V112.579C230.317 114.275 229.679 115.9 228.545 117.099C227.41 118.298 225.873 118.972 224.269 118.974ZM169.049 30.5892C167.593 30.591 166.197 31.2032 165.168 32.2916C164.138 33.38 163.559 34.8556 163.557 36.3948V112.579C163.559 114.118 164.138 115.594 165.168 116.683C166.197 117.771 167.593 118.383 169.049 118.385H224.269C225.725 118.383 227.121 117.771 228.151 116.683C229.18 115.594 229.759 114.118 229.761 112.579V36.3948C229.759 34.8556 229.18 33.3799 228.151 32.2915C227.121 31.2031 225.725 30.5909 224.269 30.5892H169.049Z" fill="#58DBC3" />
        <path d="M223.99 118.68H168.771C167.241 118.678 165.774 118.035 164.692 116.891C163.61 115.747 163.002 114.197 163 112.579V36.3949C163.002 34.7776 163.61 33.227 164.692 32.0834C165.774 30.9398 167.241 30.2965 168.771 30.2947H223.99C225.52 30.2965 226.987 30.9398 228.069 32.0834C229.151 33.227 229.759 34.7776 229.761 36.3949V112.579C229.759 114.197 229.151 115.747 228.069 116.891C226.987 118.035 225.52 118.678 223.99 118.68V118.68Z" fill="#F0F0F0" />
        <path d="M169.981 128.108C175.493 128.108 179.961 123.385 179.961 117.558C179.961 111.731 175.493 107.007 169.981 107.007C164.468 107.007 160 111.731 160 117.558C160 123.385 164.468 128.108 169.981 128.108Z" fill="#58DBC3" />
        <path d="M168.619 123.049C168.447 123.049 168.277 123.006 168.122 122.925C167.968 122.843 167.834 122.725 167.731 122.579L165.008 118.741C164.921 118.618 164.857 118.478 164.821 118.329C164.785 118.179 164.777 118.024 164.797 117.871C164.818 117.719 164.867 117.572 164.941 117.439C165.015 117.307 165.114 117.191 165.23 117.098C165.347 117.006 165.48 116.939 165.621 116.9C165.762 116.862 165.909 116.854 166.053 116.876C166.198 116.897 166.336 116.949 166.462 117.028C166.587 117.106 166.697 117.21 166.784 117.333L168.566 119.844L173.141 112.589C173.305 112.331 173.559 112.152 173.847 112.092C174.135 112.032 174.434 112.094 174.679 112.267C174.923 112.439 175.093 112.707 175.151 113.011C175.209 113.316 175.151 113.632 174.988 113.891L169.543 122.526C169.444 122.682 169.312 122.811 169.156 122.902C169.001 122.993 168.827 123.043 168.65 123.048C168.64 123.049 168.629 123.049 168.619 123.049Z" fill="white" />
        <path d="M51.563 223.423H55.3862L57.2059 207.833H51.563V223.423Z" fill="#FFB6B6" />
        <path d="M49.545 230.425H52.2869L52.7763 227.689L54.0297 230.425H61.3018C61.6504 230.425 61.9899 230.308 62.2706 230.089C62.5514 229.871 62.7588 229.563 62.8626 229.211C62.9663 228.86 62.9609 228.482 62.8473 228.134C62.7336 227.785 62.5176 227.485 62.2307 227.275L56.4234 223.035V220.269L50.3152 220.654L49.545 230.425Z" fill="#2F2E41" />
        <path d="M84.3119 223.423H88.1351L89.9547 207.833H84.3119V223.423Z" fill="#FFB6B6" />
        <path d="M82.2939 230.425H85.0357L85.5251 227.689L86.7786 230.425H94.0506C94.3992 230.425 94.7387 230.308 95.0195 230.089C95.3002 229.871 95.5076 229.563 95.6114 229.211C95.7151 228.86 95.7097 228.482 95.5961 228.134C95.4824 227.785 95.2664 227.485 94.9795 227.275L89.1723 223.035V220.269L83.0641 220.654L82.2939 230.425Z" fill="#2F2E41" />
        <path d="M73.2616 140.789L53.8709 138.512C53.8709 138.512 45.2528 150.355 48.4846 160.604V172.017L50.8545 216.633L56.7795 216.974L58.5031 196.704L60.119 188.618L61.4801 157.814L68.4139 166.64L69.0603 170.056L71.2148 171.651L75.2007 177.44L83.3879 212.989L90.603 213.102C90.603 213.102 86.7275 176.206 86.2965 176.206C85.8656 176.206 75.093 151.38 75.093 151.38V150.066L74.6621 147.508C74.6621 147.508 75.7393 146.597 75.3084 146.142C74.8775 145.686 74.4466 144.32 74.4466 144.32L73.2616 140.789Z" fill="#2F2E41" />
        <path d="M66.2594 109.017L70.1376 113.572L75.5239 115.622L72.5075 134.298L73.508 139.669L74.9853 145.572C69.2931 148.901 62.5316 144.304 56.3199 142.262L50.2082 145.117L50.5313 137.259L50.6971 117.461C50.7034 116.701 50.8576 115.95 51.1499 115.255C51.4423 114.561 51.8666 113.937 52.3966 113.422C52.9265 112.908 53.5508 112.515 54.2306 112.266C54.9105 112.018 55.6314 111.92 56.3486 111.978L60.4422 108.789L66.2594 109.017Z" fill="#58DBC3" />
        <path d="M31.0785 117.372C31.1091 117.71 31.2094 118.036 31.3724 118.329C31.5354 118.621 31.757 118.873 32.0218 119.065C32.2865 119.257 32.5879 119.385 32.9047 119.441C33.2215 119.497 33.546 119.478 33.8553 119.387L38.3015 126.17L39.8132 122.191L35.3592 116.36C35.1799 115.82 34.8196 115.369 34.3468 115.092C33.8739 114.815 33.3213 114.731 32.7936 114.856C32.266 114.98 31.7999 115.305 31.4838 115.769C31.1677 116.233 31.0235 116.803 31.0785 117.372V117.372Z" fill="#FFB8B8" />
        <path d="M54.3585 112.075C54.3585 112.075 48.5712 111.804 49.2193 123.962L46.7573 129.303L41.8055 124.417L41.7831 122.862L37.5955 117.914L34.2341 121.842L36.4716 125.459L36.9029 127.478L38.2656 128.358L41.8211 134.105L43.4659 135.816C43.4659 135.816 45.5524 138.014 47.9123 137.683C48.5419 137.597 49.1548 137.406 49.7285 137.118C50.8511 136.553 51.9602 135.541 52.8927 133.826C54.847 130.285 56.599 126.623 58.1395 122.861L54.3585 112.075Z" fill="#58DBC3" />
        <path d="M79.6934 98.3495C79.605 98.6759 79.5854 99.0188 79.636 99.3541C79.6865 99.6893 79.806 100.009 79.986 100.29C80.166 100.571 80.4021 100.807 80.6777 100.981C80.9534 101.156 81.2618 101.264 81.5812 101.299L83.3747 109.33L86.1576 106.21L84.0279 99.0614C84.0473 98.4902 83.8679 97.9313 83.5236 97.4906C83.1793 97.0499 82.694 96.758 82.1597 96.6703C81.6254 96.5825 81.0793 96.705 80.6247 97.0145C80.1701 97.324 79.8388 97.799 79.6934 98.3495V98.3495Z" fill="#FFB8B8" />
        <path d="M67.377 114.54C67.377 114.54 70.437 109.34 79.5576 116.778L85.1168 117.65L84.1041 110.571L82.9033 109.672L81.4097 103.223L86.3751 102.513L87.932 106.508L89.2641 108.026L89.1804 109.712L91.6545 116.061L92.06 118.463C92.06 118.463 92.5956 121.524 91.0031 123.395C90.5796 123.895 90.0845 124.322 89.5357 124.66C88.4603 125.319 87.043 125.714 85.1778 125.557C81.3099 125.26 77.4623 124.718 73.6556 123.934L67.377 114.54Z" fill="#58DBC3" />
        <path d="M66.9451 107.118C70.5616 105.028 71.8908 100.235 69.9138 96.4116C67.9368 92.5884 63.4023 91.1834 59.7857 93.2733C56.1691 95.3632 54.84 100.157 56.817 103.98C58.794 107.803 63.3285 109.208 66.9451 107.118Z" fill="#FFB6B6" />
        <path d="M73.1847 97.4737C73.1624 97.4826 73.1429 97.4914 73.1206 97.5003C73.078 97.52 73.0343 97.5367 72.9896 97.5503C72.7047 97.66 72.4079 97.7313 72.1061 97.7625C71.9775 97.7768 71.8481 97.7837 71.7187 97.7831C71.5528 97.7833 71.3871 97.7714 71.2227 97.7477C71.0398 97.7235 70.859 97.6841 70.682 97.6299C70.598 97.6059 70.5152 97.5773 70.4339 97.5445C69.8804 97.3349 69.3804 96.9925 68.9732 96.5442C68.5661 96.0959 68.2628 95.5538 68.0873 94.9607V94.9577C68.0686 94.8997 68.0527 94.8407 68.0399 94.7809C67.9579 94.4491 67.9166 94.1075 67.9173 93.7645V93.7586C67.9172 92.9223 68.1658 92.107 68.628 91.4282C68.9067 91.0128 69.2276 90.9441 69.0488 90.4677C68.4784 88.9482 70.8299 87.7136 72.2148 88.3848C72.2649 88.3799 72.3151 88.3779 72.3653 88.3789C73.299 88.3789 73.6418 89.8373 74.1964 90.6593L74.1803 90.6648C74.0392 90.7165 73.917 90.8136 73.8306 90.9425C73.7443 91.0713 73.6983 91.2254 73.6989 91.3833C73.6995 91.5412 73.7468 91.6949 73.8341 91.8229C73.9215 91.951 74.0445 92.047 74.1859 92.0975C74.5562 92.2262 74.9304 92.3399 75.3084 92.4388C76.5522 93.9997 75.1111 98.5526 73.1847 97.4737Z" fill="#2F2E41" />
        <path d="M72.4879 101.648C72.0727 103.307 71.309 104.924 70.0465 106C68.7812 107.075 62.8366 109.615 62.3405 107.426C62.6722 108.955 62.4687 109.538 61.928 110.083C61.836 109.951 61.7385 109.824 61.6382 109.7C61.2686 109.248 60.8249 108.87 60.3283 108.584C60.3132 109.507 60.3738 110.429 60.5094 111.341C60.2867 111.557 60.0746 111.786 59.874 112.025C58.9209 108.996 56.8243 105.366 58.3551 102.615C58.9626 101.523 58.4586 101.372 57.9231 101.245C56.9883 101.023 56.4822 96.9639 56.2621 95.977C55.9889 94.7396 55.883 93.3166 56.6104 92.3031C57.3378 91.2896 59.1717 91.2513 59.5396 92.4622L60.3143 91.3544C61.3177 89.0358 63.9653 89.5072 66.3593 89.8136C68.7534 90.117 70.8631 91.9024 71.9361 94.1857C73.0063 96.469 73.1039 99.1824 72.4879 101.648Z" fill="#2F2E41" />
        <path d="M68.7381 91.0348C68.6839 92.4344 69.02 93.82 69.7046 95.0194C70.3893 96.2187 71.3923 97.1789 72.589 97.7806C73.075 98.0149 73.5004 97.2534 73.011 97.0174C71.9417 96.4926 71.0441 95.6436 70.4322 94.5784C69.8203 93.5132 69.5216 92.2798 69.5742 91.0348C69.6034 90.4664 68.7672 90.4681 68.7381 91.0348Z" fill="#FF6584" />
        <path d="M35.9236 225.115C35.7748 225.122 35.6276 225.081 35.5018 224.997C35.376 224.912 35.2777 224.789 35.2203 224.644C35.1628 224.499 35.149 224.338 35.1807 224.185C35.2123 224.031 35.2879 223.891 35.3973 223.784L35.447 223.575C35.4405 223.558 35.4339 223.542 35.4273 223.525C34.7587 221.84 30.4926 226.537 30.3082 228.121C30.227 228.821 30.2612 229.531 30.4095 230.219C29.0276 227.032 28.3101 223.569 28.3054 220.064C28.3052 219.184 28.3514 218.305 28.4439 217.431C28.5204 216.714 28.6265 216.003 28.7622 215.296C29.5029 211.463 31.0931 207.87 33.4022 204.813C34.7228 204.891 35.8802 204.678 35.992 201.973C36.0118 201.492 36.3495 201.075 36.4239 200.601C36.2979 200.618 36.1697 200.629 36.0436 200.638C36.0044 200.64 35.963 200.642 35.9238 200.644L35.909 200.645C35.7704 200.652 35.633 200.616 35.5133 200.542C35.3936 200.468 35.2967 200.359 35.2342 200.228C35.1718 200.097 35.1465 199.95 35.1614 199.804C35.1762 199.658 35.2306 199.52 35.318 199.406C35.3725 199.335 35.427 199.264 35.4815 199.194C35.5641 199.084 35.6489 198.977 35.7315 198.868C35.7411 198.858 35.7501 198.847 35.7584 198.835C35.8535 198.711 35.9486 198.588 36.0436 198.464C35.8701 198.179 35.6367 197.941 35.3616 197.767C34.4088 197.177 33.0943 197.586 32.406 198.497C31.7157 199.408 31.5855 200.686 31.8252 201.824C32.061 202.793 32.451 203.712 32.9785 204.542C32.9269 204.612 32.8731 204.68 32.8215 204.75C31.8769 206.034 31.0537 207.412 30.3635 208.866C30.5588 207.254 28.1711 201.431 27.2478 200.198C26.1386 198.717 23.8643 199.363 23.6689 201.241C23.667 201.259 23.6652 201.277 23.6634 201.295C23.8005 201.377 23.9348 201.464 24.0661 201.556C24.2311 201.672 24.359 201.839 24.433 202.034C24.5069 202.228 24.5235 202.442 24.4806 202.647C24.4377 202.852 24.3372 203.038 24.1924 203.182C24.0476 203.325 23.8651 203.419 23.669 203.451L23.6489 203.454C21.813 206.225 27.6983 213.437 29.1715 211.818C28.4781 213.895 28.0431 216.059 27.8776 218.254C27.7839 219.55 27.7894 220.851 27.8942 222.146L27.8879 222.1C27.5606 219.28 21.9454 215.088 20.3056 215.438C19.361 215.639 18.4306 215.593 18.5741 216.6C18.5764 216.616 18.5787 216.632 18.581 216.649C18.8356 216.758 19.0834 216.884 19.323 217.026C19.4602 217.108 19.5944 217.195 19.7258 217.287C19.8908 217.403 20.0187 217.57 20.0926 217.765C20.1666 217.959 20.1832 218.173 20.1403 218.378C20.0973 218.583 19.9969 218.769 19.8521 218.913C19.7072 219.056 19.5248 219.15 19.3286 219.182L19.3085 219.185C19.2941 219.187 19.2817 219.19 19.2672 219.192C18.4316 222.231 24.6288 227.137 28.3964 225.576H28.3985C28.7718 227.291 29.3128 228.96 30.0126 230.557H35.7791C35.7997 230.49 35.8183 230.42 35.837 230.352C35.3032 230.387 34.7673 230.354 34.2413 230.251C34.6692 229.697 35.097 229.137 35.5249 228.582C35.5344 228.572 35.5434 228.561 35.5517 228.549C35.7687 228.265 35.9878 227.984 36.2048 227.7L36.2049 227.699C36.2165 226.829 36.122 225.96 35.9237 225.115L35.9236 225.115ZM29.3202 211.383L29.3233 211.379L29.3202 211.387V211.383ZM28.043 223.555L27.9934 223.437C27.9954 223.352 27.9954 223.266 27.9934 223.179C27.9934 223.155 27.9892 223.131 27.9892 223.107C28.0078 223.258 28.0244 223.409 28.045 223.559L28.043 223.555Z" fill="#58DBC3" />
        <path d="M100.017 230.411H18.6042V231H100.017V230.411Z" fill="#CCCCCC" />
        <path d="M196.364 69.8602L196.357 69.8665C195.722 69.1837 194.863 68.7852 193.957 68.7537C193.052 68.7222 192.17 69.0602 191.494 69.6974C190.818 70.3347 190.399 71.2226 190.325 72.177C190.251 73.1314 190.528 74.0793 191.097 74.8243L191.09 74.8307L195.792 80.4055L201.066 75.4351C201.413 75.1088 201.695 74.7136 201.897 74.2719C202.099 73.8302 202.217 73.3507 202.244 72.8608C202.271 72.3709 202.206 71.8803 202.053 71.4169C201.901 70.9535 201.663 70.5265 201.354 70.1602C201.045 69.794 200.671 69.4957 200.253 69.2823C199.835 69.069 199.381 68.9449 198.918 68.917C198.454 68.8892 197.99 68.9581 197.552 69.12C197.114 69.2818 196.71 69.5333 196.364 69.8602L196.364 69.8602Z" fill="#58DBC3" />
        <path d="M93.0692 98.6789L94.7555 101.742C94.8139 101.831 94.8986 101.902 94.9993 101.947C95.1 101.992 95.2124 102.009 95.323 101.995C95.4336 101.982 95.5377 101.939 95.6227 101.871C95.7077 101.803 95.7699 101.714 95.802 101.614C96.2413 99.4935 97.2938 97.5266 98.8447 95.9278C99.3408 95.419 98.5332 94.6584 98.0349 95.1694C96.3428 96.8986 95.1887 99.0288 94.6977 101.329L95.7443 101.201L94.0581 98.1376C93.7202 97.5239 92.7317 98.0658 93.0692 98.6789V98.6789Z" fill="#3F3D56" />
        <path d="M112 83.3091L98.6516 94.9034C98.5764 94.9688 98.4785 95.0033 98.3782 94.9998C98.2779 94.9963 98.1827 94.9551 98.1124 94.8846C98.042 94.8142 98.0018 94.7199 98.0001 94.6212C97.9983 94.5225 98.0351 94.4268 98.1029 94.354L110.54 81L112 83.3091Z" fill="#3F3D56" />
    </g>
    <defs>
        <clipPath id="clip0_51696_6199">
            <rect width="241" height="260" fill="white" />
        </clipPath>
    </defs>
</svg>
